M48
INCH,LZ
;FILE_FORMAT=2:4
;TYPE=PLATED
;Layer: PTH_Through
;EasyEDA v6.5.50, 2025-05-29 20:10:11
;51d2a156a5c9454999fc887beed5754f,29d699c3718f4358a2dc827e738e4458,10
;Gerber Generator version 0.2
;Holesize 1 = 0.0080 inch
T01C0.0080
;Holesize 2 = 0.0120 inch
T02C0.0120
;Holesize 3 = 0.0320 inch
T03C0.0320
;Holesize 4 = 0.0360 inch
T04C0.0360
%
G05
G90
T01
X000970Y-011470
X001181Y-011457
X001378Y-011457
X001575Y-011457
X001772Y-011457
X002200Y-011700
X-002450Y-008200
X-002260Y-008320
X-002090Y-008460
X-001968Y-008622
X-001850Y-008780
X-001181Y-001496
X-000315Y-000236
X001457Y000669
X-001417Y000630
X-002087Y-007205
X000787Y-007244
X-001299Y-004843
X001299Y-004843
X000000Y-006142
X-001102Y-002402
X-000748Y-003307
X-000157Y-003071
X000905Y-002244
X002441Y-002441
X000450Y-000950
X001220Y-002126
X-000551Y-002087
X-000709Y-003858
X-002480Y-002402
X-002051Y-000621
X000157Y-001929
X-000905Y-012441
X-002520Y-010512
X002047Y-007953
X-001102Y-007441
X-000079Y000551
X000315Y000551
X000000Y000315
X000750Y-006300
X-000750Y-007200
X-000537Y-011594
X000450Y-002750
X002950Y-001200
X002700Y000200
X-000945Y000248
X000950Y000550
X-002550Y-001650
X-001550Y-002350
X-001350Y-000350
X-001480Y-002937
X000218Y-001451
X001500Y-002400
X001176Y-000325
X001810Y-012380
X002210Y-002900
X002060Y-010770
X002800Y-002720
X001310Y-002720
X002070Y000500
X002630Y-000900
X001240Y-008610
X003450Y-012450
X003450Y-011500
X003450Y-010650
X003100Y-010650
X002750Y-010650
X003100Y-011500
X003450Y-009750
X003100Y-009950
X002500Y-009650
X002750Y-009400
X003300Y-008800
X-002250Y-012850
X-001650Y-012850
X-001050Y-012850
X-002950Y-012550
X-003400Y-012550
X-002650Y-011950
X-003400Y-011550
X-000450Y-012850
X-000450Y-005200
X000050Y-005200
X-000450Y-004700
X000500Y-004700
X000050Y-004700
X000500Y-005200
X-000450Y-004150
X000050Y-004150
X000500Y-004150
X001550Y-004000
X002000Y-004000
X002000Y-003500
X001550Y-003500
X003450Y-005150
X003350Y-004300
X003350Y-003700
X002450Y-009100
X003050Y-008550
T02
X-000278Y-009446
X-000557Y-009724
X000278Y-010003
X-000000Y-010281
X000000Y-009168
X000557Y-009724
X000000Y-009724
X000278Y-009446
X-000278Y-010003
T03
X-001703Y003042G85X-001703Y002806
X-001703Y001436G85X-001703Y001121
X001703Y001436G85X001703Y001121
X001703Y003042G85X001703Y002806
T04
X-004000Y003000
X-004000Y002000
X-004000Y-009000
X-004000Y-010000
X-004000Y-011000
X-004000Y-012000
X-004000Y-013000
X004000Y-013000
X004000Y-012000
X004000Y-011000
X004000Y-010000
X004000Y-009000
X004000Y-008000
X004000Y-007000
X004000Y-006000
X004000Y-005000
X004000Y-004000
X004000Y-003000
X004000Y003000
X004000Y002000
X-004000Y-008000
X004000Y-002000
X-004000Y-007000
X-004000Y-006000
X-004000Y-005000
X-004000Y-004000
X-004000Y-003000
X-004000Y-002000
X-004000Y-001000
X-004000Y000000
X-004000Y001000
X004000Y001000
X004000Y000000
X004000Y-001000
M30
