G04 Layer: TopSilkscreenLayer*
G04 EasyEDA v6.5.50, 2025-05-29 20:10:11*
G04 51d2a156a5c9454999fc887beed5754f,29d699c3718f4358a2dc827e738e4458,10*
G04 Gerber Generator version 0.2*
G04 Scale: 100 percent, Rotated: No, Reflected: No *
G04 Dimensions in inches *
G04 leading zeros omitted , absolute positions ,3 integer and 6 decimal *
%FSLAX36Y36*%
%MOIN*%

%ADD10C,0.0080*%
%ADD11C,0.0060*%
%ADD12C,0.0100*%
%ADD13C,0.0059*%
%ADD14C,0.0079*%
%ADD15C,0.0049*%
%ADD16C,0.0060*%
%ADD17C,0.0118*%
%ADD18C,0.0171*%

%LPD*%
G36*
X-343660Y-1393360D02*
G01*
X-347140Y-1393720D01*
X-349280Y-1394139D01*
X-351420Y-1394760D01*
X-354180Y-1395800D01*
X-357020Y-1397220D01*
X-359020Y-1398460D01*
X-362120Y-1400900D01*
X-364340Y-1403120D01*
X-365820Y-1404900D01*
X-366900Y-1406399D01*
X-368080Y-1408280D01*
X-369219Y-1410580D01*
X-369980Y-1412340D01*
X-370720Y-1414560D01*
X-371300Y-1416920D01*
X-371680Y-1419100D01*
X-371780Y-1420500D01*
X-373294Y-1421940D01*
X-366079Y-1421940D01*
X-365920Y-1419880D01*
X-365620Y-1418100D01*
X-364820Y-1415120D01*
X-364140Y-1413380D01*
X-363519Y-1412040D01*
X-362360Y-1410060D01*
X-361440Y-1408720D01*
X-360379Y-1407400D01*
X-358960Y-1405860D01*
X-357200Y-1404319D01*
X-355300Y-1402980D01*
X-353100Y-1401680D01*
X-351260Y-1400840D01*
X-349500Y-1400220D01*
X-347879Y-1399760D01*
X-344780Y-1399220D01*
X-341740Y-1399100D01*
X-339680Y-1399240D01*
X-337660Y-1399540D01*
X-335620Y-1400040D01*
X-333700Y-1400700D01*
X-332080Y-1401380D01*
X-330379Y-1402280D01*
X-328540Y-1403480D01*
X-326980Y-1404680D01*
X-325460Y-1406060D01*
X-323980Y-1407700D01*
X-322420Y-1409760D01*
X-321480Y-1411360D01*
X-320460Y-1413380D01*
X-319800Y-1415080D01*
X-319260Y-1416840D01*
X-318840Y-1418760D01*
X-318600Y-1420460D01*
X-318440Y-1423040D01*
X-318540Y-1425040D01*
X-318980Y-1427920D01*
X-319720Y-1430580D01*
X-320900Y-1433440D01*
X-321800Y-1435080D01*
X-322900Y-1436780D01*
X-325220Y-1439600D01*
X-325560Y-1440320D01*
X-325720Y-1441160D01*
X-325540Y-1442200D01*
X-325000Y-1443120D01*
X-324219Y-1443740D01*
X-323300Y-1444060D01*
X-320120Y-1444340D01*
X-312800Y-1444660D01*
X-308160Y-1444500D01*
X-305060Y-1444259D01*
X-301880Y-1443899D01*
X-296640Y-1442940D01*
X-293940Y-1442240D01*
X-291180Y-1441380D01*
X-288680Y-1440440D01*
X-286300Y-1439379D01*
X-284320Y-1438340D01*
X-282180Y-1437060D01*
X-281600Y-1436879D01*
X-280400Y-1436940D01*
X-279660Y-1437300D01*
X-278840Y-1438100D01*
X-278480Y-1439000D01*
X-278440Y-1444019D01*
X-278600Y-1448360D01*
X-279120Y-1453380D01*
X-279400Y-1455240D01*
X-279860Y-1457520D01*
X-281040Y-1461860D01*
X-282460Y-1465560D01*
X-283580Y-1467940D01*
X-284520Y-1469560D01*
X-286020Y-1471840D01*
X-287200Y-1473320D01*
X-288480Y-1474700D01*
X-290020Y-1476140D01*
X-291320Y-1477160D01*
X-293900Y-1478820D01*
X-295800Y-1479780D01*
X-297600Y-1480500D01*
X-299440Y-1481100D01*
X-301960Y-1481660D01*
X-303880Y-1481960D01*
X-307640Y-1482220D01*
X-345660Y-1482160D01*
X-347440Y-1481940D01*
X-349200Y-1481560D01*
X-351040Y-1480980D01*
X-352700Y-1480300D01*
X-353920Y-1479680D01*
X-355400Y-1478800D01*
X-357700Y-1477040D01*
X-359440Y-1475320D01*
X-360660Y-1473839D01*
X-361700Y-1472280D01*
X-362600Y-1470680D01*
X-363280Y-1469120D01*
X-363980Y-1466980D01*
X-364360Y-1465280D01*
X-364620Y-1463580D01*
X-364640Y-1459520D01*
X-363980Y-1456200D01*
X-363360Y-1454280D01*
X-362680Y-1452700D01*
X-361760Y-1451020D01*
X-360800Y-1449560D01*
X-359640Y-1448080D01*
X-356780Y-1445260D01*
X-356420Y-1444520D01*
X-356240Y-1443600D01*
X-356420Y-1442680D01*
X-356880Y-1441819D01*
X-359600Y-1439280D01*
X-361000Y-1437660D01*
X-362120Y-1436120D01*
X-363280Y-1434199D01*
X-364540Y-1431399D01*
X-365120Y-1429700D01*
X-365780Y-1426819D01*
X-366000Y-1425180D01*
X-366079Y-1421940D01*
X-373294Y-1421940D01*
X-376599Y-1424540D01*
X-378500Y-1425800D01*
X-381380Y-1427300D01*
X-382720Y-1427900D01*
X-385080Y-1428700D01*
X-388820Y-1429440D01*
X-389700Y-1429900D01*
X-390420Y-1430680D01*
X-390740Y-1431540D01*
X-390820Y-1432420D01*
X-390580Y-1433380D01*
X-390460Y-1433560D01*
X-381300Y-1433560D01*
X-377840Y-1432060D01*
X-375480Y-1430740D01*
X-372760Y-1428920D01*
X-371500Y-1427980D01*
X-371400Y-1428060D01*
X-371079Y-1429740D01*
X-370160Y-1432820D01*
X-369219Y-1435160D01*
X-368060Y-1437480D01*
X-370680Y-1437180D01*
X-372460Y-1436879D01*
X-374820Y-1436320D01*
X-376520Y-1435760D01*
X-378579Y-1434960D01*
X-381300Y-1433560D01*
X-390460Y-1433560D01*
X-390120Y-1434079D01*
X-388880Y-1435260D01*
X-386940Y-1436759D01*
X-384120Y-1438620D01*
X-381320Y-1440060D01*
X-378940Y-1441020D01*
X-376520Y-1441819D01*
X-373780Y-1442500D01*
X-371200Y-1442940D01*
X-366620Y-1443320D01*
X-363740Y-1443320D01*
X-363400Y-1443660D01*
X-364900Y-1445420D01*
X-366760Y-1448140D01*
X-367760Y-1450040D01*
X-368680Y-1452060D01*
X-369540Y-1454640D01*
X-369980Y-1456500D01*
X-370240Y-1458080D01*
X-370480Y-1461440D01*
X-370360Y-1464079D01*
X-370120Y-1465860D01*
X-369760Y-1467720D01*
X-368940Y-1470440D01*
X-368180Y-1472360D01*
X-367060Y-1474580D01*
X-366040Y-1476200D01*
X-363960Y-1478940D01*
X-361340Y-1481519D01*
X-358920Y-1483400D01*
X-356420Y-1484900D01*
X-353840Y-1486120D01*
X-351480Y-1486920D01*
X-349380Y-1487460D01*
X-347660Y-1487740D01*
X-345220Y-1487980D01*
X-306460Y-1487980D01*
X-304400Y-1487820D01*
X-301960Y-1487520D01*
X-299960Y-1487160D01*
X-296200Y-1486120D01*
X-294200Y-1485380D01*
X-291880Y-1484300D01*
X-290140Y-1483300D01*
X-288300Y-1482100D01*
X-285640Y-1479960D01*
X-283900Y-1478260D01*
X-282260Y-1476420D01*
X-280820Y-1474500D01*
X-279500Y-1472440D01*
X-278460Y-1470580D01*
X-277280Y-1468160D01*
X-276320Y-1465860D01*
X-274960Y-1461720D01*
X-274300Y-1459139D01*
X-273660Y-1455900D01*
X-273220Y-1452880D01*
X-272740Y-1447180D01*
X-272720Y-1438560D01*
X-273200Y-1436699D01*
X-273680Y-1435580D01*
X-274640Y-1434120D01*
X-275760Y-1433020D01*
X-276760Y-1432300D01*
X-277940Y-1431720D01*
X-279140Y-1431320D01*
X-281280Y-1431040D01*
X-282980Y-1431260D01*
X-284240Y-1431660D01*
X-285240Y-1432160D01*
X-287340Y-1433440D01*
X-290140Y-1434800D01*
X-292360Y-1435700D01*
X-294580Y-1436440D01*
X-297640Y-1437260D01*
X-300920Y-1437920D01*
X-303480Y-1438300D01*
X-308680Y-1438779D01*
X-317120Y-1438779D01*
X-317200Y-1438680D01*
X-316160Y-1436860D01*
X-314780Y-1433860D01*
X-314100Y-1431980D01*
X-313580Y-1430180D01*
X-312960Y-1427000D01*
X-312680Y-1424079D01*
X-312780Y-1420840D01*
X-313000Y-1418779D01*
X-313360Y-1416699D01*
X-314100Y-1413959D01*
X-315220Y-1410940D01*
X-316340Y-1408720D01*
X-318180Y-1405780D01*
X-319280Y-1404340D01*
X-320660Y-1402740D01*
X-322780Y-1400680D01*
X-324280Y-1399440D01*
X-326060Y-1398160D01*
X-328940Y-1396519D01*
X-330860Y-1395640D01*
X-332860Y-1394880D01*
X-334920Y-1394280D01*
X-336980Y-1393820D01*
X-339980Y-1393400D01*
G37*
G36*
X-349860Y-1410760D02*
G01*
X-350680Y-1410980D01*
X-351380Y-1411440D01*
X-351920Y-1412040D01*
X-352299Y-1412860D01*
X-352299Y-1421720D01*
X-351840Y-1422600D01*
X-351200Y-1423240D01*
X-350300Y-1423720D01*
X-348680Y-1423720D01*
X-347800Y-1423280D01*
X-347120Y-1422580D01*
X-346800Y-1421980D01*
X-346580Y-1421140D01*
X-346580Y-1413520D01*
X-346719Y-1412740D01*
X-347100Y-1411980D01*
X-347720Y-1411339D01*
X-348320Y-1411000D01*
X-349120Y-1410760D01*
G37*
G36*
X-294500Y-1455860D02*
G01*
X-295240Y-1456060D01*
X-295860Y-1456380D01*
X-296400Y-1456840D01*
X-298560Y-1459740D01*
X-300920Y-1462100D01*
X-303020Y-1463700D01*
X-305120Y-1465040D01*
X-308300Y-1466519D01*
X-310500Y-1467220D01*
X-311120Y-1467580D01*
X-311680Y-1468160D01*
X-312020Y-1468740D01*
X-312280Y-1469700D01*
X-312180Y-1470540D01*
X-311880Y-1471360D01*
X-311060Y-1472240D01*
X-310100Y-1472700D01*
X-309040Y-1472780D01*
X-307660Y-1472400D01*
X-306020Y-1471819D01*
X-304400Y-1471120D01*
X-302360Y-1470100D01*
X-300480Y-1468980D01*
X-299080Y-1468020D01*
X-297340Y-1466639D01*
X-295820Y-1465260D01*
X-294180Y-1463500D01*
X-292880Y-1461879D01*
X-291800Y-1460360D01*
X-291420Y-1459520D01*
X-291340Y-1458300D01*
X-291600Y-1457520D01*
X-292120Y-1456740D01*
X-292840Y-1456220D01*
X-293540Y-1455960D01*
G37*
G36*
X-322180Y-1468040D02*
G01*
X-324020Y-1468120D01*
X-325180Y-1468660D01*
X-325780Y-1469340D01*
X-326180Y-1470140D01*
X-326180Y-1471780D01*
X-325700Y-1472660D01*
X-325000Y-1473340D01*
X-324180Y-1473760D01*
X-320120Y-1473760D01*
X-319240Y-1473300D01*
X-318540Y-1472580D01*
X-318120Y-1471780D01*
X-318120Y-1470140D01*
X-318460Y-1469420D01*
X-319000Y-1468760D01*
X-319780Y-1468260D01*
X-320620Y-1468040D01*
G37*
D10*
X125000Y-1420300D02*
G01*
X125000Y-1457899D01*
X125000Y-1420300D02*
G01*
X148299Y-1420300D01*
X125000Y-1438200D02*
G01*
X139299Y-1438200D01*
X125000Y-1457899D02*
G01*
X148299Y-1457899D01*
X185100Y-1425599D02*
G01*
X181500Y-1422100D01*
X176199Y-1420300D01*
X169000Y-1420300D01*
X163699Y-1422100D01*
X160100Y-1425599D01*
X160100Y-1429200D01*
X161900Y-1432800D01*
X163699Y-1434600D01*
X167199Y-1436399D01*
X178000Y-1440000D01*
X181500Y-1441700D01*
X183299Y-1443499D01*
X185100Y-1447100D01*
X185100Y-1452500D01*
X181500Y-1456100D01*
X176199Y-1457899D01*
X169000Y-1457899D01*
X163699Y-1456100D01*
X160100Y-1452500D01*
X196900Y-1420300D02*
G01*
X196900Y-1457899D01*
X196900Y-1420300D02*
G01*
X213000Y-1420300D01*
X218400Y-1422100D01*
X220199Y-1423899D01*
X221999Y-1427399D01*
X221999Y-1432800D01*
X220199Y-1436399D01*
X218400Y-1438200D01*
X213000Y-1440000D01*
X196900Y-1440000D01*
X233800Y-1420300D02*
G01*
X233800Y-1457899D01*
X233800Y-1420300D02*
G01*
X257100Y-1420300D01*
X233800Y-1438200D02*
G01*
X248099Y-1438200D01*
X233800Y-1457899D02*
G01*
X257100Y-1457899D01*
X283200Y-1420300D02*
G01*
X268899Y-1457899D01*
X283200Y-1420300D02*
G01*
X297500Y-1457899D01*
X274200Y-1445300D02*
G01*
X292100Y-1445300D01*
X336900Y-1420300D02*
G01*
X351199Y-1457899D01*
X365500Y-1420300D02*
G01*
X351199Y-1457899D01*
X377300Y-1427399D02*
G01*
X380900Y-1425599D01*
X386300Y-1420300D01*
X386300Y-1457899D01*
X14299Y-340300D02*
G01*
X0Y-377899D01*
X14299Y-340300D02*
G01*
X28600Y-377899D01*
X5399Y-365300D02*
G01*
X23299Y-365300D01*
X40399Y-352800D02*
G01*
X40399Y-377899D01*
X40399Y-360000D02*
G01*
X45799Y-354600D01*
X49400Y-352800D01*
X54800Y-352800D01*
X58299Y-354600D01*
X60100Y-360000D01*
X60100Y-377899D01*
X60100Y-360000D02*
G01*
X65500Y-354600D01*
X69099Y-352800D01*
X74400Y-352800D01*
X78000Y-354600D01*
X79800Y-360000D01*
X79800Y-377899D01*
X119200Y-340300D02*
G01*
X119200Y-377899D01*
X8899Y-432199D02*
G01*
X5399Y-434000D01*
X1799Y-437500D01*
X0Y-442899D01*
X0Y-446500D01*
X1799Y-451900D01*
X5399Y-455399D01*
X8899Y-457199D01*
X14299Y-457199D01*
X17899Y-455399D01*
X21500Y-451900D01*
X23299Y-446500D01*
X23299Y-442899D01*
X21500Y-437500D01*
X17899Y-434000D01*
X14299Y-432199D01*
X8899Y-432199D01*
X35100Y-432199D02*
G01*
X35100Y-457199D01*
X35100Y-439299D02*
G01*
X40399Y-434000D01*
X44000Y-432199D01*
X49400Y-432199D01*
X53000Y-434000D01*
X54800Y-439299D01*
X54800Y-457199D01*
X108400Y-419600D02*
G01*
X104899Y-419600D01*
X101300Y-421399D01*
X99499Y-426799D01*
X99499Y-457199D01*
X94099Y-432199D02*
G01*
X106700Y-432199D01*
X120300Y-419600D02*
G01*
X121999Y-421399D01*
X123800Y-419600D01*
X121999Y-417899D01*
X120300Y-419600D01*
X121999Y-432199D02*
G01*
X121999Y-457199D01*
X135599Y-432199D02*
G01*
X135599Y-457199D01*
X135599Y-442899D02*
G01*
X137399Y-437500D01*
X140999Y-434000D01*
X144600Y-432199D01*
X150000Y-432199D01*
X161799Y-442899D02*
G01*
X183200Y-442899D01*
X183200Y-439299D01*
X181500Y-435700D01*
X179699Y-434000D01*
X176100Y-432199D01*
X170700Y-432199D01*
X167100Y-434000D01*
X163600Y-437500D01*
X161799Y-442899D01*
X161799Y-446500D01*
X163600Y-451900D01*
X167100Y-455399D01*
X170700Y-457199D01*
X176100Y-457199D01*
X179699Y-455399D01*
X183200Y-451900D01*
X195100Y-428600D02*
G01*
X195100Y-426799D01*
X196900Y-423200D01*
X198600Y-421399D01*
X202199Y-419600D01*
X209400Y-419600D01*
X213000Y-421399D01*
X214699Y-423200D01*
X216500Y-426799D01*
X216500Y-430399D01*
X214699Y-434000D01*
X213000Y-435700D01*
X205799Y-439299D01*
X205799Y-444699D01*
X205799Y-453600D02*
G01*
X204000Y-455399D01*
X205799Y-457199D01*
X207600Y-455399D01*
X205799Y-453600D01*
X230100Y-419600D02*
G01*
X230100Y-444699D01*
X230100Y-453600D02*
G01*
X228299Y-455399D01*
X230100Y-457199D01*
X231900Y-455399D01*
X230100Y-453600D01*
D11*
X-50000Y40100D02*
G01*
X-50000Y53600D01*
X-50900Y56199D01*
X-52699Y58000D01*
X-55399Y58899D01*
X-57199Y58899D01*
X-59800Y58000D01*
X-61599Y56199D01*
X-62500Y53600D01*
X-62500Y40100D01*
X-80999Y42800D02*
G01*
X-79200Y40999D01*
X-76500Y40100D01*
X-72899Y40100D01*
X-70199Y40999D01*
X-68400Y42800D01*
X-68400Y44600D01*
X-69299Y46399D01*
X-70199Y47300D01*
X-71999Y48200D01*
X-77399Y50000D01*
X-79200Y50900D01*
X-80100Y51799D01*
X-80999Y53600D01*
X-80999Y56199D01*
X-79200Y58000D01*
X-76500Y58899D01*
X-72899Y58899D01*
X-70199Y58000D01*
X-68400Y56199D01*
X-86900Y40100D02*
G01*
X-86900Y58899D01*
X-86900Y40100D02*
G01*
X-94899Y40100D01*
X-97600Y40999D01*
X-98499Y41900D01*
X-99400Y43699D01*
X-99400Y45500D01*
X-98499Y47300D01*
X-97600Y48200D01*
X-94899Y49099D01*
X-86900Y49099D02*
G01*
X-94899Y49099D01*
X-97600Y50000D01*
X-98499Y50900D01*
X-99400Y52699D01*
X-99400Y55300D01*
X-98499Y57100D01*
X-97600Y58000D01*
X-94899Y58899D01*
X-86900Y58899D01*
X-118699Y44600D02*
G01*
X-117800Y42800D01*
X-115999Y40999D01*
X-114200Y40100D01*
X-110700Y40100D01*
X-108899Y40999D01*
X-107100Y42800D01*
X-106199Y44600D01*
X-105300Y47300D01*
X-105300Y51799D01*
X-106199Y54499D01*
X-107100Y56199D01*
X-108899Y58000D01*
X-110700Y58899D01*
X-114200Y58899D01*
X-115999Y58000D01*
X-117800Y56199D01*
X-118699Y54499D01*
X-124600Y43699D02*
G01*
X-126399Y42800D01*
X-129099Y40100D01*
X-129099Y58899D01*
X-82500Y-525100D02*
G01*
X-80700Y-523299D01*
X-79800Y-520700D01*
X-79800Y-517100D01*
X-80700Y-514400D01*
X-82500Y-512600D01*
X-84299Y-512600D01*
X-86100Y-513499D01*
X-86999Y-514400D01*
X-87899Y-516199D01*
X-89699Y-521500D01*
X-90599Y-523299D01*
X-91500Y-524200D01*
X-93299Y-525100D01*
X-95900Y-525100D01*
X-97699Y-523299D01*
X-98600Y-520700D01*
X-98600Y-517100D01*
X-97699Y-514400D01*
X-95900Y-512600D01*
X-79800Y-530999D02*
G01*
X-98600Y-535500D01*
X-79800Y-540000D02*
G01*
X-98600Y-535500D01*
X-79800Y-540000D02*
G01*
X-98600Y-544499D01*
X-79800Y-548899D02*
G01*
X-98600Y-544499D01*
X-83400Y-554800D02*
G01*
X-82500Y-556599D01*
X-79800Y-559299D01*
X-98600Y-559299D01*
X97500Y-525100D02*
G01*
X99299Y-523299D01*
X100199Y-520700D01*
X100199Y-517100D01*
X99299Y-514400D01*
X97500Y-512600D01*
X95700Y-512600D01*
X93899Y-513499D01*
X93000Y-514400D01*
X92100Y-516199D01*
X90300Y-521500D01*
X89400Y-523299D01*
X88499Y-524200D01*
X86700Y-525100D01*
X84099Y-525100D01*
X82300Y-523299D01*
X81399Y-520700D01*
X81399Y-517100D01*
X82300Y-514400D01*
X84099Y-512600D01*
X100199Y-530999D02*
G01*
X81399Y-535500D01*
X100199Y-540000D02*
G01*
X81399Y-535500D01*
X100199Y-540000D02*
G01*
X81399Y-544499D01*
X100199Y-548899D02*
G01*
X81399Y-544499D01*
X95700Y-555700D02*
G01*
X96599Y-555700D01*
X98400Y-556599D01*
X99299Y-557500D01*
X100199Y-559299D01*
X100199Y-562899D01*
X99299Y-564699D01*
X98400Y-565599D01*
X96599Y-566500D01*
X94800Y-566500D01*
X93000Y-565599D01*
X90300Y-563800D01*
X81399Y-554800D01*
X81399Y-567399D01*
X0Y369899D02*
G01*
X0Y356399D01*
X900Y353800D01*
X2699Y351999D01*
X5399Y351100D01*
X7199Y351100D01*
X9800Y351999D01*
X11599Y353800D01*
X12500Y356399D01*
X12500Y369899D01*
X30999Y369899D02*
G01*
X21999Y351100D01*
X18400Y369899D02*
G01*
X30999Y369899D01*
D10*
X-351968Y-888733D02*
G01*
X-351968Y-915032D01*
X-351968Y-888733D02*
G01*
X-340668Y-888733D01*
X-336968Y-889933D01*
X-335668Y-891233D01*
X-334468Y-893733D01*
X-334468Y-896233D01*
X-335668Y-898733D01*
X-336968Y-900032D01*
X-340668Y-901233D01*
X-351968Y-901233D02*
G01*
X-340668Y-901233D01*
X-336968Y-902532D01*
X-335668Y-903733D01*
X-334468Y-906233D01*
X-334468Y-910032D01*
X-335668Y-912532D01*
X-336968Y-913733D01*
X-340668Y-915032D01*
X-351968Y-915032D01*
X-318667Y-888733D02*
G01*
X-321167Y-889933D01*
X-323667Y-892433D01*
X-324868Y-895032D01*
X-326167Y-898733D01*
X-326167Y-905032D01*
X-324868Y-908733D01*
X-323667Y-911233D01*
X-321167Y-913733D01*
X-318667Y-915032D01*
X-313667Y-915032D01*
X-311167Y-913733D01*
X-308667Y-911233D01*
X-307368Y-908733D01*
X-306167Y-905032D01*
X-306167Y-898733D01*
X-307368Y-895032D01*
X-308667Y-892433D01*
X-311167Y-889933D01*
X-313667Y-888733D01*
X-318667Y-888733D01*
X-290367Y-888733D02*
G01*
X-292867Y-889933D01*
X-295367Y-892433D01*
X-296568Y-895032D01*
X-297867Y-898733D01*
X-297867Y-905032D01*
X-296568Y-908733D01*
X-295367Y-911233D01*
X-292867Y-913733D01*
X-290367Y-915032D01*
X-285367Y-915032D01*
X-282867Y-913733D01*
X-280268Y-911233D01*
X-279068Y-908733D01*
X-277768Y-905032D01*
X-277768Y-898733D01*
X-279068Y-895032D01*
X-280268Y-892433D01*
X-282867Y-889933D01*
X-285367Y-888733D01*
X-290367Y-888733D01*
X-260767Y-888733D02*
G01*
X-260767Y-915032D01*
X-269567Y-888733D02*
G01*
X-251968Y-888733D01*
X-354369Y-789526D02*
G01*
X-354369Y-815826D01*
X-354369Y-789526D02*
G01*
X-338069Y-789526D01*
X-354369Y-802026D02*
G01*
X-344270Y-802026D01*
X-354369Y-815826D02*
G01*
X-338069Y-815826D01*
X-329769Y-789526D02*
G01*
X-329769Y-815826D01*
X-329769Y-789526D02*
G01*
X-312269Y-815826D01*
X-312269Y-789526D02*
G01*
X-312269Y-815826D01*
X300331Y204173D02*
G01*
X299131Y206772D01*
X296631Y209272D01*
X294131Y210473D01*
X289131Y210473D01*
X286530Y209272D01*
X284030Y206772D01*
X282831Y204173D01*
X281530Y200473D01*
X281530Y194173D01*
X282831Y190473D01*
X284030Y187973D01*
X286530Y185473D01*
X289131Y184173D01*
X294131Y184173D01*
X296631Y185473D01*
X299131Y187973D01*
X300331Y190473D01*
X300331Y194173D01*
X294131Y194173D02*
G01*
X300331Y194173D01*
X308631Y210473D02*
G01*
X308631Y184173D01*
X308631Y210473D02*
G01*
X326131Y184173D01*
X326131Y210473D02*
G01*
X326131Y184173D01*
X334430Y210473D02*
G01*
X334430Y184173D01*
X334430Y210473D02*
G01*
X343231Y210473D01*
X346930Y209272D01*
X349430Y206772D01*
X350731Y204173D01*
X351930Y200473D01*
X351930Y194173D01*
X350731Y190473D01*
X349430Y187973D01*
X346930Y185473D01*
X343231Y184173D01*
X334430Y184173D01*
X251930Y310473D02*
G01*
X262031Y284173D01*
X272031Y310473D02*
G01*
X262031Y284173D01*
X280230Y310473D02*
G01*
X280230Y284173D01*
X280230Y310473D02*
G01*
X291530Y310473D01*
X295331Y309272D01*
X296530Y307973D01*
X297831Y305473D01*
X297831Y302973D01*
X296530Y300473D01*
X295331Y299173D01*
X291530Y297973D01*
X280230Y297973D02*
G01*
X291530Y297973D01*
X295331Y296673D01*
X296530Y295473D01*
X297831Y292973D01*
X297831Y289173D01*
X296530Y286673D01*
X295331Y285473D01*
X291530Y284173D01*
X280230Y284173D01*
X316131Y310473D02*
G01*
X306131Y284173D01*
X316131Y310473D02*
G01*
X326131Y284173D01*
X309830Y292973D02*
G01*
X322330Y292973D01*
X343130Y310473D02*
G01*
X343130Y284173D01*
X334430Y310473D02*
G01*
X351930Y310473D01*
X283533Y-287953D02*
G01*
X283533Y-314252D01*
X299333Y-287953D02*
G01*
X296833Y-289153D01*
X294333Y-291653D01*
X293033Y-294252D01*
X291833Y-297953D01*
X291833Y-304252D01*
X293033Y-307953D01*
X294333Y-310453D01*
X296833Y-312953D01*
X299333Y-314252D01*
X304333Y-314252D01*
X306833Y-312953D01*
X309333Y-310453D01*
X310634Y-307953D01*
X311833Y-304252D01*
X311833Y-297953D01*
X310634Y-294252D01*
X309333Y-291653D01*
X306833Y-289153D01*
X304333Y-287953D01*
X299333Y-287953D01*
X320133Y-292953D02*
G01*
X322633Y-291653D01*
X326334Y-287953D01*
X326334Y-314252D01*
X352134Y-287953D02*
G01*
X339634Y-314252D01*
X334634Y-287953D02*
G01*
X352134Y-287953D01*
X282235Y-387953D02*
G01*
X282235Y-414252D01*
X298034Y-387953D02*
G01*
X295534Y-389153D01*
X293034Y-391653D01*
X291734Y-394252D01*
X290534Y-397953D01*
X290534Y-404252D01*
X291734Y-407953D01*
X293034Y-410453D01*
X295534Y-412953D01*
X298034Y-414252D01*
X303034Y-414252D01*
X305534Y-412953D01*
X308034Y-410453D01*
X309335Y-407953D01*
X310534Y-404252D01*
X310534Y-397953D01*
X309335Y-394252D01*
X308034Y-391653D01*
X305534Y-389153D01*
X303034Y-387953D01*
X298034Y-387953D01*
X318834Y-392953D02*
G01*
X321334Y-391653D01*
X325034Y-387953D01*
X325034Y-414252D01*
X345835Y-387953D02*
G01*
X333335Y-405453D01*
X352134Y-405453D01*
X345835Y-387953D02*
G01*
X345835Y-414252D01*
X283533Y-487952D02*
G01*
X283533Y-514252D01*
X299333Y-487952D02*
G01*
X296833Y-489151D01*
X294333Y-491651D01*
X293033Y-494252D01*
X291833Y-497952D01*
X291833Y-504252D01*
X293033Y-507952D01*
X294333Y-510452D01*
X296833Y-512952D01*
X299333Y-514252D01*
X304333Y-514252D01*
X306833Y-512952D01*
X309333Y-510452D01*
X310634Y-507952D01*
X311833Y-504252D01*
X311833Y-497952D01*
X310634Y-494252D01*
X309333Y-491651D01*
X306833Y-489151D01*
X304333Y-487952D01*
X299333Y-487952D01*
X320133Y-492952D02*
G01*
X322633Y-491651D01*
X326334Y-487952D01*
X326334Y-514252D01*
X337134Y-487952D02*
G01*
X350934Y-487952D01*
X343434Y-497952D01*
X347134Y-497952D01*
X349634Y-499252D01*
X350934Y-500452D01*
X352134Y-504252D01*
X352134Y-506752D01*
X350934Y-510452D01*
X348434Y-512952D01*
X344634Y-514252D01*
X340934Y-514252D01*
X337134Y-512952D01*
X335934Y-511752D01*
X334634Y-509252D01*
X283533Y-587952D02*
G01*
X283533Y-614252D01*
X299333Y-587952D02*
G01*
X296833Y-589151D01*
X294333Y-591651D01*
X293033Y-594252D01*
X291833Y-597952D01*
X291833Y-604252D01*
X293033Y-607952D01*
X294333Y-610452D01*
X296833Y-612952D01*
X299333Y-614252D01*
X304333Y-614252D01*
X306833Y-612952D01*
X309333Y-610452D01*
X310634Y-607952D01*
X311833Y-604252D01*
X311833Y-597952D01*
X310634Y-594252D01*
X309333Y-591651D01*
X306833Y-589151D01*
X304333Y-587952D01*
X299333Y-587952D01*
X320133Y-592952D02*
G01*
X322633Y-591651D01*
X326334Y-587952D01*
X326334Y-614252D01*
X335934Y-594252D02*
G01*
X335934Y-592952D01*
X337134Y-590452D01*
X338434Y-589151D01*
X340934Y-587952D01*
X345934Y-587952D01*
X348434Y-589151D01*
X349634Y-590452D01*
X350934Y-592952D01*
X350934Y-595452D01*
X349634Y-597952D01*
X347134Y-601752D01*
X334634Y-614252D01*
X352134Y-614252D01*
X294735Y-687952D02*
G01*
X294735Y-714252D01*
X310534Y-687952D02*
G01*
X308034Y-689151D01*
X305534Y-691651D01*
X304234Y-694252D01*
X303034Y-697952D01*
X303034Y-704252D01*
X304234Y-707952D01*
X305534Y-710452D01*
X308034Y-712952D01*
X310534Y-714252D01*
X315534Y-714252D01*
X318034Y-712952D01*
X320534Y-710452D01*
X321835Y-707952D01*
X323034Y-704252D01*
X323034Y-697952D01*
X321835Y-694252D01*
X320534Y-691651D01*
X318034Y-689151D01*
X315534Y-687952D01*
X310534Y-687952D01*
X331334Y-692952D02*
G01*
X333834Y-691651D01*
X337534Y-687952D01*
X337534Y-714252D01*
X345835Y-692952D02*
G01*
X348335Y-691651D01*
X352134Y-687952D01*
X352134Y-714252D01*
X283533Y-787952D02*
G01*
X283533Y-814252D01*
X299333Y-787952D02*
G01*
X296833Y-789151D01*
X294333Y-791651D01*
X293033Y-794252D01*
X291833Y-797952D01*
X291833Y-804252D01*
X293033Y-807952D01*
X294333Y-810452D01*
X296833Y-812952D01*
X299333Y-814252D01*
X304333Y-814252D01*
X306833Y-812952D01*
X309333Y-810452D01*
X310634Y-807952D01*
X311833Y-804252D01*
X311833Y-797952D01*
X310634Y-794252D01*
X309333Y-791651D01*
X306833Y-789151D01*
X304333Y-787952D01*
X299333Y-787952D01*
X320133Y-792952D02*
G01*
X322633Y-791651D01*
X326334Y-787952D01*
X326334Y-814252D01*
X342134Y-787952D02*
G01*
X338434Y-789151D01*
X335934Y-792952D01*
X334634Y-799252D01*
X334634Y-802952D01*
X335934Y-809252D01*
X338434Y-812952D01*
X342134Y-814252D01*
X344634Y-814252D01*
X348434Y-812952D01*
X350934Y-809252D01*
X352134Y-802952D01*
X352134Y-799252D01*
X350934Y-792952D01*
X348434Y-789151D01*
X344634Y-787952D01*
X342134Y-787952D01*
X299234Y-887952D02*
G01*
X299234Y-914252D01*
X315034Y-887952D02*
G01*
X312534Y-889151D01*
X310034Y-891651D01*
X308735Y-894252D01*
X307534Y-897952D01*
X307534Y-904252D01*
X308735Y-907952D01*
X310034Y-910452D01*
X312534Y-912952D01*
X315034Y-914252D01*
X320034Y-914252D01*
X322534Y-912952D01*
X325034Y-910452D01*
X326334Y-907952D01*
X327534Y-904252D01*
X327534Y-897952D01*
X326334Y-894252D01*
X325034Y-891651D01*
X322534Y-889151D01*
X320034Y-887952D01*
X315034Y-887952D01*
X352134Y-896752D02*
G01*
X350835Y-900452D01*
X348335Y-902952D01*
X344535Y-904252D01*
X343335Y-904252D01*
X339535Y-902952D01*
X337035Y-900452D01*
X335835Y-896752D01*
X335835Y-895452D01*
X337035Y-891651D01*
X339535Y-889151D01*
X343335Y-887952D01*
X344535Y-887952D01*
X348335Y-889151D01*
X350835Y-891651D01*
X352134Y-896752D01*
X352134Y-902952D01*
X350835Y-909252D01*
X348335Y-912952D01*
X344535Y-914252D01*
X342035Y-914252D01*
X338335Y-912952D01*
X337035Y-910452D01*
X298036Y-987950D02*
G01*
X298036Y-1014250D01*
X313836Y-987950D02*
G01*
X311336Y-989151D01*
X308836Y-991651D01*
X307536Y-994250D01*
X306336Y-997950D01*
X306336Y-1004250D01*
X307536Y-1007950D01*
X308836Y-1010450D01*
X311336Y-1012950D01*
X313836Y-1014250D01*
X318836Y-1014250D01*
X321336Y-1012950D01*
X323836Y-1010450D01*
X325136Y-1007950D01*
X326336Y-1004250D01*
X326336Y-997950D01*
X325136Y-994250D01*
X323836Y-991651D01*
X321336Y-989151D01*
X318836Y-987950D01*
X313836Y-987950D01*
X340835Y-987950D02*
G01*
X337136Y-989151D01*
X335835Y-991651D01*
X335835Y-994250D01*
X337136Y-996750D01*
X339636Y-997950D01*
X344636Y-999250D01*
X348436Y-1000450D01*
X350936Y-1002950D01*
X352136Y-1005450D01*
X352136Y-1009250D01*
X350936Y-1011750D01*
X349636Y-1012950D01*
X345936Y-1014250D01*
X340835Y-1014250D01*
X337136Y-1012950D01*
X335835Y-1011750D01*
X334636Y-1009250D01*
X334636Y-1005450D01*
X335835Y-1002950D01*
X338335Y-1000450D01*
X342136Y-999250D01*
X347136Y-997950D01*
X349636Y-996750D01*
X350936Y-994250D01*
X350936Y-991651D01*
X349636Y-989151D01*
X345936Y-987950D01*
X340835Y-987950D01*
X298036Y-1087950D02*
G01*
X298036Y-1114250D01*
X313836Y-1087950D02*
G01*
X311336Y-1089151D01*
X308836Y-1091651D01*
X307536Y-1094250D01*
X306336Y-1097950D01*
X306336Y-1104250D01*
X307536Y-1107950D01*
X308836Y-1110450D01*
X311336Y-1112950D01*
X313836Y-1114250D01*
X318836Y-1114250D01*
X321336Y-1112950D01*
X323836Y-1110450D01*
X325136Y-1107950D01*
X326336Y-1104250D01*
X326336Y-1097950D01*
X325136Y-1094250D01*
X323836Y-1091651D01*
X321336Y-1089151D01*
X318836Y-1087950D01*
X313836Y-1087950D01*
X352136Y-1087950D02*
G01*
X339636Y-1114250D01*
X334636Y-1087950D02*
G01*
X352136Y-1087950D01*
X299234Y-1187950D02*
G01*
X299234Y-1214250D01*
X315034Y-1187950D02*
G01*
X312534Y-1189151D01*
X310034Y-1191651D01*
X308735Y-1194250D01*
X307534Y-1197950D01*
X307534Y-1204250D01*
X308735Y-1207950D01*
X310034Y-1210450D01*
X312534Y-1212950D01*
X315034Y-1214250D01*
X320034Y-1214250D01*
X322534Y-1212950D01*
X325034Y-1210450D01*
X326334Y-1207950D01*
X327534Y-1204250D01*
X327534Y-1197950D01*
X326334Y-1194250D01*
X325034Y-1191651D01*
X322534Y-1189151D01*
X320034Y-1187950D01*
X315034Y-1187950D01*
X350835Y-1191651D02*
G01*
X349634Y-1189151D01*
X345835Y-1187950D01*
X343335Y-1187950D01*
X339535Y-1189151D01*
X337035Y-1192950D01*
X335835Y-1199250D01*
X335835Y-1205450D01*
X337035Y-1210450D01*
X339535Y-1212950D01*
X343335Y-1214250D01*
X344535Y-1214250D01*
X348335Y-1212950D01*
X350835Y-1210450D01*
X352134Y-1206750D01*
X352134Y-1205450D01*
X350835Y-1201750D01*
X348335Y-1199250D01*
X344535Y-1197950D01*
X343335Y-1197950D01*
X339535Y-1199250D01*
X337035Y-1201750D01*
X335835Y-1205450D01*
X299212Y-1286376D02*
G01*
X299212Y-1312676D01*
X315012Y-1286376D02*
G01*
X312512Y-1287575D01*
X310012Y-1290075D01*
X308712Y-1292676D01*
X307512Y-1296376D01*
X307512Y-1302676D01*
X308712Y-1306376D01*
X310012Y-1308876D01*
X312512Y-1311376D01*
X315012Y-1312676D01*
X320012Y-1312676D01*
X322512Y-1311376D01*
X325012Y-1308876D01*
X326313Y-1306376D01*
X327512Y-1302676D01*
X327512Y-1296376D01*
X326313Y-1292676D01*
X325012Y-1290075D01*
X322512Y-1287575D01*
X320012Y-1286376D01*
X315012Y-1286376D01*
X350812Y-1286376D02*
G01*
X338312Y-1286376D01*
X337013Y-1297676D01*
X338312Y-1296376D01*
X342013Y-1295176D01*
X345812Y-1295176D01*
X349612Y-1296376D01*
X352112Y-1298876D01*
X353312Y-1302676D01*
X353312Y-1305176D01*
X352112Y-1308876D01*
X349612Y-1311376D01*
X345812Y-1312676D01*
X342013Y-1312676D01*
X338312Y-1311376D01*
X337013Y-1310176D01*
X335812Y-1307676D01*
X-351968Y-1288733D02*
G01*
X-351968Y-1315032D01*
X-336167Y-1288733D02*
G01*
X-338667Y-1289933D01*
X-341167Y-1292433D01*
X-342467Y-1295032D01*
X-343667Y-1298733D01*
X-343667Y-1305032D01*
X-342467Y-1308733D01*
X-341167Y-1311233D01*
X-338667Y-1313733D01*
X-336167Y-1315032D01*
X-331167Y-1315032D01*
X-328667Y-1313733D01*
X-326167Y-1311233D01*
X-324868Y-1308733D01*
X-323667Y-1305032D01*
X-323667Y-1298733D01*
X-324868Y-1295032D01*
X-326167Y-1292433D01*
X-328667Y-1289933D01*
X-331167Y-1288733D01*
X-336167Y-1288733D01*
X-302867Y-1288733D02*
G01*
X-315367Y-1306233D01*
X-296568Y-1306233D01*
X-302867Y-1288733D02*
G01*
X-302867Y-1315032D01*
X-351968Y-1188733D02*
G01*
X-351968Y-1215032D01*
X-336167Y-1188733D02*
G01*
X-338667Y-1189933D01*
X-341167Y-1192433D01*
X-342467Y-1195032D01*
X-343667Y-1198733D01*
X-343667Y-1205032D01*
X-342467Y-1208733D01*
X-341167Y-1211233D01*
X-338667Y-1213733D01*
X-336167Y-1215032D01*
X-331167Y-1215032D01*
X-328667Y-1213733D01*
X-326167Y-1211233D01*
X-324868Y-1208733D01*
X-323667Y-1205032D01*
X-323667Y-1198733D01*
X-324868Y-1195032D01*
X-326167Y-1192433D01*
X-328667Y-1189933D01*
X-331167Y-1188733D01*
X-336167Y-1188733D01*
X-312867Y-1188733D02*
G01*
X-299068Y-1188733D01*
X-306667Y-1198733D01*
X-302867Y-1198733D01*
X-300367Y-1200032D01*
X-299068Y-1201233D01*
X-297867Y-1205032D01*
X-297867Y-1207532D01*
X-299068Y-1211233D01*
X-301568Y-1213733D01*
X-305367Y-1215032D01*
X-309167Y-1215032D01*
X-312867Y-1213733D01*
X-314167Y-1212532D01*
X-315367Y-1210032D01*
X-351968Y-1088733D02*
G01*
X-351968Y-1115032D01*
X-336167Y-1088733D02*
G01*
X-338667Y-1089933D01*
X-341167Y-1092433D01*
X-342467Y-1095032D01*
X-343667Y-1098733D01*
X-343667Y-1105032D01*
X-342467Y-1108733D01*
X-341167Y-1111233D01*
X-338667Y-1113733D01*
X-336167Y-1115032D01*
X-331167Y-1115032D01*
X-328667Y-1113733D01*
X-326167Y-1111233D01*
X-324868Y-1108733D01*
X-323667Y-1105032D01*
X-323667Y-1098733D01*
X-324868Y-1095032D01*
X-326167Y-1092433D01*
X-328667Y-1089933D01*
X-331167Y-1088733D01*
X-336167Y-1088733D01*
X-314167Y-1095032D02*
G01*
X-314167Y-1093733D01*
X-312867Y-1091233D01*
X-311667Y-1089933D01*
X-309167Y-1088733D01*
X-304068Y-1088733D01*
X-301568Y-1089933D01*
X-300367Y-1091233D01*
X-299068Y-1093733D01*
X-299068Y-1096233D01*
X-300367Y-1098733D01*
X-302867Y-1102532D01*
X-315367Y-1115032D01*
X-297867Y-1115032D01*
X-351968Y-988733D02*
G01*
X-351968Y-1015032D01*
X-336167Y-988733D02*
G01*
X-338667Y-989933D01*
X-341167Y-992433D01*
X-342467Y-995032D01*
X-343667Y-998733D01*
X-343667Y-1005032D01*
X-342467Y-1008733D01*
X-341167Y-1011233D01*
X-338667Y-1013733D01*
X-336167Y-1015032D01*
X-331167Y-1015032D01*
X-328667Y-1013733D01*
X-326167Y-1011233D01*
X-324868Y-1008733D01*
X-323667Y-1005032D01*
X-323667Y-998733D01*
X-324868Y-995032D01*
X-326167Y-992433D01*
X-328667Y-989933D01*
X-331167Y-988733D01*
X-336167Y-988733D01*
X-315367Y-993733D02*
G01*
X-312867Y-992433D01*
X-309167Y-988733D01*
X-309167Y-1015032D01*
X-349468Y211264D02*
G01*
X-335668Y211264D01*
X-343168Y201264D01*
X-339468Y201264D01*
X-336968Y199965D01*
X-335668Y198764D01*
X-334468Y194965D01*
X-334468Y192465D01*
X-335668Y188764D01*
X-338168Y186264D01*
X-341968Y184965D01*
X-345668Y184965D01*
X-349468Y186264D01*
X-350668Y187465D01*
X-351968Y189965D01*
X-326168Y211264D02*
G01*
X-316168Y184965D01*
X-306168Y211264D02*
G01*
X-316168Y184965D01*
X-295369Y211264D02*
G01*
X-281568Y211264D01*
X-289068Y201264D01*
X-285369Y201264D01*
X-282869Y199965D01*
X-281568Y198764D01*
X-280268Y194965D01*
X-280268Y192465D01*
X-281568Y188764D01*
X-284068Y186264D01*
X-287869Y184965D01*
X-291568Y184965D01*
X-295369Y186264D01*
X-296568Y187465D01*
X-297869Y189965D01*
X-351968Y311264D02*
G01*
X-341968Y284965D01*
X-331968Y311264D02*
G01*
X-341968Y284965D01*
X-323668Y311264D02*
G01*
X-323668Y284965D01*
X-315369Y311264D02*
G01*
X-315369Y284965D01*
X-315369Y311264D02*
G01*
X-297869Y284965D01*
X-297869Y311264D02*
G01*
X-297869Y284965D01*
X283434Y-187917D02*
G01*
X283434Y-214218D01*
X299234Y-187917D02*
G01*
X296734Y-189218D01*
X294234Y-191718D01*
X293033Y-194218D01*
X291734Y-197917D01*
X291734Y-204218D01*
X293033Y-208018D01*
X294234Y-210518D01*
X296734Y-213018D01*
X299234Y-214218D01*
X304234Y-214218D01*
X306734Y-213018D01*
X309234Y-210518D01*
X310533Y-208018D01*
X311734Y-204218D01*
X311734Y-197917D01*
X310533Y-194218D01*
X309234Y-191718D01*
X306734Y-189218D01*
X304234Y-187917D01*
X299234Y-187917D01*
X320034Y-192917D02*
G01*
X322534Y-191718D01*
X326334Y-187917D01*
X326334Y-214218D01*
X340833Y-187917D02*
G01*
X337033Y-189218D01*
X335833Y-191718D01*
X335833Y-194218D01*
X337033Y-196718D01*
X339634Y-197917D01*
X344634Y-199218D01*
X348333Y-200417D01*
X350833Y-202917D01*
X352134Y-205518D01*
X352134Y-209218D01*
X350833Y-211718D01*
X349634Y-213018D01*
X345833Y-214218D01*
X340833Y-214218D01*
X337033Y-213018D01*
X335833Y-211718D01*
X334533Y-209218D01*
X334533Y-205518D01*
X335833Y-202917D01*
X338333Y-200417D01*
X342134Y-199218D01*
X347134Y-197917D01*
X349634Y-196718D01*
X350833Y-194218D01*
X350833Y-191718D01*
X349634Y-189218D01*
X345833Y-187917D01*
X340833Y-187917D01*
X284529Y-89526D02*
G01*
X284529Y-115826D01*
X300329Y-89526D02*
G01*
X297829Y-90725D01*
X295329Y-93225D01*
X294128Y-95725D01*
X292829Y-99526D01*
X292829Y-105826D01*
X294128Y-109526D01*
X295329Y-112026D01*
X297829Y-114526D01*
X300329Y-115826D01*
X305329Y-115826D01*
X307829Y-114526D01*
X310329Y-112026D01*
X311628Y-109526D01*
X312829Y-105826D01*
X312829Y-99526D01*
X311628Y-95725D01*
X310329Y-93225D01*
X307829Y-90725D01*
X305329Y-89526D01*
X300329Y-89526D01*
X321129Y-94526D02*
G01*
X323629Y-93225D01*
X327429Y-89526D01*
X327429Y-115826D01*
X351929Y-98326D02*
G01*
X350729Y-102026D01*
X348229Y-104526D01*
X344429Y-105826D01*
X343229Y-105826D01*
X339429Y-104526D01*
X336929Y-102026D01*
X335628Y-98326D01*
X335628Y-97026D01*
X336929Y-93225D01*
X339429Y-90725D01*
X343229Y-89526D01*
X344429Y-89526D01*
X348229Y-90725D01*
X350729Y-93225D01*
X351929Y-98326D01*
X351929Y-104526D01*
X350729Y-110826D01*
X348229Y-114526D01*
X344429Y-115826D01*
X341929Y-115826D01*
X338229Y-114526D01*
X336929Y-112026D01*
X271927Y10473D02*
G01*
X271927Y-15826D01*
X287728Y10473D02*
G01*
X285228Y9274D01*
X282728Y6774D01*
X281527Y4274D01*
X280228Y473D01*
X280228Y-5826D01*
X281527Y-9526D01*
X282728Y-12026D01*
X285228Y-14526D01*
X287728Y-15826D01*
X292728Y-15826D01*
X295228Y-14526D01*
X297728Y-12026D01*
X299027Y-9526D01*
X300228Y-5826D01*
X300228Y473D01*
X299027Y4274D01*
X297728Y6774D01*
X295228Y9274D01*
X292728Y10473D01*
X287728Y10473D01*
X309828Y4274D02*
G01*
X309828Y5473D01*
X311028Y7973D01*
X312328Y9274D01*
X314828Y10473D01*
X319828Y10473D01*
X322328Y9274D01*
X323528Y7973D01*
X324828Y5473D01*
X324828Y2973D01*
X323528Y473D01*
X321028Y-3326D01*
X308528Y-15826D01*
X326127Y-15826D01*
X341828Y10473D02*
G01*
X338128Y9274D01*
X335628Y5473D01*
X334328Y-826D01*
X334328Y-4526D01*
X335628Y-10826D01*
X338128Y-14526D01*
X341828Y-15826D01*
X344328Y-15826D01*
X348128Y-14526D01*
X350628Y-10826D01*
X351927Y-4526D01*
X351927Y-826D01*
X350628Y5473D01*
X348128Y9274D01*
X344328Y10473D01*
X341828Y10473D01*
X283227Y110473D02*
G01*
X283227Y84173D01*
X299027Y110473D02*
G01*
X296527Y109272D01*
X294027Y106772D01*
X292827Y104272D01*
X291527Y100473D01*
X291527Y94173D01*
X292827Y90473D01*
X294027Y87973D01*
X296527Y85473D01*
X299027Y84173D01*
X304027Y84173D01*
X306527Y85473D01*
X309027Y87973D01*
X310327Y90473D01*
X311527Y94173D01*
X311527Y100473D01*
X310327Y104272D01*
X309027Y106772D01*
X306527Y109272D01*
X304027Y110473D01*
X299027Y110473D01*
X321127Y104272D02*
G01*
X321127Y105473D01*
X322328Y107973D01*
X323627Y109272D01*
X326127Y110473D01*
X331127Y110473D01*
X333627Y109272D01*
X334828Y107973D01*
X336127Y105473D01*
X336127Y102973D01*
X334828Y100473D01*
X332328Y96673D01*
X319828Y84173D01*
X337427Y84173D01*
X345628Y105473D02*
G01*
X348128Y106772D01*
X351927Y110473D01*
X351927Y84173D01*
X-354371Y110471D02*
G01*
X-354371Y84171D01*
X-338571Y110471D02*
G01*
X-341071Y109272D01*
X-343571Y106772D01*
X-344771Y104272D01*
X-346071Y100471D01*
X-346071Y94171D01*
X-344771Y90471D01*
X-343571Y87971D01*
X-341071Y85471D01*
X-338571Y84171D01*
X-333571Y84171D01*
X-331071Y85471D01*
X-328571Y87971D01*
X-327271Y90471D01*
X-326071Y94171D01*
X-326071Y100471D01*
X-327271Y104272D01*
X-328571Y106772D01*
X-331071Y109272D01*
X-333571Y110471D01*
X-338571Y110471D01*
X-315270Y110471D02*
G01*
X-301471Y110471D01*
X-308971Y100471D01*
X-305270Y100471D01*
X-302770Y99171D01*
X-301471Y97971D01*
X-300171Y94171D01*
X-300171Y91671D01*
X-301471Y87971D01*
X-303971Y85471D01*
X-307770Y84171D01*
X-311471Y84171D01*
X-315270Y85471D01*
X-316471Y86671D01*
X-317770Y89171D01*
X-285671Y110471D02*
G01*
X-289470Y109272D01*
X-290671Y106772D01*
X-290671Y104272D01*
X-289470Y101671D01*
X-286970Y100471D01*
X-281970Y99171D01*
X-278171Y97971D01*
X-275671Y95471D01*
X-274371Y92971D01*
X-274371Y89171D01*
X-275671Y86671D01*
X-276871Y85471D01*
X-280671Y84171D01*
X-285671Y84171D01*
X-289470Y85471D01*
X-290671Y86671D01*
X-291970Y89171D01*
X-291970Y92971D01*
X-290671Y95471D01*
X-288171Y97971D01*
X-284470Y99171D01*
X-279470Y100471D01*
X-276871Y101671D01*
X-275671Y104272D01*
X-275671Y106772D01*
X-276871Y109272D01*
X-280671Y110471D01*
X-285671Y110471D01*
X-354369Y10471D02*
G01*
X-354369Y-15828D01*
X-338569Y10471D02*
G01*
X-341069Y9272D01*
X-343569Y6772D01*
X-344769Y4272D01*
X-346069Y471D01*
X-346069Y-5828D01*
X-344769Y-9528D01*
X-343569Y-12028D01*
X-341069Y-14528D01*
X-338569Y-15828D01*
X-333569Y-15828D01*
X-331069Y-14528D01*
X-328569Y-12028D01*
X-327269Y-9528D01*
X-326069Y-5828D01*
X-326069Y471D01*
X-327269Y4272D01*
X-328569Y6772D01*
X-331069Y9272D01*
X-333569Y10471D01*
X-338569Y10471D01*
X-315268Y10471D02*
G01*
X-301469Y10471D01*
X-308969Y471D01*
X-305268Y471D01*
X-302768Y-828D01*
X-301469Y-2028D01*
X-300169Y-5828D01*
X-300169Y-8328D01*
X-301469Y-12028D01*
X-303969Y-14528D01*
X-307768Y-15828D01*
X-311469Y-15828D01*
X-315268Y-14528D01*
X-316469Y-13328D01*
X-317768Y-10828D01*
X-275668Y1671D02*
G01*
X-276869Y-2028D01*
X-279468Y-4528D01*
X-283168Y-5828D01*
X-284468Y-5828D01*
X-288168Y-4528D01*
X-290668Y-2028D01*
X-291968Y1671D01*
X-291968Y2971D01*
X-290668Y6772D01*
X-288168Y9272D01*
X-284468Y10471D01*
X-283168Y10471D01*
X-279468Y9272D01*
X-276869Y6772D01*
X-275668Y1671D01*
X-275668Y-4528D01*
X-276869Y-10828D01*
X-279468Y-14528D01*
X-283168Y-15828D01*
X-285668Y-15828D01*
X-289468Y-14528D01*
X-290668Y-12028D01*
X-354369Y-89528D02*
G01*
X-354369Y-115828D01*
X-338569Y-89528D02*
G01*
X-341069Y-90727D01*
X-343569Y-93227D01*
X-344769Y-95727D01*
X-346069Y-99528D01*
X-346069Y-105828D01*
X-344769Y-109528D01*
X-343569Y-112028D01*
X-341069Y-114528D01*
X-338569Y-115828D01*
X-333569Y-115828D01*
X-331069Y-114528D01*
X-328569Y-112028D01*
X-327269Y-109528D01*
X-326069Y-105828D01*
X-326069Y-99528D01*
X-327269Y-95727D01*
X-328569Y-93227D01*
X-331069Y-90727D01*
X-333569Y-89528D01*
X-338569Y-89528D01*
X-305270Y-89528D02*
G01*
X-317770Y-107028D01*
X-298969Y-107028D01*
X-305270Y-89528D02*
G01*
X-305270Y-115828D01*
X-283170Y-89528D02*
G01*
X-286970Y-90727D01*
X-289470Y-94528D01*
X-290670Y-100828D01*
X-290670Y-104528D01*
X-289470Y-110828D01*
X-286970Y-114528D01*
X-283170Y-115828D01*
X-280670Y-115828D01*
X-276869Y-114528D01*
X-274369Y-110828D01*
X-273170Y-104528D01*
X-273170Y-100828D01*
X-274369Y-94528D01*
X-276869Y-90727D01*
X-280670Y-89528D01*
X-283170Y-89528D01*
X-354369Y-189528D02*
G01*
X-354369Y-215828D01*
X-338569Y-189528D02*
G01*
X-341069Y-190727D01*
X-343569Y-193227D01*
X-344769Y-195727D01*
X-346069Y-199528D01*
X-346069Y-205828D01*
X-344769Y-209528D01*
X-343569Y-212028D01*
X-341069Y-214528D01*
X-338569Y-215828D01*
X-333569Y-215828D01*
X-331069Y-214528D01*
X-328569Y-212028D01*
X-327269Y-209528D01*
X-326069Y-205828D01*
X-326069Y-199528D01*
X-327269Y-195727D01*
X-328569Y-193227D01*
X-331069Y-190727D01*
X-333569Y-189528D01*
X-338569Y-189528D01*
X-305268Y-189528D02*
G01*
X-317768Y-207028D01*
X-298969Y-207028D01*
X-305268Y-189528D02*
G01*
X-305268Y-215828D01*
X-290668Y-194528D02*
G01*
X-288168Y-193227D01*
X-284468Y-189528D01*
X-284468Y-215828D01*
X-354369Y-289528D02*
G01*
X-354369Y-315828D01*
X-338569Y-289528D02*
G01*
X-341069Y-290727D01*
X-343569Y-293227D01*
X-344769Y-295727D01*
X-346069Y-299528D01*
X-346069Y-305828D01*
X-344769Y-309528D01*
X-343569Y-312028D01*
X-341069Y-314528D01*
X-338569Y-315828D01*
X-333569Y-315828D01*
X-331069Y-314528D01*
X-328569Y-312028D01*
X-327269Y-309528D01*
X-326069Y-305828D01*
X-326069Y-299528D01*
X-327269Y-295727D01*
X-328569Y-293227D01*
X-331069Y-290727D01*
X-333569Y-289528D01*
X-338569Y-289528D01*
X-305270Y-289528D02*
G01*
X-317770Y-307028D01*
X-298969Y-307028D01*
X-305270Y-289528D02*
G01*
X-305270Y-315828D01*
X-289470Y-295727D02*
G01*
X-289470Y-294528D01*
X-288170Y-292028D01*
X-286970Y-290727D01*
X-284470Y-289528D01*
X-279470Y-289528D01*
X-276869Y-290727D01*
X-275670Y-292028D01*
X-274369Y-294528D01*
X-274369Y-297028D01*
X-275670Y-299528D01*
X-278170Y-303328D01*
X-290670Y-315828D01*
X-273170Y-315828D01*
X-345569Y-389502D02*
G01*
X-345569Y-415803D01*
X-354369Y-389502D02*
G01*
X-336869Y-389502D01*
X-328569Y-389502D02*
G01*
X-311069Y-415803D01*
X-311069Y-389502D02*
G01*
X-328569Y-415803D01*
X-302770Y-389502D02*
G01*
X-302770Y-415803D01*
X-302770Y-389502D02*
G01*
X-293969Y-389502D01*
X-290270Y-390803D01*
X-287770Y-393303D01*
X-286469Y-395803D01*
X-285169Y-399502D01*
X-285169Y-405803D01*
X-286469Y-409603D01*
X-287770Y-412103D01*
X-290270Y-414603D01*
X-293969Y-415803D01*
X-302770Y-415803D01*
X-269470Y-389502D02*
G01*
X-273170Y-390803D01*
X-275670Y-394502D01*
X-276970Y-400803D01*
X-276970Y-404502D01*
X-275670Y-410803D01*
X-273170Y-414603D01*
X-269470Y-415803D01*
X-266970Y-415803D01*
X-263170Y-414603D01*
X-260670Y-410803D01*
X-259369Y-404502D01*
X-259369Y-400803D01*
X-260670Y-394502D01*
X-263170Y-390803D01*
X-266970Y-389502D01*
X-269470Y-389502D01*
X-354371Y-489502D02*
G01*
X-354371Y-515803D01*
X-354371Y-489502D02*
G01*
X-343070Y-489502D01*
X-339371Y-490803D01*
X-338070Y-492002D01*
X-336871Y-494502D01*
X-336871Y-497002D01*
X-338070Y-499502D01*
X-339371Y-500803D01*
X-343070Y-502002D01*
X-354371Y-502002D01*
X-345570Y-502002D02*
G01*
X-336871Y-515803D01*
X-328571Y-489502D02*
G01*
X-311071Y-515803D01*
X-311071Y-489502D02*
G01*
X-328571Y-515803D01*
X-302770Y-489502D02*
G01*
X-302770Y-515803D01*
X-302770Y-489502D02*
G01*
X-293971Y-489502D01*
X-290270Y-490803D01*
X-287770Y-493303D01*
X-286471Y-495803D01*
X-285171Y-499502D01*
X-285171Y-505803D01*
X-286471Y-509603D01*
X-287770Y-512103D01*
X-290270Y-514603D01*
X-293971Y-515803D01*
X-302770Y-515803D01*
X-269470Y-489502D02*
G01*
X-273171Y-490803D01*
X-275671Y-494502D01*
X-276970Y-500803D01*
X-276970Y-504502D01*
X-275671Y-510803D01*
X-273171Y-514603D01*
X-269470Y-515803D01*
X-266970Y-515803D01*
X-263171Y-514603D01*
X-260671Y-510803D01*
X-259371Y-504502D01*
X-259371Y-500803D01*
X-260671Y-494502D01*
X-263171Y-490803D01*
X-266970Y-489502D01*
X-269470Y-489502D01*
X-354369Y-589528D02*
G01*
X-354369Y-615828D01*
X-338569Y-589528D02*
G01*
X-341069Y-590727D01*
X-343569Y-593227D01*
X-344769Y-595727D01*
X-346069Y-599528D01*
X-346069Y-605828D01*
X-344769Y-609528D01*
X-343569Y-612028D01*
X-341069Y-614528D01*
X-338569Y-615828D01*
X-333569Y-615828D01*
X-331069Y-614528D01*
X-328569Y-612028D01*
X-327269Y-609528D01*
X-326069Y-605828D01*
X-326069Y-599528D01*
X-327269Y-595727D01*
X-328569Y-593227D01*
X-331069Y-590727D01*
X-333569Y-589528D01*
X-338569Y-589528D01*
X-305270Y-589528D02*
G01*
X-317770Y-607028D01*
X-298969Y-607028D01*
X-305270Y-589528D02*
G01*
X-305270Y-615828D01*
X-275670Y-589528D02*
G01*
X-288170Y-589528D01*
X-289470Y-600828D01*
X-288170Y-599528D01*
X-284470Y-598328D01*
X-280670Y-598328D01*
X-276869Y-599528D01*
X-274369Y-602028D01*
X-273170Y-605828D01*
X-273170Y-608328D01*
X-274369Y-612028D01*
X-276869Y-614528D01*
X-280670Y-615828D01*
X-284470Y-615828D01*
X-288170Y-614528D01*
X-289470Y-613328D01*
X-290670Y-610828D01*
X-354371Y-689528D02*
G01*
X-354371Y-715828D01*
X-338571Y-689528D02*
G01*
X-341071Y-690727D01*
X-343571Y-693227D01*
X-344771Y-695727D01*
X-346071Y-699528D01*
X-346071Y-705828D01*
X-344771Y-709528D01*
X-343571Y-712028D01*
X-341071Y-714528D01*
X-338571Y-715828D01*
X-333571Y-715828D01*
X-331071Y-714528D01*
X-328571Y-712028D01*
X-327271Y-709528D01*
X-326071Y-705828D01*
X-326071Y-699528D01*
X-327271Y-695727D01*
X-328571Y-693227D01*
X-331071Y-690727D01*
X-333571Y-689528D01*
X-338571Y-689528D01*
X-305270Y-689528D02*
G01*
X-317770Y-707028D01*
X-298971Y-707028D01*
X-305270Y-689528D02*
G01*
X-305270Y-715828D01*
X-275671Y-693227D02*
G01*
X-276871Y-690727D01*
X-280671Y-689528D01*
X-283171Y-689528D01*
X-286970Y-690727D01*
X-289470Y-694528D01*
X-290671Y-700828D01*
X-290671Y-707028D01*
X-289470Y-712028D01*
X-286970Y-714528D01*
X-283171Y-715828D01*
X-281970Y-715828D01*
X-278171Y-714528D01*
X-275671Y-712028D01*
X-274371Y-708328D01*
X-274371Y-707028D01*
X-275671Y-703328D01*
X-278171Y-700828D01*
X-281970Y-699528D01*
X-283171Y-699528D01*
X-286970Y-700828D01*
X-289470Y-703328D01*
X-290671Y-707028D01*
D11*
X115484Y-1235817D02*
G01*
X116221Y-1233944D01*
X116354Y-1231403D01*
X115817Y-1229463D01*
X113409Y-1226786D01*
X111536Y-1226051D01*
X108993Y-1225918D01*
X107053Y-1226453D01*
X104520Y-1227525D01*
X101176Y-1230536D01*
X99771Y-1233011D01*
X99036Y-1234884D01*
X98903Y-1237426D01*
X99438Y-1239367D01*
X101846Y-1242042D01*
X103719Y-1242777D01*
X106262Y-1242910D01*
X108202Y-1242375D01*
X120102Y-1239600D02*
G01*
X121975Y-1240336D01*
X125720Y-1240461D01*
X111750Y-1253040D01*
X126927Y-1248526D02*
G01*
X127595Y-1247923D01*
X129535Y-1247388D01*
X130806Y-1247455D01*
X132680Y-1248189D01*
X135088Y-1250864D01*
X135625Y-1252804D01*
X135558Y-1254076D01*
X134823Y-1255949D01*
X133485Y-1257154D01*
X131619Y-1257622D01*
X128409Y-1258092D01*
X115765Y-1257500D01*
X124128Y-1266788D01*
X330046Y-145142D02*
G01*
X330046Y-163942D01*
X330046Y-145142D02*
G01*
X338047Y-145142D01*
X340747Y-146042D01*
X341646Y-146941D01*
X342546Y-148742D01*
X342546Y-150542D01*
X341646Y-152341D01*
X340747Y-153141D01*
X338047Y-154041D01*
X330046Y-154041D01*
X336246Y-154041D02*
G01*
X342546Y-163942D01*
X359146Y-147842D02*
G01*
X358247Y-146042D01*
X355547Y-145142D01*
X353847Y-145142D01*
X351147Y-146042D01*
X349346Y-148742D01*
X348447Y-153141D01*
X348447Y-157642D01*
X349346Y-161242D01*
X351147Y-163042D01*
X353847Y-163942D01*
X354646Y-163942D01*
X357346Y-163042D01*
X359146Y-161242D01*
X360046Y-158542D01*
X360046Y-157642D01*
X359146Y-154942D01*
X357346Y-153141D01*
X354646Y-152341D01*
X353847Y-152341D01*
X351147Y-153141D01*
X349346Y-154942D01*
X348447Y-157642D01*
X-118984Y-1104041D02*
G01*
X-109508Y-1094565D01*
X-108236Y-1092020D01*
X-108305Y-1089546D01*
X-109578Y-1086999D01*
X-110851Y-1085727D01*
X-113398Y-1084454D01*
X-115871Y-1084384D01*
X-118418Y-1085657D01*
X-127892Y-1095131D01*
X-137793Y-1081556D02*
G01*
X-138429Y-1083465D01*
X-137085Y-1085940D01*
X-135812Y-1087213D01*
X-133409Y-1088485D01*
X-130226Y-1087849D01*
X-126408Y-1085302D01*
X-123225Y-1082121D01*
X-121316Y-1078939D01*
X-121388Y-1076464D01*
X-122590Y-1073989D01*
X-123225Y-1073353D01*
X-125772Y-1072080D01*
X-128247Y-1072010D01*
X-130792Y-1073283D01*
X-131428Y-1073919D01*
X-132701Y-1076464D01*
X-132701Y-1079009D01*
X-131428Y-1081556D01*
X-130792Y-1082192D01*
X-128317Y-1083393D01*
X-125772Y-1083393D01*
X-123225Y-1082121D01*
X-121586Y-809610D02*
G01*
X-122485Y-807811D01*
X-124286Y-806010D01*
X-126086Y-805111D01*
X-129585Y-805111D01*
X-131386Y-806010D01*
X-133186Y-807811D01*
X-134086Y-809610D01*
X-134985Y-812310D01*
X-134985Y-816810D01*
X-134086Y-819411D01*
X-133186Y-821210D01*
X-131386Y-823011D01*
X-129585Y-823910D01*
X-126086Y-823910D01*
X-124286Y-823011D01*
X-122485Y-821210D01*
X-121586Y-819411D01*
X-114785Y-809610D02*
G01*
X-114785Y-808710D01*
X-113886Y-806911D01*
X-112986Y-806010D01*
X-111185Y-805111D01*
X-107586Y-805111D01*
X-105785Y-806010D01*
X-104886Y-806911D01*
X-104086Y-808710D01*
X-104086Y-810511D01*
X-104886Y-812310D01*
X-106685Y-815010D01*
X-115686Y-823910D01*
X-103186Y-823910D01*
X34960Y4902D02*
G01*
X34960Y-13897D01*
X34960Y4902D02*
G01*
X43060Y4902D01*
X45760Y4002D01*
X46660Y3103D01*
X47559Y1302D01*
X47559Y-497D01*
X46660Y-2296D01*
X45760Y-3197D01*
X43060Y-4097D01*
X34960Y-4097D01*
X41260Y-4097D02*
G01*
X47559Y-13897D01*
X64160Y4902D02*
G01*
X55259Y4902D01*
X54360Y-3197D01*
X55259Y-2296D01*
X57860Y-1397D01*
X60560Y-1397D01*
X63260Y-2296D01*
X65059Y-4097D01*
X65960Y-6797D01*
X65960Y-8596D01*
X65059Y-11197D01*
X63260Y-12997D01*
X60560Y-13897D01*
X57860Y-13897D01*
X55259Y-12997D01*
X54360Y-12096D01*
X53460Y-10396D01*
X269821Y-185025D02*
G01*
X256421Y-185025D01*
X253721Y-185925D01*
X251921Y-187725D01*
X251120Y-190324D01*
X251120Y-192125D01*
X251921Y-194825D01*
X253721Y-196624D01*
X256421Y-197525D01*
X269821Y-197525D01*
X266320Y-203425D02*
G01*
X267220Y-205225D01*
X269821Y-207925D01*
X251120Y-207925D01*
X-134699Y-43099D02*
G01*
X-134699Y-56500D01*
X-133800Y-59200D01*
X-132100Y-60999D01*
X-129400Y-61900D01*
X-127600Y-61900D01*
X-124899Y-60999D01*
X-123099Y-59200D01*
X-122199Y-56500D01*
X-122199Y-43099D01*
X-115399Y-47600D02*
G01*
X-115399Y-46700D01*
X-114499Y-44899D01*
X-113600Y-44000D01*
X-111799Y-43099D01*
X-108200Y-43099D01*
X-106500Y-44000D01*
X-105599Y-44899D01*
X-104699Y-46700D01*
X-104699Y-48499D01*
X-105599Y-50300D01*
X-107399Y-53000D01*
X-116300Y-61900D01*
X-103800Y-61900D01*
X-220023Y-464877D02*
G01*
X-220023Y-451478D01*
X-220923Y-448778D01*
X-222723Y-446977D01*
X-225324Y-446078D01*
X-227123Y-446078D01*
X-229823Y-446977D01*
X-231624Y-448778D01*
X-232523Y-451478D01*
X-232523Y-464877D01*
X-240223Y-464877D02*
G01*
X-250023Y-464877D01*
X-244724Y-457678D01*
X-247424Y-457678D01*
X-249124Y-456777D01*
X-250023Y-455877D01*
X-250923Y-453278D01*
X-250923Y-451478D01*
X-250023Y-448778D01*
X-248323Y-446977D01*
X-245623Y-446078D01*
X-242923Y-446078D01*
X-240223Y-446977D01*
X-239324Y-447878D01*
X-238423Y-449677D01*
X-216822Y-1359184D02*
G01*
X-224023Y-1377883D01*
X-216822Y-1359184D02*
G01*
X-209722Y-1377883D01*
X-221323Y-1371684D02*
G01*
X-212323Y-1371684D01*
X-203823Y-1359184D02*
G01*
X-203823Y-1377883D01*
X-203823Y-1359184D02*
G01*
X-191222Y-1377883D01*
X-191222Y-1359184D02*
G01*
X-191222Y-1377883D01*
X-179122Y-1359184D02*
G01*
X-179122Y-1377883D01*
X-185322Y-1359184D02*
G01*
X-172822Y-1359184D01*
X-166923Y-1359184D02*
G01*
X-166923Y-1377883D01*
X-166923Y-1359184D02*
G01*
X-155322Y-1359184D01*
X-166923Y-1368083D02*
G01*
X-159722Y-1368083D01*
X-166923Y-1377883D02*
G01*
X-155322Y-1377883D01*
X-149423Y-1359184D02*
G01*
X-149423Y-1377883D01*
X-149423Y-1359184D02*
G01*
X-136822Y-1377883D01*
X-136822Y-1359184D02*
G01*
X-136822Y-1377883D01*
X-130922Y-1359184D02*
G01*
X-130922Y-1377883D01*
X-130922Y-1359184D02*
G01*
X-118422Y-1377883D01*
X-118422Y-1359184D02*
G01*
X-118422Y-1377883D01*
X-105322Y-1359184D02*
G01*
X-112523Y-1377883D01*
X-105322Y-1359184D02*
G01*
X-98222Y-1377883D01*
X-109823Y-1371684D02*
G01*
X-100922Y-1371684D01*
X99908Y-224981D02*
G01*
X86408Y-224981D01*
X83708Y-225882D01*
X82008Y-227681D01*
X81109Y-230381D01*
X81109Y-232181D01*
X82008Y-234881D01*
X83708Y-236682D01*
X86408Y-237481D01*
X99908Y-237481D01*
X99908Y-254182D02*
G01*
X99908Y-245181D01*
X91808Y-244281D01*
X92708Y-245181D01*
X93609Y-247881D01*
X93609Y-250581D01*
X92708Y-253281D01*
X90909Y-255082D01*
X88209Y-255981D01*
X86408Y-255981D01*
X83708Y-255082D01*
X82008Y-253281D01*
X81109Y-250581D01*
X81109Y-247881D01*
X82008Y-245181D01*
X82908Y-244281D01*
X84609Y-243481D01*
X43389Y30378D02*
G01*
X42489Y32177D01*
X40689Y33978D01*
X38989Y34877D01*
X35389Y34877D01*
X33589Y33978D01*
X31788Y32177D01*
X30889Y30378D01*
X29989Y27678D01*
X29989Y23278D01*
X30889Y20578D01*
X31788Y18778D01*
X33589Y16977D01*
X35389Y16078D01*
X38989Y16078D01*
X40689Y16977D01*
X42489Y18778D01*
X43389Y20578D01*
X51089Y34877D02*
G01*
X60988Y34877D01*
X55588Y27678D01*
X58288Y27678D01*
X60088Y26777D01*
X60988Y25877D01*
X61889Y23278D01*
X61889Y21478D01*
X60988Y18778D01*
X59189Y16977D01*
X56489Y16078D01*
X53789Y16078D01*
X51089Y16977D01*
X50189Y17878D01*
X49288Y19677D01*
X-39583Y-258398D02*
G01*
X-37784Y-257498D01*
X-35983Y-255698D01*
X-35183Y-253899D01*
X-35183Y-250399D01*
X-35983Y-248598D01*
X-37784Y-246799D01*
X-39583Y-245898D01*
X-42283Y-244998D01*
X-46783Y-244998D01*
X-49484Y-245898D01*
X-51284Y-246799D01*
X-52984Y-248598D01*
X-53883Y-250399D01*
X-53883Y-253899D01*
X-52984Y-255698D01*
X-51284Y-257498D01*
X-49484Y-258398D01*
X-38683Y-264299D02*
G01*
X-37784Y-266098D01*
X-35183Y-268798D01*
X-53883Y-268798D01*
X-35183Y-279198D02*
G01*
X-35983Y-276498D01*
X-37784Y-275599D01*
X-39583Y-275599D01*
X-41383Y-276498D01*
X-42283Y-278299D01*
X-43184Y-281898D01*
X-44083Y-284499D01*
X-45884Y-286298D01*
X-47683Y-287199D01*
X-50383Y-287199D01*
X-52184Y-286298D01*
X-52984Y-285399D01*
X-53883Y-282799D01*
X-53883Y-279198D01*
X-52984Y-276498D01*
X-52184Y-275599D01*
X-50383Y-274699D01*
X-47683Y-274699D01*
X-45884Y-275599D01*
X-44083Y-277399D01*
X-43184Y-280099D01*
X-42283Y-283699D01*
X-41383Y-285399D01*
X-39583Y-286298D01*
X-37784Y-286298D01*
X-35983Y-285399D01*
X-35183Y-282799D01*
X-35183Y-279198D01*
X-61599Y399D02*
G01*
X-62500Y2199D01*
X-64299Y4000D01*
X-66100Y4899D01*
X-69600Y4899D01*
X-71399Y4000D01*
X-73200Y2199D01*
X-74099Y399D01*
X-75000Y-2300D01*
X-75000Y-6799D01*
X-74099Y-9499D01*
X-73200Y-11199D01*
X-71399Y-13000D01*
X-69600Y-13899D01*
X-66100Y-13899D01*
X-64299Y-13000D01*
X-62500Y-11199D01*
X-61599Y-9499D01*
X-55700Y1300D02*
G01*
X-53899Y2199D01*
X-51199Y4899D01*
X-51199Y-13899D01*
X-33699Y-1399D02*
G01*
X-34600Y-4099D01*
X-36300Y-5900D01*
X-39000Y-6799D01*
X-39899Y-6799D01*
X-42600Y-5900D01*
X-44400Y-4099D01*
X-45300Y-1399D01*
X-45300Y-500D01*
X-44400Y2199D01*
X-42600Y4000D01*
X-39899Y4899D01*
X-39000Y4899D01*
X-36300Y4000D01*
X-34600Y2199D01*
X-33699Y-1399D01*
X-33699Y-5900D01*
X-34600Y-10300D01*
X-36300Y-13000D01*
X-39000Y-13899D01*
X-40799Y-13899D01*
X-43499Y-13000D01*
X-44400Y-11199D01*
X195037Y-279882D02*
G01*
X195037Y-261082D01*
X195037Y-279882D02*
G01*
X186938Y-279882D01*
X184238Y-278982D01*
X183337Y-278083D01*
X182438Y-276282D01*
X182438Y-274483D01*
X183337Y-272683D01*
X184238Y-271783D01*
X186938Y-270882D01*
X195037Y-270882D01*
X188737Y-270882D02*
G01*
X182438Y-261082D01*
X174738Y-279882D02*
G01*
X164938Y-279882D01*
X170338Y-272683D01*
X167638Y-272683D01*
X165837Y-271783D01*
X164938Y-270882D01*
X164038Y-268182D01*
X164038Y-266482D01*
X164938Y-263782D01*
X166738Y-261983D01*
X169438Y-261082D01*
X172137Y-261082D01*
X174738Y-261983D01*
X175637Y-262883D01*
X176538Y-264683D01*
X190000Y64899D02*
G01*
X190000Y46100D01*
X190000Y64899D02*
G01*
X198099Y64899D01*
X200700Y64000D01*
X201599Y63099D01*
X202500Y61300D01*
X202500Y59499D01*
X201599Y57699D01*
X200700Y56799D01*
X198099Y55900D01*
X190000Y55900D01*
X196300Y55900D02*
G01*
X202500Y46100D01*
X208400Y61300D02*
G01*
X210199Y62199D01*
X212899Y64899D01*
X212899Y46100D01*
X229499Y62199D02*
G01*
X228699Y64000D01*
X225999Y64899D01*
X224200Y64899D01*
X221500Y64000D01*
X219699Y61300D01*
X218800Y56799D01*
X218800Y52300D01*
X219699Y48800D01*
X221500Y46999D01*
X224200Y46100D01*
X225100Y46100D01*
X227800Y46999D01*
X229499Y48800D01*
X230399Y51399D01*
X230399Y52300D01*
X229499Y55000D01*
X227800Y56799D01*
X225100Y57699D01*
X224200Y57699D01*
X221500Y56799D01*
X219699Y55000D01*
X218800Y52300D01*
X-25432Y-1216547D02*
G01*
X-27132Y-1217447D01*
X-28933Y-1219247D01*
X-29832Y-1221048D01*
X-29832Y-1224648D01*
X-28933Y-1226448D01*
X-27132Y-1228247D01*
X-25432Y-1229148D01*
X-22732Y-1230048D01*
X-18233Y-1230048D01*
X-15533Y-1229148D01*
X-13733Y-1228247D01*
X-11932Y-1226448D01*
X-11033Y-1224648D01*
X-11033Y-1221048D01*
X-11932Y-1219247D01*
X-13733Y-1217447D01*
X-15533Y-1216547D01*
X-26332Y-1210648D02*
G01*
X-27132Y-1208847D01*
X-29832Y-1206248D01*
X-11033Y-1206248D01*
X35351Y-118458D02*
G01*
X37152Y-117559D01*
X38951Y-115758D01*
X39852Y-113958D01*
X39852Y-110358D01*
X38951Y-108559D01*
X37152Y-106759D01*
X35351Y-105859D01*
X32752Y-104958D01*
X28252Y-104958D01*
X25551Y-105859D01*
X23751Y-106759D01*
X21952Y-108559D01*
X21051Y-110358D01*
X21051Y-113958D01*
X21952Y-115758D01*
X23751Y-117559D01*
X25551Y-118458D01*
X39852Y-133258D02*
G01*
X27352Y-124358D01*
X27352Y-137759D01*
X39852Y-133258D02*
G01*
X21051Y-133258D01*
X23386Y-594589D02*
G01*
X22487Y-592790D01*
X20787Y-590990D01*
X18987Y-590090D01*
X15387Y-590090D01*
X13587Y-590990D01*
X11786Y-592790D01*
X10886Y-594589D01*
X9987Y-597289D01*
X9987Y-601790D01*
X10886Y-604490D01*
X11786Y-606289D01*
X13587Y-607989D01*
X15387Y-608890D01*
X18987Y-608890D01*
X20787Y-607989D01*
X22487Y-606289D01*
X23386Y-604490D01*
X40086Y-590090D02*
G01*
X31087Y-590090D01*
X30187Y-598189D01*
X31087Y-597289D01*
X33787Y-596390D01*
X36487Y-596390D01*
X39187Y-597289D01*
X40987Y-599090D01*
X41887Y-601790D01*
X41887Y-603589D01*
X40987Y-606289D01*
X39187Y-607989D01*
X36487Y-608890D01*
X33787Y-608890D01*
X31087Y-607989D01*
X30187Y-607089D01*
X29286Y-605390D01*
X-26568Y-594589D02*
G01*
X-27469Y-592790D01*
X-29268Y-590990D01*
X-31069Y-590090D01*
X-34668Y-590090D01*
X-36469Y-590990D01*
X-38168Y-592790D01*
X-39068Y-594589D01*
X-39969Y-597289D01*
X-39969Y-601790D01*
X-39068Y-604490D01*
X-38168Y-606289D01*
X-36469Y-607989D01*
X-34668Y-608890D01*
X-31069Y-608890D01*
X-29268Y-607989D01*
X-27469Y-606289D01*
X-26568Y-604490D01*
X-9969Y-592790D02*
G01*
X-10868Y-590990D01*
X-13469Y-590090D01*
X-15268Y-590090D01*
X-17968Y-590990D01*
X-19769Y-593690D01*
X-20668Y-598189D01*
X-20668Y-602689D01*
X-19769Y-606289D01*
X-17968Y-607989D01*
X-15268Y-608890D01*
X-14369Y-608890D01*
X-11768Y-607989D01*
X-9969Y-606289D01*
X-9068Y-603589D01*
X-9068Y-602689D01*
X-9969Y-599989D01*
X-11768Y-598189D01*
X-14369Y-597289D01*
X-15268Y-597289D01*
X-17968Y-598189D01*
X-19769Y-599989D01*
X-20668Y-602689D01*
X-236613Y-1009583D02*
G01*
X-237512Y-1007784D01*
X-239212Y-1005983D01*
X-241012Y-1005183D01*
X-244612Y-1005183D01*
X-246412Y-1005983D01*
X-248213Y-1007784D01*
X-249113Y-1009583D01*
X-250012Y-1012283D01*
X-250012Y-1016783D01*
X-249113Y-1019484D01*
X-248213Y-1021284D01*
X-246412Y-1022984D01*
X-244612Y-1023883D01*
X-241012Y-1023883D01*
X-239212Y-1022984D01*
X-237512Y-1021284D01*
X-236613Y-1019484D01*
X-218112Y-1005183D02*
G01*
X-227112Y-1023883D01*
X-230713Y-1005183D02*
G01*
X-218112Y-1005183D01*
X35399Y-298400D02*
G01*
X37199Y-297500D01*
X39000Y-295700D01*
X39899Y-293899D01*
X39899Y-290399D01*
X39000Y-288600D01*
X37199Y-286799D01*
X35399Y-285900D01*
X32699Y-285000D01*
X28200Y-285000D01*
X25500Y-285900D01*
X23800Y-286799D01*
X21999Y-288600D01*
X21100Y-290399D01*
X21100Y-293899D01*
X21999Y-295700D01*
X23800Y-297500D01*
X25500Y-298400D01*
X39899Y-308800D02*
G01*
X39000Y-306100D01*
X37199Y-305199D01*
X35399Y-305199D01*
X33600Y-306100D01*
X32699Y-307899D01*
X31799Y-311500D01*
X30900Y-314200D01*
X29099Y-315999D01*
X27300Y-316900D01*
X24699Y-316900D01*
X22899Y-315999D01*
X21999Y-315100D01*
X21100Y-312399D01*
X21100Y-308800D01*
X21999Y-306100D01*
X22899Y-305199D01*
X24699Y-304299D01*
X27300Y-304299D01*
X29099Y-305199D01*
X30900Y-306999D01*
X31799Y-309699D01*
X32699Y-313299D01*
X33600Y-315100D01*
X35399Y-315999D01*
X37199Y-315999D01*
X39000Y-315100D01*
X39899Y-312399D01*
X39899Y-308800D01*
X-265376Y-216590D02*
G01*
X-267175Y-217491D01*
X-268975Y-219290D01*
X-269875Y-221091D01*
X-269875Y-224591D01*
X-268975Y-226390D01*
X-267175Y-228191D01*
X-265376Y-229090D01*
X-262676Y-229991D01*
X-258276Y-229991D01*
X-255576Y-229090D01*
X-253775Y-228191D01*
X-251975Y-226390D01*
X-251075Y-224591D01*
X-251075Y-221091D01*
X-251975Y-219290D01*
X-253775Y-217491D01*
X-255576Y-216590D01*
X-263575Y-198991D02*
G01*
X-260875Y-199890D01*
X-259176Y-201691D01*
X-258276Y-204391D01*
X-258276Y-205291D01*
X-259176Y-207991D01*
X-260875Y-209791D01*
X-263575Y-210691D01*
X-264475Y-210691D01*
X-267175Y-209791D01*
X-268975Y-207991D01*
X-269875Y-205291D01*
X-269875Y-204391D01*
X-268975Y-201691D01*
X-267175Y-199890D01*
X-263575Y-198991D01*
X-259176Y-198991D01*
X-254675Y-199890D01*
X-251975Y-201691D01*
X-251075Y-204391D01*
X-251075Y-206190D01*
X-251975Y-208890D01*
X-253775Y-209791D01*
X-151370Y-1164625D02*
G01*
X-153279Y-1163989D01*
X-155824Y-1163989D01*
X-157734Y-1164625D01*
X-160279Y-1167170D01*
X-160916Y-1169079D01*
X-160846Y-1171554D01*
X-160208Y-1173463D01*
X-158935Y-1176010D01*
X-155824Y-1179121D01*
X-153279Y-1180394D01*
X-151370Y-1181030D01*
X-148895Y-1181100D01*
X-146986Y-1180464D01*
X-144441Y-1177919D01*
X-143804Y-1176010D01*
X-143804Y-1173463D01*
X-144441Y-1171554D01*
X-147835Y-1159816D02*
G01*
X-147197Y-1157908D01*
X-147197Y-1154090D01*
X-133904Y-1167382D01*
X-139279Y-1146170D02*
G01*
X-140480Y-1148645D01*
X-139845Y-1151826D01*
X-137298Y-1155644D01*
X-135459Y-1157483D01*
X-131642Y-1160028D01*
X-128460Y-1160666D01*
X-125985Y-1159463D01*
X-124711Y-1158191D01*
X-123440Y-1155644D01*
X-124076Y-1152462D01*
X-126622Y-1148645D01*
X-128460Y-1146806D01*
X-132278Y-1144261D01*
X-135459Y-1143623D01*
X-138006Y-1144897D01*
X-139279Y-1146170D01*
X240506Y-1195407D02*
G01*
X241208Y-1193521D01*
X241298Y-1190976D01*
X240729Y-1189047D01*
X238274Y-1186413D01*
X236388Y-1185711D01*
X233912Y-1185695D01*
X231981Y-1186264D01*
X229393Y-1187447D01*
X226102Y-1190516D01*
X224740Y-1193016D01*
X224112Y-1194834D01*
X223955Y-1197305D01*
X224524Y-1199236D01*
X226979Y-1201869D01*
X228865Y-1202570D01*
X231408Y-1202660D01*
X233265Y-1202159D01*
X245189Y-1199108D02*
G01*
X247074Y-1199810D01*
X250891Y-1199944D01*
X237141Y-1212766D01*
X252282Y-1206714D02*
G01*
X254167Y-1207417D01*
X257914Y-1207476D01*
X244166Y-1220299D01*
X103589Y-819605D02*
G01*
X101680Y-818969D01*
X99135Y-818969D01*
X97296Y-819677D01*
X94749Y-822222D01*
X94113Y-823989D01*
X94113Y-826536D01*
X94749Y-828445D01*
X96023Y-830990D01*
X99205Y-834173D01*
X101750Y-835446D01*
X103659Y-836082D01*
X106134Y-836010D01*
X107973Y-835446D01*
X110518Y-832899D01*
X111154Y-830990D01*
X111226Y-828515D01*
X110590Y-826606D01*
X107125Y-814798D02*
G01*
X107761Y-812889D01*
X107831Y-809140D01*
X121055Y-822363D01*
X113276Y-803695D02*
G01*
X120205Y-796766D01*
X121408Y-805605D01*
X123317Y-803695D01*
X125226Y-803060D01*
X126500Y-803060D01*
X129045Y-804333D01*
X130318Y-805605D01*
X131590Y-808150D01*
X131520Y-810626D01*
X130246Y-813171D01*
X128409Y-815010D01*
X125862Y-816282D01*
X124661Y-816354D01*
X122752Y-815716D01*
X-48587Y-1245374D02*
G01*
X-46678Y-1246010D01*
X-44131Y-1246010D01*
X-42222Y-1245374D01*
X-39747Y-1242899D01*
X-39112Y-1240990D01*
X-39112Y-1238445D01*
X-39747Y-1236536D01*
X-41021Y-1233989D01*
X-44203Y-1230808D01*
X-46748Y-1229535D01*
X-48587Y-1228969D01*
X-51132Y-1228969D01*
X-53042Y-1229605D01*
X-55516Y-1232080D01*
X-56152Y-1233989D01*
X-56152Y-1236536D01*
X-55587Y-1238373D01*
X-52123Y-1250183D02*
G01*
X-52759Y-1252091D01*
X-52759Y-1255909D01*
X-66053Y-1242617D01*
X-63224Y-1266376D02*
G01*
X-65841Y-1251172D01*
X-75315Y-1260648D01*
X-63224Y-1266376D02*
G01*
X-76518Y-1253081D01*
X330046Y-45151D02*
G01*
X330046Y-63951D01*
X330046Y-45151D02*
G01*
X338047Y-45151D01*
X340747Y-46051D01*
X341646Y-46950D01*
X342546Y-48751D01*
X342546Y-50551D01*
X341646Y-52251D01*
X340747Y-53150D01*
X338047Y-54050D01*
X330046Y-54050D01*
X336246Y-54050D02*
G01*
X342546Y-63951D01*
X357346Y-45151D02*
G01*
X348447Y-57651D01*
X361846Y-57651D01*
X357346Y-45151D02*
G01*
X357346Y-63951D01*
X110000Y-209899D02*
G01*
X110000Y-191100D01*
X110000Y-209899D02*
G01*
X101900Y-209899D01*
X99299Y-209000D01*
X98400Y-208099D01*
X97500Y-206300D01*
X97500Y-204499D01*
X98400Y-202699D01*
X99299Y-201799D01*
X101900Y-200900D01*
X110000Y-200900D01*
X103699Y-200900D02*
G01*
X97500Y-191100D01*
X79000Y-209899D02*
G01*
X88000Y-191100D01*
X91599Y-209899D02*
G01*
X79000Y-209899D01*
X-40174Y-374972D02*
G01*
X-58973Y-374972D01*
X-40174Y-374972D02*
G01*
X-40174Y-383072D01*
X-41073Y-385772D01*
X-41974Y-386673D01*
X-43674Y-387573D01*
X-45473Y-387573D01*
X-47274Y-386673D01*
X-48173Y-385772D01*
X-49074Y-383072D01*
X-49074Y-374972D01*
X-49074Y-381273D02*
G01*
X-58973Y-387573D01*
X-40174Y-397872D02*
G01*
X-41073Y-395172D01*
X-42773Y-394373D01*
X-44573Y-394373D01*
X-46374Y-395172D01*
X-47274Y-396972D01*
X-48173Y-400572D01*
X-49074Y-403272D01*
X-50873Y-405073D01*
X-52674Y-405972D01*
X-55374Y-405972D01*
X-57173Y-405073D01*
X-58074Y-404173D01*
X-58973Y-401473D01*
X-58973Y-397872D01*
X-58074Y-395172D01*
X-57173Y-394373D01*
X-55374Y-393472D01*
X-52674Y-393472D01*
X-50873Y-394373D01*
X-49074Y-396073D01*
X-48173Y-398773D01*
X-47274Y-402372D01*
X-46374Y-404173D01*
X-44573Y-405073D01*
X-42773Y-405073D01*
X-41073Y-404173D01*
X-40174Y-401473D01*
X-40174Y-397872D01*
X-180000Y4899D02*
G01*
X-180000Y-13899D01*
X-180000Y4899D02*
G01*
X-171900Y4899D01*
X-169299Y4000D01*
X-168400Y3099D01*
X-167500Y1300D01*
X-167500Y-500D01*
X-168400Y-2300D01*
X-169299Y-3200D01*
X-171900Y-4099D01*
X-180000Y-4099D01*
X-173699Y-4099D02*
G01*
X-167500Y-13899D01*
X-149899Y-1399D02*
G01*
X-150799Y-4099D01*
X-152600Y-5900D01*
X-155300Y-6799D01*
X-156199Y-6799D01*
X-158899Y-5900D01*
X-160700Y-4099D01*
X-161599Y-1399D01*
X-161599Y-500D01*
X-160700Y2199D01*
X-158899Y4000D01*
X-156199Y4899D01*
X-155300Y4899D01*
X-152600Y4000D01*
X-150799Y2199D01*
X-149899Y-1399D01*
X-149899Y-5900D01*
X-150799Y-10300D01*
X-152600Y-13000D01*
X-155300Y-13899D01*
X-157100Y-13899D01*
X-159800Y-13000D01*
X-160700Y-11199D01*
X39899Y-20000D02*
G01*
X21100Y-20000D01*
X39899Y-20000D02*
G01*
X39899Y-28099D01*
X39000Y-30700D01*
X38099Y-31599D01*
X36300Y-32500D01*
X34499Y-32500D01*
X32699Y-31599D01*
X31799Y-30700D01*
X30900Y-28099D01*
X30900Y-20000D01*
X30900Y-26300D02*
G01*
X21100Y-32500D01*
X36300Y-38400D02*
G01*
X37199Y-40199D01*
X39899Y-42899D01*
X21100Y-42899D01*
X39899Y-54200D02*
G01*
X39000Y-51500D01*
X36300Y-49699D01*
X31799Y-48800D01*
X29099Y-48800D01*
X24699Y-49699D01*
X21999Y-51500D01*
X21100Y-54200D01*
X21100Y-55999D01*
X21999Y-58699D01*
X24699Y-60399D01*
X29099Y-61300D01*
X31799Y-61300D01*
X36300Y-60399D01*
X39000Y-58699D01*
X39899Y-55999D01*
X39899Y-54200D01*
X59969Y-600178D02*
G01*
X59969Y-618879D01*
X59969Y-600178D02*
G01*
X68069Y-600178D01*
X70769Y-601078D01*
X71669Y-601878D01*
X72568Y-603679D01*
X72568Y-605479D01*
X71669Y-607278D01*
X70769Y-608179D01*
X68069Y-609079D01*
X59969Y-609079D01*
X66269Y-609079D02*
G01*
X72568Y-618879D01*
X78469Y-603679D02*
G01*
X80268Y-602779D01*
X82869Y-600178D01*
X82869Y-618879D01*
X88769Y-603679D02*
G01*
X90569Y-602779D01*
X93269Y-600178D01*
X93269Y-618879D01*
X-269825Y-79990D02*
G01*
X-251024Y-79990D01*
X-269825Y-79990D02*
G01*
X-269825Y-71990D01*
X-268924Y-69290D01*
X-268024Y-68391D01*
X-266325Y-67490D01*
X-264524Y-67490D01*
X-262725Y-68391D01*
X-261824Y-69290D01*
X-260925Y-71990D01*
X-260925Y-79990D01*
X-260925Y-73690D02*
G01*
X-251024Y-67490D01*
X-266325Y-61590D02*
G01*
X-267224Y-59791D01*
X-269825Y-57091D01*
X-251024Y-57091D01*
X-265425Y-50291D02*
G01*
X-266325Y-50291D01*
X-268024Y-49391D01*
X-268924Y-48490D01*
X-269825Y-46691D01*
X-269825Y-43090D01*
X-268924Y-41390D01*
X-268024Y-40491D01*
X-266325Y-39591D01*
X-264524Y-39591D01*
X-262725Y-40491D01*
X-260025Y-42190D01*
X-251024Y-51190D01*
X-251024Y-38690D01*
X-289976Y-250120D02*
G01*
X-289976Y-268921D01*
X-289976Y-250120D02*
G01*
X-281975Y-250120D01*
X-279275Y-251021D01*
X-278375Y-251921D01*
X-277476Y-253721D01*
X-277476Y-255520D01*
X-278375Y-257321D01*
X-279275Y-258220D01*
X-281975Y-259121D01*
X-289976Y-259121D01*
X-283775Y-259121D02*
G01*
X-277476Y-268921D01*
X-271576Y-253721D02*
G01*
X-269776Y-252820D01*
X-267076Y-250120D01*
X-267076Y-268921D01*
X-259376Y-250120D02*
G01*
X-249576Y-250120D01*
X-254875Y-257321D01*
X-252276Y-257321D01*
X-250475Y-258220D01*
X-249576Y-259121D01*
X-248676Y-261720D01*
X-248676Y-263521D01*
X-249576Y-266221D01*
X-251376Y-268020D01*
X-254076Y-268921D01*
X-256676Y-268921D01*
X-259376Y-268020D01*
X-260275Y-267121D01*
X-261176Y-265320D01*
X-94951Y-600178D02*
G01*
X-94951Y-618879D01*
X-94951Y-600178D02*
G01*
X-86950Y-600178D01*
X-84250Y-601078D01*
X-83350Y-601878D01*
X-82451Y-603679D01*
X-82451Y-605479D01*
X-83350Y-607278D01*
X-84250Y-608179D01*
X-86950Y-609079D01*
X-94951Y-609079D01*
X-88751Y-609079D02*
G01*
X-82451Y-618879D01*
X-76550Y-603679D02*
G01*
X-74751Y-602779D01*
X-72051Y-600178D01*
X-72051Y-618879D01*
X-57251Y-600178D02*
G01*
X-66150Y-612678D01*
X-52750Y-612678D01*
X-57251Y-600178D02*
G01*
X-57251Y-618879D01*
X-40154Y-314972D02*
G01*
X-58955Y-314972D01*
X-40154Y-314972D02*
G01*
X-40154Y-323072D01*
X-41055Y-325772D01*
X-41954Y-326673D01*
X-43755Y-327573D01*
X-45455Y-327573D01*
X-47255Y-326673D01*
X-48155Y-325772D01*
X-49054Y-323072D01*
X-49054Y-314972D01*
X-49054Y-321273D02*
G01*
X-58955Y-327573D01*
X-43755Y-333472D02*
G01*
X-42854Y-335172D01*
X-40154Y-337872D01*
X-58955Y-337872D01*
X-40154Y-354573D02*
G01*
X-40154Y-345572D01*
X-48155Y-344672D01*
X-47255Y-345572D01*
X-46354Y-348272D01*
X-46354Y-350972D01*
X-47255Y-353672D01*
X-49054Y-355473D01*
X-51754Y-356372D01*
X-53555Y-356372D01*
X-56255Y-355473D01*
X-58054Y-353672D01*
X-58955Y-350972D01*
X-58955Y-348272D01*
X-58054Y-345572D01*
X-57154Y-344672D01*
X-55354Y-343773D01*
G36*
X-232680Y-667780D02*
G01*
X-232680Y-679780D01*
X-201780Y-679780D01*
X-201780Y-667780D01*
G37*
G36*
X-136220Y-667780D02*
G01*
X-136220Y-679780D01*
X-105320Y-679780D01*
X-105320Y-667780D01*
G37*
G36*
X105920Y-667780D02*
G01*
X105920Y-679780D01*
X136820Y-679780D01*
X136820Y-667780D01*
G37*
G36*
X202380Y-667780D02*
G01*
X202380Y-679780D01*
X233280Y-679780D01*
X233280Y-667780D01*
G37*
G36*
X-232280Y-358260D02*
G01*
X-232280Y-377960D01*
X-177160Y-377960D01*
X-177160Y-358260D01*
X-212600Y-358260D01*
X-220479Y-366140D01*
X-228340Y-358260D01*
G37*
D12*
X175934Y249182D02*
G01*
X175934Y175839D01*
X-176033Y395576D02*
G01*
X175934Y395576D01*
X175934Y337256D01*
X-176033Y249196D02*
G01*
X-176033Y175826D01*
X-176033Y395576D02*
G01*
X-176033Y337242D01*
D11*
X-229677Y-670772D02*
G01*
X-229677Y-511228D01*
X-229677Y-511228D02*
G01*
X-203771Y-511228D01*
X-108323Y-670772D02*
G01*
X-108323Y-511228D01*
X-108323Y-511228D02*
G01*
X-134227Y-511228D01*
X108922Y-670772D02*
G01*
X108922Y-511228D01*
X108922Y-511228D02*
G01*
X134828Y-511228D01*
X230277Y-670772D02*
G01*
X230277Y-511228D01*
X230277Y-511228D02*
G01*
X204371Y-511228D01*
X171361Y-1215599D02*
G01*
X150547Y-1192483D01*
X121370Y-1218753D02*
G01*
X142184Y-1241869D01*
X150659Y-1242314D02*
G01*
X170916Y-1224072D01*
X117815Y-1156129D02*
G01*
X138629Y-1179247D01*
X109452Y-1205516D02*
G01*
X88638Y-1182399D01*
X89083Y-1173926D02*
G01*
X109340Y-1155686D01*
X276093Y-174630D02*
G01*
X247824Y-174630D01*
X247824Y-135369D01*
X276093Y-135369D01*
X293906Y-174630D02*
G01*
X322175Y-174630D01*
X322175Y-135369D01*
X293906Y-135369D01*
X-180365Y-991194D02*
G01*
X-199119Y-972438D01*
X-180365Y-953683D01*
X18751Y-792078D02*
G01*
X-3Y-773323D01*
X-18759Y-792078D01*
X-18759Y-1152800D02*
G01*
X-3Y-1171554D01*
X18751Y-1152799D01*
X180356Y-953683D02*
G01*
X199110Y-972438D01*
X180356Y-991194D01*
X-46601Y-755958D02*
G01*
X-77707Y-755958D01*
X-77707Y-795219D02*
G01*
X-46601Y-795219D01*
X-40601Y-789218D02*
G01*
X-40601Y-761959D01*
X-126626Y-755958D02*
G01*
X-95520Y-755958D01*
X-95520Y-795219D02*
G01*
X-126626Y-795219D01*
X-132626Y-789218D02*
G01*
X-132626Y-761959D01*
X52732Y-91583D02*
G01*
X52732Y-129333D01*
X104747Y-129333D01*
X104747Y-91583D01*
X52732Y-58022D02*
G01*
X52732Y-20271D01*
X104747Y-20271D01*
X104747Y-58022D01*
D13*
X227525Y-200219D02*
G01*
X232175Y-200219D01*
X112159Y-165515D02*
G01*
X112175Y-200219D01*
X126804Y-200219D01*
X112175Y-77919D02*
G01*
X112175Y-142552D01*
X126802Y-20219D02*
G01*
X117175Y-20219D01*
X112175Y-20219D01*
X112175Y-54956D01*
X242175Y-54956D02*
G01*
X242175Y-40219D01*
X242175Y-30219D01*
X232175Y-20219D01*
X227525Y-20219D01*
X242175Y-142552D02*
G01*
X242175Y-77919D01*
X227525Y-200219D02*
G01*
X242175Y-200219D01*
X242175Y-165516D01*
D14*
X-67908Y-217507D02*
G01*
X-50198Y-217507D01*
X-50198Y-199798D01*
X-67908Y-81687D02*
G01*
X-50198Y-81687D01*
X-50198Y-99398D01*
X-186017Y-99398D02*
G01*
X-186017Y-81687D01*
X-168308Y-81687D01*
X-168308Y-217507D02*
G01*
X-186017Y-217507D01*
X-186017Y-199798D01*
D15*
X-183069Y-440943D02*
G01*
X-183069Y-468503D01*
X-224409Y-440943D02*
G01*
X-224409Y-468503D01*
X-190943Y-299212D02*
G01*
X-190943Y-271653D01*
X-232283Y-299212D02*
G01*
X-232283Y-271653D01*
X-248031Y-285430D02*
G01*
X-216536Y-285432D01*
D12*
X-237400Y-431100D02*
G01*
X-162597Y-431494D01*
X-163024Y-309077D01*
X-246455Y-309054D01*
X-246455Y-429133D01*
X-237400Y-431100D02*
G01*
X-246455Y-431100D01*
X29456Y-1388816D02*
G01*
X57323Y-1388816D01*
X-131961Y-1388816D02*
G01*
X-33391Y-1388816D01*
X-194810Y-1508816D02*
G01*
X-222676Y-1508816D01*
X-222676Y-1388816D01*
X-194810Y-1388816D01*
X-33391Y-1508816D02*
G01*
X-131961Y-1508816D01*
X57323Y-1388816D02*
G01*
X57323Y-1508816D01*
X29456Y-1508816D01*
D16*
X73548Y-252564D02*
G01*
X75988Y-252564D01*
X47946Y-252564D02*
G01*
X52053Y-252564D01*
X24020Y-252564D02*
G01*
X26451Y-252564D01*
X73551Y-197445D02*
G01*
X75988Y-197445D01*
X47948Y-197445D02*
G01*
X52051Y-197445D01*
X24020Y-197445D02*
G01*
X26448Y-197445D01*
D13*
X24020Y-197445D02*
G01*
X24020Y-252564D01*
X75988Y-197445D02*
G01*
X75988Y-252563D01*
D11*
X74987Y-4630D02*
G01*
X106093Y-4630D01*
X106093Y34630D02*
G01*
X74987Y34630D01*
X68987Y28629D02*
G01*
X68987Y1370D01*
X155012Y-4630D02*
G01*
X123906Y-4630D01*
X123906Y34630D02*
G01*
X155012Y34630D01*
X161012Y28629D02*
G01*
X161012Y1370D01*
X-66287Y-248085D02*
G01*
X-97393Y-248085D01*
X-97393Y-287345D02*
G01*
X-66287Y-287345D01*
X-60286Y-281345D02*
G01*
X-60286Y-254086D01*
X-146311Y-248085D02*
G01*
X-115205Y-248085D01*
X-115205Y-287345D02*
G01*
X-146311Y-287345D01*
X-152310Y-281345D02*
G01*
X-152310Y-254086D01*
X-39987Y-20369D02*
G01*
X-71093Y-20369D01*
X-71093Y-59630D02*
G01*
X-39987Y-59630D01*
X-33987Y-53629D02*
G01*
X-33987Y-26370D01*
X-120012Y-20369D02*
G01*
X-88906Y-20369D01*
X-88906Y-59630D02*
G01*
X-120012Y-59630D01*
X-126012Y-53629D02*
G01*
X-126012Y-26370D01*
X191880Y-251912D02*
G01*
X163611Y-251912D01*
X163611Y-212653D01*
X191880Y-212653D01*
X209693Y-251912D02*
G01*
X237962Y-251912D01*
X237962Y-212653D01*
X209693Y-212653D01*
X216093Y-4630D02*
G01*
X187824Y-4630D01*
X187824Y34630D01*
X216093Y34630D01*
X233906Y-4630D02*
G01*
X262175Y-4630D01*
X262175Y34630D01*
X233906Y34630D01*
X-3881Y-1176520D02*
G01*
X-3881Y-1207627D01*
X35378Y-1207627D02*
G01*
X35378Y-1176520D01*
X29376Y-1170520D02*
G01*
X2118Y-1170520D01*
X-3881Y-1256545D02*
G01*
X-3881Y-1225439D01*
X35378Y-1225439D02*
G01*
X35378Y-1256545D01*
X29376Y-1262545D02*
G01*
X2118Y-1262545D01*
X-24630Y-114987D02*
G01*
X-24630Y-146093D01*
X14630Y-146093D02*
G01*
X14630Y-114987D01*
X8629Y-108987D02*
G01*
X-18629Y-108987D01*
X-24630Y-195012D02*
G01*
X-24630Y-163906D01*
X14630Y-163906D02*
G01*
X14630Y-195012D01*
X8629Y-201012D02*
G01*
X-18629Y-201012D01*
X43243Y-705322D02*
G01*
X43243Y-674216D01*
X3982Y-674216D02*
G01*
X3982Y-705322D01*
X9983Y-711322D02*
G01*
X37242Y-711322D01*
X43243Y-625297D02*
G01*
X43243Y-656404D01*
X3982Y-656404D02*
G01*
X3982Y-625297D01*
X9983Y-619297D02*
G01*
X37242Y-619297D01*
X-4000Y-705322D02*
G01*
X-4000Y-674216D01*
X-43261Y-674216D02*
G01*
X-43261Y-705322D01*
X-37260Y-711322D02*
G01*
X-10001Y-711322D01*
X-4000Y-625297D02*
G01*
X-4000Y-656404D01*
X-43261Y-656404D02*
G01*
X-43261Y-625297D01*
X-37260Y-619297D02*
G01*
X-10001Y-619297D01*
X-160774Y-1035486D02*
G01*
X-191880Y-1035486D01*
X-191880Y-1074746D02*
G01*
X-160774Y-1074746D01*
X-154774Y-1068746D02*
G01*
X-154774Y-1041485D01*
X-240799Y-1035486D02*
G01*
X-209693Y-1035486D01*
X-209693Y-1074746D02*
G01*
X-240799Y-1074746D01*
X-246799Y-1068746D02*
G01*
X-246799Y-1041485D01*
X-24630Y-214987D02*
G01*
X-24630Y-246093D01*
X14630Y-246093D02*
G01*
X14630Y-214987D01*
X8629Y-208987D02*
G01*
X-18629Y-208987D01*
X-24630Y-295012D02*
G01*
X-24630Y-263906D01*
X14630Y-263906D02*
G01*
X14630Y-295012D01*
X8629Y-301012D02*
G01*
X-18629Y-301012D01*
X-204778Y-228987D02*
G01*
X-204778Y-197881D01*
X-244038Y-197881D02*
G01*
X-244038Y-228987D01*
X-238038Y-234987D02*
G01*
X-210779Y-234987D01*
X-204778Y-148964D02*
G01*
X-204778Y-180070D01*
X-244038Y-180070D02*
G01*
X-244038Y-148964D01*
X-238038Y-142964D02*
G01*
X-210779Y-142964D01*
X-84012Y-1127116D02*
G01*
X-106008Y-1149110D01*
X-78247Y-1176871D02*
G01*
X-56251Y-1154877D01*
X-56251Y-1146390D02*
G01*
X-75527Y-1127116D01*
X-140597Y-1183701D02*
G01*
X-118602Y-1161705D01*
X-90841Y-1189466D02*
G01*
X-112836Y-1211462D01*
X-121323Y-1211462D02*
G01*
X-140597Y-1192186D01*
X234636Y-1222748D02*
G01*
X213422Y-1199998D01*
X184708Y-1226774D02*
G01*
X205923Y-1249524D01*
X214403Y-1249819D02*
G01*
X234340Y-1231228D01*
X180059Y-1164223D02*
G01*
X201275Y-1186972D01*
X172561Y-1213748D02*
G01*
X151347Y-1190999D01*
X151644Y-1182519D02*
G01*
X171579Y-1163928D01*
X171891Y-784596D02*
G01*
X149897Y-806592D01*
X177658Y-834353D02*
G01*
X199652Y-812357D01*
X199652Y-803872D02*
G01*
X180378Y-784596D01*
X115306Y-841181D02*
G01*
X137301Y-819187D01*
X165063Y-846948D02*
G01*
X143067Y-868942D01*
X134582Y-868942D02*
G01*
X115306Y-849668D01*
X-77404Y-1246894D02*
G01*
X-55408Y-1224899D01*
X-83170Y-1197139D02*
G01*
X-105165Y-1219133D01*
X-105165Y-1227620D02*
G01*
X-85889Y-1246894D01*
X-20819Y-1190309D02*
G01*
X-42813Y-1212305D01*
X-70574Y-1184544D02*
G01*
X-48580Y-1162548D01*
X-40093Y-1162548D02*
G01*
X-20819Y-1181824D01*
X276093Y-74630D02*
G01*
X247824Y-74630D01*
X247824Y-35369D01*
X276093Y-35369D01*
X293906Y-74630D02*
G01*
X322175Y-74630D01*
X322175Y-35369D01*
X293906Y-35369D01*
X67961Y-145724D02*
G01*
X96230Y-145724D01*
X96230Y-184983D01*
X67961Y-184983D01*
X50149Y-145724D02*
G01*
X21880Y-145724D01*
X21880Y-184983D01*
X50149Y-184983D01*
X-105266Y-366195D02*
G01*
X-76997Y-366195D01*
X-76997Y-405455D01*
X-105266Y-405455D01*
X-123078Y-366195D02*
G01*
X-151347Y-366195D01*
X-151347Y-405455D01*
X-123078Y-405455D01*
X-198906Y-59630D02*
G01*
X-227175Y-59630D01*
X-227175Y-20369D01*
X-198906Y-20369D01*
X-181093Y-59630D02*
G01*
X-152824Y-59630D01*
X-152824Y-20369D01*
X-181093Y-20369D01*
X-24630Y-51093D02*
G01*
X-24630Y-22824D01*
X14630Y-22824D01*
X14630Y-51093D01*
X-24630Y-68906D02*
G01*
X-24630Y-97175D01*
X14630Y-97175D01*
X14630Y-68906D01*
X98360Y-686026D02*
G01*
X98360Y-714295D01*
X59101Y-714295D01*
X59101Y-686026D01*
X98360Y-668215D02*
G01*
X98360Y-639945D01*
X59101Y-639945D01*
X59101Y-668215D01*
X-244038Y-89519D02*
G01*
X-244038Y-61250D01*
X-204778Y-61250D01*
X-204778Y-89519D01*
X-244038Y-107330D02*
G01*
X-244038Y-135599D01*
X-204778Y-135599D01*
X-204778Y-107330D01*
X-213629Y-283409D02*
G01*
X-241898Y-283409D01*
X-241898Y-244149D01*
X-213629Y-244149D01*
X-195817Y-283409D02*
G01*
X-167548Y-283409D01*
X-167548Y-244149D01*
X-195817Y-244149D01*
X-98378Y-668215D02*
G01*
X-98378Y-639945D01*
X-59119Y-639945D01*
X-59119Y-668215D01*
X-98378Y-686026D02*
G01*
X-98378Y-714295D01*
X-59119Y-714295D01*
X-59119Y-686026D01*
X-105266Y-315014D02*
G01*
X-76997Y-315014D01*
X-76997Y-354274D01*
X-105266Y-354274D01*
X-123078Y-315014D02*
G01*
X-151347Y-315014D01*
X-151347Y-354274D01*
X-123078Y-354274D01*
G75*
G01*
X142185Y-1241870D02*
G03*
X150659Y-1242314I4459J4015D01*
G75*
G01*
X170917Y-1224073D02*
G03*
X171361Y-1215600I-4015J4459D01*
G75*
G01*
X88639Y-1182400D02*
G02*
X89083Y-1173927I4459J4014D01*
G75*
G01*
X109341Y-1155686D02*
G02*
X117815Y-1156130I4015J-4459D01*
G75*
G01*
X-46602Y-795219D02*
G03*
X-40602Y-789219I0J6000D01*
G75*
G01*
X-40602Y-761959D02*
G03*
X-46602Y-755959I-6000J0D01*
G75*
G01*
X-126626Y-795219D02*
G02*
X-132626Y-789219I0J6000D01*
G75*
G01*
X-132626Y-761959D02*
G02*
X-126626Y-755959I6000J0D01*
D17*
G75*
G01*
X-199808Y-89598D02*
G03*
X-199808Y-89698I-5906J-50D01*
D11*
G75*
G01*
X74988Y34630D02*
G03*
X68988Y28630I0J-6000D01*
G75*
G01*
X68988Y1370D02*
G03*
X74988Y-4630I6000J0D01*
G75*
G01*
X155012Y34630D02*
G02*
X161012Y28630I0J-6000D01*
G75*
G01*
X161012Y1370D02*
G02*
X155012Y-4630I-6000J0D01*
G75*
G01*
X-66287Y-287346D02*
G03*
X-60287Y-281346I0J6000D01*
G75*
G01*
X-60287Y-254086D02*
G03*
X-66287Y-248086I-6000J0D01*
G75*
G01*
X-146311Y-287346D02*
G02*
X-152311Y-281346I0J6000D01*
G75*
G01*
X-152311Y-254086D02*
G02*
X-146311Y-248086I6000J0D01*
G75*
G01*
X-39988Y-59630D02*
G03*
X-33988Y-53630I0J6000D01*
G75*
G01*
X-33988Y-26370D02*
G03*
X-39988Y-20370I-6000J0D01*
G75*
G01*
X-120012Y-59630D02*
G02*
X-126012Y-53630I0J6000D01*
G75*
G01*
X-126012Y-26370D02*
G02*
X-120012Y-20370I6000J0D01*
G75*
G01*
X35378Y-1176521D02*
G03*
X29377Y-1170521I-6000J0D01*
G75*
G01*
X2119Y-1170521D02*
G03*
X-3882Y-1176521I-1J-6000D01*
G75*
G01*
X35378Y-1256545D02*
G02*
X29377Y-1262545I-6000J0D01*
G75*
G01*
X2119Y-1262545D02*
G02*
X-3882Y-1256545I-1J6000D01*
G75*
G01*
X14630Y-114988D02*
G03*
X8630Y-108988I-6000J0D01*
G75*
G01*
X-18630Y-108988D02*
G03*
X-24630Y-114988I0J-6000D01*
G75*
G01*
X14630Y-195012D02*
G02*
X8630Y-201012I-6000J0D01*
G75*
G01*
X-18630Y-201012D02*
G02*
X-24630Y-195012I0J6000D01*
G75*
G01*
X3983Y-705322D02*
G03*
X9983Y-711322I6000J0D01*
G75*
G01*
X37243Y-711322D02*
G03*
X43243Y-705322I0J6000D01*
G75*
G01*
X3983Y-625298D02*
G02*
X9983Y-619298I6000J0D01*
G75*
G01*
X37243Y-619298D02*
G02*
X43243Y-625298I0J-6000D01*
G75*
G01*
X-43261Y-705322D02*
G03*
X-37261Y-711322I6000J0D01*
G75*
G01*
X-10001Y-711322D02*
G03*
X-4001Y-705322I0J6000D01*
G75*
G01*
X-43261Y-625298D02*
G02*
X-37261Y-619298I6000J0D01*
G75*
G01*
X-10001Y-619298D02*
G02*
X-4001Y-625298I0J-6000D01*
G75*
G01*
X-160775Y-1074746D02*
G03*
X-154775Y-1068746I0J6000D01*
G75*
G01*
X-154775Y-1041486D02*
G03*
X-160775Y-1035486I-6000J0D01*
G75*
G01*
X-240799Y-1074746D02*
G02*
X-246799Y-1068746I0J6000D01*
G75*
G01*
X-246799Y-1041486D02*
G02*
X-240799Y-1035486I6000J0D01*
G75*
G01*
X14630Y-214988D02*
G03*
X8630Y-208988I-6000J0D01*
G75*
G01*
X-18630Y-208988D02*
G03*
X-24630Y-214988I0J-6000D01*
G75*
G01*
X14630Y-295012D02*
G02*
X8630Y-301012I-6000J0D01*
G75*
G01*
X-18630Y-301012D02*
G02*
X-24630Y-295012I0J6000D01*
G75*
G01*
X-244039Y-228988D02*
G03*
X-238039Y-234988I6000J0D01*
G75*
G01*
X-210779Y-234988D02*
G03*
X-204779Y-228988I0J6000D01*
G75*
G01*
X-244039Y-148964D02*
G02*
X-238039Y-142964I6000J0D01*
G75*
G01*
X-210779Y-142964D02*
G02*
X-204779Y-148964I0J-6000D01*
G75*
G01*
X-56252Y-1154877D02*
G03*
X-56252Y-1146391I-4242J4243D01*
G75*
G01*
X-75527Y-1127116D02*
G03*
X-84013Y-1127116I-4243J-4242D01*
G75*
G01*
X-112837Y-1211462D02*
G02*
X-121323Y-1211462I-4243J4242D01*
G75*
G01*
X-140598Y-1192187D02*
G02*
X-140598Y-1183701I4242J4243D01*
G75*
G01*
X205924Y-1249525D02*
G03*
X214404Y-1249820I4388J4093D01*
G75*
G01*
X234340Y-1231229D02*
G03*
X234637Y-1222749I-4092J4389D01*
G75*
G01*
X151347Y-1190999D02*
G02*
X151644Y-1182519I4389J4091D01*
G75*
G01*
X171580Y-1163928D02*
G02*
X180060Y-1164223I4092J-4388D01*
G75*
G01*
X199653Y-812358D02*
G03*
X199653Y-803872I-4242J4243D01*
G75*
G01*
X180378Y-784597D02*
G03*
X171892Y-784597I-4243J-4242D01*
G75*
G01*
X143068Y-868943D02*
G02*
X134582Y-868943I-4243J4242D01*
G75*
G01*
X115307Y-849668D02*
G02*
X115307Y-841182I4242J4243D01*
G75*
G01*
X-105165Y-1219134D02*
G03*
X-105165Y-1227620I4242J-4243D01*
G75*
G01*
X-85890Y-1246895D02*
G03*
X-77404Y-1246895I4243J4242D01*
G75*
G01*
X-48580Y-1162549D02*
G02*
X-40094Y-1162549I4243J-4242D01*
G75*
G01*
X-20819Y-1181824D02*
G02*
X-20819Y-1190310I-4242J-4243D01*
D12*
G75*
G01
X-133570Y-591000D02*
G03X-133570Y-591000I-35430J0D01*
G75*
G01
X205030Y-591000D02*
G03X205030Y-591000I-35430J0D01*
D13*
G75*
G01
X43030Y-1157280D02*
G03X43030Y-1157280I-2950J0D01*
G75*
G01
X219250Y-4330D02*
G03X219250Y-4330I-3110J0D01*
D12*
G75*
G01
X-254700Y-340160D02*
G03X-254700Y-340160I-4350J0D01*
D16*
G75*
G01
X17560Y-246650D02*
G03X17560Y-246650I-2990J0D01*
M02*
