G04 Layer: TopPasteMaskLayer*
G04 EasyEDA v6.5.50, 2025-05-29 20:10:11*
G04 51d2a156a5c9454999fc887beed5754f,29d699c3718f4358a2dc827e738e4458,10*
G04 Gerber Generator version 0.2*
G04 Scale: 100 percent, Rotated: No, Reflected: No *
G04 Dimensions in inches *
G04 leading zeros omitted , absolute positions ,3 integer and 6 decimal *
%FSLAX36Y36*%
%MOIN*%

%AMMACRO1*21,1,$1,$2,0,0,$3*%
%AMMACRO2*4,1,12,0.065,-0.05,-0.065,-0.05,-0.065,-0.04,-0.04,-0.04,-0.04,0.04,-0.065,0.04,-0.065,0.05,0.065,0.05,0.065,0.04,0.04,0.04,0.04,-0.04,0.065,-0.04,0.065,-0.05,0*%
%AMMACRO3*4,1,5,0.0039,-0.0079,-0.0039,-0.0079,-0.0039,0.002,0.002,0.0079,0.0039,0.0079,0.0039,-0.0079,0*%
%AMMACRO4*4,1,5,-0.0039,0.0079,0.0039,0.0079,0.0039,-0.002,-0.002,-0.0079,-0.0039,-0.0079,-0.0039,0.0079,0*%
%AMMACRO5*4,1,5,0.0039,0.0079,-0.0039,0.0079,-0.0039,-0.002,0.002,-0.0079,0.0039,-0.0079,0.0039,0.0079,0*%
%AMMACRO6*4,1,5,0.0039,-0.0089,-0.0039,-0.0089,-0.0039,0.0089,-0.002,0.0069,0.0039,0.001,0.0039,-0.0089,0*%
%ADD10MACRO1,0.0535X0.0484X0.0000*%
%ADD11R,0.0079X0.0335*%
%ADD12MACRO2*%
%ADD13R,0.0217X0.0335*%
%ADD14R,0.0591X0.1024*%
%ADD15MACRO1,0.0177X0.0177X45.0000*%
%ADD16MACRO3*%
%ADD17MACRO4*%
%ADD18MACRO5*%
%ADD19MACRO6*%
%ADD20C,0.0104*%

%LPD*%
G36*
X-137800Y123200D02*
G01*
X-137800Y72020D01*
X-114179Y72020D01*
X-114179Y123200D01*
G37*
G36*
X23620Y123200D02*
G01*
X23620Y72020D01*
X35420Y72020D01*
X35420Y123200D01*
G37*
G36*
X114160Y123200D02*
G01*
X114160Y72020D01*
X137780Y72020D01*
X137780Y123200D01*
G37*
G36*
X-15760Y123200D02*
G01*
X-15760Y72020D01*
X-3940Y72020D01*
X-3940Y123200D01*
G37*
G36*
X-74820Y123200D02*
G01*
X-74820Y72020D01*
X-63000Y72020D01*
X-63000Y123200D01*
G37*
G36*
X43300Y123200D02*
G01*
X43300Y72020D01*
X55100Y72020D01*
X55100Y123200D01*
G37*
G36*
X-55119Y123200D02*
G01*
X-55119Y72020D01*
X-43300Y72020D01*
X-43300Y123200D01*
G37*
G36*
X-35440Y123200D02*
G01*
X-35440Y72020D01*
X-23640Y72020D01*
X-23640Y123200D01*
G37*
G36*
X62980Y123200D02*
G01*
X62980Y72020D01*
X74800Y72020D01*
X74800Y123200D01*
G37*
G36*
X3920Y123200D02*
G01*
X3920Y72020D01*
X15740Y72020D01*
X15740Y123200D01*
G37*
G36*
X82660Y123200D02*
G01*
X82660Y72020D01*
X106280Y72020D01*
X106280Y123200D01*
G37*
G36*
X169680Y167220D02*
G01*
X167340Y167060D01*
X165020Y166640D01*
X162740Y166000D01*
X160560Y165140D01*
X158460Y164080D01*
X156480Y162800D01*
X154640Y161320D01*
X152960Y159680D01*
X151440Y157880D01*
X150120Y155940D01*
X148980Y153860D01*
X148080Y151700D01*
X147380Y149440D01*
X146920Y147140D01*
X146680Y144800D01*
X146640Y112120D01*
X146760Y109760D01*
X147120Y107440D01*
X147700Y105160D01*
X148500Y102940D01*
X149520Y100820D01*
X150760Y98820D01*
X152180Y96940D01*
X153780Y95200D01*
X155540Y93640D01*
X157460Y92280D01*
X159500Y91100D01*
X161640Y90120D01*
X163880Y89380D01*
X166160Y88859D01*
X168500Y88560D01*
X170859Y88500D01*
X173200Y88680D01*
X175520Y89080D01*
X177800Y89720D01*
X179980Y90580D01*
X182079Y91660D01*
X184060Y92940D01*
X185900Y94400D01*
X187580Y96060D01*
X189100Y97860D01*
X190420Y99800D01*
X191560Y101860D01*
X192460Y104040D01*
X193160Y106280D01*
X193619Y108600D01*
X193860Y110940D01*
X193900Y143620D01*
X193780Y145960D01*
X193420Y148300D01*
X192840Y150580D01*
X192040Y152780D01*
X191020Y154920D01*
X189780Y156920D01*
X188359Y158800D01*
X186759Y160520D01*
X185000Y162079D01*
X183080Y163460D01*
X181040Y164640D01*
X178900Y165600D01*
X176660Y166360D01*
X174380Y166880D01*
X172040Y167180D01*
G37*
G36*
X-170880Y167220D02*
G01*
X-173220Y167060D01*
X-175539Y166640D01*
X-177820Y166000D01*
X-180000Y165140D01*
X-182100Y164080D01*
X-184080Y162800D01*
X-185920Y161320D01*
X-187600Y159680D01*
X-189120Y157880D01*
X-190440Y155940D01*
X-191580Y153860D01*
X-192480Y151700D01*
X-193180Y149440D01*
X-193640Y147140D01*
X-193880Y144800D01*
X-193920Y112120D01*
X-193800Y109760D01*
X-193440Y107440D01*
X-192860Y105160D01*
X-192060Y102940D01*
X-191040Y100820D01*
X-189800Y98820D01*
X-188380Y96940D01*
X-186780Y95200D01*
X-185020Y93640D01*
X-183100Y92280D01*
X-181060Y91100D01*
X-178920Y90120D01*
X-176680Y89380D01*
X-174400Y88859D01*
X-172060Y88560D01*
X-169700Y88500D01*
X-167360Y88680D01*
X-165040Y89080D01*
X-162760Y89720D01*
X-160580Y90580D01*
X-158480Y91660D01*
X-156500Y92940D01*
X-154660Y94400D01*
X-152980Y96060D01*
X-151460Y97860D01*
X-150140Y99800D01*
X-149000Y101860D01*
X-148100Y104040D01*
X-147400Y106280D01*
X-146940Y108600D01*
X-146700Y110940D01*
X-146660Y143620D01*
X-146780Y145960D01*
X-147140Y148300D01*
X-147720Y150580D01*
X-148520Y152780D01*
X-149540Y154920D01*
X-150780Y156920D01*
X-152200Y158800D01*
X-153800Y160520D01*
X-155560Y162079D01*
X-157480Y163460D01*
X-159520Y164640D01*
X-161660Y165600D01*
X-163900Y166360D01*
X-166180Y166880D01*
X-168520Y167180D01*
G37*
G36*
X169680Y327860D02*
G01*
X167340Y327680D01*
X165020Y327260D01*
X162740Y326640D01*
X160560Y325780D01*
X158460Y324700D01*
X156480Y323420D01*
X154640Y321960D01*
X152960Y320300D01*
X151440Y318500D01*
X150120Y316560D01*
X148980Y314480D01*
X148080Y312320D01*
X147380Y310060D01*
X146920Y307760D01*
X146680Y305420D01*
X146640Y280620D01*
X146760Y278260D01*
X147120Y275940D01*
X147700Y273660D01*
X148500Y271440D01*
X149520Y269320D01*
X150760Y267320D01*
X152180Y265440D01*
X153780Y263700D01*
X155540Y262160D01*
X157460Y260780D01*
X159500Y259600D01*
X161640Y258619D01*
X163880Y257880D01*
X166160Y257360D01*
X168500Y257060D01*
X170859Y257000D01*
X173200Y257180D01*
X175520Y257580D01*
X177800Y258220D01*
X179980Y259080D01*
X182079Y260159D01*
X184060Y261439D01*
X185900Y262900D01*
X187580Y264560D01*
X189100Y266360D01*
X190420Y268300D01*
X191560Y270360D01*
X192460Y272540D01*
X193160Y274780D01*
X193619Y277100D01*
X193860Y279440D01*
X193900Y304240D01*
X193780Y306600D01*
X193420Y308920D01*
X192840Y311200D01*
X192040Y313420D01*
X191020Y315540D01*
X189780Y317540D01*
X188359Y319420D01*
X186759Y321140D01*
X185000Y322700D01*
X183080Y324080D01*
X181040Y325260D01*
X178900Y326220D01*
X176660Y326980D01*
X174380Y327500D01*
X172040Y327800D01*
G37*
G36*
X-170880Y327860D02*
G01*
X-173220Y327680D01*
X-175539Y327260D01*
X-177820Y326640D01*
X-180000Y325780D01*
X-182100Y324700D01*
X-184080Y323420D01*
X-185920Y321960D01*
X-187600Y320300D01*
X-189120Y318500D01*
X-190440Y316560D01*
X-191580Y314480D01*
X-192480Y312320D01*
X-193180Y310060D01*
X-193640Y307760D01*
X-193880Y305420D01*
X-193920Y280620D01*
X-193800Y278260D01*
X-193440Y275940D01*
X-192860Y273660D01*
X-192060Y271440D01*
X-191040Y269320D01*
X-189800Y267320D01*
X-188380Y265440D01*
X-186780Y263700D01*
X-185020Y262160D01*
X-183100Y260780D01*
X-181060Y259600D01*
X-178920Y258619D01*
X-176680Y257880D01*
X-174400Y257360D01*
X-172060Y257060D01*
X-169700Y257000D01*
X-167360Y257180D01*
X-165040Y257580D01*
X-162760Y258220D01*
X-160580Y259080D01*
X-158480Y260159D01*
X-156500Y261439D01*
X-154660Y262900D01*
X-152980Y264560D01*
X-151460Y266360D01*
X-150140Y268300D01*
X-149000Y270360D01*
X-148100Y272540D01*
X-147400Y274780D01*
X-146940Y277100D01*
X-146700Y279440D01*
X-146660Y304240D01*
X-146780Y306600D01*
X-147140Y308920D01*
X-147720Y311200D01*
X-148520Y313420D01*
X-149540Y315540D01*
X-150780Y317540D01*
X-152200Y319420D01*
X-153800Y321140D01*
X-155560Y322700D01*
X-157480Y324080D01*
X-159520Y325260D01*
X-161660Y326220D01*
X-163900Y326980D01*
X-166180Y327500D01*
X-168520Y327800D01*
G37*
G36*
X-106320Y123200D02*
G01*
X-106320Y72020D01*
X-82700Y72020D01*
X-82700Y123200D01*
G37*
G36*
X116039Y-1170260D02*
G01*
X102860Y-1182100D01*
X102720Y-1184880D01*
X115360Y-1198920D01*
X118680Y-1199660D01*
X131840Y-1187800D01*
X131460Y-1184440D01*
X118820Y-1170400D01*
G37*
G36*
X141320Y-1198340D02*
G01*
X128160Y-1210200D01*
X128539Y-1213560D01*
X141180Y-1227600D01*
X143960Y-1227740D01*
X157140Y-1215900D01*
X157280Y-1213120D01*
X144640Y-1199060D01*
G37*
G36*
X291880Y-144360D02*
G01*
X290320Y-145940D01*
X290320Y-164060D01*
X291880Y-165640D01*
X311600Y-165640D01*
X313180Y-164060D01*
X313180Y-145940D01*
X311600Y-144360D01*
G37*
G36*
X258400Y-144360D02*
G01*
X256820Y-145940D01*
X256820Y-164060D01*
X258400Y-165640D01*
X278120Y-165640D01*
X279680Y-164060D01*
X279680Y-145940D01*
X278120Y-144360D01*
G37*
G36*
X-16020Y-1127640D02*
G01*
X-34520Y-1146140D01*
X-28960Y-1151720D01*
X-10440Y-1133200D01*
G37*
G36*
X-93960Y-1049700D02*
G01*
X-112480Y-1068200D01*
X-106900Y-1073780D01*
X-88379Y-1055260D01*
G37*
G36*
X-82820Y-1060820D02*
G01*
X-101340Y-1079340D01*
X-95760Y-1084900D01*
X-77260Y-1066400D01*
G37*
G36*
X-160780Y-982880D02*
G01*
X-179280Y-1001400D01*
X-173720Y-1006960D01*
X-155200Y-988439D01*
G37*
G36*
X-27140Y-1116500D02*
G01*
X-45660Y-1135020D01*
X-40080Y-1140580D01*
X-21580Y-1122080D01*
G37*
G36*
X-105100Y-1038560D02*
G01*
X-123600Y-1057060D01*
X-118040Y-1062640D01*
X-99520Y-1044120D01*
G37*
G36*
X-38280Y-1105360D02*
G01*
X-56800Y-1123880D01*
X-51220Y-1129460D01*
X-32719Y-1110940D01*
G37*
G36*
X-116240Y-1027420D02*
G01*
X-134740Y-1045939D01*
X-129179Y-1051500D01*
X-110660Y-1032980D01*
G37*
G36*
X-49420Y-1094240D02*
G01*
X-67940Y-1112740D01*
X-62360Y-1118320D01*
X-43840Y-1099800D01*
G37*
G36*
X-127360Y-1016280D02*
G01*
X-145880Y-1034800D01*
X-140320Y-1040360D01*
X-121800Y-1021840D01*
G37*
G36*
X-71700Y-1071960D02*
G01*
X-90200Y-1090480D01*
X-84640Y-1096040D01*
X-66120Y-1077520D01*
G37*
G36*
X-149640Y-994020D02*
G01*
X-168140Y-1012520D01*
X-162580Y-1018100D01*
X-144060Y-999580D01*
G37*
G36*
X-60560Y-1083100D02*
G01*
X-79060Y-1101600D01*
X-73500Y-1107180D01*
X-54980Y-1088660D01*
G37*
G36*
X-138500Y-1005160D02*
G01*
X-157020Y-1023660D01*
X-151440Y-1029240D01*
X-132940Y-1010720D01*
G37*
G36*
X16000Y-1127640D02*
G01*
X10440Y-1133220D01*
X28960Y-1151720D01*
X34520Y-1146160D01*
G37*
G36*
X-173720Y-937920D02*
G01*
X-179280Y-943480D01*
X-160780Y-962000D01*
X-155200Y-956440D01*
G37*
G36*
X27140Y-1116500D02*
G01*
X21580Y-1122080D01*
X40080Y-1140580D01*
X45660Y-1135020D01*
G37*
G36*
X-162580Y-926780D02*
G01*
X-168140Y-932360D01*
X-149640Y-950860D01*
X-144060Y-945300D01*
G37*
G36*
X38280Y-1105360D02*
G01*
X32719Y-1110940D01*
X51220Y-1129460D01*
X56800Y-1123880D01*
G37*
G36*
X-151440Y-915639D02*
G01*
X-157020Y-921220D01*
X-138500Y-939720D01*
X-132940Y-934160D01*
G37*
G36*
X-140320Y-904520D02*
G01*
X-145880Y-910080D01*
X-127360Y-928600D01*
X-121800Y-923020D01*
G37*
G36*
X49400Y-1094240D02*
G01*
X43840Y-1099800D01*
X62360Y-1118320D01*
X67920Y-1112760D01*
G37*
G36*
X60540Y-1083100D02*
G01*
X54980Y-1088680D01*
X73500Y-1107180D01*
X79060Y-1101620D01*
G37*
G36*
X-129179Y-893379D02*
G01*
X-134740Y-898940D01*
X-116240Y-917460D01*
X-110660Y-911900D01*
G37*
G36*
X71680Y-1071960D02*
G01*
X66120Y-1077540D01*
X84620Y-1096040D01*
X90200Y-1090480D01*
G37*
G36*
X-118040Y-882240D02*
G01*
X-123600Y-887800D01*
X-105100Y-906320D01*
X-99520Y-900759D01*
G37*
G36*
X82820Y-1060820D02*
G01*
X77260Y-1066400D01*
X95760Y-1084900D01*
X101340Y-1079340D01*
G37*
G36*
X-106900Y-871100D02*
G01*
X-112480Y-876680D01*
X-93960Y-895180D01*
X-88379Y-889620D01*
G37*
G36*
X93960Y-1049700D02*
G01*
X88379Y-1055260D01*
X106900Y-1073780D01*
X112460Y-1068200D01*
G37*
G36*
X-95760Y-859960D02*
G01*
X-101340Y-865540D01*
X-82820Y-884040D01*
X-77260Y-878480D01*
G37*
G36*
X105079Y-1038560D02*
G01*
X99520Y-1044140D01*
X118040Y-1062640D01*
X123600Y-1057080D01*
G37*
G36*
X-84640Y-848840D02*
G01*
X-90200Y-854400D01*
X-71700Y-872920D01*
X-66120Y-867360D01*
G37*
G36*
X116220Y-1027420D02*
G01*
X110660Y-1033000D01*
X129160Y-1051500D01*
X134740Y-1045939D01*
G37*
G36*
X-73500Y-837700D02*
G01*
X-79060Y-843259D01*
X-60560Y-861780D01*
X-54980Y-856220D01*
G37*
G36*
X-62360Y-826560D02*
G01*
X-67940Y-832140D01*
X-49420Y-850639D01*
X-43860Y-845080D01*
G37*
G36*
X127360Y-1016280D02*
G01*
X121800Y-1021860D01*
X140300Y-1040360D01*
X145880Y-1034800D01*
G37*
G36*
X138500Y-1005160D02*
G01*
X132940Y-1010720D01*
X151440Y-1029240D01*
X157020Y-1023660D01*
G37*
G36*
X-51220Y-815420D02*
G01*
X-56800Y-821000D01*
X-38280Y-839500D01*
X-32719Y-833940D01*
G37*
G36*
X149640Y-994020D02*
G01*
X144060Y-999580D01*
X162580Y-1018100D01*
X168140Y-1012520D01*
G37*
G36*
X-40080Y-804300D02*
G01*
X-45660Y-809860D01*
X-27140Y-828379D01*
X-21580Y-822800D01*
G37*
G36*
X160760Y-982880D02*
G01*
X155200Y-988460D01*
X173720Y-1006960D01*
X179280Y-1001400D01*
G37*
G36*
X-28960Y-793160D02*
G01*
X-34520Y-798720D01*
X-16020Y-817240D01*
X-10440Y-811680D01*
G37*
G36*
X28960Y-793160D02*
G01*
X10440Y-811660D01*
X16000Y-817240D01*
X34520Y-798720D01*
G37*
G36*
X106900Y-871100D02*
G01*
X88379Y-889620D01*
X93960Y-895180D01*
X112480Y-876680D01*
G37*
G36*
X95760Y-859960D02*
G01*
X77260Y-878480D01*
X82820Y-884040D01*
X101340Y-865540D01*
G37*
G36*
X173720Y-937920D02*
G01*
X155200Y-956420D01*
X160760Y-962000D01*
X179280Y-943480D01*
G37*
G36*
X40080Y-804300D02*
G01*
X21580Y-822800D01*
X27140Y-828379D01*
X45660Y-809860D01*
G37*
G36*
X118040Y-882240D02*
G01*
X99520Y-900740D01*
X105079Y-906320D01*
X123600Y-887800D01*
G37*
G36*
X51220Y-815420D02*
G01*
X32719Y-833940D01*
X38280Y-839500D01*
X56800Y-821000D01*
G37*
G36*
X129160Y-893379D02*
G01*
X110660Y-911880D01*
X116220Y-917460D01*
X134740Y-898940D01*
G37*
G36*
X62360Y-826560D02*
G01*
X43840Y-845080D01*
X49420Y-850639D01*
X67920Y-832120D01*
G37*
G36*
X140300Y-904500D02*
G01*
X121800Y-923020D01*
X127360Y-928580D01*
X145880Y-910080D01*
G37*
G36*
X84620Y-848840D02*
G01*
X66120Y-867340D01*
X71680Y-872920D01*
X90200Y-854400D01*
G37*
G36*
X162580Y-926780D02*
G01*
X144060Y-945300D01*
X149640Y-950860D01*
X168140Y-932360D01*
G37*
G36*
X73500Y-837700D02*
G01*
X54980Y-856200D01*
X60540Y-861780D01*
X79060Y-843259D01*
G37*
G36*
X151440Y-915639D02*
G01*
X132940Y-934160D01*
X138500Y-939720D01*
X157020Y-921220D01*
G37*
G36*
X0Y-883360D02*
G01*
X-89100Y-972440D01*
X0Y-1061520D01*
X89080Y-972440D01*
G37*
G36*
X-115360Y-764760D02*
G01*
X-117320Y-766720D01*
X-117320Y-784440D01*
X-115360Y-786420D01*
X-96460Y-786420D01*
X-93699Y-784440D01*
X-93699Y-766720D01*
X-96460Y-764760D01*
G37*
G36*
X-76780Y-764760D02*
G01*
X-79520Y-766720D01*
X-79520Y-784440D01*
X-76780Y-786420D01*
X-57880Y-786420D01*
X-55900Y-784440D01*
X-55900Y-766720D01*
X-57880Y-764760D01*
G37*
G36*
X63000Y-88379D02*
G01*
X61020Y-90360D01*
X61020Y-121860D01*
X63000Y-123820D01*
X94480Y-123820D01*
X96460Y-121860D01*
X96460Y-90360D01*
X94480Y-88379D01*
X85520Y-88379D01*
X85520Y-102960D01*
X72520Y-102960D01*
X72520Y-88379D01*
G37*
G36*
X63000Y-25780D02*
G01*
X61020Y-27759D01*
X61020Y-59260D01*
X63000Y-61220D01*
X71960Y-61220D01*
X71960Y-46660D01*
X84960Y-46660D01*
X84960Y-61220D01*
X94480Y-61220D01*
X96460Y-59260D01*
X96460Y-27759D01*
X94480Y-25780D01*
G37*
G36*
X-147780Y-73820D02*
G01*
X-148700Y-73920D01*
X-149840Y-74280D01*
X-150660Y-74720D01*
X-151580Y-75480D01*
X-152340Y-76440D01*
X-152840Y-77540D01*
X-153120Y-78720D01*
X-153140Y-102080D01*
X-152940Y-103280D01*
X-152340Y-104660D01*
X-151800Y-105399D01*
X-150660Y-106380D01*
X-149280Y-107040D01*
X-148100Y-107260D01*
X-147480Y-107280D01*
X-146280Y-107120D01*
X-145140Y-106679D01*
X-143900Y-105820D01*
X-143100Y-104920D01*
X-142640Y-104120D01*
X-142260Y-102980D01*
X-142160Y-102380D01*
X-142160Y-78720D01*
X-142420Y-77540D01*
X-142940Y-76440D01*
X-143680Y-75480D01*
X-144880Y-74560D01*
X-146000Y-74080D01*
X-146580Y-73920D01*
G37*
G36*
X-108420Y-73820D02*
G01*
X-109320Y-73920D01*
X-110480Y-74280D01*
X-111760Y-75080D01*
X-112620Y-75940D01*
X-113240Y-76980D01*
X-113640Y-78120D01*
X-113780Y-79340D01*
X-113740Y-102380D01*
X-113480Y-103560D01*
X-112800Y-104920D01*
X-112000Y-105820D01*
X-110760Y-106679D01*
X-109620Y-107120D01*
X-108420Y-107280D01*
X-107200Y-107180D01*
X-106060Y-106820D01*
X-104760Y-106020D01*
X-104100Y-105399D01*
X-103560Y-104660D01*
X-102960Y-103280D01*
X-102760Y-102080D01*
X-102780Y-78720D01*
X-103059Y-77540D01*
X-103560Y-76440D01*
X-104320Y-75480D01*
X-105500Y-74560D01*
X-106340Y-74160D01*
X-106920Y-73980D01*
G37*
G36*
X-128100Y-73820D02*
G01*
X-129000Y-73920D01*
X-130160Y-74280D01*
X-131440Y-75080D01*
X-132300Y-75940D01*
X-132940Y-76980D01*
X-133320Y-78120D01*
X-133460Y-79340D01*
X-133420Y-102380D01*
X-133160Y-103560D01*
X-132940Y-104120D01*
X-132480Y-104920D01*
X-131680Y-105820D01*
X-130440Y-106679D01*
X-129300Y-107120D01*
X-128100Y-107280D01*
X-126880Y-107180D01*
X-125740Y-106820D01*
X-124920Y-106380D01*
X-123780Y-105399D01*
X-123240Y-104660D01*
X-122640Y-103280D01*
X-122440Y-102080D01*
X-122460Y-78720D01*
X-122739Y-77540D01*
X-123240Y-76440D01*
X-124000Y-75480D01*
X-124920Y-74720D01*
X-125740Y-74280D01*
X-126880Y-73920D01*
G37*
G36*
X-88720Y-73820D02*
G01*
X-89920Y-73980D01*
X-90500Y-74160D01*
X-91340Y-74560D01*
X-92080Y-75080D01*
X-92739Y-75720D01*
X-93420Y-76700D01*
X-93880Y-77840D01*
X-94080Y-79020D01*
X-94060Y-102380D01*
X-93960Y-102980D01*
X-93420Y-104400D01*
X-93100Y-104920D01*
X-92520Y-105620D01*
X-91840Y-106220D01*
X-90500Y-106940D01*
X-89340Y-107240D01*
X-87820Y-107240D01*
X-86940Y-107040D01*
X-85820Y-106540D01*
X-85320Y-106220D01*
X-84620Y-105620D01*
X-83720Y-104400D01*
X-83280Y-103280D01*
X-83140Y-102680D01*
X-83059Y-101780D01*
X-83080Y-79020D01*
X-83280Y-77840D01*
X-83720Y-76700D01*
X-84420Y-75720D01*
X-84840Y-75280D01*
X-86080Y-74420D01*
X-87220Y-73980D01*
G37*
G36*
X-70580Y-114560D02*
G01*
X-71780Y-114760D01*
X-72620Y-115079D01*
X-73420Y-115540D01*
X-74520Y-116560D01*
X-75200Y-117579D01*
X-75540Y-118420D01*
X-75740Y-119320D01*
X-75780Y-120220D01*
X-75620Y-121420D01*
X-75200Y-122560D01*
X-74520Y-123580D01*
X-73420Y-124600D01*
X-72620Y-125060D01*
X-71780Y-125380D01*
X-70580Y-125580D01*
X-47220Y-125540D01*
X-46340Y-125380D01*
X-45220Y-124920D01*
X-44700Y-124600D01*
X-43580Y-123580D01*
X-42920Y-122560D01*
X-42580Y-121720D01*
X-42340Y-120520D01*
X-42320Y-119920D01*
X-42420Y-119019D01*
X-42779Y-117860D01*
X-43400Y-116800D01*
X-44440Y-115719D01*
X-45480Y-115079D01*
X-46620Y-114700D01*
X-47220Y-114600D01*
G37*
G36*
X-188680Y-114560D02*
G01*
X-189880Y-114760D01*
X-191000Y-115220D01*
X-191520Y-115540D01*
X-192640Y-116560D01*
X-193299Y-117579D01*
X-193640Y-118420D01*
X-193880Y-119620D01*
X-193900Y-120220D01*
X-193800Y-121120D01*
X-193440Y-122280D01*
X-192820Y-123340D01*
X-191780Y-124420D01*
X-190740Y-125060D01*
X-189579Y-125460D01*
X-189000Y-125540D01*
X-165640Y-125580D01*
X-164440Y-125380D01*
X-163600Y-125060D01*
X-162800Y-124600D01*
X-161880Y-123800D01*
X-161180Y-122820D01*
X-160780Y-122000D01*
X-160600Y-121420D01*
X-160440Y-120220D01*
X-160479Y-119320D01*
X-160680Y-118420D01*
X-161020Y-117579D01*
X-161680Y-116560D01*
X-162560Y-115719D01*
X-163320Y-115220D01*
X-163880Y-114960D01*
X-165040Y-114640D01*
X-165640Y-114560D01*
G37*
G36*
X-70280Y-134240D02*
G01*
X-71180Y-134320D01*
X-72620Y-134780D01*
X-73160Y-135060D01*
X-73900Y-135600D01*
X-74720Y-136500D01*
X-75320Y-137540D01*
X-75540Y-138120D01*
X-75740Y-139000D01*
X-75780Y-139920D01*
X-75620Y-141120D01*
X-75200Y-142240D01*
X-74320Y-143500D01*
X-73420Y-144300D01*
X-72060Y-144980D01*
X-70880Y-145240D01*
X-47220Y-145240D01*
X-46040Y-144980D01*
X-44700Y-144300D01*
X-44000Y-143720D01*
X-43060Y-142520D01*
X-42580Y-141400D01*
X-42420Y-140820D01*
X-42320Y-139920D01*
X-42340Y-139300D01*
X-42680Y-137820D01*
X-43220Y-136740D01*
X-43780Y-136020D01*
X-44700Y-135240D01*
X-46040Y-134540D01*
X-47220Y-134280D01*
G37*
G36*
X-188380Y-134240D02*
G01*
X-189579Y-134380D01*
X-190740Y-134780D01*
X-191780Y-135420D01*
X-192640Y-136260D01*
X-193440Y-137540D01*
X-193800Y-138700D01*
X-193900Y-139600D01*
X-193880Y-140220D01*
X-193540Y-141700D01*
X-193000Y-142780D01*
X-192440Y-143500D01*
X-191780Y-144120D01*
X-190740Y-144740D01*
X-189579Y-145140D01*
X-188380Y-145280D01*
X-165340Y-145240D01*
X-164160Y-144980D01*
X-162800Y-144300D01*
X-161880Y-143500D01*
X-161320Y-142780D01*
X-160780Y-141700D01*
X-160600Y-141120D01*
X-160440Y-139920D01*
X-160479Y-139000D01*
X-160680Y-138120D01*
X-161180Y-137000D01*
X-161680Y-136260D01*
X-162800Y-135240D01*
X-164160Y-134540D01*
X-165340Y-134280D01*
G37*
G36*
X-70280Y-153920D02*
G01*
X-71180Y-154000D01*
X-72620Y-154460D01*
X-73160Y-154740D01*
X-73900Y-155280D01*
X-74880Y-156420D01*
X-75440Y-157500D01*
X-75620Y-158080D01*
X-75780Y-159280D01*
X-75740Y-160200D01*
X-75540Y-161080D01*
X-75200Y-161940D01*
X-74720Y-162700D01*
X-74120Y-163400D01*
X-73160Y-164140D01*
X-71780Y-164740D01*
X-71180Y-164880D01*
X-70280Y-164960D01*
X-47539Y-164940D01*
X-46340Y-164740D01*
X-44940Y-164140D01*
X-44440Y-163800D01*
X-43780Y-163180D01*
X-42920Y-161940D01*
X-42500Y-160799D01*
X-42340Y-159900D01*
X-42320Y-159280D01*
X-42420Y-158380D01*
X-42779Y-157220D01*
X-43580Y-155940D01*
X-44440Y-155100D01*
X-45480Y-154460D01*
X-46920Y-154000D01*
X-47539Y-153940D01*
G37*
G36*
X-188380Y-153920D02*
G01*
X-189579Y-154060D01*
X-190740Y-154460D01*
X-191780Y-155100D01*
X-192640Y-155940D01*
X-193440Y-157220D01*
X-193800Y-158380D01*
X-193900Y-159280D01*
X-193880Y-159900D01*
X-193540Y-161380D01*
X-193000Y-162460D01*
X-192440Y-163180D01*
X-191780Y-163800D01*
X-190740Y-164420D01*
X-189579Y-164820D01*
X-188380Y-164960D01*
X-165340Y-164920D01*
X-164160Y-164660D01*
X-162800Y-163980D01*
X-161880Y-163180D01*
X-161020Y-161940D01*
X-160680Y-161080D01*
X-160479Y-160200D01*
X-160440Y-159280D01*
X-160600Y-158080D01*
X-161020Y-156960D01*
X-161320Y-156420D01*
X-161880Y-155700D01*
X-163060Y-154740D01*
X-164440Y-154140D01*
X-165040Y-154000D01*
X-165940Y-153920D01*
G37*
G36*
X-70580Y-173619D02*
G01*
X-71780Y-173820D01*
X-72620Y-174140D01*
X-73420Y-174600D01*
X-74520Y-175620D01*
X-75200Y-176640D01*
X-75540Y-177480D01*
X-75740Y-178380D01*
X-75780Y-179280D01*
X-75620Y-180479D01*
X-75200Y-181620D01*
X-74520Y-182640D01*
X-73420Y-183660D01*
X-72620Y-184120D01*
X-71780Y-184440D01*
X-70580Y-184640D01*
X-47220Y-184600D01*
X-46340Y-184440D01*
X-45220Y-183980D01*
X-44700Y-183660D01*
X-43580Y-182640D01*
X-42920Y-181620D01*
X-42580Y-180780D01*
X-42340Y-179579D01*
X-42320Y-178980D01*
X-42420Y-178080D01*
X-42779Y-176920D01*
X-43400Y-175859D01*
X-44440Y-174780D01*
X-45480Y-174140D01*
X-46620Y-173760D01*
X-47220Y-173660D01*
G37*
G36*
X-188680Y-173619D02*
G01*
X-189880Y-173820D01*
X-191000Y-174280D01*
X-191520Y-174600D01*
X-192640Y-175620D01*
X-193299Y-176640D01*
X-193640Y-177480D01*
X-193880Y-178680D01*
X-193900Y-179280D01*
X-193800Y-180180D01*
X-193440Y-181340D01*
X-192820Y-182399D01*
X-191780Y-183480D01*
X-190740Y-184120D01*
X-189579Y-184520D01*
X-189000Y-184600D01*
X-165640Y-184640D01*
X-164440Y-184440D01*
X-163600Y-184120D01*
X-162800Y-183660D01*
X-161880Y-182860D01*
X-161180Y-181880D01*
X-160780Y-181060D01*
X-160600Y-180479D01*
X-160440Y-179280D01*
X-160479Y-178380D01*
X-160680Y-177480D01*
X-161020Y-176640D01*
X-161680Y-175620D01*
X-162560Y-174780D01*
X-163320Y-174280D01*
X-163880Y-174020D01*
X-165040Y-173700D01*
X-165640Y-173619D01*
G37*
G36*
X-89019Y-191940D02*
G01*
X-90220Y-192180D01*
X-91600Y-192820D01*
X-92300Y-193380D01*
X-93100Y-194300D01*
X-93560Y-195080D01*
X-93960Y-196240D01*
X-94060Y-196840D01*
X-94080Y-220180D01*
X-93880Y-221380D01*
X-93280Y-222760D01*
X-92739Y-223500D01*
X-92080Y-224140D01*
X-91340Y-224660D01*
X-89920Y-225219D01*
X-88720Y-225400D01*
X-88120Y-225380D01*
X-86640Y-225040D01*
X-85820Y-224660D01*
X-84620Y-223720D01*
X-83720Y-222500D01*
X-83460Y-221960D01*
X-83100Y-220479D01*
X-83059Y-197440D01*
X-83140Y-196540D01*
X-83460Y-195360D01*
X-84220Y-194060D01*
X-85079Y-193180D01*
X-85820Y-192659D01*
X-87220Y-192100D01*
X-88120Y-191940D01*
G37*
G36*
X-128400Y-191940D02*
G01*
X-129880Y-192280D01*
X-130700Y-192659D01*
X-131900Y-193600D01*
X-132800Y-194820D01*
X-133240Y-195940D01*
X-133380Y-196540D01*
X-133460Y-197440D01*
X-133420Y-220479D01*
X-133060Y-221960D01*
X-132300Y-223260D01*
X-131440Y-224140D01*
X-130700Y-224660D01*
X-129300Y-225219D01*
X-128400Y-225380D01*
X-127800Y-225400D01*
X-126880Y-225300D01*
X-125460Y-224800D01*
X-124920Y-224500D01*
X-124220Y-223939D01*
X-123420Y-223020D01*
X-122960Y-222240D01*
X-122560Y-221080D01*
X-122460Y-220479D01*
X-122440Y-197140D01*
X-122640Y-195940D01*
X-123240Y-194560D01*
X-123780Y-193820D01*
X-124440Y-193180D01*
X-125180Y-192659D01*
X-126600Y-192100D01*
X-127180Y-191980D01*
G37*
G36*
X-108720Y-191940D02*
G01*
X-110200Y-192280D01*
X-111020Y-192659D01*
X-112220Y-193600D01*
X-113120Y-194820D01*
X-113560Y-195940D01*
X-113699Y-196540D01*
X-113780Y-197440D01*
X-113740Y-220479D01*
X-113379Y-221960D01*
X-112620Y-223260D01*
X-111760Y-224140D01*
X-111020Y-224660D01*
X-109620Y-225219D01*
X-108720Y-225380D01*
X-108120Y-225400D01*
X-107200Y-225300D01*
X-105780Y-224800D01*
X-104760Y-224140D01*
X-104100Y-223500D01*
X-103560Y-222760D01*
X-102960Y-221380D01*
X-102760Y-220180D01*
X-102780Y-196840D01*
X-103059Y-195660D01*
X-103280Y-195080D01*
X-103740Y-194300D01*
X-104540Y-193380D01*
X-105500Y-192659D01*
X-106920Y-192100D01*
X-107500Y-191980D01*
G37*
G36*
X-148100Y-191940D02*
G01*
X-149280Y-192180D01*
X-150660Y-192820D01*
X-151360Y-193380D01*
X-152160Y-194300D01*
X-152620Y-195080D01*
X-153020Y-196240D01*
X-153120Y-196840D01*
X-153140Y-220180D01*
X-152940Y-221380D01*
X-152340Y-222760D01*
X-151800Y-223500D01*
X-151140Y-224140D01*
X-150400Y-224660D01*
X-148980Y-225219D01*
X-148100Y-225380D01*
X-147480Y-225400D01*
X-146580Y-225300D01*
X-145140Y-224800D01*
X-143900Y-223939D01*
X-143100Y-223020D01*
X-142640Y-222240D01*
X-142200Y-220780D01*
X-142120Y-219880D01*
X-142160Y-196840D01*
X-142420Y-195660D01*
X-142640Y-195080D01*
X-143480Y-193820D01*
X-143900Y-193380D01*
X-145140Y-192520D01*
X-146000Y-192180D01*
X-146880Y-191980D01*
G37*
G36*
X-134440Y-120079D02*
G01*
X-147640Y-133260D01*
X-147640Y-179140D01*
X-88580Y-179140D01*
X-88580Y-120079D01*
G37*
G36*
X124840Y25820D02*
G01*
X122080Y23860D01*
X122080Y6140D01*
X124840Y4180D01*
X143740Y4180D01*
X145700Y6140D01*
X145700Y23860D01*
X143740Y25820D01*
G37*
G36*
X86260Y25820D02*
G01*
X84300Y23860D01*
X84300Y6140D01*
X86260Y4180D01*
X105160Y4180D01*
X107920Y6140D01*
X107920Y23860D01*
X105160Y25820D01*
G37*
G36*
X-135040Y-256880D02*
G01*
X-137000Y-258860D01*
X-137000Y-276580D01*
X-135040Y-278540D01*
X-116140Y-278540D01*
X-113379Y-276580D01*
X-113379Y-258860D01*
X-116140Y-256880D01*
G37*
G36*
X-96460Y-256880D02*
G01*
X-99220Y-258860D01*
X-99220Y-276580D01*
X-96460Y-278540D01*
X-77560Y-278540D01*
X-75600Y-276580D01*
X-75600Y-258860D01*
X-77560Y-256880D01*
G37*
G36*
X-108740Y-29180D02*
G01*
X-110700Y-31140D01*
X-110700Y-48860D01*
X-108740Y-50820D01*
X-89840Y-50820D01*
X-87080Y-48860D01*
X-87080Y-31140D01*
X-89840Y-29180D01*
G37*
G36*
X-70160Y-29180D02*
G01*
X-72920Y-31140D01*
X-72920Y-48860D01*
X-70160Y-50820D01*
X-51260Y-50820D01*
X-49300Y-48860D01*
X-49300Y-31140D01*
X-51260Y-29180D01*
G37*
G36*
X207680Y-221660D02*
G01*
X206100Y-223220D01*
X206100Y-241340D01*
X207680Y-242920D01*
X227380Y-242920D01*
X228960Y-241340D01*
X228960Y-223220D01*
X227380Y-221660D01*
G37*
G36*
X174180Y-221660D02*
G01*
X172620Y-223220D01*
X172620Y-241340D01*
X174180Y-242920D01*
X193900Y-242920D01*
X195479Y-241340D01*
X195479Y-223220D01*
X193900Y-221660D01*
G37*
G36*
X231880Y25640D02*
G01*
X230320Y24060D01*
X230320Y5940D01*
X231880Y4360D01*
X251600Y4360D01*
X253180Y5940D01*
X253180Y24060D01*
X251600Y25640D01*
G37*
G36*
X198400Y25640D02*
G01*
X196820Y24060D01*
X196820Y5940D01*
X198400Y4360D01*
X218120Y4360D01*
X219680Y5940D01*
X219680Y24060D01*
X218120Y25640D01*
G37*
G36*
X6879Y-1223620D02*
G01*
X4920Y-1226380D01*
X4920Y-1245280D01*
X6879Y-1247240D01*
X24600Y-1247240D01*
X26580Y-1245280D01*
X26580Y-1226380D01*
X24600Y-1223620D01*
G37*
G36*
X6879Y-1185820D02*
G01*
X4920Y-1187800D01*
X4920Y-1206700D01*
X6879Y-1209440D01*
X24600Y-1209440D01*
X26580Y-1206700D01*
X26580Y-1187800D01*
X24600Y-1185820D01*
G37*
G36*
X-13859Y-162079D02*
G01*
X-15820Y-164840D01*
X-15820Y-183740D01*
X-13859Y-185700D01*
X3860Y-185700D01*
X5820Y-183740D01*
X5820Y-164840D01*
X3860Y-162079D01*
G37*
G36*
X-13859Y-124300D02*
G01*
X-15820Y-126260D01*
X-15820Y-145160D01*
X-13859Y-147920D01*
X3860Y-147920D01*
X5820Y-145160D01*
X5820Y-126260D01*
X3860Y-124300D01*
G37*
G36*
X14760Y-634600D02*
G01*
X12780Y-636560D01*
X12780Y-655460D01*
X14760Y-658220D01*
X32480Y-658220D01*
X34440Y-655460D01*
X34440Y-636560D01*
X32480Y-634600D01*
G37*
G36*
X14760Y-672400D02*
G01*
X12780Y-675160D01*
X12780Y-694040D01*
X14760Y-696020D01*
X32480Y-696020D01*
X34440Y-694040D01*
X34440Y-675160D01*
X32480Y-672400D01*
G37*
G36*
X-32480Y-634600D02*
G01*
X-34460Y-636560D01*
X-34460Y-655460D01*
X-32480Y-658220D01*
X-14780Y-658220D01*
X-12800Y-655460D01*
X-12800Y-636560D01*
X-14780Y-634600D01*
G37*
G36*
X-32480Y-672400D02*
G01*
X-34460Y-675160D01*
X-34460Y-694040D01*
X-32480Y-696020D01*
X-14780Y-696020D01*
X-12800Y-694040D01*
X-12800Y-675160D01*
X-14780Y-672400D01*
G37*
G36*
X-229520Y-1044280D02*
G01*
X-231500Y-1046260D01*
X-231500Y-1063980D01*
X-229520Y-1065940D01*
X-210640Y-1065940D01*
X-207880Y-1063980D01*
X-207880Y-1046260D01*
X-210640Y-1044280D01*
G37*
G36*
X-190940Y-1044280D02*
G01*
X-193700Y-1046260D01*
X-193700Y-1063980D01*
X-190940Y-1065940D01*
X-172040Y-1065940D01*
X-170080Y-1063980D01*
X-170080Y-1046260D01*
X-172040Y-1044280D01*
G37*
G36*
X-13859Y-262079D02*
G01*
X-15820Y-264840D01*
X-15820Y-283740D01*
X-13859Y-285700D01*
X3860Y-285700D01*
X5820Y-283740D01*
X5820Y-264840D01*
X3860Y-262079D01*
G37*
G36*
X-13859Y-224300D02*
G01*
X-15820Y-226260D01*
X-15820Y-245159D01*
X-13859Y-247920D01*
X3860Y-247920D01*
X5820Y-245159D01*
X5820Y-226260D01*
X3860Y-224300D01*
G37*
G36*
X-233260Y-158260D02*
G01*
X-235240Y-160240D01*
X-235240Y-179140D01*
X-233260Y-181880D01*
X-215539Y-181880D01*
X-213580Y-179140D01*
X-213580Y-160240D01*
X-215539Y-158260D01*
G37*
G36*
X-233260Y-196060D02*
G01*
X-235240Y-198820D01*
X-235240Y-217719D01*
X-233260Y-219680D01*
X-215539Y-219680D01*
X-213580Y-217719D01*
X-213580Y-198820D01*
X-215539Y-196060D01*
G37*
G36*
X-109700Y-1168040D02*
G01*
X-113040Y-1168600D01*
X-126400Y-1181960D01*
X-126400Y-1184740D01*
X-113880Y-1197260D01*
X-111100Y-1197260D01*
X-97739Y-1183900D01*
X-97180Y-1180560D01*
G37*
G36*
X-85760Y-1141320D02*
G01*
X-99120Y-1154680D01*
X-99680Y-1158020D01*
X-87160Y-1170540D01*
X-83820Y-1169980D01*
X-70440Y-1156620D01*
X-70440Y-1153840D01*
X-82980Y-1141320D01*
G37*
G36*
X178520Y-1178380D02*
G01*
X165560Y-1190460D01*
X165479Y-1193240D01*
X178359Y-1207060D01*
X181680Y-1207740D01*
X194640Y-1195640D01*
X194200Y-1192300D01*
X181300Y-1178480D01*
G37*
G36*
X204300Y-1206020D02*
G01*
X191340Y-1218100D01*
X191780Y-1221460D01*
X204680Y-1235280D01*
X207460Y-1235380D01*
X220420Y-1223300D01*
X220500Y-1220500D01*
X207620Y-1206680D01*
G37*
G36*
X146200Y-825520D02*
G01*
X142860Y-826080D01*
X129500Y-839440D01*
X129500Y-842220D01*
X142020Y-854740D01*
X144820Y-854740D01*
X158180Y-841380D01*
X158740Y-838040D01*
G37*
G36*
X170140Y-798800D02*
G01*
X156780Y-812159D01*
X156220Y-815500D01*
X168760Y-828020D01*
X172100Y-827460D01*
X185460Y-814100D01*
X185460Y-811320D01*
X172940Y-798800D01*
G37*
G36*
X-50320Y-1176740D02*
G01*
X-63680Y-1190100D01*
X-64240Y-1193440D01*
X-51720Y-1205980D01*
X-48380Y-1205420D01*
X-35020Y-1192060D01*
X-35020Y-1189280D01*
X-47539Y-1176740D01*
G37*
G36*
X-74260Y-1203460D02*
G01*
X-77600Y-1204020D01*
X-90960Y-1217380D01*
X-90960Y-1220180D01*
X-78440Y-1232700D01*
X-75660Y-1232700D01*
X-62300Y-1219340D01*
X-61740Y-1216000D01*
G37*
G36*
X291880Y-44360D02*
G01*
X290320Y-45940D01*
X290320Y-64060D01*
X291880Y-65640D01*
X311600Y-65640D01*
X313180Y-64060D01*
X313180Y-45940D01*
X311600Y-44360D01*
G37*
G36*
X258400Y-44360D02*
G01*
X256820Y-45940D01*
X256820Y-64060D01*
X258400Y-65640D01*
X278120Y-65640D01*
X279680Y-64060D01*
X279680Y-45940D01*
X278120Y-44360D01*
G37*
G36*
X32460Y-154720D02*
G01*
X30880Y-156300D01*
X30880Y-174400D01*
X32460Y-175980D01*
X52160Y-175980D01*
X53740Y-174400D01*
X53740Y-156300D01*
X52160Y-154720D01*
G37*
G36*
X65940Y-154720D02*
G01*
X64360Y-156300D01*
X64360Y-174400D01*
X65940Y-175980D01*
X85660Y-175980D01*
X87220Y-174400D01*
X87220Y-156300D01*
X85660Y-154720D01*
G37*
G36*
X-140780Y-375200D02*
G01*
X-142340Y-376780D01*
X-142340Y-394880D01*
X-140780Y-396460D01*
X-121060Y-396460D01*
X-119480Y-394880D01*
X-119480Y-376780D01*
X-121060Y-375200D01*
G37*
G36*
X-107280Y-375200D02*
G01*
X-108859Y-376780D01*
X-108859Y-394880D01*
X-107280Y-396460D01*
X-87579Y-396460D01*
X-86000Y-394880D01*
X-86000Y-376780D01*
X-87579Y-375200D01*
G37*
G36*
X-183120Y-29360D02*
G01*
X-184680Y-30940D01*
X-184680Y-49060D01*
X-183120Y-50640D01*
X-163400Y-50640D01*
X-161820Y-49060D01*
X-161820Y-30940D01*
X-163400Y-29360D01*
G37*
G36*
X-216600Y-29360D02*
G01*
X-218180Y-30940D01*
X-218180Y-49060D01*
X-216600Y-50640D01*
X-196880Y-50640D01*
X-195320Y-49060D01*
X-195320Y-30940D01*
X-196880Y-29360D01*
G37*
G36*
X-14060Y-65320D02*
G01*
X-15640Y-66880D01*
X-15640Y-86600D01*
X-14060Y-88180D01*
X4060Y-88180D01*
X5639Y-86600D01*
X5639Y-66880D01*
X4060Y-65320D01*
G37*
G36*
X-14060Y-31820D02*
G01*
X-15640Y-33400D01*
X-15640Y-53120D01*
X-14060Y-54680D01*
X4060Y-54680D01*
X5639Y-53120D01*
X5639Y-33400D01*
X4060Y-31820D01*
G37*
G36*
X69680Y-648940D02*
G01*
X68100Y-650520D01*
X68100Y-670240D01*
X69680Y-671800D01*
X87780Y-671800D01*
X89360Y-670240D01*
X89360Y-650520D01*
X87780Y-648940D01*
G37*
G36*
X69680Y-682440D02*
G01*
X68100Y-684020D01*
X68100Y-703720D01*
X69680Y-705300D01*
X87780Y-705300D01*
X89360Y-703720D01*
X89360Y-684020D01*
X87780Y-682440D01*
G37*
G36*
X-233460Y-103740D02*
G01*
X-235040Y-105320D01*
X-235040Y-125020D01*
X-233460Y-126600D01*
X-215360Y-126600D01*
X-213780Y-125020D01*
X-213780Y-105320D01*
X-215360Y-103740D01*
G37*
G36*
X-233460Y-70260D02*
G01*
X-235040Y-71820D01*
X-235040Y-91540D01*
X-233460Y-93120D01*
X-215360Y-93120D01*
X-213780Y-91540D01*
X-213780Y-71820D01*
X-215360Y-70260D01*
G37*
G36*
X-197840Y-253140D02*
G01*
X-199400Y-254720D01*
X-199400Y-272840D01*
X-197840Y-274400D01*
X-178120Y-274400D01*
X-176540Y-272840D01*
X-176540Y-254720D01*
X-178120Y-253140D01*
G37*
G36*
X-231320Y-253140D02*
G01*
X-232900Y-254720D01*
X-232900Y-272840D01*
X-231320Y-274400D01*
X-211620Y-274400D01*
X-210040Y-272840D01*
X-210040Y-254720D01*
X-211620Y-253140D01*
G37*
G36*
X-87800Y-682440D02*
G01*
X-89380Y-684020D01*
X-89380Y-703720D01*
X-87800Y-705300D01*
X-69700Y-705300D01*
X-68120Y-703720D01*
X-68120Y-684020D01*
X-69700Y-682440D01*
G37*
G36*
X-87800Y-648940D02*
G01*
X-89380Y-650520D01*
X-89380Y-670240D01*
X-87800Y-671800D01*
X-69700Y-671800D01*
X-68120Y-670240D01*
X-68120Y-650520D01*
X-69700Y-648940D01*
G37*
G36*
X-140780Y-324020D02*
G01*
X-142340Y-325600D01*
X-142340Y-343700D01*
X-140780Y-345280D01*
X-121060Y-345280D01*
X-119480Y-343700D01*
X-119480Y-325600D01*
X-121060Y-324020D01*
G37*
G36*
X-107280Y-324020D02*
G01*
X-108859Y-325600D01*
X-108859Y-343700D01*
X-107280Y-345280D01*
X-87579Y-345280D01*
X-86000Y-343700D01*
X-86000Y-325600D01*
X-87579Y-324020D01*
G37*
D10*
G01*
X-169000Y-504976D03*
G01*
X-169000Y-677023D03*
G01*
X169600Y-504976D03*
G01*
X169600Y-677023D03*
D11*
G01*
X216529Y-187989D03*
G01*
X200790Y-187989D03*
G01*
X185039Y-187989D03*
G01*
X169290Y-187989D03*
G01*
X153539Y-187989D03*
G01*
X137789Y-187989D03*
G01*
X137789Y-32480D03*
G01*
X153539Y-32480D03*
G01*
X169290Y-32480D03*
G01*
X185039Y-32480D03*
G01*
X200790Y-32480D03*
G01*
X216529Y-32480D03*
D12*
G01*
X177159Y-110234D03*
D13*
G01*
X-184050Y-404529D03*
G01*
X-184059Y-335630D03*
G01*
X-225390Y-404529D03*
G01*
X-225390Y-335630D03*
D14*
G01*
X-1970Y-1448820D03*
G01*
X-163389Y-1448820D03*
D15*
G01*
X50000Y-225000D03*
D16*
G01*
X62800Y-242724D03*
D17*
G01*
X37199Y-207275D03*
D18*
G01*
X62800Y-207277D03*
D19*
G01*
X37199Y-241739D03*
M02*
