G04 Layer: BottomLayer*
G04 EasyEDA v6.5.50, 2025-05-29 20:10:11*
G04 51d2a156a5c9454999fc887beed5754f,29d699c3718f4358a2dc827e738e4458,10*
G04 Gerber Generator version 0.2*
G04 Scale: 100 percent, Rotated: No, Reflected: No *
G04 Dimensions in inches *
G04 leading zeros omitted , absolute positions ,3 integer and 6 decimal *
%FSLAX36Y36*%
%MOIN*%

%ADD10C,0.0079*%
%ADD11O,0.047244X0.070866*%
%ADD12O,0.047244X0.07873999999999999*%
%ADD13C,0.0600*%
%ADD14R,0.0600X0.0600*%
%ADD15C,0.0240*%
%ADD16C,0.0138*%
%ADD17C,0.0198*%

%LPD*%
G36*
X245859Y-259220D02*
G01*
X244340Y-258900D01*
X243039Y-258039D01*
X237300Y-252320D01*
X236439Y-251020D01*
X236140Y-249480D01*
X236140Y-147520D01*
X236439Y-145980D01*
X237300Y-144680D01*
X243039Y-138960D01*
X244340Y-138100D01*
X245859Y-137780D01*
X247399Y-138100D01*
X248700Y-138960D01*
X249560Y-140260D01*
X249860Y-141780D01*
X249860Y-255219D01*
X249560Y-256740D01*
X248700Y-258039D01*
X247399Y-258900D01*
G37*

%LPD*%
G36*
X435319Y-878199D02*
G01*
X433720Y-877640D01*
X432500Y-876480D01*
X431540Y-875080D01*
X427939Y-871100D01*
X423840Y-867640D01*
X419320Y-864760D01*
X414440Y-862500D01*
X409320Y-860900D01*
X404020Y-860000D01*
X398660Y-859820D01*
X393320Y-860360D01*
X388100Y-861620D01*
X385840Y-862480D01*
X384320Y-862740D01*
X382840Y-862420D01*
X381560Y-861580D01*
X279300Y-759320D01*
X278440Y-758020D01*
X278140Y-756480D01*
X278140Y-292900D01*
X278380Y-291500D01*
X279120Y-290280D01*
X280220Y-289400D01*
X281560Y-288940D01*
X284020Y-288600D01*
X287100Y-287520D01*
X289900Y-285900D01*
X292360Y-283780D01*
X294360Y-281220D01*
X295840Y-278340D01*
X296480Y-276200D01*
X296880Y-275300D01*
X297480Y-274500D01*
X309840Y-262140D01*
X311840Y-259680D01*
X313180Y-257060D01*
X313960Y-254160D01*
X314140Y-251840D01*
X314140Y-162520D01*
X314440Y-160980D01*
X315300Y-159680D01*
X357780Y-117220D01*
X358980Y-116380D01*
X360379Y-116039D01*
X361820Y-116220D01*
X363100Y-116900D01*
X364060Y-118000D01*
X366860Y-122739D01*
X370180Y-126960D01*
X374040Y-130700D01*
X378380Y-133880D01*
X383080Y-136460D01*
X388080Y-138380D01*
X393320Y-139640D01*
X398660Y-140160D01*
X404020Y-139980D01*
X409320Y-139100D01*
X414440Y-137500D01*
X419320Y-135240D01*
X423840Y-132360D01*
X427939Y-128880D01*
X431540Y-124900D01*
X432500Y-123500D01*
X433720Y-122360D01*
X435319Y-121800D01*
X436980Y-121940D01*
X438440Y-122780D01*
X439440Y-124120D01*
X439799Y-125760D01*
X439799Y-174220D01*
X439440Y-175859D01*
X438440Y-177220D01*
X436980Y-178039D01*
X435319Y-178180D01*
X433720Y-177640D01*
X432500Y-176480D01*
X431540Y-175080D01*
X427939Y-171100D01*
X423840Y-167640D01*
X419320Y-164740D01*
X414440Y-162480D01*
X409320Y-160900D01*
X404020Y-160000D01*
X398660Y-159820D01*
X393320Y-160360D01*
X388100Y-161600D01*
X383080Y-163540D01*
X378380Y-166119D01*
X374060Y-169300D01*
X370200Y-173039D01*
X366860Y-177240D01*
X364120Y-181860D01*
X362040Y-186820D01*
X360620Y-191980D01*
X359900Y-197300D01*
X359900Y-202680D01*
X360620Y-208000D01*
X362040Y-213180D01*
X364120Y-218120D01*
X366860Y-222740D01*
X370200Y-226960D01*
X374060Y-230680D01*
X378380Y-233880D01*
X383080Y-236460D01*
X388100Y-238380D01*
X393320Y-239620D01*
X398660Y-240159D01*
X404020Y-239980D01*
X409320Y-239100D01*
X414440Y-237500D01*
X419320Y-235240D01*
X423840Y-232360D01*
X427939Y-228880D01*
X431540Y-224899D01*
X432500Y-223500D01*
X433720Y-222360D01*
X435319Y-221800D01*
X436980Y-221940D01*
X438440Y-222780D01*
X439440Y-224120D01*
X439799Y-225780D01*
X439799Y-274220D01*
X439440Y-275860D01*
X438440Y-277220D01*
X436980Y-278040D01*
X435319Y-278200D01*
X433720Y-277640D01*
X432500Y-276480D01*
X431540Y-275080D01*
X427939Y-271100D01*
X423840Y-267640D01*
X419320Y-264760D01*
X414440Y-262500D01*
X409320Y-260900D01*
X404020Y-260000D01*
X398660Y-259820D01*
X393320Y-260360D01*
X388100Y-261620D01*
X383080Y-263540D01*
X378380Y-266120D01*
X374060Y-269300D01*
X370200Y-273040D01*
X366860Y-277260D01*
X364120Y-281880D01*
X362040Y-286820D01*
X360620Y-292000D01*
X359900Y-297320D01*
X359900Y-302680D01*
X360620Y-308000D01*
X362040Y-313180D01*
X364120Y-318120D01*
X366860Y-322740D01*
X370200Y-326960D01*
X374060Y-330680D01*
X378380Y-333880D01*
X383080Y-336460D01*
X388100Y-338380D01*
X393320Y-339620D01*
X398660Y-340160D01*
X404020Y-339980D01*
X409320Y-339099D01*
X414440Y-337500D01*
X419320Y-335240D01*
X423840Y-332360D01*
X427939Y-328880D01*
X431540Y-324900D01*
X432500Y-323500D01*
X433720Y-322360D01*
X435319Y-321800D01*
X436980Y-321960D01*
X438440Y-322780D01*
X439440Y-324120D01*
X439799Y-325780D01*
X439799Y-374219D01*
X439440Y-375860D01*
X438440Y-377220D01*
X436980Y-378040D01*
X435319Y-378200D01*
X433720Y-377640D01*
X432500Y-376480D01*
X431540Y-375080D01*
X427939Y-371100D01*
X423840Y-367640D01*
X419320Y-364760D01*
X414440Y-362500D01*
X409320Y-360900D01*
X404020Y-360000D01*
X398660Y-359820D01*
X393320Y-360360D01*
X388100Y-361620D01*
X383080Y-363540D01*
X378380Y-366120D01*
X374060Y-369300D01*
X370200Y-373040D01*
X366860Y-377260D01*
X364120Y-381880D01*
X362040Y-386820D01*
X360620Y-392000D01*
X359900Y-397320D01*
X359900Y-402680D01*
X360620Y-408000D01*
X362040Y-413180D01*
X364120Y-418120D01*
X366860Y-422740D01*
X370200Y-426960D01*
X374060Y-430680D01*
X378380Y-433880D01*
X383080Y-436460D01*
X388100Y-438380D01*
X393320Y-439620D01*
X398660Y-440160D01*
X404020Y-439980D01*
X409320Y-439099D01*
X414440Y-437500D01*
X419320Y-435240D01*
X423840Y-432360D01*
X427939Y-428880D01*
X431540Y-424900D01*
X432500Y-423500D01*
X433720Y-422360D01*
X435319Y-421800D01*
X436980Y-421960D01*
X438440Y-422780D01*
X439440Y-424120D01*
X439799Y-425780D01*
X439799Y-474219D01*
X439440Y-475860D01*
X438440Y-477220D01*
X436980Y-478040D01*
X435319Y-478200D01*
X433720Y-477640D01*
X432500Y-476480D01*
X431540Y-475080D01*
X427939Y-471100D01*
X423840Y-467640D01*
X419320Y-464760D01*
X414440Y-462500D01*
X409320Y-460900D01*
X404020Y-460000D01*
X398660Y-459820D01*
X393320Y-460360D01*
X388100Y-461620D01*
X383080Y-463540D01*
X378380Y-466120D01*
X374060Y-469300D01*
X370200Y-473040D01*
X366860Y-477260D01*
X364120Y-481880D01*
X362040Y-486820D01*
X360620Y-492000D01*
X359900Y-497320D01*
X359900Y-502680D01*
X360620Y-508000D01*
X362040Y-513180D01*
X364120Y-518120D01*
X366860Y-522740D01*
X370200Y-526960D01*
X374060Y-530680D01*
X378380Y-533880D01*
X383080Y-536460D01*
X388100Y-538380D01*
X393320Y-539620D01*
X398660Y-540160D01*
X404020Y-539980D01*
X409320Y-539100D01*
X414440Y-537500D01*
X419320Y-535240D01*
X423840Y-532360D01*
X427939Y-528880D01*
X431540Y-524900D01*
X432500Y-523500D01*
X433720Y-522360D01*
X435319Y-521800D01*
X436980Y-521960D01*
X438440Y-522780D01*
X439440Y-524120D01*
X439799Y-525780D01*
X439799Y-574220D01*
X439440Y-575860D01*
X438440Y-577220D01*
X436980Y-578040D01*
X435319Y-578200D01*
X433720Y-577640D01*
X432500Y-576480D01*
X431540Y-575080D01*
X427939Y-571100D01*
X423840Y-567640D01*
X419320Y-564760D01*
X414440Y-562500D01*
X409320Y-560900D01*
X404020Y-560000D01*
X398660Y-559820D01*
X393320Y-560360D01*
X388100Y-561620D01*
X383080Y-563540D01*
X378380Y-566120D01*
X374060Y-569300D01*
X370200Y-573040D01*
X366860Y-577260D01*
X364120Y-581880D01*
X362040Y-586820D01*
X360620Y-592000D01*
X359900Y-597320D01*
X359900Y-602680D01*
X360620Y-608000D01*
X362040Y-613180D01*
X364120Y-618120D01*
X366860Y-622740D01*
X370200Y-626960D01*
X374060Y-630680D01*
X378380Y-633880D01*
X383080Y-636460D01*
X388100Y-638380D01*
X393320Y-639620D01*
X398660Y-640160D01*
X404020Y-639980D01*
X409320Y-639100D01*
X414440Y-637500D01*
X419320Y-635240D01*
X423840Y-632360D01*
X427939Y-628880D01*
X431540Y-624900D01*
X432500Y-623500D01*
X433720Y-622360D01*
X435319Y-621800D01*
X436980Y-621960D01*
X438440Y-622780D01*
X439440Y-624120D01*
X439799Y-625780D01*
X439799Y-674220D01*
X439440Y-675860D01*
X438440Y-677220D01*
X436980Y-678040D01*
X435319Y-678199D01*
X433720Y-677640D01*
X432500Y-676480D01*
X431540Y-675080D01*
X427939Y-671100D01*
X423840Y-667640D01*
X419320Y-664760D01*
X414440Y-662500D01*
X409320Y-660900D01*
X404020Y-660000D01*
X398660Y-659820D01*
X393320Y-660360D01*
X388100Y-661620D01*
X383080Y-663540D01*
X378380Y-666120D01*
X374060Y-669300D01*
X370200Y-673040D01*
X366860Y-677260D01*
X364120Y-681880D01*
X362040Y-686820D01*
X360620Y-692000D01*
X359900Y-697320D01*
X359900Y-702680D01*
X360620Y-708000D01*
X362040Y-713180D01*
X364120Y-718120D01*
X366860Y-722740D01*
X370200Y-726960D01*
X374060Y-730680D01*
X378380Y-733880D01*
X383080Y-736460D01*
X388100Y-738379D01*
X393320Y-739620D01*
X398660Y-740160D01*
X404020Y-739980D01*
X409320Y-739100D01*
X414440Y-737500D01*
X419320Y-735240D01*
X423840Y-732360D01*
X427939Y-728880D01*
X431540Y-724900D01*
X432500Y-723500D01*
X433720Y-722360D01*
X435319Y-721800D01*
X436980Y-721960D01*
X438440Y-722780D01*
X439440Y-724120D01*
X439799Y-725780D01*
X439799Y-774220D01*
X439440Y-775860D01*
X438440Y-777220D01*
X436980Y-778040D01*
X435319Y-778199D01*
X433720Y-777640D01*
X432500Y-776480D01*
X431540Y-775080D01*
X427939Y-771100D01*
X423840Y-767640D01*
X419320Y-764760D01*
X414440Y-762500D01*
X409320Y-760900D01*
X404020Y-760000D01*
X398660Y-759820D01*
X393320Y-760360D01*
X388100Y-761620D01*
X383080Y-763540D01*
X378380Y-766120D01*
X374060Y-769300D01*
X370200Y-773040D01*
X366860Y-777260D01*
X364120Y-781880D01*
X362040Y-786820D01*
X360620Y-792000D01*
X359900Y-797320D01*
X359900Y-802680D01*
X360620Y-808000D01*
X362040Y-813180D01*
X364120Y-818120D01*
X366860Y-822740D01*
X370200Y-826960D01*
X374060Y-830680D01*
X378380Y-833880D01*
X383080Y-836460D01*
X388100Y-838379D01*
X393320Y-839620D01*
X398660Y-840160D01*
X404020Y-839980D01*
X409320Y-839100D01*
X414440Y-837500D01*
X419320Y-835240D01*
X423840Y-832360D01*
X427939Y-828880D01*
X431540Y-824900D01*
X432500Y-823500D01*
X433720Y-822360D01*
X435319Y-821800D01*
X436980Y-821960D01*
X438440Y-822780D01*
X439440Y-824120D01*
X439799Y-825780D01*
X439799Y-874220D01*
X439440Y-875860D01*
X438440Y-877220D01*
X436980Y-878040D01*
G37*

%LPD*%
G36*
X435319Y-978199D02*
G01*
X433720Y-977640D01*
X432500Y-976480D01*
X431540Y-975080D01*
X427939Y-971100D01*
X423840Y-967640D01*
X419320Y-964760D01*
X414440Y-962500D01*
X409320Y-960900D01*
X404020Y-960000D01*
X398660Y-959820D01*
X393320Y-960360D01*
X388100Y-961620D01*
X385840Y-962480D01*
X384320Y-962740D01*
X382840Y-962420D01*
X381560Y-961580D01*
X259300Y-839320D01*
X258440Y-838020D01*
X258140Y-836480D01*
X258140Y-787780D01*
X258440Y-786260D01*
X259300Y-784960D01*
X260600Y-784100D01*
X262140Y-783780D01*
X263660Y-784100D01*
X264960Y-784960D01*
X361560Y-881540D01*
X362420Y-882860D01*
X362720Y-884400D01*
X362400Y-885939D01*
X362040Y-886820D01*
X360620Y-892000D01*
X359900Y-897320D01*
X359900Y-902680D01*
X360620Y-908000D01*
X362040Y-913180D01*
X364120Y-918120D01*
X366860Y-922740D01*
X370200Y-926960D01*
X374060Y-930680D01*
X378380Y-933880D01*
X383080Y-936460D01*
X388100Y-938379D01*
X393320Y-939620D01*
X398660Y-940160D01*
X404020Y-939980D01*
X409320Y-939100D01*
X414440Y-937500D01*
X419320Y-935240D01*
X423840Y-932360D01*
X427939Y-928880D01*
X431540Y-924900D01*
X432500Y-923500D01*
X433720Y-922360D01*
X435319Y-921800D01*
X436980Y-921940D01*
X438440Y-922780D01*
X439440Y-924120D01*
X439799Y-925780D01*
X439799Y-974220D01*
X439440Y-975860D01*
X438440Y-977220D01*
X436980Y-978040D01*
G37*

%LPD*%
G36*
X-205680Y-1197860D02*
G01*
X-207220Y-1197560D01*
X-208520Y-1196700D01*
X-315060Y-1090160D01*
X-317520Y-1088160D01*
X-320140Y-1086820D01*
X-323040Y-1086040D01*
X-325360Y-1085860D01*
X-359760Y-1085860D01*
X-361180Y-1085600D01*
X-362440Y-1084820D01*
X-363320Y-1083660D01*
X-365420Y-1079520D01*
X-368459Y-1075080D01*
X-372060Y-1071100D01*
X-376160Y-1067640D01*
X-380680Y-1064760D01*
X-385560Y-1062500D01*
X-390680Y-1060900D01*
X-395980Y-1060000D01*
X-401340Y-1059820D01*
X-406680Y-1060360D01*
X-411900Y-1061620D01*
X-416920Y-1063540D01*
X-421620Y-1066120D01*
X-425940Y-1069300D01*
X-429799Y-1073040D01*
X-432660Y-1076660D01*
X-433920Y-1077700D01*
X-435480Y-1078160D01*
X-437120Y-1077960D01*
X-438519Y-1077100D01*
X-439460Y-1075780D01*
X-439799Y-1074180D01*
X-439799Y-1025819D01*
X-439460Y-1024220D01*
X-438519Y-1022880D01*
X-437120Y-1022039D01*
X-435480Y-1021840D01*
X-433920Y-1022300D01*
X-432660Y-1023340D01*
X-429799Y-1026960D01*
X-425940Y-1030699D01*
X-421620Y-1033880D01*
X-416920Y-1036460D01*
X-411900Y-1038379D01*
X-406680Y-1039620D01*
X-401340Y-1040160D01*
X-395980Y-1039980D01*
X-390680Y-1039100D01*
X-385560Y-1037500D01*
X-380680Y-1035240D01*
X-376160Y-1032360D01*
X-372060Y-1028880D01*
X-368459Y-1024900D01*
X-365420Y-1020480D01*
X-363320Y-1016340D01*
X-362440Y-1015180D01*
X-361200Y-1014400D01*
X-359760Y-1014140D01*
X-156520Y-1014140D01*
X-154980Y-1014440D01*
X-153680Y-1015300D01*
X22040Y-1191040D01*
X22900Y-1192340D01*
X23220Y-1193860D01*
X22900Y-1195400D01*
X22040Y-1196700D01*
X20740Y-1197560D01*
X19220Y-1197860D01*
G37*

%LPC*%
G36*
X-52840Y-1176440D02*
G01*
X-49640Y-1175980D01*
X-46560Y-1174920D01*
X-43760Y-1173300D01*
X-41300Y-1171180D01*
X-39300Y-1168620D01*
X-37820Y-1165740D01*
X-36900Y-1162620D01*
X-36580Y-1159400D01*
X-36900Y-1156160D01*
X-37820Y-1153060D01*
X-39300Y-1150160D01*
X-41300Y-1147620D01*
X-43760Y-1145500D01*
X-46560Y-1143860D01*
X-49640Y-1142800D01*
X-52840Y-1142340D01*
X-56080Y-1142500D01*
X-59240Y-1143260D01*
X-62200Y-1144620D01*
X-64840Y-1146500D01*
X-67080Y-1148840D01*
X-68840Y-1151580D01*
X-70040Y-1154580D01*
X-70660Y-1157780D01*
X-70660Y-1161020D01*
X-70040Y-1164200D01*
X-68840Y-1167220D01*
X-67080Y-1169960D01*
X-64840Y-1172300D01*
X-62200Y-1174180D01*
X-59240Y-1175520D01*
X-56080Y-1176300D01*
G37*

%LPD*%
G36*
X-356800Y-1212860D02*
G01*
X-358519Y-1212480D01*
X-359900Y-1211400D01*
X-360680Y-1209820D01*
X-360720Y-1208060D01*
X-360160Y-1205360D01*
X-359799Y-1200000D01*
X-360160Y-1194640D01*
X-361240Y-1189380D01*
X-363000Y-1184300D01*
X-365420Y-1179520D01*
X-368459Y-1175080D01*
X-372060Y-1171100D01*
X-376160Y-1167640D01*
X-380680Y-1164760D01*
X-385560Y-1162500D01*
X-390680Y-1160900D01*
X-395980Y-1160000D01*
X-401340Y-1159820D01*
X-406680Y-1160360D01*
X-411900Y-1161620D01*
X-416920Y-1163540D01*
X-421620Y-1166120D01*
X-425940Y-1169300D01*
X-429799Y-1173040D01*
X-432660Y-1176660D01*
X-433920Y-1177700D01*
X-435480Y-1178160D01*
X-437120Y-1177960D01*
X-438519Y-1177100D01*
X-439460Y-1175780D01*
X-439799Y-1174180D01*
X-439799Y-1125820D01*
X-439460Y-1124220D01*
X-438519Y-1122880D01*
X-437120Y-1122040D01*
X-435480Y-1121840D01*
X-433920Y-1122300D01*
X-432660Y-1123340D01*
X-429799Y-1126960D01*
X-425940Y-1130700D01*
X-421620Y-1133880D01*
X-416920Y-1136460D01*
X-411900Y-1138380D01*
X-406680Y-1139620D01*
X-401340Y-1140160D01*
X-395980Y-1139980D01*
X-390680Y-1139100D01*
X-385560Y-1137500D01*
X-380680Y-1135240D01*
X-376160Y-1132360D01*
X-372060Y-1128880D01*
X-368459Y-1124900D01*
X-365420Y-1120480D01*
X-363320Y-1116340D01*
X-362440Y-1115180D01*
X-361200Y-1114400D01*
X-359760Y-1114140D01*
X-332720Y-1114140D01*
X-331180Y-1114440D01*
X-329880Y-1115300D01*
X-239160Y-1206040D01*
X-238299Y-1207340D01*
X-237979Y-1208860D01*
X-238299Y-1210400D01*
X-239160Y-1211700D01*
X-240460Y-1212560D01*
X-241980Y-1212860D01*
G37*

%LPD*%
G36*
X-359760Y-1285860D02*
G01*
X-361180Y-1285600D01*
X-362440Y-1284820D01*
X-363320Y-1283660D01*
X-365420Y-1279520D01*
X-368459Y-1275080D01*
X-372060Y-1271100D01*
X-376160Y-1267640D01*
X-380680Y-1264760D01*
X-385560Y-1262500D01*
X-390680Y-1260900D01*
X-395980Y-1260000D01*
X-401340Y-1259820D01*
X-406680Y-1260360D01*
X-411900Y-1261620D01*
X-416920Y-1263540D01*
X-421620Y-1266120D01*
X-425940Y-1269300D01*
X-429799Y-1273040D01*
X-432660Y-1276660D01*
X-433920Y-1277700D01*
X-435480Y-1278160D01*
X-437120Y-1277960D01*
X-438519Y-1277100D01*
X-439460Y-1275780D01*
X-439799Y-1274180D01*
X-439799Y-1225820D01*
X-439460Y-1224220D01*
X-438519Y-1222880D01*
X-437120Y-1222040D01*
X-435480Y-1221840D01*
X-433920Y-1222300D01*
X-432660Y-1223340D01*
X-429799Y-1226960D01*
X-425940Y-1230700D01*
X-421620Y-1233880D01*
X-416920Y-1236460D01*
X-411900Y-1238380D01*
X-406680Y-1239620D01*
X-401340Y-1240160D01*
X-395980Y-1239980D01*
X-390680Y-1239100D01*
X-385319Y-1237420D01*
X-384060Y-1237260D01*
X-382819Y-1237480D01*
X-381700Y-1238080D01*
X-380740Y-1238820D01*
X-378060Y-1240180D01*
X-375160Y-1240960D01*
X-372840Y-1241140D01*
X-257800Y-1241140D01*
X-256100Y-1241520D01*
X-254740Y-1242560D01*
X-253939Y-1244100D01*
X-253860Y-1245840D01*
X-254520Y-1247440D01*
X-255799Y-1248600D01*
X-257540Y-1249600D01*
X-259300Y-1251120D01*
X-292880Y-1284700D01*
X-294180Y-1285560D01*
X-295720Y-1285860D01*
G37*

%LPD*%
G36*
X-259560Y-1301000D02*
G01*
X-261080Y-1300700D01*
X-262380Y-1299820D01*
X-263240Y-1298540D01*
X-263560Y-1297000D01*
X-263240Y-1295460D01*
X-262380Y-1294180D01*
X-244520Y-1276300D01*
X-243220Y-1275440D01*
X-241680Y-1275140D01*
X122800Y-1275140D01*
X125940Y-1274800D01*
X128740Y-1273900D01*
X131340Y-1272400D01*
X133100Y-1270880D01*
X215859Y-1188120D01*
X217260Y-1187220D01*
X218880Y-1186960D01*
X220820Y-1187060D01*
X224020Y-1186600D01*
X227100Y-1185520D01*
X229899Y-1183900D01*
X232360Y-1181780D01*
X234360Y-1179220D01*
X235840Y-1176340D01*
X236759Y-1173240D01*
X237079Y-1170000D01*
X236759Y-1166760D01*
X235840Y-1163660D01*
X234360Y-1160780D01*
X232360Y-1158220D01*
X229899Y-1156100D01*
X227100Y-1154480D01*
X224020Y-1153400D01*
X220820Y-1152940D01*
X217580Y-1153100D01*
X214420Y-1153860D01*
X211460Y-1155220D01*
X209960Y-1156280D01*
X208359Y-1157040D01*
X205660Y-1158600D01*
X203900Y-1160120D01*
X198160Y-1165840D01*
X196860Y-1166700D01*
X195340Y-1167020D01*
X193800Y-1166700D01*
X192500Y-1165840D01*
X191640Y-1164540D01*
X191340Y-1163020D01*
X191340Y-1156240D01*
X191439Y-1155300D01*
X191780Y-1154400D01*
X193020Y-1152020D01*
X193920Y-1148900D01*
X194240Y-1145660D01*
X193920Y-1142440D01*
X193020Y-1139320D01*
X191520Y-1136440D01*
X189520Y-1133880D01*
X187060Y-1131760D01*
X184259Y-1130140D01*
X181180Y-1129080D01*
X177979Y-1128620D01*
X174740Y-1128760D01*
X171580Y-1129540D01*
X168960Y-1130740D01*
X167740Y-1131060D01*
X166480Y-1131000D01*
X164579Y-1130140D01*
X161500Y-1129080D01*
X158300Y-1128620D01*
X155060Y-1128760D01*
X151900Y-1129540D01*
X149280Y-1130740D01*
X148060Y-1131060D01*
X146800Y-1131000D01*
X144880Y-1130140D01*
X141820Y-1129080D01*
X138600Y-1128620D01*
X136380Y-1128720D01*
X134800Y-1128480D01*
X133440Y-1127620D01*
X132520Y-1126300D01*
X132200Y-1124740D01*
X132140Y-1095180D01*
X131800Y-1092040D01*
X130879Y-1089240D01*
X129380Y-1086640D01*
X127880Y-1084900D01*
X110300Y-1067320D01*
X109440Y-1066020D01*
X109140Y-1064480D01*
X109140Y-940200D01*
X108800Y-937060D01*
X107899Y-934260D01*
X106400Y-931660D01*
X104880Y-929900D01*
X66300Y-891320D01*
X65439Y-890020D01*
X65140Y-888480D01*
X65140Y-823520D01*
X65439Y-821979D01*
X66300Y-820680D01*
X88539Y-798439D01*
X90540Y-795980D01*
X91880Y-793360D01*
X92660Y-790460D01*
X92840Y-788139D01*
X92840Y-735120D01*
X92940Y-734180D01*
X93280Y-733280D01*
X94580Y-730759D01*
X95500Y-727640D01*
X95820Y-724400D01*
X95500Y-721180D01*
X94580Y-718060D01*
X93100Y-715180D01*
X91100Y-712620D01*
X88640Y-710500D01*
X85840Y-708880D01*
X82760Y-707820D01*
X79560Y-707360D01*
X76320Y-707520D01*
X73160Y-708280D01*
X70200Y-709620D01*
X67560Y-711500D01*
X65320Y-713860D01*
X63560Y-716580D01*
X62360Y-719599D01*
X61740Y-722780D01*
X61740Y-726040D01*
X62360Y-729220D01*
X63560Y-732240D01*
X64400Y-733820D01*
X64560Y-734960D01*
X64560Y-780780D01*
X64260Y-782320D01*
X63400Y-783620D01*
X41160Y-805860D01*
X39160Y-808319D01*
X37820Y-810939D01*
X37040Y-813840D01*
X36860Y-816160D01*
X36860Y-895800D01*
X37200Y-898940D01*
X38100Y-901740D01*
X39600Y-904340D01*
X41120Y-906100D01*
X79700Y-944680D01*
X80559Y-945980D01*
X80860Y-947520D01*
X80860Y-1071800D01*
X81199Y-1074940D01*
X82100Y-1077740D01*
X83600Y-1080340D01*
X85120Y-1082100D01*
X102700Y-1099700D01*
X103580Y-1101000D01*
X103880Y-1102520D01*
X103920Y-1126200D01*
X103560Y-1127860D01*
X102540Y-1129240D01*
X101060Y-1130040D01*
X99360Y-1130160D01*
X97820Y-1129940D01*
X94580Y-1130100D01*
X91440Y-1130860D01*
X87980Y-1132480D01*
X86280Y-1132860D01*
X47520Y-1132860D01*
X45980Y-1132560D01*
X44680Y-1131700D01*
X-165880Y-921120D01*
X-166740Y-919840D01*
X-167060Y-918300D01*
X-166740Y-916760D01*
X-165880Y-915480D01*
X-145160Y-894740D01*
X-143160Y-892280D01*
X-141820Y-889659D01*
X-141040Y-886760D01*
X-140860Y-884440D01*
X-140860Y-774300D01*
X-141200Y-771160D01*
X-142100Y-768360D01*
X-143600Y-765759D01*
X-145120Y-763980D01*
X-191160Y-718040D01*
X-191759Y-717260D01*
X-192160Y-716340D01*
X-192820Y-714120D01*
X-194300Y-711240D01*
X-196300Y-708700D01*
X-198760Y-706560D01*
X-201560Y-704940D01*
X-204640Y-703880D01*
X-207840Y-703420D01*
X-211100Y-703580D01*
X-214240Y-704340D01*
X-217200Y-705680D01*
X-219840Y-707560D01*
X-222079Y-709920D01*
X-223840Y-712640D01*
X-225040Y-715660D01*
X-225660Y-718840D01*
X-225660Y-721100D01*
X-225960Y-722620D01*
X-226820Y-723920D01*
X-228120Y-724800D01*
X-229660Y-725100D01*
X-231180Y-724800D01*
X-232480Y-723920D01*
X-268200Y-688220D01*
X-269060Y-686919D01*
X-269360Y-685380D01*
X-269360Y-183340D01*
X-269040Y-181800D01*
X-268160Y-180479D01*
X-266820Y-179620D01*
X-265240Y-179340D01*
X-263700Y-179700D01*
X-260580Y-181140D01*
X-257420Y-181900D01*
X-254180Y-182060D01*
X-250980Y-181600D01*
X-247900Y-180520D01*
X-245100Y-178900D01*
X-242640Y-176780D01*
X-240640Y-174220D01*
X-239160Y-171340D01*
X-238240Y-168240D01*
X-237920Y-165000D01*
X-238240Y-161759D01*
X-239160Y-158660D01*
X-240640Y-155780D01*
X-242640Y-153220D01*
X-245100Y-151100D01*
X-247900Y-149480D01*
X-250980Y-148400D01*
X-254180Y-147940D01*
X-257420Y-148100D01*
X-260580Y-148860D01*
X-263700Y-150300D01*
X-265240Y-150660D01*
X-266820Y-150380D01*
X-268160Y-149520D01*
X-269040Y-148200D01*
X-269360Y-146660D01*
X-269360Y-16700D01*
X-269700Y-13560D01*
X-270600Y-10760D01*
X-272100Y-8159D01*
X-273620Y-6400D01*
X-361560Y81560D01*
X-362400Y82780D01*
X-362740Y84240D01*
X-362520Y85700D01*
X-361240Y89380D01*
X-360160Y94640D01*
X-359799Y100000D01*
X-360160Y105360D01*
X-361240Y110620D01*
X-363000Y115700D01*
X-365420Y120480D01*
X-368459Y124900D01*
X-372060Y128900D01*
X-376160Y132360D01*
X-380680Y135240D01*
X-385560Y137500D01*
X-390680Y139100D01*
X-395980Y140000D01*
X-401340Y140160D01*
X-406680Y139640D01*
X-411900Y138380D01*
X-416920Y136460D01*
X-421620Y133880D01*
X-425940Y130700D01*
X-429799Y126960D01*
X-432660Y123360D01*
X-433920Y122300D01*
X-435480Y121840D01*
X-437120Y122060D01*
X-438519Y122899D01*
X-439460Y124220D01*
X-439799Y125820D01*
X-439799Y174180D01*
X-439460Y175780D01*
X-438519Y177100D01*
X-437120Y177960D01*
X-435480Y178160D01*
X-433920Y177700D01*
X-432660Y176660D01*
X-429799Y173039D01*
X-425940Y169300D01*
X-421620Y166119D01*
X-416920Y163540D01*
X-411900Y161620D01*
X-406680Y160360D01*
X-401340Y159840D01*
X-395980Y160020D01*
X-390680Y160900D01*
X-385560Y162500D01*
X-380680Y164760D01*
X-376160Y167640D01*
X-372060Y171100D01*
X-368459Y175100D01*
X-365420Y179520D01*
X-363000Y184300D01*
X-361240Y189380D01*
X-360160Y194640D01*
X-359799Y200000D01*
X-360160Y205360D01*
X-361240Y210620D01*
X-363000Y215700D01*
X-365420Y220479D01*
X-368459Y224899D01*
X-372060Y228900D01*
X-376160Y232360D01*
X-380680Y235240D01*
X-385560Y237500D01*
X-390680Y239100D01*
X-395980Y239980D01*
X-401340Y240159D01*
X-406680Y239640D01*
X-411900Y238380D01*
X-416920Y236460D01*
X-421620Y233880D01*
X-425940Y230700D01*
X-429799Y226960D01*
X-432660Y223340D01*
X-433920Y222300D01*
X-435480Y221840D01*
X-437120Y222040D01*
X-438519Y222900D01*
X-439460Y224220D01*
X-439799Y225820D01*
X-439799Y274180D01*
X-439460Y275780D01*
X-438519Y277100D01*
X-437120Y277960D01*
X-435480Y278160D01*
X-433920Y277700D01*
X-432660Y276660D01*
X-429799Y273040D01*
X-425940Y269300D01*
X-421620Y266120D01*
X-416920Y263540D01*
X-411900Y261620D01*
X-406680Y260360D01*
X-401340Y259840D01*
X-395980Y260000D01*
X-390680Y260900D01*
X-385560Y262500D01*
X-380680Y264760D01*
X-376160Y267640D01*
X-372060Y271100D01*
X-368459Y275100D01*
X-365420Y279520D01*
X-363000Y284300D01*
X-361240Y289380D01*
X-360160Y294640D01*
X-359799Y300000D01*
X-360160Y305360D01*
X-361240Y310620D01*
X-363000Y315680D01*
X-365420Y320480D01*
X-368459Y324900D01*
X-372060Y328880D01*
X-376280Y332420D01*
X-377480Y333620D01*
X-378080Y335220D01*
X-377960Y336920D01*
X-377140Y338420D01*
X-375780Y339440D01*
X-374120Y339799D01*
X-191080Y339799D01*
X-189460Y339460D01*
X-188120Y338480D01*
X-187280Y337060D01*
X-187100Y335420D01*
X-187600Y333840D01*
X-188680Y332600D01*
X-192420Y329799D01*
X-195840Y326380D01*
X-198720Y322520D01*
X-201040Y318280D01*
X-202719Y313760D01*
X-203760Y309060D01*
X-204100Y304100D01*
X-204100Y280760D01*
X-203760Y275820D01*
X-202719Y271100D01*
X-201040Y266580D01*
X-198720Y262340D01*
X-195840Y258480D01*
X-192420Y255060D01*
X-188560Y252180D01*
X-184320Y249860D01*
X-179800Y248180D01*
X-175100Y247160D01*
X-170280Y246820D01*
X-165479Y247160D01*
X-160760Y248180D01*
X-156240Y249860D01*
X-152000Y252180D01*
X-148140Y255060D01*
X-144740Y258480D01*
X-141840Y262340D01*
X-139520Y266580D01*
X-137840Y271100D01*
X-136820Y275820D01*
X-136460Y280760D01*
X-136460Y304100D01*
X-136820Y309060D01*
X-137840Y313760D01*
X-139520Y318280D01*
X-141840Y322520D01*
X-144740Y326380D01*
X-148140Y329799D01*
X-151880Y332600D01*
X-152980Y333840D01*
X-153460Y335420D01*
X-153280Y337060D01*
X-152440Y338480D01*
X-151100Y339460D01*
X-149480Y339799D01*
X149460Y339799D01*
X151080Y339460D01*
X152420Y338480D01*
X153260Y337060D01*
X153440Y335420D01*
X152960Y333840D01*
X151860Y332600D01*
X148120Y329799D01*
X144720Y326380D01*
X141820Y322520D01*
X139500Y318280D01*
X137820Y313760D01*
X136800Y309060D01*
X136440Y304100D01*
X136440Y280760D01*
X136800Y275820D01*
X137820Y271100D01*
X139500Y266580D01*
X141820Y262340D01*
X144720Y258480D01*
X148120Y255060D01*
X151980Y252180D01*
X156220Y249860D01*
X160740Y248180D01*
X165460Y247160D01*
X170260Y246820D01*
X175080Y247160D01*
X179780Y248180D01*
X184300Y249860D01*
X188540Y252180D01*
X192399Y255060D01*
X195820Y258480D01*
X198700Y262340D01*
X201020Y266580D01*
X202700Y271100D01*
X203740Y275820D01*
X204080Y280760D01*
X204080Y304100D01*
X203740Y309060D01*
X202700Y313760D01*
X201020Y318280D01*
X198700Y322520D01*
X195820Y326380D01*
X192399Y329799D01*
X188660Y332600D01*
X187580Y333840D01*
X187079Y335420D01*
X187260Y337060D01*
X188100Y338480D01*
X189440Y339460D01*
X191060Y339799D01*
X374240Y339799D01*
X375860Y339460D01*
X377200Y338480D01*
X378040Y337040D01*
X378220Y335400D01*
X377720Y333820D01*
X376620Y332580D01*
X374060Y330700D01*
X370200Y326960D01*
X366860Y322740D01*
X364120Y318120D01*
X362040Y313180D01*
X360620Y308000D01*
X359900Y302680D01*
X359900Y297320D01*
X360620Y292000D01*
X362040Y286820D01*
X364120Y281880D01*
X366860Y277260D01*
X370200Y273040D01*
X374060Y269300D01*
X378380Y266120D01*
X383080Y263540D01*
X388100Y261620D01*
X393320Y260360D01*
X398660Y259840D01*
X404020Y260000D01*
X409320Y260900D01*
X414440Y262500D01*
X419320Y264760D01*
X423840Y267640D01*
X427939Y271100D01*
X431540Y275100D01*
X432500Y276480D01*
X433720Y277640D01*
X435319Y278200D01*
X436980Y278040D01*
X438440Y277220D01*
X439440Y275860D01*
X439799Y274220D01*
X439799Y242920D01*
X439520Y241439D01*
X438700Y240159D01*
X437460Y239280D01*
X435980Y238920D01*
X434480Y239140D01*
X432260Y239920D01*
X429780Y240200D01*
X417500Y240200D01*
X417500Y217500D01*
X435800Y217500D01*
X437320Y217200D01*
X438620Y216320D01*
X439500Y215040D01*
X439799Y213500D01*
X439799Y186500D01*
X439500Y184960D01*
X438620Y183680D01*
X437320Y182800D01*
X435800Y182500D01*
X417500Y182500D01*
X417500Y159800D01*
X429780Y159800D01*
X432260Y160080D01*
X434480Y160859D01*
X435980Y161080D01*
X437460Y160720D01*
X438700Y159840D01*
X439520Y158560D01*
X439799Y157080D01*
X439799Y125780D01*
X439440Y124120D01*
X438440Y122780D01*
X436980Y121960D01*
X435319Y121800D01*
X433720Y122360D01*
X432500Y123500D01*
X431540Y124900D01*
X427939Y128900D01*
X423840Y132360D01*
X419320Y135240D01*
X414440Y137500D01*
X409320Y139100D01*
X404020Y140000D01*
X398660Y140160D01*
X393320Y139640D01*
X388080Y138380D01*
X383080Y136460D01*
X378380Y133880D01*
X374040Y130700D01*
X370180Y126960D01*
X366860Y122739D01*
X364120Y118120D01*
X362020Y113180D01*
X360620Y108000D01*
X359900Y102680D01*
X359900Y97320D01*
X360620Y92000D01*
X362020Y86820D01*
X364120Y81880D01*
X366860Y77260D01*
X370180Y73040D01*
X374040Y69300D01*
X378380Y66120D01*
X383080Y63540D01*
X388080Y61620D01*
X393320Y60359D01*
X398660Y59840D01*
X404020Y60020D01*
X409320Y60900D01*
X414440Y62500D01*
X419320Y64760D01*
X423840Y67640D01*
X427939Y71120D01*
X431540Y75100D01*
X432500Y76500D01*
X433720Y77640D01*
X435319Y78200D01*
X436980Y78060D01*
X438440Y77220D01*
X439440Y75880D01*
X439799Y74240D01*
X439799Y25780D01*
X439440Y24120D01*
X438440Y22780D01*
X436980Y21960D01*
X435319Y21800D01*
X433720Y22360D01*
X432500Y23500D01*
X431540Y24900D01*
X427939Y28900D01*
X423840Y32360D01*
X419320Y35240D01*
X414440Y37500D01*
X409320Y39100D01*
X404020Y40000D01*
X398660Y40160D01*
X393320Y39640D01*
X388080Y38380D01*
X383080Y36460D01*
X378380Y33880D01*
X374040Y30700D01*
X370180Y26960D01*
X366860Y22740D01*
X364120Y18120D01*
X363459Y16580D01*
X362600Y15300D01*
X361300Y14440D01*
X359780Y14140D01*
X349520Y14140D01*
X347980Y14440D01*
X346680Y15300D01*
X307140Y54840D01*
X304680Y56840D01*
X302060Y58179D01*
X299160Y58960D01*
X296840Y59140D01*
X250520Y59140D01*
X248980Y59440D01*
X247680Y60300D01*
X228140Y79840D01*
X225680Y81840D01*
X223060Y83180D01*
X220159Y83960D01*
X217840Y84140D01*
X199440Y84140D01*
X197719Y84520D01*
X196340Y85600D01*
X195560Y87180D01*
X195520Y88940D01*
X196240Y90540D01*
X198700Y93840D01*
X201020Y98080D01*
X202700Y102600D01*
X203740Y107300D01*
X204080Y112260D01*
X204080Y143480D01*
X203740Y148420D01*
X202700Y153140D01*
X201020Y157660D01*
X198700Y161900D01*
X195820Y165760D01*
X192399Y169180D01*
X188540Y172060D01*
X184300Y174380D01*
X179780Y176060D01*
X175080Y177079D01*
X170260Y177420D01*
X165460Y177079D01*
X160740Y176060D01*
X156220Y174380D01*
X151980Y172060D01*
X148120Y169180D01*
X144720Y165760D01*
X141680Y161660D01*
X140620Y160400D01*
X139140Y159700D01*
X137520Y159620D01*
X135980Y160219D01*
X134820Y161380D01*
X133840Y162880D01*
X131060Y165920D01*
X127800Y168440D01*
X124179Y170400D01*
X120280Y171740D01*
X116220Y172420D01*
X112100Y172420D01*
X108040Y171740D01*
X104140Y170400D01*
X100520Y168440D01*
X97260Y165920D01*
X94480Y162880D01*
X92220Y159440D01*
X90559Y155660D01*
X89560Y151660D01*
X89200Y147560D01*
X89560Y143440D01*
X90559Y139460D01*
X92220Y135680D01*
X94480Y132240D01*
X97260Y129200D01*
X100520Y126660D01*
X104140Y124700D01*
X108040Y123360D01*
X112100Y122700D01*
X116220Y122700D01*
X120280Y123360D01*
X124179Y124700D01*
X127800Y126660D01*
X129980Y128360D01*
X131580Y129120D01*
X133360Y129100D01*
X134960Y128320D01*
X136060Y126940D01*
X136440Y125200D01*
X136440Y112260D01*
X136800Y107300D01*
X137820Y102600D01*
X139500Y98080D01*
X141820Y93840D01*
X144720Y89980D01*
X148120Y86560D01*
X151980Y83680D01*
X156220Y81359D01*
X160740Y79680D01*
X165460Y78660D01*
X170260Y78300D01*
X174700Y78620D01*
X176300Y78420D01*
X177680Y77600D01*
X178619Y76300D01*
X178980Y74740D01*
X178700Y73160D01*
X177820Y71800D01*
X168160Y62140D01*
X166160Y59680D01*
X164820Y57060D01*
X164040Y54160D01*
X163860Y51840D01*
X163860Y23520D01*
X163560Y21980D01*
X162700Y20680D01*
X155320Y13300D01*
X154020Y12440D01*
X152480Y12140D01*
X41000Y12140D01*
X39480Y12440D01*
X38180Y13300D01*
X17480Y34000D01*
X16600Y35360D01*
X16319Y36960D01*
X16700Y38540D01*
X17660Y39820D01*
X19520Y40780D01*
X21020Y40980D01*
X22460Y40599D01*
X25940Y38980D01*
X29060Y38220D01*
X32300Y38060D01*
X35520Y38520D01*
X38580Y39580D01*
X41400Y41220D01*
X43860Y43339D01*
X45860Y45880D01*
X47340Y48780D01*
X48259Y51880D01*
X48560Y55119D01*
X48259Y58339D01*
X47340Y61460D01*
X45860Y64340D01*
X43860Y66900D01*
X41400Y69020D01*
X38580Y70640D01*
X35520Y71700D01*
X32300Y72180D01*
X29060Y72020D01*
X25940Y71260D01*
X22460Y69640D01*
X20780Y69260D01*
X2700Y69260D01*
X1660Y69400D01*
X700Y69800D01*
X-780Y70640D01*
X-3840Y71700D01*
X-7060Y72180D01*
X-10300Y72020D01*
X-13460Y71260D01*
X-16400Y69900D01*
X-19060Y68020D01*
X-21300Y65680D01*
X-23040Y62939D01*
X-24700Y58540D01*
X-25400Y57580D01*
X-33440Y49540D01*
X-35440Y47080D01*
X-36780Y44460D01*
X-37560Y41560D01*
X-37740Y39240D01*
X-37740Y15900D01*
X-37400Y12760D01*
X-36500Y9960D01*
X-35000Y7360D01*
X-33480Y5600D01*
X43680Y-71580D01*
X44600Y-72980D01*
X44840Y-74640D01*
X44400Y-76260D01*
X43320Y-77560D01*
X41800Y-78280D01*
X39420Y-78860D01*
X36460Y-80220D01*
X33820Y-82100D01*
X31580Y-84440D01*
X29820Y-87180D01*
X28620Y-90200D01*
X28000Y-93379D01*
X28000Y-96620D01*
X28620Y-99800D01*
X29820Y-102820D01*
X31580Y-105559D01*
X33820Y-107899D01*
X36460Y-109780D01*
X39420Y-111140D01*
X41620Y-111820D01*
X42480Y-112480D01*
X106740Y-176740D01*
X107600Y-178020D01*
X107899Y-179560D01*
X107899Y-201980D01*
X107739Y-203120D01*
X106880Y-204780D01*
X105660Y-207780D01*
X105060Y-210980D01*
X105060Y-214220D01*
X105660Y-217399D01*
X106880Y-220420D01*
X108620Y-223160D01*
X109960Y-224540D01*
X110740Y-225740D01*
X111060Y-227140D01*
X110860Y-228560D01*
X110180Y-229820D01*
X108160Y-232320D01*
X106820Y-234940D01*
X106039Y-237840D01*
X105860Y-240159D01*
X105860Y-260799D01*
X106199Y-263940D01*
X107100Y-266740D01*
X108600Y-269340D01*
X110120Y-271100D01*
X113460Y-274460D01*
X114179Y-275420D01*
X114620Y-276800D01*
X115820Y-279820D01*
X117579Y-282560D01*
X119820Y-284900D01*
X122460Y-286780D01*
X125420Y-288140D01*
X128560Y-288900D01*
X131820Y-289060D01*
X135020Y-288600D01*
X138100Y-287520D01*
X140900Y-285900D01*
X143360Y-283780D01*
X145360Y-281220D01*
X146840Y-278340D01*
X147760Y-275240D01*
X148080Y-272000D01*
X147760Y-268760D01*
X146840Y-265660D01*
X145380Y-262800D01*
X144940Y-261200D01*
X145200Y-259560D01*
X146080Y-258160D01*
X147480Y-257240D01*
X149120Y-256980D01*
X150820Y-257060D01*
X154020Y-256600D01*
X157100Y-255520D01*
X159900Y-253900D01*
X162360Y-251780D01*
X164360Y-249220D01*
X165840Y-246340D01*
X166480Y-244200D01*
X166880Y-243299D01*
X167480Y-242500D01*
X174840Y-235140D01*
X176840Y-232680D01*
X178180Y-230060D01*
X178960Y-227160D01*
X179140Y-224840D01*
X179140Y-100200D01*
X178800Y-97060D01*
X177900Y-94260D01*
X176400Y-91660D01*
X174880Y-89900D01*
X132880Y-47900D01*
X132020Y-46600D01*
X131720Y-45060D01*
X131720Y-43120D01*
X131820Y-42180D01*
X132160Y-41280D01*
X133420Y-38820D01*
X134340Y-35720D01*
X134640Y-32480D01*
X134340Y-29260D01*
X133420Y-26140D01*
X131940Y-23260D01*
X131440Y-22599D01*
X130680Y-21000D01*
X130680Y-19240D01*
X131460Y-17640D01*
X132840Y-16540D01*
X134580Y-16140D01*
X159800Y-16140D01*
X162940Y-15800D01*
X165740Y-14900D01*
X168340Y-13400D01*
X170100Y-11880D01*
X187840Y5860D01*
X189840Y8320D01*
X191180Y10940D01*
X191960Y13839D01*
X192140Y16500D01*
X192540Y17960D01*
X193440Y19180D01*
X194740Y19960D01*
X196240Y20219D01*
X197719Y19880D01*
X198960Y19040D01*
X272700Y-54680D01*
X273560Y-55980D01*
X273860Y-57520D01*
X273860Y-70160D01*
X273580Y-71640D01*
X272760Y-72920D01*
X271520Y-73800D01*
X270060Y-74160D01*
X268560Y-73940D01*
X267020Y-73400D01*
X263820Y-72940D01*
X260580Y-73100D01*
X257420Y-73860D01*
X254460Y-75220D01*
X251820Y-77100D01*
X249579Y-79440D01*
X247820Y-82180D01*
X246620Y-85200D01*
X246000Y-88379D01*
X246000Y-91620D01*
X246320Y-93200D01*
X246340Y-94500D01*
X245960Y-95740D01*
X245219Y-96800D01*
X212160Y-129860D01*
X210159Y-132320D01*
X208820Y-134940D01*
X208039Y-137840D01*
X207860Y-140160D01*
X207860Y-256800D01*
X208200Y-259940D01*
X209100Y-262740D01*
X210600Y-265340D01*
X212120Y-267100D01*
X213720Y-268700D01*
X214579Y-269980D01*
X214880Y-271480D01*
X214620Y-272980D01*
X213800Y-274280D01*
X209820Y-277100D01*
X207580Y-279440D01*
X205820Y-282180D01*
X204620Y-285200D01*
X204000Y-288380D01*
X204000Y-291620D01*
X204620Y-294800D01*
X205820Y-297820D01*
X206700Y-299480D01*
X206860Y-300620D01*
X206860Y-1054480D01*
X206560Y-1056020D01*
X205700Y-1057320D01*
X203480Y-1059520D01*
X202620Y-1060180D01*
X200420Y-1060860D01*
X197460Y-1062220D01*
X194820Y-1064100D01*
X192580Y-1066440D01*
X190820Y-1069180D01*
X189620Y-1072200D01*
X189000Y-1075380D01*
X189000Y-1078620D01*
X189620Y-1081800D01*
X190820Y-1084820D01*
X192580Y-1087560D01*
X194820Y-1089900D01*
X197460Y-1091780D01*
X200420Y-1093140D01*
X203580Y-1093900D01*
X206820Y-1094060D01*
X210020Y-1093600D01*
X213100Y-1092520D01*
X215900Y-1090900D01*
X218359Y-1088780D01*
X220360Y-1086220D01*
X221840Y-1083340D01*
X222480Y-1081200D01*
X222880Y-1080300D01*
X223480Y-1079500D01*
X230840Y-1072140D01*
X232840Y-1069680D01*
X234180Y-1067060D01*
X234960Y-1064160D01*
X235140Y-1061840D01*
X235140Y-864780D01*
X235440Y-863259D01*
X236300Y-861960D01*
X237600Y-861100D01*
X239140Y-860780D01*
X240660Y-861100D01*
X241960Y-861960D01*
X361560Y-981540D01*
X362420Y-982860D01*
X362720Y-984400D01*
X362400Y-985939D01*
X362040Y-986820D01*
X360620Y-992000D01*
X359900Y-997320D01*
X359900Y-1002680D01*
X360620Y-1008000D01*
X362040Y-1013180D01*
X364120Y-1018120D01*
X366860Y-1022740D01*
X370200Y-1026960D01*
X374060Y-1030680D01*
X378380Y-1033880D01*
X383080Y-1036460D01*
X388100Y-1038379D01*
X393320Y-1039620D01*
X398660Y-1040160D01*
X404020Y-1039980D01*
X409320Y-1039100D01*
X414440Y-1037500D01*
X419320Y-1035240D01*
X423840Y-1032360D01*
X427939Y-1028880D01*
X431540Y-1024900D01*
X432500Y-1023500D01*
X433720Y-1022360D01*
X435319Y-1021800D01*
X436980Y-1021940D01*
X438440Y-1022780D01*
X439440Y-1024120D01*
X439799Y-1025780D01*
X439799Y-1074220D01*
X439440Y-1075860D01*
X438440Y-1077220D01*
X436980Y-1078040D01*
X435319Y-1078200D01*
X433720Y-1077640D01*
X432500Y-1076480D01*
X431540Y-1075080D01*
X427939Y-1071100D01*
X423840Y-1067640D01*
X419320Y-1064760D01*
X414440Y-1062500D01*
X409320Y-1060900D01*
X404020Y-1060000D01*
X398660Y-1059820D01*
X393320Y-1060360D01*
X388100Y-1061620D01*
X383080Y-1063540D01*
X378380Y-1066120D01*
X374060Y-1069300D01*
X370200Y-1073040D01*
X366860Y-1077260D01*
X364120Y-1081880D01*
X362040Y-1086820D01*
X360620Y-1092000D01*
X359900Y-1097320D01*
X359900Y-1102680D01*
X360620Y-1108000D01*
X362040Y-1113180D01*
X364120Y-1118120D01*
X366860Y-1122740D01*
X370200Y-1126960D01*
X374060Y-1130680D01*
X378380Y-1133880D01*
X383080Y-1136460D01*
X388100Y-1138380D01*
X393320Y-1139620D01*
X398660Y-1140160D01*
X404020Y-1139980D01*
X409320Y-1139100D01*
X414440Y-1137500D01*
X419320Y-1135240D01*
X423840Y-1132360D01*
X427939Y-1128880D01*
X431540Y-1124900D01*
X432500Y-1123500D01*
X433720Y-1122360D01*
X435319Y-1121800D01*
X436980Y-1121940D01*
X438440Y-1122780D01*
X439440Y-1124120D01*
X439799Y-1125780D01*
X439799Y-1174220D01*
X439440Y-1175860D01*
X438440Y-1177220D01*
X436980Y-1178040D01*
X435319Y-1178200D01*
X433720Y-1177640D01*
X432500Y-1176480D01*
X431540Y-1175080D01*
X427939Y-1171100D01*
X423840Y-1167640D01*
X419320Y-1164760D01*
X414440Y-1162500D01*
X409320Y-1160900D01*
X404020Y-1160000D01*
X398660Y-1159820D01*
X393320Y-1160360D01*
X388100Y-1161620D01*
X383080Y-1163540D01*
X378380Y-1166120D01*
X374060Y-1169300D01*
X370200Y-1173040D01*
X366860Y-1177260D01*
X364120Y-1181880D01*
X362040Y-1186820D01*
X360620Y-1192000D01*
X359900Y-1197320D01*
X359900Y-1202680D01*
X360620Y-1208000D01*
X362040Y-1213180D01*
X364120Y-1218120D01*
X366860Y-1222740D01*
X370200Y-1226960D01*
X374060Y-1230680D01*
X378380Y-1233880D01*
X383080Y-1236460D01*
X388100Y-1238380D01*
X393320Y-1239620D01*
X398660Y-1240160D01*
X404020Y-1239980D01*
X409320Y-1239100D01*
X414440Y-1237500D01*
X419320Y-1235240D01*
X423840Y-1232360D01*
X427939Y-1228880D01*
X431540Y-1224900D01*
X432500Y-1223500D01*
X433720Y-1222360D01*
X435319Y-1221800D01*
X436980Y-1221940D01*
X438440Y-1222780D01*
X439440Y-1224120D01*
X439799Y-1225780D01*
X439799Y-1274220D01*
X439440Y-1275860D01*
X438440Y-1277220D01*
X436980Y-1278040D01*
X435319Y-1278200D01*
X433720Y-1277640D01*
X432500Y-1276480D01*
X431540Y-1275080D01*
X427939Y-1271100D01*
X423840Y-1267640D01*
X419320Y-1264760D01*
X414440Y-1262500D01*
X409320Y-1260900D01*
X404020Y-1260000D01*
X398660Y-1259820D01*
X393320Y-1260360D01*
X388100Y-1261620D01*
X383080Y-1263540D01*
X378380Y-1266120D01*
X374060Y-1269300D01*
X370200Y-1273040D01*
X366860Y-1277260D01*
X364120Y-1281879D01*
X362040Y-1286819D01*
X360620Y-1292000D01*
X359860Y-1297540D01*
X359420Y-1298899D01*
X358540Y-1300020D01*
X357320Y-1300740D01*
X355900Y-1301000D01*
G37*

%LPC*%
G36*
X124820Y-878060D02*
G01*
X128020Y-877600D01*
X131100Y-876520D01*
X133900Y-874900D01*
X136360Y-872780D01*
X138360Y-870220D01*
X139840Y-867340D01*
X140760Y-864240D01*
X141080Y-861000D01*
X140760Y-857760D01*
X139840Y-854659D01*
X138360Y-851780D01*
X136360Y-849220D01*
X133900Y-847099D01*
X131100Y-845480D01*
X128020Y-844400D01*
X124820Y-843940D01*
X121580Y-844100D01*
X118420Y-844860D01*
X115460Y-846220D01*
X112820Y-848100D01*
X110580Y-850440D01*
X108820Y-853180D01*
X107620Y-856200D01*
X107000Y-859380D01*
X107000Y-862620D01*
X107620Y-865800D01*
X108820Y-868820D01*
X110580Y-871560D01*
X112820Y-873900D01*
X115460Y-875780D01*
X118420Y-877140D01*
X121580Y-877900D01*
G37*
G36*
X-74180Y-737060D02*
G01*
X-70980Y-736600D01*
X-67900Y-735520D01*
X-65100Y-733900D01*
X-62640Y-731780D01*
X-60640Y-729220D01*
X-59160Y-726340D01*
X-58240Y-723240D01*
X-57920Y-720000D01*
X-58240Y-716760D01*
X-59160Y-713660D01*
X-60640Y-710780D01*
X-62640Y-708220D01*
X-65100Y-706100D01*
X-67900Y-704479D01*
X-70980Y-703400D01*
X-74180Y-702940D01*
X-77420Y-703100D01*
X-80580Y-703860D01*
X-83539Y-705220D01*
X-86180Y-707099D01*
X-88420Y-709440D01*
X-90180Y-712180D01*
X-91380Y-715200D01*
X-92000Y-718379D01*
X-92000Y-721620D01*
X-91380Y-724800D01*
X-90180Y-727820D01*
X-88420Y-730560D01*
X-86180Y-732900D01*
X-83539Y-734780D01*
X-80580Y-736140D01*
X-77420Y-736900D01*
G37*
G36*
X75820Y-647060D02*
G01*
X79020Y-646600D01*
X82100Y-645520D01*
X84900Y-643900D01*
X87360Y-641780D01*
X89360Y-639220D01*
X90840Y-636340D01*
X91760Y-633240D01*
X92080Y-630000D01*
X91760Y-626760D01*
X90840Y-623660D01*
X89360Y-620780D01*
X87360Y-618220D01*
X84900Y-616100D01*
X82100Y-614480D01*
X79020Y-613400D01*
X75820Y-612940D01*
X72580Y-613100D01*
X69420Y-613860D01*
X66460Y-615220D01*
X63820Y-617100D01*
X61580Y-619440D01*
X59820Y-622180D01*
X58620Y-625200D01*
X58000Y-628380D01*
X58000Y-631620D01*
X58620Y-634800D01*
X59820Y-637820D01*
X61580Y-640560D01*
X63820Y-642900D01*
X66460Y-644780D01*
X69420Y-646140D01*
X72580Y-646900D01*
G37*
G36*
X-70060Y-402879D02*
G01*
X-66840Y-402420D01*
X-63780Y-401360D01*
X-60960Y-399739D01*
X-58520Y-397600D01*
X-56500Y-395060D01*
X-55020Y-392180D01*
X-54380Y-390040D01*
X-54000Y-389120D01*
X-53380Y-388340D01*
X-45260Y-380220D01*
X-43280Y-377760D01*
X-41940Y-375140D01*
X-41160Y-372239D01*
X-40980Y-369920D01*
X-40980Y-219300D01*
X-40860Y-218359D01*
X-40540Y-217460D01*
X-39260Y-215000D01*
X-38360Y-211900D01*
X-38040Y-208660D01*
X-38360Y-205440D01*
X-39260Y-202320D01*
X-40759Y-199440D01*
X-42760Y-196880D01*
X-45220Y-194760D01*
X-48019Y-193140D01*
X-51100Y-192079D01*
X-54300Y-191600D01*
X-57539Y-191759D01*
X-60700Y-192520D01*
X-63660Y-193880D01*
X-66300Y-195760D01*
X-68540Y-198100D01*
X-70300Y-200840D01*
X-71500Y-203860D01*
X-72120Y-207040D01*
X-72120Y-210280D01*
X-71500Y-213480D01*
X-70300Y-216480D01*
X-69420Y-218140D01*
X-69260Y-219280D01*
X-69260Y-251480D01*
X-69560Y-253020D01*
X-70420Y-254320D01*
X-71720Y-255180D01*
X-73260Y-255479D01*
X-74780Y-255180D01*
X-76080Y-254320D01*
X-92760Y-237659D01*
X-93360Y-236860D01*
X-93760Y-235940D01*
X-94380Y-233820D01*
X-95879Y-230920D01*
X-97880Y-228380D01*
X-100340Y-226260D01*
X-103140Y-224620D01*
X-106220Y-223560D01*
X-109420Y-223100D01*
X-112660Y-223260D01*
X-115820Y-224020D01*
X-118780Y-225380D01*
X-121420Y-227260D01*
X-123660Y-229600D01*
X-125399Y-232340D01*
X-126620Y-235340D01*
X-127240Y-238540D01*
X-127240Y-241780D01*
X-126620Y-244960D01*
X-125399Y-247979D01*
X-123660Y-250720D01*
X-121420Y-253060D01*
X-118780Y-254940D01*
X-115820Y-256280D01*
X-113620Y-256980D01*
X-112739Y-257640D01*
X-90120Y-280280D01*
X-89240Y-281580D01*
X-88940Y-283100D01*
X-88940Y-320100D01*
X-89100Y-321220D01*
X-89980Y-322879D01*
X-91180Y-325900D01*
X-91800Y-329080D01*
X-91800Y-332340D01*
X-91180Y-335520D01*
X-89980Y-338540D01*
X-88219Y-341260D01*
X-85980Y-343620D01*
X-83340Y-345500D01*
X-80380Y-346840D01*
X-77240Y-347600D01*
X-72120Y-347860D01*
X-70640Y-348680D01*
X-69620Y-350040D01*
X-69260Y-351700D01*
X-69260Y-362560D01*
X-69560Y-364099D01*
X-70420Y-365400D01*
X-73380Y-368340D01*
X-74240Y-369000D01*
X-76440Y-369700D01*
X-79400Y-371040D01*
X-82040Y-372920D01*
X-84280Y-375280D01*
X-86039Y-378000D01*
X-87240Y-381019D01*
X-87860Y-384200D01*
X-87860Y-387440D01*
X-87240Y-390640D01*
X-86039Y-393640D01*
X-84280Y-396380D01*
X-82040Y-398720D01*
X-79400Y-400620D01*
X-76440Y-401960D01*
X-73300Y-402720D01*
G37*
G36*
X-147180Y-310720D02*
G01*
X-143980Y-310260D01*
X-140900Y-309200D01*
X-138100Y-307580D01*
X-135640Y-305460D01*
X-133640Y-302900D01*
X-132140Y-300020D01*
X-131240Y-296900D01*
X-130920Y-293680D01*
X-131240Y-290440D01*
X-132140Y-287320D01*
X-133640Y-284440D01*
X-135640Y-281900D01*
X-138100Y-279760D01*
X-140900Y-278140D01*
X-143980Y-277080D01*
X-147180Y-276620D01*
X-150420Y-276780D01*
X-153580Y-277540D01*
X-156540Y-278880D01*
X-159180Y-280780D01*
X-161420Y-283120D01*
X-163160Y-285860D01*
X-164380Y-288860D01*
X-165000Y-292060D01*
X-165000Y-295300D01*
X-164380Y-298480D01*
X-163160Y-301500D01*
X-161420Y-304220D01*
X-159180Y-306580D01*
X-156540Y-308460D01*
X-153580Y-309800D01*
X-150420Y-310580D01*
G37*
G36*
X45820Y-292060D02*
G01*
X49020Y-291600D01*
X52100Y-290520D01*
X54900Y-288900D01*
X57360Y-286780D01*
X59360Y-284220D01*
X60839Y-281340D01*
X61760Y-278240D01*
X62080Y-275000D01*
X61760Y-271760D01*
X60839Y-268660D01*
X59360Y-265780D01*
X57360Y-263220D01*
X54900Y-261100D01*
X52100Y-259480D01*
X49020Y-258400D01*
X45820Y-257940D01*
X42580Y-258100D01*
X39420Y-258860D01*
X36460Y-260219D01*
X33820Y-262100D01*
X31580Y-264440D01*
X29820Y-267180D01*
X28620Y-270200D01*
X28000Y-273380D01*
X28000Y-276620D01*
X28620Y-279800D01*
X29820Y-282820D01*
X31580Y-285560D01*
X33820Y-287900D01*
X36460Y-289780D01*
X39420Y-291140D01*
X42580Y-291900D01*
G37*
G36*
X-154180Y-252060D02*
G01*
X-150980Y-251600D01*
X-147900Y-250520D01*
X-145100Y-248900D01*
X-142640Y-246780D01*
X-140640Y-244220D01*
X-139160Y-241340D01*
X-138240Y-238240D01*
X-137920Y-235000D01*
X-138240Y-231759D01*
X-139160Y-228660D01*
X-140640Y-225780D01*
X-142640Y-223220D01*
X-145100Y-221100D01*
X-147900Y-219480D01*
X-150980Y-218400D01*
X-154180Y-217940D01*
X-157420Y-218100D01*
X-160580Y-218860D01*
X-163540Y-220219D01*
X-166180Y-222100D01*
X-168420Y-224440D01*
X-170180Y-227180D01*
X-171380Y-230200D01*
X-172000Y-233380D01*
X-172000Y-236620D01*
X-171380Y-239800D01*
X-170180Y-242820D01*
X-168420Y-245560D01*
X-166180Y-247900D01*
X-163540Y-249780D01*
X-160580Y-251140D01*
X-157420Y-251900D01*
G37*
G36*
X22620Y-162200D02*
G01*
X25840Y-161740D01*
X28900Y-160680D01*
X31720Y-159060D01*
X34160Y-156920D01*
X36160Y-154380D01*
X37660Y-151500D01*
X38580Y-148380D01*
X38880Y-145140D01*
X38580Y-141920D01*
X37660Y-138800D01*
X36160Y-135920D01*
X34160Y-133360D01*
X31720Y-131240D01*
X28900Y-129620D01*
X25840Y-128560D01*
X22620Y-128100D01*
X19380Y-128260D01*
X16220Y-129019D01*
X13280Y-130360D01*
X10620Y-132240D01*
X8380Y-134600D01*
X6640Y-137320D01*
X5420Y-140340D01*
X4820Y-143520D01*
X4820Y-146780D01*
X5420Y-149960D01*
X6640Y-152980D01*
X8380Y-155700D01*
X10620Y-158060D01*
X13280Y-159940D01*
X16220Y-161280D01*
X19380Y-162040D01*
G37*
G36*
X-134180Y-52060D02*
G01*
X-130980Y-51600D01*
X-127899Y-50519D01*
X-125100Y-48900D01*
X-122640Y-46780D01*
X-120640Y-44220D01*
X-119160Y-41340D01*
X-118240Y-38240D01*
X-117920Y-35000D01*
X-118240Y-31760D01*
X-119160Y-28660D01*
X-120640Y-25780D01*
X-122640Y-23220D01*
X-125100Y-21100D01*
X-127899Y-19480D01*
X-130980Y-18400D01*
X-134180Y-17940D01*
X-137420Y-18100D01*
X-140580Y-18860D01*
X-143540Y-20219D01*
X-146180Y-22100D01*
X-148420Y-24440D01*
X-150180Y-27180D01*
X-151380Y-30200D01*
X-152000Y-33380D01*
X-152000Y-36620D01*
X-151380Y-39800D01*
X-150180Y-42820D01*
X-148420Y-45560D01*
X-146180Y-47900D01*
X-143540Y-49780D01*
X-140580Y-51140D01*
X-137420Y-51900D01*
G37*
G36*
X-93680Y7740D02*
G01*
X-90480Y8200D01*
X-87400Y9260D01*
X-84600Y10880D01*
X-82140Y13020D01*
X-80140Y15560D01*
X-78660Y18440D01*
X-77740Y21560D01*
X-77420Y24800D01*
X-77740Y28020D01*
X-78660Y31140D01*
X-80140Y34020D01*
X-82140Y36580D01*
X-84600Y38700D01*
X-87400Y40320D01*
X-90480Y41380D01*
X-93680Y41840D01*
X-96920Y41700D01*
X-100079Y40920D01*
X-103040Y39580D01*
X-105680Y37700D01*
X-107920Y35340D01*
X-109680Y32620D01*
X-110879Y29600D01*
X-111500Y26420D01*
X-111500Y23180D01*
X-110879Y19980D01*
X-109680Y16980D01*
X-107920Y14240D01*
X-105680Y11900D01*
X-103040Y10000D01*
X-100079Y8660D01*
X-96920Y7900D01*
G37*
G36*
X95820Y37940D02*
G01*
X99019Y38400D01*
X102100Y39480D01*
X104900Y41100D01*
X107360Y43220D01*
X109360Y45780D01*
X110840Y48660D01*
X111760Y51760D01*
X112080Y55000D01*
X111760Y58240D01*
X110840Y61340D01*
X109360Y64220D01*
X107360Y66780D01*
X104900Y68900D01*
X102100Y70520D01*
X99019Y71600D01*
X95820Y72060D01*
X92579Y71900D01*
X89420Y71140D01*
X86460Y69780D01*
X83820Y67900D01*
X81580Y65560D01*
X79820Y62820D01*
X78620Y59800D01*
X78000Y56620D01*
X78000Y53380D01*
X78620Y50199D01*
X79820Y47180D01*
X81580Y44440D01*
X83820Y42100D01*
X86460Y40220D01*
X89420Y38860D01*
X92579Y38100D01*
G37*
G36*
X-170280Y78300D02*
G01*
X-165479Y78660D01*
X-160760Y79680D01*
X-156240Y81359D01*
X-152000Y83680D01*
X-148140Y86560D01*
X-144740Y89980D01*
X-141840Y93840D01*
X-139520Y98080D01*
X-137840Y102600D01*
X-136820Y107300D01*
X-136460Y112260D01*
X-136460Y125200D01*
X-136060Y126940D01*
X-134980Y128320D01*
X-133380Y129100D01*
X-131600Y129120D01*
X-130000Y128360D01*
X-127820Y126660D01*
X-124200Y124700D01*
X-120300Y123360D01*
X-116240Y122700D01*
X-112120Y122700D01*
X-108059Y123360D01*
X-104160Y124700D01*
X-100540Y126660D01*
X-97280Y129200D01*
X-94500Y132240D01*
X-92240Y135680D01*
X-90580Y139460D01*
X-89560Y143440D01*
X-89220Y147560D01*
X-89560Y151660D01*
X-90580Y155660D01*
X-92240Y159440D01*
X-94500Y162880D01*
X-97280Y165920D01*
X-100540Y168440D01*
X-104160Y170400D01*
X-108059Y171740D01*
X-112120Y172420D01*
X-116240Y172420D01*
X-120300Y171740D01*
X-124200Y170400D01*
X-127820Y168440D01*
X-131080Y165920D01*
X-133860Y162880D01*
X-134840Y161380D01*
X-136000Y160219D01*
X-137540Y159620D01*
X-139160Y159700D01*
X-140640Y160400D01*
X-144740Y165760D01*
X-148140Y169180D01*
X-152000Y172060D01*
X-156240Y174380D01*
X-160760Y176060D01*
X-165479Y177079D01*
X-170280Y177420D01*
X-175100Y177079D01*
X-179800Y176060D01*
X-184320Y174380D01*
X-188560Y172060D01*
X-192420Y169180D01*
X-195840Y165760D01*
X-198720Y161900D01*
X-201040Y157660D01*
X-202719Y153140D01*
X-203760Y148420D01*
X-204100Y143480D01*
X-204100Y112260D01*
X-203760Y107300D01*
X-202719Y102600D01*
X-201040Y98080D01*
X-198720Y93840D01*
X-195840Y89980D01*
X-192420Y86560D01*
X-188560Y83680D01*
X-184320Y81359D01*
X-179800Y79680D01*
X-175100Y78660D01*
G37*
G36*
X370220Y159800D02*
G01*
X382500Y159800D01*
X382500Y182500D01*
X359799Y182500D01*
X359799Y170219D01*
X360080Y167740D01*
X360840Y165580D01*
X362040Y163660D01*
X363660Y162040D01*
X365580Y160840D01*
X367740Y160080D01*
G37*
G36*
X359799Y217500D02*
G01*
X382500Y217500D01*
X382500Y240200D01*
X370220Y240200D01*
X367740Y239920D01*
X365580Y239160D01*
X363660Y237960D01*
X362040Y236340D01*
X360840Y234420D01*
X360080Y232260D01*
X359799Y229780D01*
G37*

%LPD*%
D10*
X-400000Y-1100000D02*
G01*
X-325199Y-1100000D01*
X-299200Y-1125999D01*
X-245000Y-820000D02*
G01*
X-342519Y-722480D01*
X-342519Y-338582D01*
X-381100Y-300000D01*
X-400000Y-300000D01*
X-400000Y-200000D02*
G01*
X-330707Y-269292D01*
X-330707Y-700785D01*
X-225999Y-805493D01*
X-225999Y-831999D01*
X-110235Y-240156D02*
G01*
X-74803Y-275590D01*
X-74803Y-330707D01*
X45000Y-95000D02*
G01*
X122046Y-172046D01*
X122046Y-212597D01*
X-55118Y-208661D02*
G01*
X-55118Y-370077D01*
X-70866Y-385826D01*
X-70866Y-385826D01*
X-7874Y55118D02*
G01*
X31496Y55118D01*
X150000Y-240000D02*
G01*
X165000Y-225000D01*
X165000Y-100000D01*
X117577Y-52577D01*
X117577Y-32480D01*
X-185000Y-878000D02*
G01*
X-170000Y-863000D01*
X-170000Y-806399D01*
X-283499Y-692899D01*
X-283499Y-16500D01*
X-400000Y100000D01*
X-400000Y0D02*
G01*
X-299200Y-100799D01*
X-299200Y-695799D01*
X-185000Y-810000D01*
X-185000Y-850300D01*
X-196900Y-862199D01*
X-209000Y-845999D02*
G01*
X-205000Y-841999D01*
X-205000Y-806799D01*
X-315000Y-696799D01*
X-315000Y-185000D01*
X-400000Y-100000D01*
X220000Y-1170000D02*
G01*
X214000Y-1170000D01*
X123000Y-1260999D01*
X-249200Y-1260999D01*
X-288200Y-1300000D01*
X-400000Y-1300000D01*
X177199Y-1145700D02*
G01*
X177199Y-1177800D01*
X128000Y-1226999D01*
X-373000Y-1226999D01*
X-400000Y-1200000D01*
X-400000Y-1100000D02*
G01*
X-325199Y-1100000D01*
X-213200Y-1211999D01*
X121999Y-1211999D01*
X157500Y-1176500D01*
X157500Y-1145700D01*
X137800Y-1145700D02*
G01*
X137800Y-1174200D01*
X114000Y-1198000D01*
X49000Y-1198000D01*
X-149000Y-1000000D01*
X-400000Y-1000000D01*
X118099Y-1145700D02*
G01*
X118099Y-1173899D01*
X110000Y-1181999D01*
X51999Y-1181999D01*
X-232399Y-897600D01*
X-397600Y-897600D01*
X-400000Y-900000D01*
X96999Y-1146999D02*
G01*
X40000Y-1146999D01*
X-306999Y-800000D01*
X-400000Y-800000D01*
X-208699Y-720500D02*
G01*
X-155000Y-774099D01*
X-155000Y-884600D01*
X-187961Y-917561D01*
X-189439Y-917561D01*
X220999Y-290000D02*
G01*
X220999Y-1061999D01*
X205999Y-1076999D01*
X400000Y-100000D02*
G01*
X355000Y-100000D01*
X300000Y-155000D01*
X300000Y-251999D01*
X280000Y-271999D01*
X130999Y-271999D02*
G01*
X120000Y-260999D01*
X120000Y-240000D01*
X140000Y-220000D01*
X140000Y-147899D01*
X-23600Y15700D01*
X-23600Y39400D01*
X-7899Y55100D01*
X400000Y-900000D02*
G01*
X264000Y-764000D01*
X264000Y-115000D01*
X288000Y-90999D01*
X288000Y-50000D01*
X206999Y30999D01*
X206999Y50000D01*
X400000Y-1000000D02*
G01*
X244000Y-844000D01*
X244000Y-279000D01*
X221999Y-256999D01*
X221999Y-140000D01*
X263000Y-99000D01*
X263000Y-90000D01*
X0Y31496D02*
G01*
X33496Y-1999D01*
X160000Y-1999D01*
X178000Y15999D01*
X178000Y51999D01*
X195999Y70000D01*
X218000Y70000D01*
X243000Y45000D01*
X296999Y45000D01*
X341999Y0D01*
X400000Y0D01*
X118099Y-1145700D02*
G01*
X118000Y-1095000D01*
X95000Y-1071999D01*
X95000Y-940000D01*
X50999Y-895999D01*
X50999Y-815999D01*
X78699Y-788299D01*
X78699Y-724400D01*
D11*
G01*
X-170289Y292429D03*
D12*
G01*
X-170289Y127869D03*
G01*
X170270Y127869D03*
D11*
G01*
X170270Y292429D03*
D13*
G01*
X-400000Y300000D03*
G01*
X-400000Y200000D03*
G01*
X-400000Y-900000D03*
G01*
X-400000Y-1000000D03*
G01*
X-400000Y-1100000D03*
G01*
X-400000Y-1200000D03*
G01*
X-400000Y-1300000D03*
G01*
X400000Y-1300000D03*
G01*
X400000Y-1200000D03*
G01*
X400000Y-1100000D03*
G01*
X400000Y-1000000D03*
G01*
X400000Y-900000D03*
G01*
X400000Y-800000D03*
G01*
X400000Y-700000D03*
G01*
X400000Y-600000D03*
G01*
X400000Y-500000D03*
G01*
X400000Y-400000D03*
G01*
X400000Y-300000D03*
G01*
X400000Y300000D03*
D14*
G01*
X400000Y200000D03*
D13*
G01*
X-400000Y-800000D03*
G01*
X400000Y-200000D03*
G01*
X-400000Y-700000D03*
G01*
X-400000Y-600000D03*
G01*
X-400000Y-500000D03*
G01*
X-400000Y-400000D03*
G01*
X-400000Y-300000D03*
G01*
X-400000Y-200000D03*
G01*
X-400000Y-100000D03*
G01*
X-400000Y0D03*
G01*
X-400000Y100000D03*
G01*
X400000Y100000D03*
G01*
X400000Y0D03*
G01*
X400000Y-100000D03*
D15*
G01*
X-27840Y-944589D03*
G01*
X-55680Y-972429D03*
G01*
X27829Y-1000270D03*
G01*
X-10Y-1028099D03*
G01*
X0Y-916750D03*
G01*
X55680Y-972429D03*
G01*
X0Y-972429D03*
G01*
X27809Y-944589D03*
G01*
X-27840Y-1000270D03*
D16*
G01*
X96999Y-1146999D03*
G01*
X118110Y-1145670D03*
G01*
X137800Y-1145670D03*
G01*
X157480Y-1145670D03*
G01*
X177170Y-1145670D03*
G01*
X220000Y-1170000D03*
G01*
X-245000Y-820000D03*
G01*
X-225999Y-831999D03*
G01*
X-209000Y-845999D03*
G01*
X-196849Y-862199D03*
G01*
X-185039Y-877950D03*
G01*
X-118110Y-149609D03*
G01*
X-31500Y-23620D03*
G01*
X145670Y66930D03*
G01*
X-141729Y62989D03*
G01*
X-208659Y-720470D03*
G01*
X78739Y-724409D03*
G01*
X-129920Y-484250D03*
G01*
X129920Y-484250D03*
G01*
X0Y-614169D03*
G01*
X-110239Y-240160D03*
G01*
X-74800Y-330709D03*
G01*
X-15749Y-307089D03*
G01*
X90549Y-224409D03*
G01*
X244090Y-244090D03*
G01*
X45000Y-95000D03*
G01*
X122049Y-212600D03*
G01*
X-55120Y-208659D03*
G01*
X-70869Y-385830D03*
G01*
X-248029Y-240160D03*
G01*
X-205100Y-62080D03*
G01*
X15749Y-192910D03*
G01*
X-90549Y-1244090D03*
G01*
X-251970Y-1051179D03*
G01*
X204720Y-795270D03*
G01*
X-110239Y-744090D03*
G01*
X-7869Y55120D03*
G01*
X31500Y55120D03*
G01*
X0Y31500D03*
G01*
X75000Y-630000D03*
G01*
X-75000Y-720000D03*
G01*
X-53659Y-1159400D03*
G01*
X45000Y-275000D03*
G01*
X295000Y-120000D03*
G01*
X270000Y20000D03*
G01*
X-94499Y24789D03*
G01*
X95000Y55000D03*
G01*
X-255000Y-165000D03*
G01*
X-155000Y-235000D03*
G01*
X-135000Y-35000D03*
G01*
X-148000Y-293670D03*
G01*
X21810Y-145149D03*
G01*
X150000Y-240000D03*
G01*
X117579Y-32480D03*
G01*
X180999Y-1238000D03*
G01*
X220999Y-290000D03*
G01*
X205999Y-1076999D03*
G01*
X280000Y-271999D03*
G01*
X130999Y-271999D03*
G01*
X206999Y50000D03*
G01*
X263000Y-90000D03*
G01*
X124000Y-860999D03*
G01*
X345000Y-1245000D03*
G01*
X345000Y-1150000D03*
G01*
X345000Y-1065000D03*
G01*
X310000Y-1065000D03*
G01*
X275000Y-1065000D03*
G01*
X310000Y-1150000D03*
G01*
X345000Y-975000D03*
G01*
X310000Y-995000D03*
G01*
X250000Y-965000D03*
G01*
X275000Y-940000D03*
G01*
X330000Y-880000D03*
G01*
X-225000Y-1285000D03*
G01*
X-165000Y-1285000D03*
G01*
X-105000Y-1285000D03*
G01*
X-295000Y-1255000D03*
G01*
X-340000Y-1255000D03*
G01*
X-265000Y-1195000D03*
G01*
X-340000Y-1155000D03*
G01*
X-45000Y-1285000D03*
G01*
X-45000Y-520000D03*
G01*
X5000Y-520000D03*
G01*
X-45000Y-470000D03*
G01*
X50000Y-470000D03*
G01*
X5000Y-470000D03*
G01*
X50000Y-520000D03*
G01*
X-45000Y-415000D03*
G01*
X5000Y-415000D03*
G01*
X50000Y-415000D03*
G01*
X155000Y-400000D03*
G01*
X200000Y-400000D03*
G01*
X200000Y-350000D03*
G01*
X155000Y-350000D03*
G01*
X345000Y-515000D03*
G01*
X335000Y-430000D03*
G01*
X335000Y-370000D03*
G01*
X245000Y-910000D03*
G01*
X305000Y-855000D03*
M02*
