G04 Layer: TopLayer*
G04 EasyEDA v6.5.50, 2025-05-29 20:10:11*
G04 51d2a156a5c9454999fc887beed5754f,29d699c3718f4358a2dc827e738e4458,10*
G04 Gerber Generator version 0.2*
G04 Scale: 100 percent, Rotated: No, Reflected: No *
G04 Dimensions in inches *
G04 leading zeros omitted , absolute positions ,3 integer and 6 decimal *
%FSLAX36Y36*%
%MOIN*%

%AMMACRO1*21,1,$1,$2,0,0,$3*%
%AMMACRO2*4,1,12,0.065,-0.05,-0.065,-0.05,-0.065,-0.04,-0.04,-0.04,-0.04,0.04,-0.065,0.04,-0.065,0.05,0.065,0.05,0.065,0.04,0.04,0.04,0.04,-0.04,0.065,-0.04,0.065,-0.05,0*%
%AMMACRO3*4,1,5,0.0335,0.0335,0.0335,-0.0335,-0.0335,-0.0335,-0.0335,0.0167,-0.0167,0.0335,0.0335,0.0335,0*%
%AMMACRO4*4,1,5,0.0039,-0.0079,-0.0039,-0.0079,-0.0039,0.002,0.002,0.0079,0.0039,0.0079,0.0039,-0.0079,0*%
%AMMACRO5*4,1,5,-0.0039,0.0079,0.0039,0.0079,0.0039,-0.002,-0.002,-0.0079,-0.0039,-0.0079,-0.0039,0.0079,0*%
%AMMACRO6*4,1,5,0.0039,0.0079,-0.0039,0.0079,-0.0039,-0.002,0.002,-0.0079,0.0039,-0.0079,0.0039,0.0079,0*%
%AMMACRO7*4,1,6,0.0039,0.001,0.0039,-0.0089,-0.0039,-0.0089,-0.0039,0.0089,-0.002,0.0069,0.0039,0.001,0.0039,0.001,0*%
%ADD10C,0.0138*%
%ADD11C,0.0079*%
%ADD12C,0.0197*%
%ADD13C,0.0157*%
%ADD14C,0.0118*%
%ADD15R,0.0118X0.0512*%
%ADD16MACRO1,0.0535X0.0484X0.0000*%
%ADD17MACRO1,0.0213X0.0311X41.9992*%
%ADD18MACRO1,0.0213X0.0223X90.0000*%
%ADD19MACRO1,0.0262X0.0079X135.0000*%
%ADD20MACRO1,0.0262X0.0079X135.0015*%
%ADD21MACRO1,0.0262X0.0079X134.9985*%
%ADD22MACRO1,0.0079X0.0262X135.0000*%
%ADD23MACRO1,0.0079X0.0262X135.0051*%
%ADD24MACRO1,0.0079X0.0262X134.9949*%
%ADD25MACRO1,0.1575X0.1575X135.0000*%
%ADD26MACRO1,0.0213X0.0311X90.0000*%
%ADD27MACRO1,0.034X0.0318X0.0000*%
%ADD28R,0.0340X0.0318*%
%ADD29R,0.0079X0.0335*%
%ADD30MACRO2*%
%ADD31O,0.033464999999999995X0.011024*%
%ADD32O,0.011024X0.033464999999999995*%
%ADD33MACRO3*%
%ADD34R,0.0217X0.0335*%
%ADD35R,0.0591X0.1024*%
%ADD36MACRO1,0.0177X0.0177X45.0000*%
%ADD37MACRO4*%
%ADD38MACRO5*%
%ADD39MACRO6*%
%ADD40MACRO7*%
%ADD41MACRO1,0.0213X0.0311X-90.0000*%
%ADD42MACRO1,0.0213X0.0311X0.0000*%
%ADD43R,0.0213X0.0311*%
%ADD44MACRO1,0.0213X0.0311X135.0000*%
%ADD45MACRO1,0.0213X0.0311X43.0006*%
%ADD46MACRO1,0.0213X0.0311X-45.0000*%
%ADD47MACRO1,0.0213X0.0223X-90.0000*%
%ADD48MACRO1,0.0213X0.0223X0.0000*%
%ADD49R,0.0213X0.0223*%
%ADD50O,0.047244X0.070866*%
%ADD51O,0.047244X0.07873999999999999*%
%ADD52C,0.0600*%
%ADD53R,0.0600X0.0600*%
%ADD54C,0.0240*%
%ADD55C,0.0138*%
%ADD56C,0.0169*%

%LPD*%
G36*
X99040Y-150260D02*
G01*
X97560Y-150140D01*
X96220Y-149500D01*
X93580Y-146760D01*
X91640Y-145560D01*
X89500Y-144800D01*
X87000Y-144520D01*
X65180Y-144520D01*
X62699Y-144800D01*
X60380Y-145620D01*
X59060Y-145840D01*
X57740Y-145620D01*
X55420Y-144800D01*
X52920Y-144520D01*
X48400Y-144520D01*
X46880Y-144220D01*
X45580Y-143360D01*
X22480Y-120280D01*
X19680Y-118180D01*
X17100Y-116840D01*
X15920Y-115920D01*
X15160Y-114600D01*
X14800Y-113580D01*
X13580Y-111640D01*
X11980Y-110040D01*
X10040Y-108820D01*
X7900Y-108059D01*
X5400Y-107780D01*
X-15400Y-107780D01*
X-17900Y-108059D01*
X-20040Y-108820D01*
X-21980Y-110040D01*
X-23580Y-111640D01*
X-24800Y-113580D01*
X-25400Y-115300D01*
X-26260Y-116720D01*
X-27639Y-117680D01*
X-29260Y-117980D01*
X-30880Y-117600D01*
X-32200Y-116600D01*
X-33000Y-115140D01*
X-33340Y-114060D01*
X-34780Y-111359D01*
X-35440Y-110540D01*
X-36160Y-109260D01*
X-36360Y-107820D01*
X-36020Y-106380D01*
X-35180Y-105180D01*
X-26780Y-96780D01*
X-25700Y-96000D01*
X-24400Y-95640D01*
X-23060Y-95700D01*
X-21820Y-96220D01*
X-20040Y-97340D01*
X-17900Y-98100D01*
X-15400Y-98379D01*
X5400Y-98379D01*
X7900Y-98100D01*
X10040Y-97340D01*
X11980Y-96120D01*
X13580Y-94520D01*
X14800Y-92579D01*
X15540Y-90440D01*
X15840Y-87960D01*
X15840Y-66120D01*
X15540Y-63640D01*
X14740Y-61320D01*
X14520Y-60000D01*
X14740Y-58680D01*
X15540Y-56360D01*
X15840Y-53880D01*
X15840Y-51020D01*
X2819Y-51020D01*
X2819Y-51700D01*
X2520Y-53240D01*
X1640Y-54540D01*
X340Y-55400D01*
X-1180Y-55700D01*
X-8820Y-55700D01*
X-10340Y-55400D01*
X-11640Y-54540D01*
X-12520Y-53240D01*
X-12820Y-51700D01*
X-12820Y-51020D01*
X-29820Y-51020D01*
X-31180Y-50800D01*
X-32360Y-50119D01*
X-33260Y-49080D01*
X-33760Y-47820D01*
X-48259Y-47820D01*
X-48259Y-60839D01*
X-43220Y-60839D01*
X-40599Y-60540D01*
X-38980Y-60679D01*
X-37560Y-61480D01*
X-36560Y-62779D01*
X-36160Y-64360D01*
X-36440Y-65980D01*
X-37340Y-67340D01*
X-63700Y-93699D01*
X-65060Y-94600D01*
X-66660Y-94880D01*
X-68240Y-94500D01*
X-69520Y-93520D01*
X-70340Y-92120D01*
X-70500Y-90360D01*
X-70500Y-64840D01*
X-70300Y-63580D01*
X-69720Y-62460D01*
X-68820Y-61560D01*
X-68820Y-47800D01*
X-70100Y-47460D01*
X-71200Y-46740D01*
X-72000Y-45679D01*
X-73200Y-43420D01*
X-74900Y-41160D01*
X-75500Y-40020D01*
X-75700Y-38740D01*
X-75700Y-36180D01*
X-75400Y-34660D01*
X-74540Y-33360D01*
X-73240Y-32480D01*
X-71700Y-32180D01*
X-68820Y-32180D01*
X-68820Y-19180D01*
X-72420Y-19180D01*
X-73960Y-18860D01*
X-75260Y-18000D01*
X-76120Y-16700D01*
X-76420Y-15180D01*
X-76420Y57820D01*
X-76120Y59360D01*
X-75260Y60660D01*
X-73960Y61520D01*
X-72420Y61820D01*
X-63220Y61820D01*
X-60740Y62100D01*
X-59060Y62460D01*
X-57380Y62100D01*
X-54900Y61820D01*
X-47640Y61820D01*
X-46100Y61520D01*
X-44800Y60660D01*
X-43940Y59360D01*
X-43640Y57820D01*
X-43640Y45400D01*
X-43300Y42260D01*
X-42400Y39460D01*
X-40900Y36860D01*
X-39380Y35100D01*
X-25940Y21660D01*
X-23480Y19660D01*
X-20860Y18320D01*
X-17960Y17540D01*
X-15640Y17360D01*
X-10720Y17360D01*
X-9040Y16980D01*
X-5560Y15360D01*
X-2420Y14600D01*
X820Y14440D01*
X4020Y14900D01*
X7100Y15960D01*
X9900Y17580D01*
X12360Y19720D01*
X14360Y22260D01*
X15840Y25160D01*
X16480Y27280D01*
X16880Y28200D01*
X17480Y28980D01*
X19680Y31200D01*
X21680Y33640D01*
X23120Y36500D01*
X24260Y37860D01*
X25860Y38600D01*
X27639Y38560D01*
X29060Y38220D01*
X32300Y38060D01*
X35520Y38520D01*
X38580Y39580D01*
X41400Y41220D01*
X43860Y43339D01*
X45860Y45880D01*
X47340Y48780D01*
X48259Y51880D01*
X48560Y55119D01*
X48339Y57440D01*
X48540Y59080D01*
X49360Y60519D01*
X50700Y61480D01*
X52320Y61820D01*
X54880Y61820D01*
X57360Y62100D01*
X59040Y62460D01*
X60720Y62100D01*
X63200Y61820D01*
X66880Y61820D01*
X68300Y61580D01*
X69520Y60839D01*
X70400Y59740D01*
X70860Y58380D01*
X71000Y57280D01*
X72060Y54120D01*
X73680Y51220D01*
X75940Y48500D01*
X81780Y42660D01*
X82640Y41360D01*
X82960Y39820D01*
X82640Y38300D01*
X81780Y37000D01*
X80480Y36140D01*
X78960Y35820D01*
X78220Y35820D01*
X75720Y35540D01*
X73580Y34800D01*
X71640Y33580D01*
X70040Y31980D01*
X68820Y30040D01*
X68060Y27900D01*
X67780Y25400D01*
X67780Y4600D01*
X68060Y2100D01*
X68820Y-40D01*
X70040Y-1980D01*
X71640Y-3580D01*
X73580Y-4800D01*
X75720Y-5540D01*
X78220Y-5840D01*
X91440Y-5840D01*
X92960Y-6140D01*
X94260Y-7000D01*
X95140Y-8300D01*
X95440Y-9840D01*
X95440Y-14340D01*
X95160Y-15800D01*
X94380Y-17060D01*
X93180Y-17940D01*
X91740Y-18340D01*
X89220Y-18520D01*
X87600Y-18940D01*
X86600Y-19080D01*
X61960Y-19080D01*
X59460Y-19360D01*
X57320Y-20099D01*
X55380Y-21320D01*
X53780Y-22919D01*
X52560Y-24860D01*
X51820Y-27000D01*
X51540Y-29500D01*
X51540Y-60800D01*
X51820Y-63280D01*
X52560Y-65439D01*
X53780Y-67360D01*
X55380Y-68980D01*
X57320Y-70200D01*
X59700Y-71020D01*
X61100Y-71880D01*
X62060Y-73200D01*
X62380Y-74800D01*
X62060Y-76400D01*
X61100Y-77740D01*
X59700Y-78580D01*
X57320Y-79420D01*
X55480Y-80260D01*
X54040Y-80300D01*
X52100Y-79480D01*
X49020Y-78400D01*
X45820Y-77940D01*
X42580Y-78100D01*
X39420Y-78860D01*
X36460Y-80220D01*
X33820Y-82100D01*
X31580Y-84440D01*
X29820Y-87180D01*
X28620Y-90200D01*
X28000Y-93379D01*
X28000Y-96620D01*
X28620Y-99800D01*
X29820Y-102820D01*
X31580Y-105559D01*
X33820Y-107899D01*
X36460Y-109780D01*
X39420Y-111140D01*
X42580Y-111900D01*
X45820Y-112060D01*
X46960Y-111880D01*
X48660Y-112000D01*
X50160Y-112820D01*
X51180Y-114179D01*
X51540Y-115840D01*
X51540Y-120100D01*
X51820Y-122600D01*
X52560Y-124740D01*
X53780Y-126679D01*
X55380Y-128280D01*
X57320Y-129500D01*
X59460Y-130260D01*
X61960Y-130540D01*
X95520Y-130540D01*
X98020Y-130260D01*
X100160Y-129500D01*
X102100Y-128280D01*
X103699Y-126679D01*
X104920Y-124740D01*
X105660Y-122600D01*
X105940Y-120100D01*
X105940Y-88800D01*
X105660Y-86320D01*
X105360Y-85420D01*
X105140Y-83820D01*
X105559Y-82280D01*
X106560Y-81020D01*
X107980Y-80260D01*
X109580Y-80120D01*
X112380Y-80440D01*
X122960Y-80440D01*
X124480Y-80740D01*
X125780Y-81600D01*
X126660Y-82899D01*
X126960Y-84440D01*
X126960Y-136040D01*
X126660Y-137560D01*
X125780Y-138860D01*
X124480Y-139720D01*
X122960Y-140040D01*
X112380Y-140040D01*
X109900Y-140320D01*
X107739Y-141060D01*
X105820Y-142280D01*
X104200Y-143900D01*
X103000Y-145820D01*
X102360Y-147600D01*
X101620Y-148900D01*
X100460Y-149820D01*
G37*

%LPC*%
G36*
X2819Y-34900D02*
G01*
X15840Y-34900D01*
X15840Y-32040D01*
X15540Y-29560D01*
X14800Y-27420D01*
X13580Y-25480D01*
X11980Y-23880D01*
X10040Y-22660D01*
X7900Y-21900D01*
X5400Y-21620D01*
X2819Y-21620D01*
G37*
G36*
X-25000Y-34900D02*
G01*
X-12820Y-34900D01*
X-12820Y-21620D01*
X-15400Y-21620D01*
X-17900Y-21900D01*
X-20040Y-22660D01*
X-21980Y-23880D01*
X-23580Y-25480D01*
X-24800Y-27420D01*
X-25240Y-28680D01*
X-26020Y-30000D01*
X-27220Y-30920D01*
X-28700Y-31340D01*
X-30219Y-31160D01*
X-31560Y-30440D01*
X-32540Y-29260D01*
X-32980Y-27799D01*
X-33060Y-27100D01*
X-33820Y-24960D01*
X-35040Y-23020D01*
X-36640Y-21420D01*
X-38580Y-20200D01*
X-40720Y-19460D01*
X-43220Y-19180D01*
X-48259Y-19180D01*
X-48259Y-32180D01*
X-28780Y-32180D01*
X-27180Y-32519D01*
X-25840Y-33480D01*
G37*

%LPD*%
G36*
X-118760Y-184400D02*
G01*
X-120000Y-183980D01*
X-121940Y-182940D01*
X-124880Y-182040D01*
X-127940Y-181740D01*
X-131000Y-182040D01*
X-132180Y-182399D01*
X-133660Y-182560D01*
X-135080Y-182160D01*
X-136280Y-181280D01*
X-137060Y-180020D01*
X-137340Y-178560D01*
X-137340Y-168840D01*
X-147080Y-168840D01*
X-148540Y-168560D01*
X-149800Y-167780D01*
X-150680Y-166580D01*
X-151060Y-165140D01*
X-150900Y-163680D01*
X-150560Y-162500D01*
X-150240Y-159440D01*
X-150560Y-156380D01*
X-151440Y-153440D01*
X-152480Y-151480D01*
X-152900Y-150260D01*
X-152900Y-148960D01*
X-152480Y-147720D01*
X-151440Y-145760D01*
X-150560Y-142820D01*
X-150240Y-139760D01*
X-150560Y-136700D01*
X-150900Y-135520D01*
X-151060Y-134060D01*
X-150680Y-132620D01*
X-149800Y-131440D01*
X-148540Y-130640D01*
X-147080Y-130360D01*
X-137340Y-130360D01*
X-137340Y-120620D01*
X-137060Y-119179D01*
X-136280Y-117920D01*
X-135080Y-117020D01*
X-133660Y-116640D01*
X-132180Y-116800D01*
X-131000Y-117160D01*
X-127940Y-117460D01*
X-124880Y-117160D01*
X-121940Y-116260D01*
X-120000Y-115220D01*
X-118760Y-114800D01*
X-117460Y-114800D01*
X-116220Y-115220D01*
X-114280Y-116260D01*
X-111320Y-117160D01*
X-108260Y-117460D01*
X-105200Y-117160D01*
X-104040Y-116800D01*
X-102560Y-116640D01*
X-101120Y-117020D01*
X-99940Y-117920D01*
X-99140Y-119160D01*
X-98880Y-120620D01*
X-98880Y-130360D01*
X-89140Y-130360D01*
X-87680Y-130640D01*
X-86420Y-131440D01*
X-85540Y-132620D01*
X-85140Y-134060D01*
X-85300Y-135520D01*
X-85660Y-136700D01*
X-85960Y-139760D01*
X-85660Y-142820D01*
X-84780Y-145760D01*
X-83720Y-147720D01*
X-83300Y-148960D01*
X-83300Y-150260D01*
X-83720Y-151480D01*
X-84780Y-153440D01*
X-85660Y-156380D01*
X-85960Y-159440D01*
X-85660Y-162500D01*
X-85300Y-163680D01*
X-85140Y-165140D01*
X-85540Y-166580D01*
X-86420Y-167780D01*
X-87680Y-168560D01*
X-89140Y-168840D01*
X-98880Y-168840D01*
X-98880Y-178560D01*
X-99140Y-180020D01*
X-99940Y-181280D01*
X-101120Y-182160D01*
X-102560Y-182560D01*
X-104040Y-182399D01*
X-105200Y-182040D01*
X-108260Y-181740D01*
X-111320Y-182040D01*
X-114280Y-182940D01*
X-116220Y-183980D01*
X-117460Y-184400D01*
G37*

%LPD*%
G36*
X15380Y-211660D02*
G01*
X13779Y-211380D01*
X12420Y-210479D01*
X11980Y-210040D01*
X8520Y-207940D01*
X7560Y-206600D01*
X7240Y-205000D01*
X7560Y-203400D01*
X8520Y-202060D01*
X11980Y-199960D01*
X13600Y-198780D01*
X15120Y-198480D01*
X16660Y-198780D01*
X17960Y-199640D01*
X18820Y-200940D01*
X19120Y-202480D01*
X19120Y-206100D01*
X19240Y-207280D01*
X19060Y-208900D01*
X18240Y-210300D01*
X16960Y-211280D01*
G37*

%LPD*%
G36*
X180520Y-298860D02*
G01*
X178980Y-298560D01*
X177680Y-297700D01*
X148060Y-268080D01*
X147460Y-267280D01*
X146840Y-265660D01*
X145380Y-262800D01*
X144940Y-261200D01*
X145200Y-259560D01*
X146080Y-258160D01*
X147480Y-257240D01*
X149120Y-256980D01*
X150820Y-257060D01*
X154020Y-256600D01*
X157100Y-255520D01*
X159900Y-253900D01*
X162380Y-251759D01*
X163860Y-250960D01*
X165539Y-250820D01*
X167120Y-251400D01*
X168200Y-252079D01*
X170340Y-252840D01*
X172840Y-253120D01*
X194660Y-253120D01*
X197140Y-252840D01*
X199460Y-252020D01*
X200780Y-251800D01*
X202100Y-252020D01*
X204420Y-252840D01*
X206920Y-253120D01*
X209760Y-253120D01*
X209760Y-240100D01*
X209080Y-240100D01*
X207560Y-239800D01*
X206260Y-238920D01*
X205380Y-237620D01*
X205080Y-236100D01*
X205080Y-228460D01*
X205380Y-226940D01*
X206260Y-225640D01*
X207560Y-224780D01*
X209080Y-224460D01*
X209760Y-224460D01*
X209760Y-218939D01*
X210060Y-217399D01*
X210940Y-216100D01*
X212220Y-215240D01*
X213760Y-214940D01*
X220240Y-214940D01*
X221439Y-214800D01*
X223100Y-214960D01*
X224560Y-215780D01*
X225539Y-217140D01*
X225900Y-218760D01*
X225900Y-224460D01*
X239160Y-224460D01*
X239160Y-221880D01*
X238880Y-219380D01*
X238120Y-217240D01*
X236920Y-215300D01*
X235300Y-213700D01*
X233380Y-212480D01*
X231439Y-211480D01*
X230500Y-210240D01*
X230100Y-208720D01*
X230539Y-205680D01*
X230960Y-204300D01*
X231840Y-203160D01*
X233080Y-202399D01*
X234500Y-202140D01*
X244480Y-202140D01*
X246020Y-202440D01*
X247320Y-203299D01*
X249700Y-205680D01*
X250560Y-206980D01*
X250859Y-208520D01*
X250859Y-255479D01*
X250560Y-257020D01*
X249700Y-258320D01*
X233720Y-274300D01*
X232260Y-275220D01*
X230539Y-275440D01*
X228880Y-274920D01*
X228100Y-274480D01*
X225020Y-273400D01*
X221820Y-272940D01*
X218580Y-273100D01*
X215420Y-273860D01*
X212460Y-275220D01*
X209820Y-277100D01*
X207580Y-279440D01*
X205820Y-282180D01*
X204620Y-285200D01*
X204000Y-288380D01*
X204000Y-291620D01*
X204480Y-294100D01*
X204440Y-295860D01*
X203640Y-297400D01*
X202260Y-298480D01*
X200560Y-298860D01*
G37*

%LPC*%
G36*
X225900Y-253120D02*
G01*
X228740Y-253120D01*
X231220Y-252840D01*
X233380Y-252079D01*
X235300Y-250859D01*
X236920Y-249259D01*
X238120Y-247320D01*
X238880Y-245180D01*
X239160Y-242680D01*
X239160Y-240100D01*
X225900Y-240100D01*
G37*

%LPD*%
G36*
X323140Y-455220D02*
G01*
X321599Y-454900D01*
X320300Y-454040D01*
X319440Y-452740D01*
X319140Y-451220D01*
X319140Y-363920D01*
X319440Y-362380D01*
X320300Y-361079D01*
X360160Y-321220D01*
X361360Y-320400D01*
X362760Y-320060D01*
X364200Y-320240D01*
X365480Y-320920D01*
X366440Y-322020D01*
X366860Y-322740D01*
X370200Y-326960D01*
X374060Y-330680D01*
X378380Y-333880D01*
X383080Y-336460D01*
X388100Y-338380D01*
X393320Y-339620D01*
X398660Y-340160D01*
X404020Y-339980D01*
X409320Y-339099D01*
X414440Y-337500D01*
X419320Y-335240D01*
X423840Y-332360D01*
X427939Y-328880D01*
X431540Y-324900D01*
X432500Y-323500D01*
X433720Y-322360D01*
X435319Y-321800D01*
X436980Y-321960D01*
X438440Y-322780D01*
X439440Y-324120D01*
X439799Y-325780D01*
X439799Y-374219D01*
X439440Y-375860D01*
X438440Y-377220D01*
X436980Y-378040D01*
X435319Y-378200D01*
X433720Y-377640D01*
X432500Y-376480D01*
X431540Y-375080D01*
X427939Y-371100D01*
X423840Y-367640D01*
X419320Y-364760D01*
X414440Y-362500D01*
X409320Y-360900D01*
X404020Y-360000D01*
X398660Y-359820D01*
X393320Y-360360D01*
X388100Y-361620D01*
X383080Y-363540D01*
X378380Y-366120D01*
X374060Y-369300D01*
X370200Y-373040D01*
X366860Y-377260D01*
X364120Y-381880D01*
X362040Y-386820D01*
X360620Y-392000D01*
X359900Y-397320D01*
X359900Y-402680D01*
X360620Y-408000D01*
X362040Y-413180D01*
X362400Y-414060D01*
X362720Y-415600D01*
X362420Y-417140D01*
X361560Y-418459D01*
X325959Y-454040D01*
X324660Y-454900D01*
G37*

%LPD*%
G36*
X339140Y-536820D02*
G01*
X337600Y-536500D01*
X336300Y-535640D01*
X335439Y-534340D01*
X335140Y-532820D01*
X335140Y-486520D01*
X335439Y-484980D01*
X336300Y-483680D01*
X381580Y-438420D01*
X382840Y-437560D01*
X384340Y-437239D01*
X385840Y-437520D01*
X388100Y-438380D01*
X393320Y-439620D01*
X398660Y-440160D01*
X404020Y-439980D01*
X409320Y-439099D01*
X414440Y-437500D01*
X419320Y-435240D01*
X423840Y-432360D01*
X427939Y-428880D01*
X431540Y-424900D01*
X432500Y-423500D01*
X433720Y-422360D01*
X435319Y-421800D01*
X436980Y-421960D01*
X438440Y-422780D01*
X439440Y-424120D01*
X439799Y-425780D01*
X439799Y-474219D01*
X439440Y-475860D01*
X438440Y-477220D01*
X436980Y-478040D01*
X435319Y-478200D01*
X433720Y-477640D01*
X432500Y-476480D01*
X431540Y-475080D01*
X427939Y-471100D01*
X423840Y-467640D01*
X419320Y-464760D01*
X414440Y-462500D01*
X409320Y-460900D01*
X404020Y-460000D01*
X398660Y-459820D01*
X393320Y-460360D01*
X388100Y-461620D01*
X383080Y-463540D01*
X378380Y-466120D01*
X374060Y-469300D01*
X370200Y-473040D01*
X366860Y-477260D01*
X364120Y-481880D01*
X362040Y-486820D01*
X360620Y-492000D01*
X359900Y-497320D01*
X359900Y-502680D01*
X360620Y-508000D01*
X361940Y-512819D01*
X362060Y-514200D01*
X361700Y-515560D01*
X360900Y-516700D01*
X341960Y-535640D01*
X340660Y-536500D01*
G37*

%LPD*%
G36*
X177320Y-829140D02*
G01*
X175780Y-828820D01*
X174480Y-827960D01*
X170920Y-824380D01*
X168880Y-826440D01*
X167580Y-827300D01*
X166040Y-827600D01*
X164520Y-827300D01*
X163220Y-826440D01*
X157820Y-821040D01*
X156960Y-819740D01*
X156640Y-818199D01*
X156960Y-816680D01*
X157820Y-815380D01*
X159860Y-813340D01*
X155640Y-809120D01*
X154780Y-807820D01*
X154460Y-806280D01*
X154780Y-804760D01*
X155640Y-803460D01*
X164520Y-794580D01*
X165820Y-793720D01*
X167340Y-793400D01*
X168880Y-793720D01*
X170180Y-794580D01*
X174400Y-798800D01*
X182880Y-790300D01*
X184180Y-789440D01*
X185720Y-789140D01*
X209320Y-789140D01*
X210840Y-789440D01*
X212140Y-790300D01*
X213000Y-791600D01*
X213320Y-793139D01*
X213000Y-794659D01*
X212140Y-795960D01*
X205440Y-802660D01*
X204040Y-803580D01*
X202399Y-803820D01*
X200780Y-803379D01*
X199480Y-802340D01*
X198220Y-800740D01*
X196400Y-798920D01*
X185440Y-809860D01*
X189020Y-813420D01*
X189880Y-814720D01*
X190200Y-816260D01*
X189880Y-817780D01*
X189020Y-819080D01*
X180140Y-827960D01*
X178840Y-828820D01*
G37*

%LPD*%
G36*
X-210159Y-990860D02*
G01*
X-211700Y-990560D01*
X-213000Y-989700D01*
X-213860Y-988400D01*
X-214160Y-986860D01*
X-214160Y-928820D01*
X-213860Y-927280D01*
X-213000Y-925980D01*
X-182480Y-895480D01*
X-180960Y-894520D01*
X-177940Y-893480D01*
X-175140Y-891860D01*
X-172680Y-889740D01*
X-170680Y-887180D01*
X-169200Y-884300D01*
X-168280Y-881180D01*
X-167960Y-877960D01*
X-168280Y-874720D01*
X-169200Y-871600D01*
X-170680Y-868720D01*
X-172680Y-866180D01*
X-175140Y-864040D01*
X-178080Y-862340D01*
X-179060Y-861540D01*
X-179740Y-860480D01*
X-180080Y-858980D01*
X-181000Y-855860D01*
X-182480Y-852980D01*
X-184500Y-850420D01*
X-186940Y-848300D01*
X-190180Y-846460D01*
X-191160Y-845660D01*
X-191860Y-844599D01*
X-192240Y-842760D01*
X-193160Y-839659D01*
X-194640Y-836780D01*
X-196640Y-834220D01*
X-199100Y-832099D01*
X-201900Y-830480D01*
X-204980Y-829400D01*
X-206680Y-829160D01*
X-208120Y-828660D01*
X-209259Y-827680D01*
X-209960Y-826340D01*
X-210159Y-825660D01*
X-211640Y-822780D01*
X-213640Y-820220D01*
X-216100Y-818100D01*
X-218900Y-816480D01*
X-221980Y-815400D01*
X-225180Y-814940D01*
X-227340Y-814760D01*
X-228640Y-814000D01*
X-229579Y-812820D01*
X-230640Y-810780D01*
X-232640Y-808220D01*
X-235100Y-806100D01*
X-237900Y-804479D01*
X-240980Y-803400D01*
X-244180Y-802940D01*
X-247420Y-803100D01*
X-250580Y-803860D01*
X-253540Y-805220D01*
X-256180Y-807099D01*
X-258420Y-809440D01*
X-260180Y-812180D01*
X-261820Y-816580D01*
X-262540Y-817540D01*
X-284040Y-839040D01*
X-285340Y-839900D01*
X-286860Y-840220D01*
X-288400Y-839900D01*
X-289700Y-839040D01*
X-290560Y-837740D01*
X-290860Y-836220D01*
X-290860Y-495200D01*
X-291200Y-492060D01*
X-292100Y-489260D01*
X-293600Y-486659D01*
X-295120Y-484900D01*
X-361560Y-418440D01*
X-362400Y-417220D01*
X-362740Y-415760D01*
X-362520Y-414300D01*
X-361240Y-410620D01*
X-360160Y-405360D01*
X-359799Y-400000D01*
X-360160Y-394640D01*
X-361240Y-389380D01*
X-363000Y-384300D01*
X-365420Y-379520D01*
X-368459Y-375080D01*
X-372060Y-371100D01*
X-376160Y-367640D01*
X-380680Y-364760D01*
X-385560Y-362500D01*
X-390680Y-360900D01*
X-395980Y-360000D01*
X-401340Y-359820D01*
X-406680Y-360360D01*
X-411900Y-361620D01*
X-416920Y-363540D01*
X-421620Y-366120D01*
X-425940Y-369300D01*
X-429799Y-373040D01*
X-432660Y-376640D01*
X-433920Y-377700D01*
X-435480Y-378160D01*
X-437120Y-377939D01*
X-438519Y-377100D01*
X-439460Y-375780D01*
X-439799Y-374159D01*
X-439799Y-325820D01*
X-439460Y-324219D01*
X-438519Y-322879D01*
X-437120Y-322040D01*
X-435480Y-321840D01*
X-433920Y-322299D01*
X-432660Y-323340D01*
X-429799Y-326960D01*
X-425940Y-330700D01*
X-421620Y-333880D01*
X-416920Y-336460D01*
X-411900Y-338380D01*
X-406680Y-339620D01*
X-401340Y-340160D01*
X-395980Y-339980D01*
X-390680Y-339099D01*
X-385560Y-337500D01*
X-380680Y-335240D01*
X-376160Y-332360D01*
X-372060Y-328880D01*
X-368459Y-324900D01*
X-365420Y-320480D01*
X-363000Y-315680D01*
X-361240Y-310620D01*
X-360160Y-305360D01*
X-359799Y-300000D01*
X-360160Y-294640D01*
X-361240Y-289380D01*
X-363000Y-284300D01*
X-365420Y-279520D01*
X-368459Y-275080D01*
X-372060Y-271100D01*
X-376160Y-267640D01*
X-380680Y-264760D01*
X-385560Y-262500D01*
X-390680Y-260900D01*
X-395980Y-260000D01*
X-401340Y-259820D01*
X-406680Y-260360D01*
X-411900Y-261620D01*
X-416920Y-263540D01*
X-421620Y-266120D01*
X-425940Y-269300D01*
X-429799Y-273040D01*
X-432660Y-276640D01*
X-433920Y-277700D01*
X-435480Y-278160D01*
X-437120Y-277940D01*
X-438519Y-277100D01*
X-439460Y-275780D01*
X-439799Y-274160D01*
X-439799Y-225820D01*
X-439460Y-224220D01*
X-438519Y-222900D01*
X-437120Y-222040D01*
X-435480Y-221840D01*
X-433920Y-222300D01*
X-432660Y-223340D01*
X-429799Y-226960D01*
X-425940Y-230700D01*
X-421620Y-233880D01*
X-416920Y-236460D01*
X-411900Y-238380D01*
X-406680Y-239640D01*
X-401340Y-240159D01*
X-395980Y-239980D01*
X-390680Y-239100D01*
X-385560Y-237500D01*
X-380680Y-235240D01*
X-376160Y-232360D01*
X-372060Y-228880D01*
X-368459Y-224899D01*
X-365420Y-220479D01*
X-363000Y-215680D01*
X-361240Y-210620D01*
X-360160Y-205360D01*
X-359799Y-200000D01*
X-360160Y-194640D01*
X-361240Y-189380D01*
X-363000Y-184300D01*
X-365420Y-179520D01*
X-368459Y-175100D01*
X-372060Y-171100D01*
X-376160Y-167640D01*
X-380680Y-164760D01*
X-385560Y-162500D01*
X-390680Y-160900D01*
X-395980Y-160000D01*
X-401340Y-159840D01*
X-406680Y-160360D01*
X-411900Y-161620D01*
X-416920Y-163540D01*
X-421620Y-166119D01*
X-425940Y-169300D01*
X-429799Y-173039D01*
X-432660Y-176640D01*
X-433920Y-177700D01*
X-435480Y-178160D01*
X-437120Y-177940D01*
X-438519Y-177100D01*
X-439460Y-175780D01*
X-439799Y-174180D01*
X-439799Y-125820D01*
X-439460Y-124220D01*
X-438519Y-122899D01*
X-437120Y-122040D01*
X-435480Y-121840D01*
X-433920Y-122300D01*
X-432660Y-123340D01*
X-429799Y-126960D01*
X-425940Y-130700D01*
X-421620Y-133880D01*
X-416920Y-136460D01*
X-411900Y-138380D01*
X-406680Y-139640D01*
X-401340Y-140160D01*
X-395980Y-139980D01*
X-390680Y-139100D01*
X-385560Y-137500D01*
X-380680Y-135240D01*
X-376160Y-132360D01*
X-372060Y-128880D01*
X-368459Y-124900D01*
X-365420Y-120480D01*
X-363000Y-115680D01*
X-361240Y-110620D01*
X-360160Y-105360D01*
X-359799Y-100000D01*
X-360160Y-94640D01*
X-361240Y-89380D01*
X-363000Y-84300D01*
X-365420Y-79520D01*
X-368459Y-75100D01*
X-372060Y-71100D01*
X-376160Y-67640D01*
X-380680Y-64760D01*
X-385560Y-62500D01*
X-390680Y-60900D01*
X-395980Y-60000D01*
X-401340Y-59840D01*
X-406680Y-60359D01*
X-411900Y-61620D01*
X-416920Y-63540D01*
X-421620Y-66120D01*
X-425940Y-69300D01*
X-429799Y-73040D01*
X-432660Y-76640D01*
X-433920Y-77700D01*
X-435480Y-78160D01*
X-437120Y-77940D01*
X-438519Y-77100D01*
X-439460Y-75780D01*
X-439799Y-74180D01*
X-439799Y-25820D01*
X-439460Y-24220D01*
X-438519Y-22900D01*
X-437120Y-22040D01*
X-435480Y-21840D01*
X-433920Y-22300D01*
X-432660Y-23340D01*
X-429799Y-26960D01*
X-425940Y-30700D01*
X-421620Y-33880D01*
X-416920Y-36460D01*
X-411900Y-38380D01*
X-406680Y-39640D01*
X-401340Y-40160D01*
X-395980Y-39980D01*
X-390680Y-39100D01*
X-385560Y-37500D01*
X-380680Y-35240D01*
X-376160Y-32360D01*
X-372060Y-28880D01*
X-368459Y-24900D01*
X-365420Y-20480D01*
X-363000Y-15680D01*
X-361240Y-10620D01*
X-360160Y-5360D01*
X-359799Y0D01*
X-360160Y5360D01*
X-361240Y10620D01*
X-363000Y15700D01*
X-365420Y20480D01*
X-368459Y24900D01*
X-372060Y28900D01*
X-376160Y32360D01*
X-380680Y35240D01*
X-385560Y37500D01*
X-390680Y39100D01*
X-395980Y40000D01*
X-401340Y40160D01*
X-406680Y39640D01*
X-411900Y38380D01*
X-416920Y36460D01*
X-421620Y33880D01*
X-425940Y30700D01*
X-429799Y26960D01*
X-432660Y23360D01*
X-433920Y22300D01*
X-435480Y21840D01*
X-437120Y22060D01*
X-438519Y22900D01*
X-439460Y24220D01*
X-439799Y25820D01*
X-439799Y74180D01*
X-439460Y75780D01*
X-438519Y77100D01*
X-437120Y77960D01*
X-435480Y78160D01*
X-433920Y77700D01*
X-432660Y76660D01*
X-429799Y73040D01*
X-425940Y69300D01*
X-421620Y66120D01*
X-416920Y63540D01*
X-411900Y61620D01*
X-406680Y60359D01*
X-401340Y59840D01*
X-395980Y60020D01*
X-390680Y60900D01*
X-385560Y62500D01*
X-380680Y64760D01*
X-376160Y67640D01*
X-372060Y71120D01*
X-368459Y75100D01*
X-365420Y79520D01*
X-363000Y84320D01*
X-361240Y89380D01*
X-360160Y94640D01*
X-359799Y100000D01*
X-360160Y105360D01*
X-361240Y110620D01*
X-363000Y115700D01*
X-365420Y120480D01*
X-368459Y124900D01*
X-372060Y128900D01*
X-376160Y132360D01*
X-380680Y135240D01*
X-385560Y137500D01*
X-390680Y139100D01*
X-395980Y140000D01*
X-401340Y140160D01*
X-406680Y139640D01*
X-411900Y138380D01*
X-416920Y136460D01*
X-421620Y133880D01*
X-425940Y130700D01*
X-429799Y126960D01*
X-432660Y123360D01*
X-433920Y122300D01*
X-435480Y121840D01*
X-437120Y122060D01*
X-438519Y122899D01*
X-439460Y124220D01*
X-439799Y125820D01*
X-439799Y174180D01*
X-439460Y175780D01*
X-438519Y177100D01*
X-437120Y177960D01*
X-435480Y178160D01*
X-433920Y177700D01*
X-432660Y176660D01*
X-429799Y173039D01*
X-425940Y169300D01*
X-421620Y166119D01*
X-416920Y163540D01*
X-411900Y161620D01*
X-406680Y160360D01*
X-401340Y159840D01*
X-395980Y160020D01*
X-390680Y160900D01*
X-385560Y162500D01*
X-380680Y164760D01*
X-376160Y167640D01*
X-372060Y171100D01*
X-368459Y175100D01*
X-365420Y179520D01*
X-363000Y184300D01*
X-361240Y189380D01*
X-360160Y194640D01*
X-359799Y200000D01*
X-360160Y205360D01*
X-361240Y210620D01*
X-363000Y215700D01*
X-365420Y220479D01*
X-368459Y224899D01*
X-372060Y228900D01*
X-376160Y232360D01*
X-380680Y235240D01*
X-385560Y237500D01*
X-390680Y239100D01*
X-395980Y239980D01*
X-401340Y240159D01*
X-406680Y239640D01*
X-411900Y238380D01*
X-416920Y236460D01*
X-421620Y233880D01*
X-425940Y230700D01*
X-429799Y226960D01*
X-432660Y223340D01*
X-433920Y222300D01*
X-435480Y221840D01*
X-437120Y222040D01*
X-438519Y222900D01*
X-439460Y224220D01*
X-439799Y225820D01*
X-439799Y274180D01*
X-439460Y275780D01*
X-438519Y277100D01*
X-437120Y277960D01*
X-435480Y278160D01*
X-433920Y277700D01*
X-432660Y276660D01*
X-429799Y273040D01*
X-425940Y269300D01*
X-421620Y266120D01*
X-416920Y263540D01*
X-411900Y261620D01*
X-406680Y260360D01*
X-401340Y259840D01*
X-395980Y260000D01*
X-390680Y260900D01*
X-385560Y262500D01*
X-380680Y264760D01*
X-376160Y267640D01*
X-372060Y271100D01*
X-368459Y275100D01*
X-365420Y279520D01*
X-363000Y284300D01*
X-361240Y289380D01*
X-360160Y294640D01*
X-359799Y300000D01*
X-360160Y305360D01*
X-361240Y310620D01*
X-363000Y315680D01*
X-365420Y320480D01*
X-368459Y324900D01*
X-372060Y328880D01*
X-376280Y332420D01*
X-377480Y333620D01*
X-378080Y335220D01*
X-377960Y336920D01*
X-377140Y338420D01*
X-375780Y339440D01*
X-374120Y339799D01*
X-191080Y339799D01*
X-189460Y339460D01*
X-188120Y338480D01*
X-187280Y337060D01*
X-187100Y335420D01*
X-187600Y333840D01*
X-188680Y332600D01*
X-192420Y329799D01*
X-195840Y326380D01*
X-198720Y322520D01*
X-201040Y318280D01*
X-202719Y313760D01*
X-203760Y309060D01*
X-204100Y304100D01*
X-204100Y280760D01*
X-203760Y275820D01*
X-202719Y271100D01*
X-201040Y266580D01*
X-198720Y262340D01*
X-195840Y258480D01*
X-192420Y255060D01*
X-188560Y252180D01*
X-184320Y249860D01*
X-179800Y248180D01*
X-175100Y247160D01*
X-170280Y246820D01*
X-165479Y247160D01*
X-160760Y248180D01*
X-156240Y249860D01*
X-152000Y252180D01*
X-148140Y255060D01*
X-144740Y258480D01*
X-141840Y262340D01*
X-139520Y266580D01*
X-137840Y271100D01*
X-136820Y275820D01*
X-136460Y280760D01*
X-136460Y304100D01*
X-136820Y309060D01*
X-137840Y313760D01*
X-139520Y318280D01*
X-141840Y322520D01*
X-144740Y326380D01*
X-148140Y329799D01*
X-151880Y332600D01*
X-152980Y333840D01*
X-153460Y335420D01*
X-153280Y337060D01*
X-152440Y338480D01*
X-151100Y339460D01*
X-149480Y339799D01*
X149460Y339799D01*
X151080Y339460D01*
X152420Y338480D01*
X153260Y337060D01*
X153440Y335420D01*
X152960Y333840D01*
X151860Y332600D01*
X148120Y329799D01*
X144720Y326380D01*
X141820Y322520D01*
X139500Y318280D01*
X137820Y313760D01*
X136800Y309060D01*
X136440Y304100D01*
X136440Y280760D01*
X136800Y275820D01*
X137820Y271100D01*
X139500Y266580D01*
X141820Y262340D01*
X144720Y258480D01*
X148120Y255060D01*
X151980Y252180D01*
X156220Y249860D01*
X160740Y248180D01*
X165460Y247160D01*
X170260Y246820D01*
X175080Y247160D01*
X179780Y248180D01*
X184300Y249860D01*
X188540Y252180D01*
X192399Y255060D01*
X195820Y258480D01*
X198700Y262340D01*
X201020Y266580D01*
X202700Y271100D01*
X203740Y275820D01*
X204080Y280760D01*
X204080Y304100D01*
X203740Y309060D01*
X202700Y313760D01*
X201020Y318280D01*
X198700Y322520D01*
X195820Y326380D01*
X192399Y329799D01*
X188660Y332600D01*
X187580Y333840D01*
X187079Y335420D01*
X187260Y337060D01*
X188100Y338480D01*
X189440Y339460D01*
X191060Y339799D01*
X374240Y339799D01*
X375860Y339460D01*
X377200Y338480D01*
X378040Y337040D01*
X378220Y335400D01*
X377720Y333820D01*
X376620Y332580D01*
X374060Y330700D01*
X370200Y326960D01*
X366860Y322740D01*
X364120Y318120D01*
X362040Y313180D01*
X360620Y308000D01*
X359900Y302680D01*
X359900Y297320D01*
X360620Y292000D01*
X362040Y286820D01*
X364120Y281880D01*
X366860Y277260D01*
X370200Y273040D01*
X374060Y269300D01*
X378380Y266120D01*
X383080Y263540D01*
X388100Y261620D01*
X393320Y260360D01*
X398660Y259840D01*
X404020Y260000D01*
X409320Y260900D01*
X414440Y262500D01*
X419320Y264760D01*
X423840Y267640D01*
X427939Y271100D01*
X431540Y275100D01*
X432500Y276480D01*
X433720Y277640D01*
X435319Y278200D01*
X436980Y278040D01*
X438440Y277220D01*
X439440Y275860D01*
X439799Y274220D01*
X439799Y242920D01*
X439520Y241439D01*
X438700Y240159D01*
X437460Y239280D01*
X435980Y238920D01*
X434480Y239140D01*
X432260Y239920D01*
X429780Y240200D01*
X417500Y240200D01*
X417500Y217500D01*
X435800Y217500D01*
X437320Y217200D01*
X438620Y216320D01*
X439500Y215040D01*
X439799Y213500D01*
X439799Y186500D01*
X439500Y184960D01*
X438620Y183680D01*
X437320Y182800D01*
X435800Y182500D01*
X417500Y182500D01*
X417500Y159800D01*
X429780Y159800D01*
X432260Y160080D01*
X434480Y160859D01*
X435980Y161080D01*
X437460Y160720D01*
X438700Y159840D01*
X439520Y158560D01*
X439799Y157080D01*
X439799Y125780D01*
X439440Y124120D01*
X438440Y122780D01*
X436980Y121960D01*
X435319Y121800D01*
X433720Y122360D01*
X432500Y123500D01*
X431540Y124900D01*
X427939Y128900D01*
X423840Y132360D01*
X419320Y135240D01*
X414440Y137500D01*
X409320Y139100D01*
X404020Y140000D01*
X398660Y140160D01*
X393320Y139640D01*
X388080Y138380D01*
X383080Y136460D01*
X378380Y133880D01*
X374040Y130700D01*
X370180Y126960D01*
X366860Y122739D01*
X364120Y118120D01*
X362020Y113180D01*
X360620Y108000D01*
X359900Y102680D01*
X359900Y97320D01*
X360620Y92000D01*
X362020Y86820D01*
X362400Y85940D01*
X362720Y84400D01*
X362420Y82860D01*
X361560Y81540D01*
X315160Y35140D01*
X313160Y32679D01*
X311820Y30059D01*
X311040Y27160D01*
X310860Y24840D01*
X310860Y-30179D01*
X310560Y-31700D01*
X309700Y-33000D01*
X308400Y-33860D01*
X306860Y-34180D01*
X291120Y-34180D01*
X288640Y-34460D01*
X286320Y-35260D01*
X285000Y-35480D01*
X283680Y-35260D01*
X281360Y-34460D01*
X278880Y-34180D01*
X268780Y-34180D01*
X267240Y-33860D01*
X265960Y-33000D01*
X255580Y-22639D01*
X253120Y-20640D01*
X250500Y-19300D01*
X247600Y-18520D01*
X245280Y-18340D01*
X234500Y-18340D01*
X233080Y-18080D01*
X231840Y-17320D01*
X230960Y-16180D01*
X230539Y-14800D01*
X230380Y-13480D01*
X229579Y-11160D01*
X229360Y-9660D01*
X229700Y-8179D01*
X230580Y-6939D01*
X231860Y-6120D01*
X233340Y-5840D01*
X252960Y-5840D01*
X255440Y-5540D01*
X257580Y-4800D01*
X259520Y-3580D01*
X261119Y-1980D01*
X262340Y-40D01*
X263300Y1880D01*
X264440Y2800D01*
X265820Y3240D01*
X270820Y2940D01*
X274020Y3400D01*
X277100Y4480D01*
X279900Y6100D01*
X282360Y8220D01*
X284360Y10780D01*
X285840Y13660D01*
X286760Y16760D01*
X287080Y20000D01*
X286760Y23240D01*
X285840Y26340D01*
X284360Y29220D01*
X282360Y31780D01*
X279900Y33900D01*
X277100Y35520D01*
X274020Y36600D01*
X270820Y37060D01*
X267580Y36900D01*
X264420Y36140D01*
X261200Y34660D01*
X259680Y34300D01*
X258160Y34540D01*
X255400Y35560D01*
X252960Y35820D01*
X231119Y35820D01*
X228640Y35540D01*
X226780Y34900D01*
X225320Y34680D01*
X223860Y35020D01*
X222620Y35860D01*
X221800Y37100D01*
X221460Y38560D01*
X221540Y40820D01*
X221880Y41760D01*
X222840Y43660D01*
X223760Y46760D01*
X224080Y50000D01*
X223760Y53240D01*
X222840Y56340D01*
X221360Y59220D01*
X219360Y61780D01*
X216900Y63900D01*
X214100Y65519D01*
X211020Y66600D01*
X207820Y67060D01*
X204579Y66900D01*
X201420Y66140D01*
X198460Y64780D01*
X195820Y62900D01*
X193580Y60560D01*
X191820Y57820D01*
X190620Y54800D01*
X190000Y51620D01*
X190000Y48380D01*
X190620Y45199D01*
X191820Y42180D01*
X193000Y40080D01*
X193180Y39020D01*
X193220Y37620D01*
X193020Y36260D01*
X192360Y35040D01*
X191340Y34120D01*
X190479Y33580D01*
X188880Y31980D01*
X187659Y30040D01*
X186900Y27900D01*
X186620Y25400D01*
X186640Y-1520D01*
X186340Y-3060D01*
X185479Y-4360D01*
X184180Y-5240D01*
X182640Y-5540D01*
X181320Y-5540D01*
X178840Y-5820D01*
X177160Y-6180D01*
X175500Y-5820D01*
X173000Y-5540D01*
X165580Y-5540D01*
X163720Y-5440D01*
X162300Y-4680D01*
X161300Y-3420D01*
X160880Y-1860D01*
X161100Y-280D01*
X161940Y2100D01*
X162220Y4600D01*
X162220Y7180D01*
X146740Y7180D01*
X146740Y-1660D01*
X146380Y-3300D01*
X145400Y-4640D01*
X143960Y-5480D01*
X142280Y-5639D01*
X141500Y-5540D01*
X134080Y-5540D01*
X130000Y-6080D01*
X128520Y-5719D01*
X127300Y-4840D01*
X126480Y-3560D01*
X126180Y-2080D01*
X126180Y7180D01*
X123300Y7180D01*
X121760Y7480D01*
X120460Y8360D01*
X119600Y9660D01*
X119300Y11180D01*
X119300Y18820D01*
X119600Y20339D01*
X120460Y21640D01*
X121760Y22519D01*
X123300Y22820D01*
X126180Y22820D01*
X126180Y35820D01*
X121140Y35820D01*
X118640Y35540D01*
X116320Y34740D01*
X115000Y34520D01*
X113680Y34740D01*
X111359Y35540D01*
X110399Y35660D01*
X108980Y36100D01*
X107820Y37020D01*
X107080Y38300D01*
X106860Y39780D01*
X107180Y41220D01*
X108020Y42460D01*
X113680Y48140D01*
X115740Y50880D01*
X117220Y53860D01*
X118140Y57080D01*
X118240Y58200D01*
X118640Y59600D01*
X119540Y60780D01*
X120780Y61560D01*
X122220Y61820D01*
X126420Y61820D01*
X126420Y82320D01*
X122460Y82320D01*
X120940Y82640D01*
X119640Y83500D01*
X118760Y84800D01*
X118460Y86320D01*
X118460Y97400D01*
X118140Y100920D01*
X117220Y104120D01*
X116600Y105620D01*
X116480Y106540D01*
X116480Y119340D01*
X116720Y120680D01*
X117380Y121860D01*
X118400Y122760D01*
X119660Y123260D01*
X120700Y123480D01*
X122460Y123460D01*
X124040Y122660D01*
X125140Y121280D01*
X125520Y119560D01*
X125520Y112920D01*
X126420Y112920D01*
X126420Y123640D01*
X126600Y124840D01*
X127140Y125920D01*
X127960Y126800D01*
X129980Y128360D01*
X131580Y129120D01*
X133360Y129100D01*
X134960Y128320D01*
X136060Y126940D01*
X136440Y125200D01*
X136440Y112260D01*
X136800Y107300D01*
X137820Y102600D01*
X139500Y98080D01*
X141820Y93840D01*
X144720Y89980D01*
X145540Y89160D01*
X146400Y87860D01*
X146700Y86320D01*
X146400Y84800D01*
X145540Y83500D01*
X144240Y82620D01*
X142720Y82320D01*
X137340Y82320D01*
X137340Y61820D01*
X140040Y62100D01*
X142200Y62859D01*
X144120Y64080D01*
X145740Y65680D01*
X146960Y67620D01*
X147700Y69760D01*
X147980Y72260D01*
X147980Y79120D01*
X148320Y80719D01*
X149280Y82060D01*
X150700Y82899D01*
X152320Y83100D01*
X153900Y82640D01*
X156220Y81359D01*
X160740Y79680D01*
X165460Y78660D01*
X170260Y78300D01*
X175080Y78660D01*
X179780Y79680D01*
X184300Y81359D01*
X188540Y83680D01*
X192399Y86560D01*
X195820Y89980D01*
X198700Y93840D01*
X201020Y98080D01*
X202700Y102600D01*
X203740Y107300D01*
X204080Y112260D01*
X204080Y143480D01*
X203740Y148420D01*
X202700Y153140D01*
X201020Y157660D01*
X198700Y161900D01*
X195820Y165760D01*
X192399Y169180D01*
X188540Y172060D01*
X184300Y174380D01*
X179780Y176060D01*
X175080Y177079D01*
X170260Y177420D01*
X165460Y177079D01*
X160740Y176060D01*
X156220Y174380D01*
X151980Y172060D01*
X148120Y169180D01*
X144720Y165760D01*
X141680Y161660D01*
X140620Y160400D01*
X139140Y159700D01*
X137520Y159620D01*
X135980Y160219D01*
X134820Y161380D01*
X133840Y162880D01*
X131060Y165920D01*
X127800Y168440D01*
X124179Y170400D01*
X120280Y171740D01*
X116220Y172420D01*
X112100Y172420D01*
X108040Y171740D01*
X104140Y170400D01*
X100520Y168440D01*
X97260Y165920D01*
X94480Y162880D01*
X92220Y159440D01*
X90559Y155660D01*
X89560Y151660D01*
X89200Y147560D01*
X89560Y143440D01*
X91100Y137480D01*
X90800Y135920D01*
X89940Y134600D01*
X88640Y133720D01*
X87100Y133400D01*
X82899Y133400D01*
X80399Y133120D01*
X78740Y132780D01*
X77060Y133120D01*
X74580Y133400D01*
X63200Y133400D01*
X60720Y133120D01*
X59040Y132780D01*
X57360Y133120D01*
X54880Y133400D01*
X43520Y133400D01*
X41040Y133120D01*
X39360Y132780D01*
X37680Y133120D01*
X35200Y133400D01*
X23840Y133400D01*
X21360Y133120D01*
X19680Y132780D01*
X18000Y133120D01*
X15520Y133400D01*
X4140Y133400D01*
X1660Y133120D01*
X-20Y132780D01*
X-1680Y133120D01*
X-4160Y133400D01*
X-15540Y133400D01*
X-18020Y133120D01*
X-19700Y132780D01*
X-21380Y133120D01*
X-23860Y133400D01*
X-35220Y133400D01*
X-37700Y133120D01*
X-39380Y132780D01*
X-41040Y133120D01*
X-43520Y133400D01*
X-54900Y133400D01*
X-57380Y133120D01*
X-59060Y132780D01*
X-60740Y133120D01*
X-63220Y133400D01*
X-74600Y133400D01*
X-77080Y133120D01*
X-78740Y132780D01*
X-80420Y133120D01*
X-82899Y133400D01*
X-87120Y133400D01*
X-88660Y133720D01*
X-89960Y134600D01*
X-90820Y135920D01*
X-91120Y137480D01*
X-89560Y143440D01*
X-89220Y147560D01*
X-89560Y151660D01*
X-90580Y155660D01*
X-92240Y159440D01*
X-94500Y162880D01*
X-97280Y165920D01*
X-100540Y168440D01*
X-104160Y170400D01*
X-108059Y171740D01*
X-112120Y172420D01*
X-116240Y172420D01*
X-120300Y171740D01*
X-124200Y170400D01*
X-127820Y168440D01*
X-131080Y165920D01*
X-133860Y162880D01*
X-134840Y161380D01*
X-136000Y160219D01*
X-137540Y159620D01*
X-139160Y159700D01*
X-140640Y160400D01*
X-144740Y165760D01*
X-148140Y169180D01*
X-152000Y172060D01*
X-156240Y174380D01*
X-160760Y176060D01*
X-165479Y177079D01*
X-170280Y177420D01*
X-175100Y177079D01*
X-179800Y176060D01*
X-184320Y174380D01*
X-188560Y172060D01*
X-192420Y169180D01*
X-195840Y165760D01*
X-198720Y161900D01*
X-201040Y157660D01*
X-202719Y153140D01*
X-203760Y148420D01*
X-204100Y143480D01*
X-204100Y112260D01*
X-203760Y107300D01*
X-202719Y102600D01*
X-201040Y98080D01*
X-198720Y93840D01*
X-195840Y89980D01*
X-192420Y86560D01*
X-188560Y83680D01*
X-184320Y81359D01*
X-179800Y79680D01*
X-175100Y78660D01*
X-170280Y78300D01*
X-165479Y78660D01*
X-160760Y79680D01*
X-156240Y81359D01*
X-153920Y82640D01*
X-152340Y83100D01*
X-150720Y82899D01*
X-149300Y82060D01*
X-148340Y80719D01*
X-148000Y79120D01*
X-148000Y72240D01*
X-147720Y69760D01*
X-146980Y67600D01*
X-145760Y65680D01*
X-144140Y64060D01*
X-142220Y62859D01*
X-140060Y62100D01*
X-137360Y61820D01*
X-137360Y82320D01*
X-142740Y82320D01*
X-144260Y82620D01*
X-145560Y83480D01*
X-146440Y84780D01*
X-146740Y86320D01*
X-146440Y87840D01*
X-145560Y89140D01*
X-144740Y89980D01*
X-141840Y93840D01*
X-139520Y98080D01*
X-137840Y102600D01*
X-136820Y107300D01*
X-136460Y112260D01*
X-136460Y125200D01*
X-136060Y126940D01*
X-134980Y128320D01*
X-133380Y129100D01*
X-131600Y129120D01*
X-130000Y128360D01*
X-127980Y126800D01*
X-127160Y125920D01*
X-126620Y124840D01*
X-126440Y123640D01*
X-126440Y112899D01*
X-125540Y112899D01*
X-125540Y119560D01*
X-125140Y121280D01*
X-124060Y122660D01*
X-122480Y123460D01*
X-120719Y123480D01*
X-119700Y123260D01*
X-118440Y122760D01*
X-117400Y121880D01*
X-116740Y120680D01*
X-116519Y119340D01*
X-116519Y72260D01*
X-116240Y69760D01*
X-115480Y67620D01*
X-114780Y66220D01*
X-114640Y65100D01*
X-114640Y61320D01*
X-113539Y60420D01*
X-112820Y59200D01*
X-112579Y57820D01*
X-112579Y-15180D01*
X-112840Y-16600D01*
X-113600Y-17860D01*
X-114780Y-18740D01*
X-116180Y-19160D01*
X-119300Y-19460D01*
X-121420Y-20200D01*
X-123219Y-21020D01*
X-124660Y-21060D01*
X-126020Y-20560D01*
X-127899Y-19480D01*
X-130980Y-18400D01*
X-134180Y-17940D01*
X-137420Y-18100D01*
X-140580Y-18860D01*
X-143540Y-20219D01*
X-146180Y-22100D01*
X-147620Y-23600D01*
X-148780Y-24460D01*
X-150160Y-24840D01*
X-151600Y-24700D01*
X-152880Y-24080D01*
X-155480Y-21420D01*
X-157420Y-20200D01*
X-159560Y-19460D01*
X-162040Y-19180D01*
X-183880Y-19180D01*
X-186360Y-19460D01*
X-188680Y-20259D01*
X-190000Y-20480D01*
X-191320Y-20259D01*
X-193640Y-19460D01*
X-196119Y-19180D01*
X-198980Y-19180D01*
X-198980Y-32180D01*
X-198299Y-32180D01*
X-196759Y-32480D01*
X-195460Y-33360D01*
X-194600Y-34660D01*
X-194300Y-36180D01*
X-194300Y-43820D01*
X-194600Y-45340D01*
X-195460Y-46640D01*
X-196759Y-47520D01*
X-198299Y-47820D01*
X-198980Y-47820D01*
X-198980Y-60839D01*
X-196119Y-60839D01*
X-193640Y-60540D01*
X-191320Y-59740D01*
X-190000Y-59520D01*
X-188680Y-59740D01*
X-186360Y-60540D01*
X-183880Y-60839D01*
X-173780Y-60839D01*
X-172240Y-61140D01*
X-170960Y-62000D01*
X-163240Y-69700D01*
X-162440Y-70880D01*
X-162079Y-72280D01*
X-162260Y-73700D01*
X-163020Y-76260D01*
X-163340Y-79520D01*
X-163340Y-100360D01*
X-163660Y-101900D01*
X-164520Y-103180D01*
X-165820Y-104060D01*
X-167340Y-104360D01*
X-171759Y-104360D01*
X-172719Y-104240D01*
X-173600Y-103900D01*
X-176740Y-102280D01*
X-179620Y-101519D01*
X-181920Y-101320D01*
X-200520Y-101320D01*
X-202000Y-101039D01*
X-203280Y-100220D01*
X-204160Y-98980D01*
X-204500Y-97500D01*
X-204280Y-96000D01*
X-203860Y-94780D01*
X-203580Y-92300D01*
X-203580Y-89460D01*
X-216600Y-89460D01*
X-216600Y-90140D01*
X-216900Y-91660D01*
X-217760Y-92960D01*
X-219060Y-93820D01*
X-220600Y-94140D01*
X-228220Y-94140D01*
X-229760Y-93820D01*
X-231060Y-92960D01*
X-231920Y-91660D01*
X-232220Y-90140D01*
X-232220Y-89460D01*
X-245240Y-89460D01*
X-245240Y-92300D01*
X-244960Y-94780D01*
X-244140Y-97100D01*
X-243920Y-98420D01*
X-244140Y-99740D01*
X-244960Y-102060D01*
X-245240Y-104560D01*
X-245240Y-126380D01*
X-244960Y-128859D01*
X-244200Y-131020D01*
X-243000Y-132940D01*
X-241380Y-134560D01*
X-239240Y-135900D01*
X-238080Y-137000D01*
X-237460Y-138480D01*
X-237460Y-140080D01*
X-238080Y-141560D01*
X-239240Y-142660D01*
X-241380Y-144000D01*
X-243000Y-145620D01*
X-243880Y-147020D01*
X-244760Y-148020D01*
X-245940Y-148680D01*
X-247260Y-148900D01*
X-248900Y-148900D01*
X-250980Y-148400D01*
X-254180Y-147940D01*
X-257420Y-148100D01*
X-260580Y-148860D01*
X-263540Y-150220D01*
X-266180Y-152100D01*
X-268420Y-154440D01*
X-270180Y-157180D01*
X-271380Y-160200D01*
X-272000Y-163380D01*
X-272000Y-166620D01*
X-271380Y-169800D01*
X-270180Y-172820D01*
X-268420Y-175560D01*
X-266180Y-177900D01*
X-263540Y-179780D01*
X-260580Y-181140D01*
X-257420Y-181900D01*
X-254180Y-182060D01*
X-250980Y-181600D01*
X-250320Y-181360D01*
X-248540Y-181160D01*
X-246880Y-181759D01*
X-245620Y-183020D01*
X-245040Y-184700D01*
X-244960Y-185340D01*
X-244140Y-187659D01*
X-243920Y-188980D01*
X-244140Y-190300D01*
X-244960Y-192620D01*
X-245240Y-195100D01*
X-245240Y-200159D01*
X-232220Y-200159D01*
X-232220Y-197280D01*
X-231920Y-195740D01*
X-231060Y-194440D01*
X-229760Y-193580D01*
X-228220Y-193280D01*
X-220600Y-193280D01*
X-219060Y-193580D01*
X-217760Y-194440D01*
X-216900Y-195740D01*
X-216600Y-197280D01*
X-216600Y-200159D01*
X-203580Y-200159D01*
X-203580Y-195320D01*
X-203180Y-193600D01*
X-202079Y-192200D01*
X-200479Y-191420D01*
X-198700Y-191420D01*
X-197100Y-192180D01*
X-192659Y-194520D01*
X-191660Y-195880D01*
X-191300Y-197540D01*
X-191300Y-238939D01*
X-191600Y-240479D01*
X-192480Y-241780D01*
X-193780Y-242640D01*
X-195300Y-242940D01*
X-198600Y-242940D01*
X-201080Y-243220D01*
X-203400Y-244040D01*
X-204720Y-244259D01*
X-206040Y-244040D01*
X-208359Y-243220D01*
X-209160Y-243140D01*
X-210620Y-242680D01*
X-211800Y-241700D01*
X-212520Y-240360D01*
X-212700Y-238840D01*
X-212280Y-237380D01*
X-211360Y-236160D01*
X-210040Y-235380D01*
X-209360Y-235159D01*
X-207440Y-233939D01*
X-205820Y-232340D01*
X-204620Y-230400D01*
X-203860Y-228260D01*
X-203580Y-225760D01*
X-203580Y-220720D01*
X-216600Y-220720D01*
X-216600Y-235100D01*
X-215080Y-235920D01*
X-214060Y-237280D01*
X-213700Y-238939D01*
X-213700Y-255960D01*
X-213020Y-255960D01*
X-211480Y-256260D01*
X-210200Y-257140D01*
X-209320Y-258440D01*
X-209020Y-259960D01*
X-209020Y-267600D01*
X-209320Y-269120D01*
X-210200Y-270420D01*
X-211480Y-271280D01*
X-213020Y-271600D01*
X-213700Y-271600D01*
X-213700Y-283560D01*
X-213939Y-284940D01*
X-214640Y-286140D01*
X-215700Y-287040D01*
X-217040Y-287800D01*
X-218840Y-289340D01*
X-234360Y-304960D01*
X-235420Y-306140D01*
X-236360Y-307460D01*
X-237220Y-308340D01*
X-238299Y-308900D01*
X-240640Y-309720D01*
X-242560Y-310940D01*
X-244180Y-312560D01*
X-245380Y-314480D01*
X-246140Y-316640D01*
X-246420Y-319120D01*
X-246420Y-352140D01*
X-246140Y-354620D01*
X-245380Y-356780D01*
X-244180Y-358700D01*
X-242560Y-360319D01*
X-240640Y-361520D01*
X-238480Y-362280D01*
X-236000Y-362560D01*
X-214800Y-362560D01*
X-212300Y-362280D01*
X-210159Y-361520D01*
X-208220Y-360319D01*
X-207560Y-359640D01*
X-206260Y-358780D01*
X-204720Y-358480D01*
X-203200Y-358780D01*
X-201900Y-359640D01*
X-201220Y-360319D01*
X-199300Y-361520D01*
X-197140Y-362280D01*
X-194660Y-362560D01*
X-183540Y-362560D01*
X-182020Y-362860D01*
X-180720Y-363740D01*
X-179860Y-365020D01*
X-179540Y-366560D01*
X-179860Y-368100D01*
X-180720Y-369380D01*
X-183120Y-371780D01*
X-184620Y-373540D01*
X-185799Y-375600D01*
X-186700Y-376659D01*
X-187900Y-377360D01*
X-189259Y-377600D01*
X-194660Y-377600D01*
X-197140Y-377879D01*
X-199300Y-378620D01*
X-201220Y-379840D01*
X-201900Y-380520D01*
X-203200Y-381380D01*
X-204720Y-381680D01*
X-206260Y-381380D01*
X-207560Y-380520D01*
X-208220Y-379840D01*
X-210159Y-378620D01*
X-212300Y-377879D01*
X-214800Y-377600D01*
X-236000Y-377600D01*
X-238480Y-377879D01*
X-240640Y-378620D01*
X-242560Y-379840D01*
X-244180Y-381460D01*
X-245380Y-383380D01*
X-246140Y-385540D01*
X-246420Y-388020D01*
X-246420Y-421040D01*
X-246140Y-423519D01*
X-245380Y-425680D01*
X-244180Y-427600D01*
X-242560Y-429219D01*
X-240380Y-430580D01*
X-239380Y-431480D01*
X-238740Y-432660D01*
X-238320Y-433840D01*
X-236780Y-436500D01*
X-235280Y-438260D01*
X-218800Y-454720D01*
X-216340Y-456719D01*
X-213720Y-458060D01*
X-210820Y-458840D01*
X-208500Y-459020D01*
X-153760Y-459020D01*
X-150600Y-458680D01*
X-147800Y-457780D01*
X-145200Y-456280D01*
X-143440Y-454760D01*
X-124000Y-435340D01*
X-122020Y-432879D01*
X-120680Y-430260D01*
X-119900Y-427360D01*
X-119720Y-425040D01*
X-119720Y-409880D01*
X-119380Y-408280D01*
X-118440Y-406940D01*
X-117040Y-406100D01*
X-115500Y-405560D01*
X-114179Y-405340D01*
X-112860Y-405560D01*
X-110540Y-406380D01*
X-108040Y-406659D01*
X-86220Y-406659D01*
X-83740Y-406380D01*
X-81580Y-405620D01*
X-79660Y-404420D01*
X-78640Y-403400D01*
X-77540Y-402620D01*
X-76220Y-402260D01*
X-74880Y-402340D01*
X-73300Y-402720D01*
X-70060Y-402879D01*
X-66840Y-402420D01*
X-63780Y-401360D01*
X-60960Y-399739D01*
X-58520Y-397600D01*
X-56500Y-395060D01*
X-55020Y-392180D01*
X-54100Y-389060D01*
X-53800Y-385820D01*
X-54100Y-382600D01*
X-55020Y-379480D01*
X-56500Y-376599D01*
X-58520Y-374040D01*
X-60960Y-371920D01*
X-63780Y-370300D01*
X-66840Y-369240D01*
X-70060Y-368780D01*
X-73300Y-368920D01*
X-74880Y-369320D01*
X-76220Y-369400D01*
X-77540Y-369040D01*
X-78640Y-368260D01*
X-79660Y-367239D01*
X-81580Y-366019D01*
X-83740Y-365280D01*
X-86220Y-365000D01*
X-108040Y-365000D01*
X-110540Y-365280D01*
X-112860Y-366079D01*
X-114179Y-366320D01*
X-115500Y-366079D01*
X-117820Y-365280D01*
X-120300Y-365000D01*
X-126679Y-365000D01*
X-128219Y-364700D01*
X-129520Y-363820D01*
X-130380Y-362520D01*
X-130680Y-361000D01*
X-130380Y-359460D01*
X-129520Y-358160D01*
X-128000Y-356640D01*
X-126700Y-355780D01*
X-125160Y-355480D01*
X-120300Y-355480D01*
X-117820Y-355200D01*
X-115500Y-354380D01*
X-114179Y-354159D01*
X-112860Y-354380D01*
X-110540Y-355200D01*
X-108040Y-355480D01*
X-86220Y-355480D01*
X-83740Y-355200D01*
X-81580Y-354440D01*
X-79660Y-353220D01*
X-78040Y-351620D01*
X-76900Y-349780D01*
X-75880Y-348700D01*
X-74540Y-348060D01*
X-72860Y-347620D01*
X-70800Y-347299D01*
X-67720Y-346240D01*
X-64900Y-344620D01*
X-62440Y-342480D01*
X-60439Y-339940D01*
X-58960Y-337060D01*
X-58040Y-333940D01*
X-57740Y-330700D01*
X-58040Y-327480D01*
X-58960Y-324360D01*
X-60439Y-321480D01*
X-62440Y-318920D01*
X-64900Y-316800D01*
X-67720Y-315180D01*
X-70780Y-314120D01*
X-74000Y-313660D01*
X-77240Y-313820D01*
X-80399Y-314580D01*
X-81540Y-314680D01*
X-83740Y-314100D01*
X-86220Y-313820D01*
X-108040Y-313820D01*
X-110540Y-314100D01*
X-112860Y-314900D01*
X-114179Y-315140D01*
X-115500Y-314900D01*
X-117820Y-314100D01*
X-120300Y-313820D01*
X-134560Y-313820D01*
X-136140Y-313500D01*
X-137460Y-312580D01*
X-138320Y-311220D01*
X-138560Y-309620D01*
X-138160Y-308060D01*
X-137180Y-306800D01*
X-135640Y-305460D01*
X-133640Y-302900D01*
X-132140Y-300020D01*
X-131500Y-297840D01*
X-131120Y-296940D01*
X-130500Y-296140D01*
X-124100Y-289720D01*
X-122800Y-288860D01*
X-121280Y-288540D01*
X-112420Y-288540D01*
X-109940Y-288260D01*
X-107620Y-287460D01*
X-106300Y-287220D01*
X-104980Y-287460D01*
X-102660Y-288260D01*
X-100160Y-288540D01*
X-95120Y-288540D01*
X-95120Y-275540D01*
X-98000Y-275540D01*
X-99540Y-275220D01*
X-100840Y-274360D01*
X-101700Y-273060D01*
X-102000Y-271540D01*
X-102000Y-263900D01*
X-101700Y-262380D01*
X-100840Y-261080D01*
X-99540Y-260200D01*
X-98000Y-259899D01*
X-95120Y-259899D01*
X-95120Y-248880D01*
X-95000Y-247940D01*
X-94380Y-246500D01*
X-93480Y-243380D01*
X-93160Y-240159D01*
X-93480Y-236920D01*
X-93840Y-235120D01*
X-93840Y-226680D01*
X-93660Y-225520D01*
X-92880Y-222940D01*
X-92560Y-219680D01*
X-92560Y-197620D01*
X-92880Y-194380D01*
X-93660Y-191780D01*
X-93840Y-190620D01*
X-93840Y-180660D01*
X-93460Y-178980D01*
X-92420Y-177600D01*
X-90879Y-176800D01*
X-89160Y-176720D01*
X-87560Y-177360D01*
X-86380Y-178619D01*
X-85860Y-180260D01*
X-85660Y-182200D01*
X-84780Y-185140D01*
X-83800Y-186960D01*
X-83440Y-187880D01*
X-83320Y-188860D01*
X-83320Y-197780D01*
X-74980Y-197780D01*
X-73460Y-198080D01*
X-72160Y-198939D01*
X-71300Y-200219D01*
X-70980Y-201740D01*
X-71500Y-203860D01*
X-72120Y-207040D01*
X-72120Y-210280D01*
X-71500Y-213480D01*
X-70980Y-215560D01*
X-71300Y-217079D01*
X-72180Y-218359D01*
X-73460Y-219220D01*
X-74980Y-219520D01*
X-83320Y-219520D01*
X-83320Y-234600D01*
X-82579Y-234380D01*
X-79860Y-232920D01*
X-77480Y-230960D01*
X-75520Y-228600D01*
X-74080Y-225880D01*
X-73200Y-222979D01*
X-72400Y-221520D01*
X-71080Y-220520D01*
X-69480Y-220140D01*
X-67840Y-220440D01*
X-63660Y-223440D01*
X-60700Y-224800D01*
X-57539Y-225560D01*
X-54300Y-225720D01*
X-51100Y-225260D01*
X-48019Y-224200D01*
X-45220Y-222560D01*
X-42760Y-220440D01*
X-40759Y-217900D01*
X-39260Y-215000D01*
X-38360Y-211900D01*
X-38040Y-208660D01*
X-38360Y-205440D01*
X-39260Y-202320D01*
X-40540Y-199860D01*
X-40860Y-198960D01*
X-40980Y-198020D01*
X-40980Y-195580D01*
X-40599Y-193860D01*
X-39500Y-192480D01*
X-36720Y-190219D01*
X-34780Y-187860D01*
X-33360Y-185180D01*
X-32280Y-183939D01*
X-32460Y-182340D01*
X-32140Y-179140D01*
X-32440Y-176080D01*
X-33340Y-173120D01*
X-34380Y-171180D01*
X-34800Y-169940D01*
X-34800Y-168640D01*
X-34380Y-167399D01*
X-33360Y-165500D01*
X-32380Y-164300D01*
X-31000Y-163560D01*
X-29460Y-163400D01*
X-27960Y-163840D01*
X-26760Y-164820D01*
X-26020Y-166180D01*
X-12820Y-166180D01*
X-12820Y-163299D01*
X-12520Y-161759D01*
X-11640Y-160460D01*
X-10340Y-159600D01*
X-8820Y-159300D01*
X-1180Y-159300D01*
X340Y-159600D01*
X1640Y-160460D01*
X2520Y-161759D01*
X2819Y-163299D01*
X2819Y-166180D01*
X15120Y-166180D01*
X16660Y-166480D01*
X17960Y-167360D01*
X18820Y-168660D01*
X19120Y-170180D01*
X19120Y-182740D01*
X18820Y-184259D01*
X17960Y-185560D01*
X16660Y-186439D01*
X15120Y-186740D01*
X2819Y-186740D01*
X2819Y-203780D01*
X2520Y-205320D01*
X1640Y-206620D01*
X340Y-207480D01*
X-1180Y-207780D01*
X-8820Y-207780D01*
X-10340Y-207480D01*
X-11640Y-206620D01*
X-12520Y-205320D01*
X-12820Y-203780D01*
X-12820Y-186740D01*
X-25900Y-186740D01*
X-25820Y-187060D01*
X-25820Y-191780D01*
X-25540Y-194280D01*
X-24800Y-196420D01*
X-23580Y-198359D01*
X-21980Y-199960D01*
X-18520Y-202060D01*
X-17560Y-203400D01*
X-17240Y-205000D01*
X-17560Y-206600D01*
X-18520Y-207940D01*
X-21980Y-210040D01*
X-23580Y-211640D01*
X-24800Y-213580D01*
X-25540Y-215720D01*
X-25820Y-218220D01*
X-25820Y-248860D01*
X-25540Y-251360D01*
X-24740Y-253680D01*
X-24520Y-255000D01*
X-24740Y-256320D01*
X-25540Y-258640D01*
X-25820Y-261140D01*
X-25820Y-266180D01*
X-12820Y-266180D01*
X-12820Y-263300D01*
X-12520Y-261759D01*
X-11640Y-260460D01*
X-10340Y-259600D01*
X-8820Y-259300D01*
X-1180Y-259300D01*
X340Y-259600D01*
X1640Y-260460D01*
X2520Y-261759D01*
X2819Y-263300D01*
X2819Y-266180D01*
X17100Y-266180D01*
X18620Y-266480D01*
X19920Y-267360D01*
X20800Y-268660D01*
X21100Y-270180D01*
X21100Y-274800D01*
X21420Y-278140D01*
X22480Y-281560D01*
X22540Y-282100D01*
X23360Y-283060D01*
X23820Y-283940D01*
X25820Y-286380D01*
X28260Y-288380D01*
X31040Y-289860D01*
X34060Y-290780D01*
X37400Y-291100D01*
X39760Y-291220D01*
X42580Y-291900D01*
X45820Y-292060D01*
X49020Y-291600D01*
X52100Y-290520D01*
X54900Y-288900D01*
X57360Y-286780D01*
X59360Y-284220D01*
X60839Y-281340D01*
X61760Y-278240D01*
X62080Y-275000D01*
X61760Y-271760D01*
X60839Y-268660D01*
X59800Y-266620D01*
X58920Y-265160D01*
X58480Y-264160D01*
X58339Y-263080D01*
X58339Y-250140D01*
X57300Y-250140D01*
X55780Y-249840D01*
X54480Y-248980D01*
X53620Y-247680D01*
X53300Y-246140D01*
X53300Y-243900D01*
X53080Y-241660D01*
X53240Y-240120D01*
X53960Y-238760D01*
X51680Y-236480D01*
X50580Y-234780D01*
X48580Y-232340D01*
X46140Y-230340D01*
X44900Y-229680D01*
X43740Y-228740D01*
X43000Y-227440D01*
X42800Y-225960D01*
X43140Y-224500D01*
X44000Y-223280D01*
X48080Y-220700D01*
X49340Y-219540D01*
X50640Y-218760D01*
X52140Y-218500D01*
X53620Y-218820D01*
X54860Y-219680D01*
X57160Y-221980D01*
X58000Y-223200D01*
X60400Y-225600D01*
X61520Y-225200D01*
X63660Y-225219D01*
X65060Y-225640D01*
X66240Y-226520D01*
X67000Y-227760D01*
X67260Y-229200D01*
X67260Y-232460D01*
X71200Y-236400D01*
X71860Y-237260D01*
X76940Y-237260D01*
X76940Y-235080D01*
X76660Y-232580D01*
X75900Y-230440D01*
X74700Y-228500D01*
X74020Y-227820D01*
X73140Y-226540D01*
X72840Y-225000D01*
X73140Y-223460D01*
X74020Y-222180D01*
X74700Y-221500D01*
X75900Y-219560D01*
X76660Y-217420D01*
X76940Y-214920D01*
X76940Y-213820D01*
X77240Y-212280D01*
X78100Y-210980D01*
X85940Y-203140D01*
X87940Y-200700D01*
X89280Y-198060D01*
X90060Y-195159D01*
X90239Y-192840D01*
X90239Y-188240D01*
X90460Y-186920D01*
X91100Y-185760D01*
X92100Y-184860D01*
X93580Y-183939D01*
X95180Y-182320D01*
X96400Y-180400D01*
X97140Y-178240D01*
X97440Y-175760D01*
X97440Y-169460D01*
X97739Y-167920D01*
X98600Y-166640D01*
X99900Y-165760D01*
X101440Y-165460D01*
X102960Y-165760D01*
X104260Y-166640D01*
X105820Y-168180D01*
X107739Y-169400D01*
X109900Y-170159D01*
X112380Y-170440D01*
X119660Y-170440D01*
X121180Y-170740D01*
X122480Y-171600D01*
X123340Y-172900D01*
X123660Y-174440D01*
X123660Y-189340D01*
X123340Y-190880D01*
X122480Y-192180D01*
X119540Y-195120D01*
X118660Y-195780D01*
X116460Y-196460D01*
X113520Y-197820D01*
X110860Y-199700D01*
X108620Y-202040D01*
X106880Y-204780D01*
X105660Y-207780D01*
X105060Y-210980D01*
X105060Y-214220D01*
X105660Y-217399D01*
X106880Y-220420D01*
X108620Y-223160D01*
X110860Y-225500D01*
X113520Y-227380D01*
X116460Y-228740D01*
X119620Y-229500D01*
X122860Y-229660D01*
X126080Y-229180D01*
X129340Y-228060D01*
X130840Y-227840D01*
X132320Y-228200D01*
X133540Y-229080D01*
X134360Y-230340D01*
X134660Y-231840D01*
X134360Y-233320D01*
X133620Y-235200D01*
X133000Y-238380D01*
X133000Y-241620D01*
X133620Y-244800D01*
X134860Y-247900D01*
X135440Y-248900D01*
X135980Y-250460D01*
X135840Y-252079D01*
X135060Y-253520D01*
X133780Y-254520D01*
X132200Y-254920D01*
X128560Y-255100D01*
X125420Y-255859D01*
X122460Y-257220D01*
X119820Y-259100D01*
X117579Y-261439D01*
X115820Y-264180D01*
X114620Y-267200D01*
X114000Y-270380D01*
X114000Y-273620D01*
X114620Y-276800D01*
X115820Y-279820D01*
X117579Y-282560D01*
X119820Y-284900D01*
X122460Y-286780D01*
X125420Y-288140D01*
X127920Y-288740D01*
X128940Y-289140D01*
X129800Y-289800D01*
X162860Y-322840D01*
X165320Y-324840D01*
X167940Y-326180D01*
X170840Y-326960D01*
X173160Y-327140D01*
X226860Y-327140D01*
X228400Y-327440D01*
X229700Y-328300D01*
X230560Y-329600D01*
X230859Y-331140D01*
X230859Y-672480D01*
X230560Y-674020D01*
X229700Y-675320D01*
X213400Y-691600D01*
X212100Y-692480D01*
X210580Y-692780D01*
X209040Y-692480D01*
X207740Y-691600D01*
X206880Y-690300D01*
X206580Y-688780D01*
X206580Y-653040D01*
X206300Y-650540D01*
X205539Y-648400D01*
X204320Y-646460D01*
X202719Y-644860D01*
X200780Y-643640D01*
X198640Y-642900D01*
X196140Y-642620D01*
X143060Y-642620D01*
X140560Y-642900D01*
X138420Y-643640D01*
X136480Y-644860D01*
X134880Y-646460D01*
X133660Y-648400D01*
X132900Y-650540D01*
X132620Y-653040D01*
X132620Y-676020D01*
X132320Y-677560D01*
X131460Y-678860D01*
X130160Y-679720D01*
X128620Y-680020D01*
X102620Y-680020D01*
X101140Y-679740D01*
X99860Y-678920D01*
X98980Y-677680D01*
X98640Y-676200D01*
X98859Y-674700D01*
X99280Y-673480D01*
X99560Y-671000D01*
X99560Y-649180D01*
X99280Y-646680D01*
X98520Y-644539D01*
X97320Y-642600D01*
X95700Y-641000D01*
X92480Y-639020D01*
X91560Y-637820D01*
X91140Y-636380D01*
X91280Y-634880D01*
X91760Y-633240D01*
X92080Y-630000D01*
X91760Y-626760D01*
X90840Y-623660D01*
X89360Y-620780D01*
X87360Y-618220D01*
X84900Y-616100D01*
X82100Y-614480D01*
X79020Y-613400D01*
X75820Y-612940D01*
X72580Y-613100D01*
X69420Y-613860D01*
X66460Y-615220D01*
X63820Y-617100D01*
X61580Y-619440D01*
X59820Y-622180D01*
X58620Y-625200D01*
X58000Y-628380D01*
X58000Y-631620D01*
X58620Y-634800D01*
X59820Y-637820D01*
X60700Y-639700D01*
X60700Y-641200D01*
X60160Y-642580D01*
X58940Y-644539D01*
X58179Y-646680D01*
X57900Y-649180D01*
X57900Y-671000D01*
X58179Y-673480D01*
X59000Y-675800D01*
X59220Y-677120D01*
X59000Y-678439D01*
X58440Y-680040D01*
X57600Y-681440D01*
X56260Y-682380D01*
X54660Y-682720D01*
X50820Y-682720D01*
X49280Y-682400D01*
X48000Y-681540D01*
X45620Y-679160D01*
X44740Y-677860D01*
X44440Y-676340D01*
X44440Y-671440D01*
X44160Y-668960D01*
X43360Y-666640D01*
X43120Y-665320D01*
X43360Y-663980D01*
X44160Y-661660D01*
X44440Y-659180D01*
X44440Y-654120D01*
X31420Y-654120D01*
X31420Y-657020D01*
X31120Y-658540D01*
X30259Y-659840D01*
X28960Y-660720D01*
X27420Y-661020D01*
X19800Y-661020D01*
X18260Y-660720D01*
X16960Y-659840D01*
X16100Y-658540D01*
X15800Y-657020D01*
X15800Y-654120D01*
X-15820Y-654120D01*
X-15820Y-657020D01*
X-16120Y-658540D01*
X-16980Y-659840D01*
X-18280Y-660720D01*
X-19820Y-661020D01*
X-27440Y-661020D01*
X-28980Y-660720D01*
X-30280Y-659840D01*
X-31140Y-658540D01*
X-31440Y-657020D01*
X-31440Y-654120D01*
X-47340Y-654120D01*
X-48740Y-654280D01*
X-50119Y-653920D01*
X-51280Y-653120D01*
X-54200Y-650220D01*
X-57779Y-647260D01*
X-58400Y-646100D01*
X-58960Y-644539D01*
X-60160Y-642600D01*
X-61780Y-641000D01*
X-63700Y-639780D01*
X-65860Y-639020D01*
X-68340Y-638740D01*
X-89160Y-638740D01*
X-91640Y-639020D01*
X-93800Y-639780D01*
X-95719Y-641000D01*
X-97340Y-642600D01*
X-98260Y-644080D01*
X-99160Y-645080D01*
X-100320Y-645720D01*
X-101640Y-645939D01*
X-133140Y-645939D01*
X-134620Y-645660D01*
X-137820Y-643640D01*
X-139960Y-642900D01*
X-142460Y-642620D01*
X-195539Y-642620D01*
X-198039Y-642900D01*
X-200180Y-643640D01*
X-202120Y-644860D01*
X-203720Y-646460D01*
X-204940Y-648400D01*
X-205700Y-650540D01*
X-205980Y-653040D01*
X-205980Y-696140D01*
X-206280Y-697660D01*
X-207140Y-698960D01*
X-211180Y-703000D01*
X-212040Y-703660D01*
X-214240Y-704340D01*
X-217200Y-705680D01*
X-219840Y-707560D01*
X-222079Y-709920D01*
X-223840Y-712640D01*
X-225040Y-715660D01*
X-225660Y-718840D01*
X-225660Y-722099D01*
X-225040Y-725280D01*
X-223840Y-728300D01*
X-222079Y-731020D01*
X-219840Y-733379D01*
X-217200Y-735260D01*
X-214240Y-736600D01*
X-211100Y-737360D01*
X-207840Y-737520D01*
X-204640Y-737060D01*
X-201560Y-736000D01*
X-198760Y-734380D01*
X-196300Y-732260D01*
X-194300Y-729700D01*
X-192820Y-726820D01*
X-192180Y-724680D01*
X-191780Y-723760D01*
X-191180Y-722980D01*
X-180799Y-712600D01*
X-179500Y-711740D01*
X-177979Y-711440D01*
X-142460Y-711440D01*
X-139960Y-711160D01*
X-137820Y-710400D01*
X-135880Y-709200D01*
X-134280Y-707580D01*
X-133060Y-705660D01*
X-132300Y-703500D01*
X-132020Y-701020D01*
X-132020Y-678220D01*
X-131720Y-676680D01*
X-130860Y-675380D01*
X-129560Y-674520D01*
X-128020Y-674220D01*
X-102640Y-674220D01*
X-101160Y-674500D01*
X-99880Y-675320D01*
X-99000Y-676560D01*
X-98660Y-678040D01*
X-98880Y-679539D01*
X-99300Y-680759D01*
X-99580Y-683259D01*
X-99580Y-705080D01*
X-99300Y-707560D01*
X-98539Y-709720D01*
X-97340Y-711640D01*
X-95719Y-713259D01*
X-93840Y-714440D01*
X-92820Y-715340D01*
X-92180Y-716520D01*
X-91960Y-717860D01*
X-92000Y-721640D01*
X-91380Y-724800D01*
X-90180Y-727820D01*
X-88420Y-730560D01*
X-86180Y-732900D01*
X-83539Y-734780D01*
X-80580Y-736140D01*
X-77420Y-736900D01*
X-74180Y-737060D01*
X-70980Y-736600D01*
X-67900Y-735520D01*
X-65100Y-733900D01*
X-62640Y-731780D01*
X-60640Y-729220D01*
X-59160Y-726340D01*
X-58240Y-723240D01*
X-57920Y-720000D01*
X-58240Y-716760D01*
X-59260Y-713280D01*
X-59380Y-711620D01*
X-59100Y-710140D01*
X-58200Y-707560D01*
X-57920Y-705080D01*
X-57920Y-696140D01*
X-57619Y-694599D01*
X-56740Y-693300D01*
X-55439Y-692440D01*
X-53920Y-692140D01*
X-52380Y-692440D01*
X-51100Y-693300D01*
X-47720Y-696680D01*
X-45880Y-698240D01*
X-44840Y-699620D01*
X-44460Y-701300D01*
X-44460Y-702099D01*
X-44180Y-704580D01*
X-43420Y-706740D01*
X-42220Y-708660D01*
X-40599Y-710280D01*
X-38680Y-711480D01*
X-36520Y-712240D01*
X-34040Y-712520D01*
X-13220Y-712520D01*
X-10740Y-712240D01*
X-8580Y-711480D01*
X-6660Y-710280D01*
X-5040Y-708660D01*
X-2940Y-705200D01*
X-1600Y-704260D01*
X0Y-703920D01*
X1600Y-704260D01*
X2920Y-705200D01*
X5020Y-708660D01*
X6640Y-710280D01*
X8560Y-711480D01*
X10720Y-712240D01*
X13200Y-712520D01*
X34020Y-712520D01*
X36500Y-712240D01*
X39980Y-710900D01*
X41260Y-710800D01*
X43480Y-710980D01*
X57840Y-710980D01*
X59360Y-711300D01*
X60660Y-712159D01*
X62080Y-713560D01*
X62920Y-714800D01*
X63240Y-716280D01*
X63019Y-717760D01*
X62380Y-719520D01*
X61740Y-722780D01*
X61740Y-726040D01*
X62360Y-729220D01*
X63560Y-732240D01*
X65320Y-734960D01*
X67560Y-737320D01*
X70200Y-739200D01*
X73160Y-740540D01*
X76320Y-741300D01*
X79020Y-741440D01*
X80500Y-741800D01*
X81740Y-742700D01*
X82560Y-743980D01*
X82820Y-745500D01*
X82500Y-747000D01*
X81640Y-748259D01*
X42900Y-787020D01*
X41600Y-787880D01*
X40060Y-788180D01*
X38540Y-787880D01*
X37240Y-787020D01*
X36320Y-786100D01*
X34360Y-784539D01*
X32300Y-783560D01*
X30080Y-783040D01*
X27799Y-783040D01*
X25580Y-783560D01*
X23540Y-784539D01*
X21580Y-786100D01*
X3380Y-804300D01*
X2039Y-805560D01*
X700Y-806060D01*
X-720Y-806060D01*
X-2060Y-805560D01*
X-3400Y-804300D01*
X-38240Y-769479D01*
X-39100Y-768180D01*
X-39400Y-766640D01*
X-39400Y-765180D01*
X-39680Y-762700D01*
X-40439Y-760540D01*
X-41640Y-758620D01*
X-43259Y-757000D01*
X-45180Y-755800D01*
X-47340Y-755040D01*
X-49820Y-754760D01*
X-80480Y-754760D01*
X-82980Y-755040D01*
X-85300Y-755860D01*
X-86620Y-756080D01*
X-87940Y-755860D01*
X-90260Y-755040D01*
X-92739Y-754760D01*
X-97800Y-754760D01*
X-97800Y-767780D01*
X-94900Y-767780D01*
X-93379Y-768080D01*
X-92080Y-768940D01*
X-91220Y-770240D01*
X-90900Y-771780D01*
X-90900Y-779400D01*
X-91220Y-780939D01*
X-92080Y-782240D01*
X-93379Y-783100D01*
X-94900Y-783400D01*
X-97800Y-783400D01*
X-97800Y-796420D01*
X-92739Y-796420D01*
X-90260Y-796140D01*
X-87940Y-795320D01*
X-86620Y-795100D01*
X-85300Y-795320D01*
X-82980Y-796140D01*
X-80480Y-796420D01*
X-56180Y-796420D01*
X-54720Y-796700D01*
X-53460Y-797480D01*
X-52580Y-798680D01*
X-52200Y-800120D01*
X-52360Y-801600D01*
X-53060Y-802920D01*
X-55220Y-805879D01*
X-56640Y-806820D01*
X-58600Y-808379D01*
X-63840Y-813620D01*
X-65420Y-815580D01*
X-66340Y-817020D01*
X-67780Y-817940D01*
X-69740Y-819500D01*
X-74980Y-824760D01*
X-76540Y-826720D01*
X-77480Y-828139D01*
X-78920Y-829080D01*
X-80879Y-830639D01*
X-86120Y-835900D01*
X-87680Y-837860D01*
X-88620Y-839280D01*
X-90040Y-840220D01*
X-92000Y-841780D01*
X-97260Y-847039D01*
X-98820Y-848980D01*
X-99760Y-850420D01*
X-101180Y-851360D01*
X-103140Y-852920D01*
X-108400Y-858160D01*
X-109960Y-860120D01*
X-110900Y-861560D01*
X-112320Y-862500D01*
X-114280Y-864060D01*
X-119520Y-869300D01*
X-121080Y-871260D01*
X-122020Y-872680D01*
X-123460Y-873620D01*
X-125420Y-875180D01*
X-130660Y-880440D01*
X-132220Y-882400D01*
X-133160Y-883820D01*
X-134580Y-884760D01*
X-136540Y-886320D01*
X-141800Y-891580D01*
X-143360Y-893540D01*
X-144300Y-894960D01*
X-145720Y-895900D01*
X-147680Y-897460D01*
X-152940Y-902700D01*
X-154500Y-904659D01*
X-155440Y-906100D01*
X-156860Y-907039D01*
X-158820Y-908600D01*
X-164060Y-913840D01*
X-165640Y-915800D01*
X-166560Y-917240D01*
X-168000Y-918160D01*
X-169960Y-919720D01*
X-175200Y-924980D01*
X-176759Y-926940D01*
X-177700Y-928360D01*
X-179140Y-929300D01*
X-181080Y-930860D01*
X-186340Y-936120D01*
X-187900Y-938080D01*
X-188880Y-940120D01*
X-189400Y-942340D01*
X-189400Y-944620D01*
X-188880Y-946840D01*
X-187900Y-948900D01*
X-186340Y-950860D01*
X-166880Y-970380D01*
X-166380Y-971720D01*
X-166380Y-973160D01*
X-166880Y-974500D01*
X-182020Y-989700D01*
X-183299Y-990560D01*
X-184840Y-990860D01*
G37*

%LPC*%
G36*
X-123400Y-796420D02*
G01*
X-118340Y-796420D01*
X-118340Y-783400D01*
X-133820Y-783400D01*
X-133820Y-786000D01*
X-133540Y-788480D01*
X-132800Y-790639D01*
X-131580Y-792560D01*
X-129960Y-794180D01*
X-128040Y-795380D01*
X-125900Y-796140D01*
G37*
G36*
X-133820Y-767780D02*
G01*
X-118340Y-767780D01*
X-118340Y-754760D01*
X-123400Y-754760D01*
X-125900Y-755040D01*
X-128040Y-755800D01*
X-129960Y-757000D01*
X-131580Y-758620D01*
X-132800Y-760540D01*
X-133540Y-762700D01*
X-133820Y-765180D01*
G37*
G36*
X31420Y-633580D02*
G01*
X44440Y-633580D01*
X44440Y-628520D01*
X44160Y-626040D01*
X43420Y-623880D01*
X42200Y-621960D01*
X40580Y-620340D01*
X38660Y-619140D01*
X36500Y-618380D01*
X34020Y-618100D01*
X31420Y-618100D01*
G37*
G36*
X-44460Y-633580D02*
G01*
X-31440Y-633580D01*
X-31440Y-618100D01*
X-34040Y-618100D01*
X-36520Y-618380D01*
X-38680Y-619140D01*
X-40599Y-620340D01*
X-42220Y-621960D01*
X-43420Y-623880D01*
X-44180Y-626040D01*
X-44460Y-628520D01*
G37*
G36*
X-15820Y-633580D02*
G01*
X15800Y-633580D01*
X15800Y-618100D01*
X13200Y-618100D01*
X10720Y-618380D01*
X8560Y-619140D01*
X6640Y-620340D01*
X5020Y-621960D01*
X2920Y-625420D01*
X1600Y-626360D01*
X0Y-626700D01*
X-1600Y-626360D01*
X-2940Y-625420D01*
X-5040Y-621960D01*
X-6660Y-620340D01*
X-8580Y-619140D01*
X-10740Y-618380D01*
X-13220Y-618100D01*
X-15820Y-618100D01*
G37*
G36*
X143060Y-539380D02*
G01*
X153720Y-539380D01*
X153720Y-519580D01*
X132620Y-519580D01*
X132620Y-528960D01*
X132900Y-531460D01*
X133660Y-533600D01*
X134880Y-535540D01*
X136480Y-537140D01*
X138420Y-538360D01*
X140560Y-539100D01*
G37*
G36*
X-153120Y-539380D02*
G01*
X-142460Y-539380D01*
X-139960Y-539100D01*
X-137820Y-538360D01*
X-135880Y-537140D01*
X-134280Y-535540D01*
X-133060Y-533600D01*
X-132300Y-531460D01*
X-132020Y-528960D01*
X-132020Y-519580D01*
X-153120Y-519580D01*
G37*
G36*
X-195539Y-539380D02*
G01*
X-184880Y-539380D01*
X-184880Y-519580D01*
X-205980Y-519580D01*
X-205980Y-528960D01*
X-205700Y-531460D01*
X-204940Y-533600D01*
X-203720Y-535540D01*
X-202120Y-537140D01*
X-200180Y-538360D01*
X-198039Y-539100D01*
G37*
G36*
X185479Y-539380D02*
G01*
X196140Y-539380D01*
X198640Y-539100D01*
X200780Y-538360D01*
X202719Y-537140D01*
X204320Y-535540D01*
X205539Y-533600D01*
X206300Y-531460D01*
X206580Y-528960D01*
X206580Y-519580D01*
X185479Y-519580D01*
G37*
G36*
X-153120Y-490360D02*
G01*
X-132020Y-490360D01*
X-132020Y-480980D01*
X-132300Y-478500D01*
X-133060Y-476340D01*
X-134280Y-474420D01*
X-135880Y-472800D01*
X-137820Y-471599D01*
X-139960Y-470840D01*
X-142460Y-470560D01*
X-153120Y-470560D01*
G37*
G36*
X132620Y-490360D02*
G01*
X153720Y-490360D01*
X153720Y-470560D01*
X143060Y-470560D01*
X140560Y-470840D01*
X138420Y-471599D01*
X136480Y-472800D01*
X134880Y-474420D01*
X133660Y-476340D01*
X132900Y-478500D01*
X132620Y-480980D01*
G37*
G36*
X185479Y-490360D02*
G01*
X206580Y-490360D01*
X206580Y-480980D01*
X206300Y-478500D01*
X205539Y-476340D01*
X204320Y-474420D01*
X202719Y-472800D01*
X200780Y-471599D01*
X198640Y-470840D01*
X196140Y-470560D01*
X185479Y-470560D01*
G37*
G36*
X-205980Y-490360D02*
G01*
X-184880Y-490360D01*
X-184880Y-470560D01*
X-195539Y-470560D01*
X-198039Y-470840D01*
X-200180Y-471599D01*
X-202120Y-472800D01*
X-203720Y-474420D01*
X-204940Y-476340D01*
X-205700Y-478500D01*
X-205980Y-480980D01*
G37*
G36*
X2819Y-302220D02*
G01*
X5400Y-302220D01*
X7900Y-301940D01*
X10040Y-301180D01*
X11980Y-299960D01*
X13580Y-298360D01*
X14800Y-296420D01*
X15540Y-294280D01*
X15840Y-291780D01*
X15840Y-286740D01*
X2819Y-286740D01*
G37*
G36*
X-15400Y-302220D02*
G01*
X-12820Y-302220D01*
X-12820Y-286740D01*
X-25820Y-286740D01*
X-25820Y-291780D01*
X-25540Y-294280D01*
X-24800Y-296420D01*
X-23580Y-298360D01*
X-21980Y-299960D01*
X-20040Y-301180D01*
X-17900Y-301940D01*
G37*
G36*
X-74560Y-288540D02*
G01*
X-69520Y-288540D01*
X-67020Y-288260D01*
X-64880Y-287520D01*
X-62939Y-286300D01*
X-61340Y-284680D01*
X-60119Y-282760D01*
X-59360Y-280620D01*
X-59080Y-278120D01*
X-59080Y-275540D01*
X-74560Y-275540D01*
G37*
G36*
X-232680Y-284600D02*
G01*
X-229840Y-284600D01*
X-229840Y-271600D01*
X-243100Y-271600D01*
X-243100Y-274180D01*
X-242820Y-276680D01*
X-242060Y-278820D01*
X-240859Y-280760D01*
X-239240Y-282360D01*
X-237320Y-283580D01*
X-235159Y-284320D01*
G37*
G36*
X67260Y-260720D02*
G01*
X69000Y-260520D01*
X71160Y-259760D01*
X73080Y-258560D01*
X74700Y-256940D01*
X75900Y-255020D01*
X76660Y-252860D01*
X76940Y-250140D01*
X67260Y-250140D01*
G37*
G36*
X-74560Y-259899D02*
G01*
X-59080Y-259899D01*
X-59080Y-257320D01*
X-59360Y-254820D01*
X-60119Y-252680D01*
X-61340Y-250740D01*
X-62939Y-249140D01*
X-64880Y-247920D01*
X-67020Y-247160D01*
X-69520Y-246880D01*
X-74560Y-246880D01*
G37*
G36*
X-243100Y-255960D02*
G01*
X-229840Y-255960D01*
X-229840Y-243860D01*
X-231100Y-242979D01*
X-231940Y-241700D01*
X-232220Y-240180D01*
X-232220Y-220720D01*
X-245240Y-220720D01*
X-245240Y-225760D01*
X-244960Y-228260D01*
X-244200Y-230400D01*
X-243000Y-232340D01*
X-241380Y-233939D01*
X-239460Y-235159D01*
X-235820Y-236360D01*
X-234640Y-237340D01*
X-233900Y-238680D01*
X-233740Y-240200D01*
X-234140Y-241680D01*
X-235080Y-242880D01*
X-236400Y-243660D01*
X-237320Y-243980D01*
X-239240Y-245200D01*
X-240859Y-246800D01*
X-242060Y-248740D01*
X-242820Y-250880D01*
X-243100Y-253380D01*
G37*
G36*
X-245240Y-73320D02*
G01*
X-232220Y-73320D01*
X-232220Y-60060D01*
X-234820Y-60060D01*
X-237300Y-60340D01*
X-239460Y-61080D01*
X-241380Y-62300D01*
X-243000Y-63900D01*
X-244200Y-65840D01*
X-244960Y-67980D01*
X-245240Y-70480D01*
G37*
G36*
X-216600Y-73320D02*
G01*
X-203580Y-73320D01*
X-203580Y-70480D01*
X-203760Y-68840D01*
X-211100Y-68840D01*
X-212640Y-68520D01*
X-213939Y-67660D01*
X-214800Y-66360D01*
X-215100Y-64840D01*
X-215100Y-47820D01*
X-228380Y-47820D01*
X-228380Y-50400D01*
X-228180Y-52060D01*
X-220600Y-52060D01*
X-219060Y-52360D01*
X-217760Y-53220D01*
X-216900Y-54520D01*
X-216600Y-56060D01*
G37*
G36*
X-228380Y-32180D02*
G01*
X-215100Y-32180D01*
X-215100Y-19180D01*
X-217960Y-19180D01*
X-220440Y-19460D01*
X-222580Y-20200D01*
X-224520Y-21420D01*
X-226119Y-23020D01*
X-227340Y-24960D01*
X-228100Y-27100D01*
X-228380Y-29600D01*
G37*
G36*
X146740Y22820D02*
G01*
X162220Y22820D01*
X162220Y25400D01*
X161940Y27900D01*
X161180Y30040D01*
X159960Y31980D01*
X158360Y33580D01*
X156420Y34800D01*
X154280Y35540D01*
X151780Y35820D01*
X146740Y35820D01*
G37*
G36*
X-126440Y61820D02*
G01*
X-125540Y61820D01*
X-125540Y82320D01*
X-126440Y82320D01*
G37*
G36*
X370220Y159800D02*
G01*
X382500Y159800D01*
X382500Y182500D01*
X359799Y182500D01*
X359799Y170219D01*
X360080Y167740D01*
X360840Y165580D01*
X362040Y163660D01*
X363660Y162040D01*
X365580Y160840D01*
X367740Y160080D01*
G37*
G36*
X359799Y217500D02*
G01*
X382500Y217500D01*
X382500Y240200D01*
X370220Y240200D01*
X367740Y239920D01*
X365580Y239160D01*
X363660Y237960D01*
X362040Y236340D01*
X360840Y234420D01*
X360080Y232260D01*
X359799Y229780D01*
G37*

%LPD*%
G36*
X187740Y-993760D02*
G01*
X186200Y-993460D01*
X184899Y-992600D01*
X166880Y-974500D01*
X166380Y-973160D01*
X166380Y-971720D01*
X166880Y-970380D01*
X321880Y-815300D01*
X323180Y-814440D01*
X324720Y-814140D01*
X359780Y-814140D01*
X361320Y-814440D01*
X362600Y-815300D01*
X363480Y-816580D01*
X364120Y-818120D01*
X366860Y-822740D01*
X370200Y-826960D01*
X374060Y-830680D01*
X378380Y-833880D01*
X383080Y-836460D01*
X388100Y-838379D01*
X393320Y-839620D01*
X398660Y-840160D01*
X404020Y-839980D01*
X409320Y-839100D01*
X414440Y-837500D01*
X419320Y-835240D01*
X423840Y-832360D01*
X427939Y-828880D01*
X431540Y-824900D01*
X432500Y-823500D01*
X433720Y-822360D01*
X435319Y-821800D01*
X436980Y-821960D01*
X438440Y-822780D01*
X439440Y-824120D01*
X439799Y-825780D01*
X439799Y-874220D01*
X439440Y-875860D01*
X438440Y-877220D01*
X436980Y-878040D01*
X435319Y-878199D01*
X433720Y-877640D01*
X432500Y-876480D01*
X431540Y-875080D01*
X427939Y-871100D01*
X423840Y-867640D01*
X419320Y-864760D01*
X414440Y-862500D01*
X409320Y-860900D01*
X404020Y-860000D01*
X398660Y-859820D01*
X393320Y-860360D01*
X388100Y-861620D01*
X383080Y-863540D01*
X378380Y-866120D01*
X374060Y-869300D01*
X370200Y-873040D01*
X366860Y-877260D01*
X364120Y-881880D01*
X363459Y-883420D01*
X362700Y-884599D01*
X361560Y-885440D01*
X360200Y-885840D01*
X356860Y-886200D01*
X354060Y-887099D01*
X351460Y-888600D01*
X349680Y-890120D01*
X247320Y-992600D01*
X246020Y-993460D01*
X244480Y-993760D01*
G37*

%LPD*%
G36*
X276120Y-1013420D02*
G01*
X274580Y-1013120D01*
X273300Y-1012240D01*
X272420Y-1010960D01*
X272120Y-1009419D01*
X272420Y-1007900D01*
X273280Y-1006600D01*
X359580Y-920240D01*
X360760Y-919400D01*
X362180Y-919060D01*
X363620Y-919240D01*
X364900Y-919920D01*
X365840Y-921020D01*
X366860Y-922740D01*
X370200Y-926960D01*
X374060Y-930680D01*
X378380Y-933880D01*
X383080Y-936460D01*
X388100Y-938379D01*
X393320Y-939620D01*
X398660Y-940160D01*
X404020Y-939980D01*
X409320Y-939100D01*
X414440Y-937500D01*
X419320Y-935240D01*
X423840Y-932360D01*
X427939Y-928880D01*
X431540Y-924900D01*
X432500Y-923500D01*
X433720Y-922360D01*
X435319Y-921800D01*
X436980Y-921940D01*
X438440Y-922780D01*
X439440Y-924120D01*
X439799Y-925780D01*
X439799Y-974220D01*
X439440Y-975860D01*
X438440Y-977220D01*
X436980Y-978040D01*
X435319Y-978199D01*
X433720Y-977640D01*
X432500Y-976480D01*
X431540Y-975080D01*
X427939Y-971100D01*
X423840Y-967640D01*
X419320Y-964760D01*
X414440Y-962500D01*
X409320Y-960900D01*
X404020Y-960000D01*
X398660Y-959820D01*
X393320Y-960360D01*
X388100Y-961620D01*
X383080Y-963540D01*
X378380Y-966120D01*
X374060Y-969300D01*
X370200Y-973040D01*
X366860Y-977260D01*
X364120Y-981880D01*
X361280Y-988800D01*
X337840Y-1012240D01*
X336540Y-1013120D01*
X335000Y-1013420D01*
G37*

%LPD*%
G36*
X-228520Y-1064560D02*
G01*
X-229760Y-1064380D01*
X-230859Y-1063800D01*
X-231740Y-1062940D01*
X-242140Y-1062940D01*
X-243680Y-1062620D01*
X-244960Y-1061760D01*
X-252620Y-1054140D01*
X-253520Y-1052820D01*
X-254820Y-1051940D01*
X-259120Y-1047660D01*
X-260040Y-1046220D01*
X-260280Y-1044520D01*
X-259780Y-1042860D01*
X-258619Y-1041580D01*
X-257040Y-1040900D01*
X-255320Y-1040960D01*
X-253780Y-1041720D01*
X-251780Y-1043340D01*
X-250180Y-1044160D01*
X-249020Y-1045040D01*
X-248260Y-1046280D01*
X-248080Y-1047300D01*
X-231780Y-1047300D01*
X-230880Y-1046400D01*
X-229760Y-1045840D01*
X-228520Y-1045639D01*
X-215960Y-1045639D01*
X-214720Y-1045840D01*
X-213600Y-1046400D01*
X-212719Y-1047300D01*
X-209080Y-1047300D01*
X-207560Y-1047600D01*
X-206260Y-1048480D01*
X-205380Y-1049780D01*
X-205080Y-1051300D01*
X-205080Y-1058940D01*
X-205380Y-1060460D01*
X-206260Y-1061760D01*
X-207560Y-1062620D01*
X-209080Y-1062940D01*
X-212740Y-1062940D01*
X-213619Y-1063800D01*
X-214740Y-1064380D01*
X-215960Y-1064560D01*
G37*

%LPD*%
G36*
X235300Y-1085860D02*
G01*
X233760Y-1085560D01*
X232460Y-1084700D01*
X223900Y-1076140D01*
X223140Y-1075060D01*
X221840Y-1070660D01*
X220360Y-1067780D01*
X218359Y-1065220D01*
X215900Y-1063100D01*
X213100Y-1061480D01*
X210020Y-1060400D01*
X207960Y-1059900D01*
X206920Y-1059160D01*
X196300Y-1048520D01*
X195420Y-1047220D01*
X195120Y-1045699D01*
X195420Y-1044160D01*
X196300Y-1042860D01*
X197600Y-1042000D01*
X199120Y-1041700D01*
X342299Y-1041700D01*
X345460Y-1041360D01*
X348260Y-1040460D01*
X350860Y-1038940D01*
X352620Y-1037440D01*
X363880Y-1026180D01*
X365300Y-1025280D01*
X366940Y-1025020D01*
X368560Y-1025460D01*
X374060Y-1030680D01*
X378380Y-1033880D01*
X383080Y-1036460D01*
X388100Y-1038379D01*
X393320Y-1039620D01*
X398660Y-1040160D01*
X404020Y-1039980D01*
X409320Y-1039100D01*
X414440Y-1037500D01*
X419320Y-1035240D01*
X423840Y-1032360D01*
X427939Y-1028880D01*
X431540Y-1024900D01*
X432500Y-1023500D01*
X433720Y-1022360D01*
X435319Y-1021800D01*
X436980Y-1021940D01*
X438440Y-1022780D01*
X439440Y-1024120D01*
X439799Y-1025780D01*
X439799Y-1074220D01*
X439440Y-1075860D01*
X438440Y-1077220D01*
X436980Y-1078040D01*
X435319Y-1078200D01*
X433720Y-1077640D01*
X432500Y-1076480D01*
X431540Y-1075080D01*
X427939Y-1071100D01*
X423840Y-1067640D01*
X419320Y-1064760D01*
X414440Y-1062500D01*
X409320Y-1060900D01*
X404020Y-1060000D01*
X398660Y-1059820D01*
X393320Y-1060360D01*
X388100Y-1061620D01*
X383080Y-1063540D01*
X378380Y-1066120D01*
X374060Y-1069300D01*
X370200Y-1073040D01*
X366860Y-1077260D01*
X364120Y-1081880D01*
X363459Y-1083420D01*
X362600Y-1084700D01*
X361300Y-1085560D01*
X359780Y-1085860D01*
G37*

%LPD*%
G36*
X29540Y-1098100D02*
G01*
X28120Y-1097760D01*
X26940Y-1096940D01*
X20139Y-1090160D01*
X16359Y-1087160D01*
X15580Y-1085880D01*
X15360Y-1084400D01*
X15680Y-1082940D01*
X16520Y-1081700D01*
X33280Y-1064940D01*
X0Y-1031660D01*
X-28860Y-1060500D01*
X-30139Y-1061360D01*
X-31680Y-1061680D01*
X-33220Y-1061360D01*
X-34500Y-1060500D01*
X-88059Y-1006940D01*
X-88940Y-1005639D01*
X-89240Y-1004120D01*
X-88940Y-1002580D01*
X-88059Y-1001280D01*
X-59220Y-972440D01*
X-92500Y-939160D01*
X-118420Y-965060D01*
X-119980Y-967020D01*
X-120960Y-969080D01*
X-121460Y-971300D01*
X-121460Y-973580D01*
X-120960Y-975800D01*
X-119980Y-977860D01*
X-118420Y-979820D01*
X-109179Y-989040D01*
X-108320Y-990340D01*
X-108020Y-991860D01*
X-108320Y-993400D01*
X-109179Y-994700D01*
X-110480Y-995560D01*
X-112020Y-995860D01*
X-115300Y-995860D01*
X-118440Y-996200D01*
X-121240Y-997099D01*
X-123840Y-998600D01*
X-124680Y-999320D01*
X-125980Y-1000060D01*
X-127440Y-1000280D01*
X-128880Y-999960D01*
X-130120Y-999120D01*
X-131140Y-998100D01*
X-133080Y-996540D01*
X-134520Y-995600D01*
X-135460Y-994160D01*
X-137020Y-992220D01*
X-142260Y-986960D01*
X-144220Y-985400D01*
X-145660Y-984460D01*
X-146600Y-983040D01*
X-148160Y-981080D01*
X-154660Y-974500D01*
X-155160Y-973160D01*
X-155160Y-971720D01*
X-154660Y-970380D01*
X-148160Y-963800D01*
X-146600Y-961840D01*
X-145660Y-960420D01*
X-144220Y-959479D01*
X-142260Y-957920D01*
X-137020Y-952660D01*
X-135460Y-950699D01*
X-134520Y-949280D01*
X-133080Y-948340D01*
X-131140Y-946780D01*
X-125879Y-941540D01*
X-124320Y-939580D01*
X-123379Y-938139D01*
X-121960Y-937200D01*
X-120000Y-935639D01*
X-114740Y-930400D01*
X-113180Y-928439D01*
X-112240Y-927020D01*
X-110820Y-926080D01*
X-108859Y-924520D01*
X-103620Y-919260D01*
X-102040Y-917300D01*
X-101120Y-915879D01*
X-99680Y-914940D01*
X-97720Y-913379D01*
X-92480Y-908120D01*
X-90920Y-906160D01*
X-89980Y-904740D01*
X-88539Y-903800D01*
X-86580Y-902240D01*
X-81340Y-896979D01*
X-79780Y-895040D01*
X-78840Y-893600D01*
X-77420Y-892660D01*
X-75460Y-891100D01*
X-70200Y-885860D01*
X-68640Y-883900D01*
X-67700Y-882460D01*
X-66280Y-881540D01*
X-64320Y-879960D01*
X-59060Y-874720D01*
X-57500Y-872760D01*
X-56560Y-871340D01*
X-55140Y-870400D01*
X-53179Y-868840D01*
X-47939Y-863580D01*
X-46380Y-861620D01*
X-45439Y-860200D01*
X-44000Y-859260D01*
X-42040Y-857700D01*
X-36800Y-852440D01*
X-35240Y-850480D01*
X-34300Y-849060D01*
X-32880Y-848120D01*
X-30920Y-846560D01*
X-25660Y-841320D01*
X-24100Y-839360D01*
X-23160Y-837920D01*
X-21740Y-836979D01*
X-19780Y-835420D01*
X-14520Y-830180D01*
X-12960Y-828220D01*
X-12020Y-826780D01*
X-10600Y-825860D01*
X-8640Y-824300D01*
X-2060Y-817780D01*
X-720Y-817280D01*
X700Y-817280D01*
X2039Y-817780D01*
X8640Y-824300D01*
X10600Y-825860D01*
X12020Y-826800D01*
X12960Y-828220D01*
X14520Y-830180D01*
X19760Y-835420D01*
X21720Y-836979D01*
X23160Y-837920D01*
X24100Y-839360D01*
X25660Y-841320D01*
X30900Y-846560D01*
X32860Y-848120D01*
X34300Y-849060D01*
X35220Y-850480D01*
X36780Y-852440D01*
X42040Y-857700D01*
X44000Y-859260D01*
X45420Y-860200D01*
X46360Y-861620D01*
X47920Y-863580D01*
X53179Y-868840D01*
X55140Y-870400D01*
X56560Y-871340D01*
X57500Y-872760D01*
X59060Y-874720D01*
X64320Y-879960D01*
X66260Y-881540D01*
X67700Y-882460D01*
X68640Y-883900D01*
X70200Y-885860D01*
X75440Y-891100D01*
X77400Y-892660D01*
X78840Y-893600D01*
X79760Y-895040D01*
X81340Y-896979D01*
X86580Y-902240D01*
X88539Y-903800D01*
X89960Y-904740D01*
X90900Y-906160D01*
X92460Y-908120D01*
X97720Y-913379D01*
X99680Y-914940D01*
X101100Y-915879D01*
X102040Y-917300D01*
X103600Y-919260D01*
X108859Y-924520D01*
X110820Y-926080D01*
X112240Y-927000D01*
X113180Y-928439D01*
X114740Y-930400D01*
X119980Y-935639D01*
X121940Y-937200D01*
X123379Y-938139D01*
X124320Y-939580D01*
X125879Y-941540D01*
X131120Y-946780D01*
X133080Y-948340D01*
X134500Y-949280D01*
X135440Y-950699D01*
X137000Y-952660D01*
X142260Y-957920D01*
X144220Y-959479D01*
X145640Y-960420D01*
X146580Y-961840D01*
X148140Y-963800D01*
X154660Y-970380D01*
X155160Y-971720D01*
X155160Y-973160D01*
X154660Y-974500D01*
X148140Y-981080D01*
X146580Y-983040D01*
X145640Y-984460D01*
X144220Y-985400D01*
X142260Y-986960D01*
X137000Y-992220D01*
X135440Y-994160D01*
X134500Y-995600D01*
X133080Y-996540D01*
X131120Y-998100D01*
X125879Y-1003340D01*
X124320Y-1005300D01*
X123379Y-1006740D01*
X121940Y-1007680D01*
X119980Y-1009240D01*
X114740Y-1014479D01*
X113180Y-1016440D01*
X112240Y-1017860D01*
X110820Y-1018800D01*
X108859Y-1020360D01*
X103600Y-1025620D01*
X102040Y-1027580D01*
X101100Y-1029000D01*
X99680Y-1029940D01*
X97720Y-1031500D01*
X92460Y-1036760D01*
X90900Y-1038720D01*
X89960Y-1040140D01*
X88539Y-1041080D01*
X86580Y-1042640D01*
X81340Y-1047880D01*
X79760Y-1049840D01*
X78840Y-1051280D01*
X77400Y-1052220D01*
X75440Y-1053780D01*
X70200Y-1059020D01*
X68640Y-1060980D01*
X67700Y-1062420D01*
X66260Y-1063340D01*
X64320Y-1064900D01*
X59060Y-1070160D01*
X57500Y-1072120D01*
X56560Y-1073540D01*
X55140Y-1074480D01*
X53179Y-1076040D01*
X47920Y-1081300D01*
X46360Y-1083260D01*
X45420Y-1084680D01*
X44000Y-1085620D01*
X42040Y-1087180D01*
X36780Y-1092440D01*
X35220Y-1094380D01*
X34300Y-1095820D01*
X32260Y-1097240D01*
X30980Y-1097920D01*
G37*

%LPC*%
G36*
X92500Y-1005720D02*
G01*
X118400Y-979820D01*
X119960Y-977860D01*
X120960Y-975800D01*
X121460Y-973580D01*
X121460Y-971300D01*
X120960Y-969080D01*
X119960Y-967020D01*
X118400Y-965060D01*
X92500Y-939160D01*
X59200Y-972440D01*
G37*
G36*
X0Y-913220D02*
G01*
X33280Y-879940D01*
X7360Y-854040D01*
X5400Y-852460D01*
X3360Y-851480D01*
X1140Y-850980D01*
X-1140Y-850980D01*
X-3360Y-851480D01*
X-5420Y-852460D01*
X-7380Y-854040D01*
X-33280Y-879940D01*
G37*

%LPD*%
G36*
X313020Y-1185860D02*
G01*
X311480Y-1185560D01*
X310180Y-1184700D01*
X246460Y-1120960D01*
X245600Y-1119660D01*
X245300Y-1118140D01*
X245600Y-1116600D01*
X246460Y-1115300D01*
X247760Y-1114440D01*
X249300Y-1114140D01*
X359780Y-1114140D01*
X361300Y-1114440D01*
X362600Y-1115300D01*
X363480Y-1116580D01*
X364120Y-1118120D01*
X366860Y-1122740D01*
X370200Y-1126960D01*
X374060Y-1130680D01*
X378380Y-1133880D01*
X383080Y-1136460D01*
X388100Y-1138380D01*
X393320Y-1139620D01*
X398660Y-1140160D01*
X404020Y-1139980D01*
X409320Y-1139100D01*
X414440Y-1137500D01*
X419320Y-1135240D01*
X423840Y-1132360D01*
X427939Y-1128880D01*
X431540Y-1124900D01*
X432500Y-1123500D01*
X433720Y-1122360D01*
X435319Y-1121800D01*
X436980Y-1121940D01*
X438440Y-1122780D01*
X439440Y-1124120D01*
X439799Y-1125780D01*
X439799Y-1174220D01*
X439440Y-1175860D01*
X438440Y-1177220D01*
X436980Y-1178040D01*
X435319Y-1178200D01*
X433720Y-1177640D01*
X432500Y-1176480D01*
X431540Y-1175080D01*
X427939Y-1171100D01*
X423840Y-1167640D01*
X419320Y-1164760D01*
X414440Y-1162500D01*
X409320Y-1160900D01*
X404020Y-1160000D01*
X398660Y-1159820D01*
X393320Y-1160360D01*
X388100Y-1161620D01*
X383080Y-1163540D01*
X378380Y-1166120D01*
X374060Y-1169300D01*
X370200Y-1173040D01*
X366860Y-1177260D01*
X364120Y-1181880D01*
X363459Y-1183420D01*
X362600Y-1184700D01*
X361300Y-1185560D01*
X359780Y-1185860D01*
G37*

%LPD*%
G36*
X350820Y-1285860D02*
G01*
X349280Y-1285560D01*
X347980Y-1284700D01*
X259400Y-1196120D01*
X258540Y-1194820D01*
X258240Y-1193280D01*
X258240Y-1182380D01*
X258540Y-1180860D01*
X259400Y-1179560D01*
X260700Y-1178680D01*
X262240Y-1178380D01*
X263760Y-1178680D01*
X265060Y-1179560D01*
X295360Y-1209840D01*
X297820Y-1211840D01*
X300440Y-1213180D01*
X303340Y-1213960D01*
X305660Y-1214140D01*
X359780Y-1214140D01*
X361300Y-1214440D01*
X362600Y-1215300D01*
X363480Y-1216580D01*
X364120Y-1218120D01*
X366860Y-1222740D01*
X370200Y-1226960D01*
X374060Y-1230680D01*
X378380Y-1233880D01*
X383080Y-1236460D01*
X388100Y-1238380D01*
X393320Y-1239620D01*
X398660Y-1240160D01*
X404020Y-1239980D01*
X409320Y-1239100D01*
X414440Y-1237500D01*
X419320Y-1235240D01*
X423840Y-1232360D01*
X427939Y-1228880D01*
X431540Y-1224900D01*
X432500Y-1223500D01*
X433720Y-1222360D01*
X435319Y-1221800D01*
X436980Y-1221940D01*
X438440Y-1222780D01*
X439440Y-1224120D01*
X439799Y-1225780D01*
X439799Y-1274220D01*
X439440Y-1275860D01*
X438440Y-1277220D01*
X436980Y-1278040D01*
X435319Y-1278200D01*
X433720Y-1277640D01*
X432500Y-1276480D01*
X431540Y-1275080D01*
X427939Y-1271100D01*
X423840Y-1267640D01*
X419320Y-1264760D01*
X414440Y-1262500D01*
X409320Y-1260900D01*
X404020Y-1260000D01*
X398660Y-1259820D01*
X393320Y-1260360D01*
X388100Y-1261620D01*
X383080Y-1263540D01*
X378380Y-1266120D01*
X374060Y-1269300D01*
X370200Y-1273040D01*
X366860Y-1277260D01*
X364120Y-1281879D01*
X363459Y-1283420D01*
X362600Y-1284700D01*
X361300Y-1285560D01*
X359780Y-1285860D01*
G37*

%LPD*%
G36*
X-356000Y-1301000D02*
G01*
X-357460Y-1300720D01*
X-358740Y-1299920D01*
X-359620Y-1298720D01*
X-360000Y-1297260D01*
X-360160Y-1294640D01*
X-361240Y-1289379D01*
X-363000Y-1284300D01*
X-365420Y-1279520D01*
X-368459Y-1275080D01*
X-372060Y-1271100D01*
X-376160Y-1267640D01*
X-380680Y-1264760D01*
X-385560Y-1262500D01*
X-390680Y-1260900D01*
X-395980Y-1260000D01*
X-401340Y-1259820D01*
X-406680Y-1260360D01*
X-411900Y-1261620D01*
X-416920Y-1263540D01*
X-421620Y-1266120D01*
X-425940Y-1269300D01*
X-429799Y-1273040D01*
X-432660Y-1276660D01*
X-433920Y-1277700D01*
X-435480Y-1278160D01*
X-437120Y-1277960D01*
X-438519Y-1277100D01*
X-439460Y-1275780D01*
X-439799Y-1274180D01*
X-439799Y-1225820D01*
X-439460Y-1224220D01*
X-438519Y-1222880D01*
X-437120Y-1222040D01*
X-435480Y-1221840D01*
X-433920Y-1222300D01*
X-432660Y-1223340D01*
X-429799Y-1226960D01*
X-425940Y-1230700D01*
X-421620Y-1233880D01*
X-416920Y-1236460D01*
X-411900Y-1238380D01*
X-406680Y-1239620D01*
X-401340Y-1240160D01*
X-395980Y-1239980D01*
X-390680Y-1239100D01*
X-385560Y-1237500D01*
X-380680Y-1235240D01*
X-376160Y-1232360D01*
X-372060Y-1228880D01*
X-368459Y-1224900D01*
X-365420Y-1220480D01*
X-363000Y-1215680D01*
X-361240Y-1210620D01*
X-360160Y-1205360D01*
X-359799Y-1200000D01*
X-360160Y-1194640D01*
X-361240Y-1189380D01*
X-363000Y-1184300D01*
X-365420Y-1179520D01*
X-368459Y-1175080D01*
X-372060Y-1171100D01*
X-376160Y-1167640D01*
X-380680Y-1164760D01*
X-385560Y-1162500D01*
X-390680Y-1160900D01*
X-395980Y-1160000D01*
X-401340Y-1159820D01*
X-406680Y-1160360D01*
X-411900Y-1161620D01*
X-416920Y-1163540D01*
X-421620Y-1166120D01*
X-425940Y-1169300D01*
X-429799Y-1173040D01*
X-432660Y-1176660D01*
X-433920Y-1177700D01*
X-435480Y-1178160D01*
X-437120Y-1177960D01*
X-438519Y-1177100D01*
X-439460Y-1175780D01*
X-439799Y-1174180D01*
X-439799Y-1125820D01*
X-439460Y-1124220D01*
X-438519Y-1122880D01*
X-437120Y-1122040D01*
X-435480Y-1121840D01*
X-433920Y-1122300D01*
X-432660Y-1123340D01*
X-429799Y-1126960D01*
X-425940Y-1130700D01*
X-421620Y-1133880D01*
X-416920Y-1136460D01*
X-411900Y-1138380D01*
X-406680Y-1139620D01*
X-401340Y-1140160D01*
X-395980Y-1139980D01*
X-390680Y-1139100D01*
X-385560Y-1137500D01*
X-380680Y-1135240D01*
X-376160Y-1132360D01*
X-372060Y-1128880D01*
X-368459Y-1124900D01*
X-365420Y-1120480D01*
X-363000Y-1115680D01*
X-361240Y-1110620D01*
X-360160Y-1105360D01*
X-360100Y-1104280D01*
X-359700Y-1102820D01*
X-358800Y-1101600D01*
X-357500Y-1100800D01*
X-356019Y-1100540D01*
X-354540Y-1100860D01*
X-353280Y-1101720D01*
X-290140Y-1164840D01*
X-287680Y-1166840D01*
X-285060Y-1168180D01*
X-282160Y-1168960D01*
X-279840Y-1169140D01*
X-137380Y-1169140D01*
X-135600Y-1169620D01*
X-133800Y-1169140D01*
X-127899Y-1169140D01*
X-124760Y-1168800D01*
X-121960Y-1167900D01*
X-120600Y-1167120D01*
X-118960Y-1166600D01*
X-117240Y-1166820D01*
X-115780Y-1167760D01*
X-111860Y-1171680D01*
X-109820Y-1169620D01*
X-108520Y-1168760D01*
X-106980Y-1168460D01*
X-105460Y-1168760D01*
X-104160Y-1169620D01*
X-98760Y-1175020D01*
X-97899Y-1176320D01*
X-97600Y-1177860D01*
X-97899Y-1179380D01*
X-98760Y-1180680D01*
X-100800Y-1182720D01*
X-91600Y-1191920D01*
X-88040Y-1188360D01*
X-86460Y-1186400D01*
X-85399Y-1184180D01*
X-84620Y-1183080D01*
X-83539Y-1182320D01*
X-81320Y-1181240D01*
X-79360Y-1179680D01*
X-71220Y-1171540D01*
X-69900Y-1170660D01*
X-68340Y-1170380D01*
X-66800Y-1170700D01*
X-65180Y-1171940D01*
X-64360Y-1173240D01*
X-64080Y-1174740D01*
X-64400Y-1176240D01*
X-65260Y-1177520D01*
X-73380Y-1185660D01*
X-74940Y-1187620D01*
X-76020Y-1189840D01*
X-76780Y-1190920D01*
X-77880Y-1191700D01*
X-80100Y-1192760D01*
X-82060Y-1194320D01*
X-85620Y-1197900D01*
X-76420Y-1207100D01*
X-74380Y-1205060D01*
X-73080Y-1204200D01*
X-71560Y-1203880D01*
X-70020Y-1204200D01*
X-68720Y-1205060D01*
X-63339Y-1210460D01*
X-62460Y-1211760D01*
X-62160Y-1213280D01*
X-62460Y-1214820D01*
X-63339Y-1216120D01*
X-65380Y-1218160D01*
X-56180Y-1227360D01*
X-52600Y-1223780D01*
X-51040Y-1221820D01*
X-49960Y-1219620D01*
X-49200Y-1218520D01*
X-48099Y-1217740D01*
X-45880Y-1216680D01*
X-43920Y-1215120D01*
X-22260Y-1193440D01*
X-20680Y-1191480D01*
X-19700Y-1189420D01*
X-19200Y-1187200D01*
X-19200Y-1184920D01*
X-19700Y-1182700D01*
X-20680Y-1180660D01*
X-22260Y-1178700D01*
X-29060Y-1171900D01*
X-29920Y-1170600D01*
X-30219Y-1169060D01*
X-29920Y-1167540D01*
X-29060Y-1166240D01*
X-7060Y-1144240D01*
X-5580Y-1143320D01*
X-3860Y-1143100D01*
X-2200Y-1143620D01*
X-940Y-1144820D01*
X-280Y-1146440D01*
X-380Y-1148160D01*
X-1019Y-1150400D01*
X-1320Y-1153720D01*
X-1320Y-1170020D01*
X-1640Y-1171540D01*
X-2839Y-1173180D01*
X-4040Y-1175100D01*
X-4800Y-1177260D01*
X-5080Y-1179740D01*
X-5080Y-1210400D01*
X-4800Y-1212900D01*
X-3980Y-1215220D01*
X-3760Y-1216540D01*
X-3980Y-1217860D01*
X-4800Y-1220180D01*
X-5080Y-1222660D01*
X-5080Y-1253320D01*
X-4800Y-1255800D01*
X-4040Y-1257960D01*
X-2839Y-1259880D01*
X-1220Y-1261500D01*
X700Y-1262720D01*
X2859Y-1263460D01*
X5340Y-1263740D01*
X15700Y-1263740D01*
X17220Y-1264040D01*
X18520Y-1264920D01*
X29940Y-1276300D01*
X32559Y-1278280D01*
X35380Y-1279700D01*
X38400Y-1280560D01*
X41720Y-1280860D01*
X62140Y-1280860D01*
X63660Y-1281160D01*
X64960Y-1282020D01*
X77120Y-1294180D01*
X77980Y-1295460D01*
X78280Y-1297000D01*
X77980Y-1298540D01*
X77120Y-1299820D01*
X75820Y-1300700D01*
X74280Y-1301000D01*
G37*

%LPC*%
G36*
X-82780Y-1248520D02*
G01*
X-80500Y-1248520D01*
X-78280Y-1248020D01*
X-76240Y-1247020D01*
X-74280Y-1245460D01*
X-70700Y-1241900D01*
X-79900Y-1232680D01*
X-90860Y-1243640D01*
X-89019Y-1245460D01*
X-87060Y-1247020D01*
X-85000Y-1248020D01*
G37*
G36*
X-101900Y-1232580D02*
G01*
X-90960Y-1221640D01*
X-100160Y-1212440D01*
X-103740Y-1216000D01*
X-105300Y-1217960D01*
X-106280Y-1220020D01*
X-106800Y-1222240D01*
X-106800Y-1224520D01*
X-106280Y-1226740D01*
X-105300Y-1228800D01*
X-103740Y-1230740D01*
G37*
G36*
X-118219Y-1213080D02*
G01*
X-115940Y-1213080D01*
X-113720Y-1212580D01*
X-111660Y-1211600D01*
X-109700Y-1210040D01*
X-106140Y-1206460D01*
X-115340Y-1197260D01*
X-126280Y-1208200D01*
X-124460Y-1210040D01*
X-122500Y-1211600D01*
X-120440Y-1212580D01*
G37*
G36*
X-137340Y-1197140D02*
G01*
X-126400Y-1186200D01*
X-135600Y-1177000D01*
X-139160Y-1180580D01*
X-140720Y-1182540D01*
X-141720Y-1184580D01*
X-142220Y-1186800D01*
X-142220Y-1189080D01*
X-141720Y-1191300D01*
X-140720Y-1193360D01*
X-139160Y-1195320D01*
G37*

%LPD*%
G36*
X123440Y-1301000D02*
G01*
X121920Y-1300700D01*
X120620Y-1299840D01*
X119760Y-1298560D01*
X119440Y-1297040D01*
X119420Y-1294600D01*
X118960Y-1291360D01*
X117960Y-1288380D01*
X116440Y-1285640D01*
X114300Y-1283060D01*
X82460Y-1251260D01*
X79840Y-1249280D01*
X77020Y-1247860D01*
X74000Y-1247000D01*
X70680Y-1246700D01*
X50260Y-1246700D01*
X48740Y-1246400D01*
X47440Y-1245540D01*
X37740Y-1235840D01*
X36880Y-1234560D01*
X36580Y-1233020D01*
X36580Y-1222660D01*
X36300Y-1220180D01*
X35480Y-1217860D01*
X35260Y-1216540D01*
X35480Y-1215220D01*
X36300Y-1212900D01*
X36580Y-1210400D01*
X36580Y-1179740D01*
X36300Y-1177260D01*
X35540Y-1175100D01*
X34340Y-1173180D01*
X33120Y-1171540D01*
X32820Y-1170020D01*
X32820Y-1163480D01*
X33000Y-1162320D01*
X33520Y-1161240D01*
X34320Y-1160360D01*
X36320Y-1158780D01*
X37260Y-1157840D01*
X38560Y-1156980D01*
X40080Y-1156660D01*
X41620Y-1156980D01*
X42920Y-1157840D01*
X71880Y-1186800D01*
X74340Y-1188800D01*
X76960Y-1190140D01*
X79880Y-1190920D01*
X82180Y-1191100D01*
X93080Y-1191100D01*
X94700Y-1191440D01*
X96039Y-1192420D01*
X110420Y-1208380D01*
X112300Y-1210040D01*
X114440Y-1211220D01*
X115500Y-1212060D01*
X116220Y-1213180D01*
X117160Y-1215460D01*
X118620Y-1217500D01*
X122000Y-1221240D01*
X131680Y-1212540D01*
X129740Y-1210400D01*
X128940Y-1209060D01*
X128720Y-1207500D01*
X129100Y-1206000D01*
X130040Y-1204740D01*
X135700Y-1199640D01*
X137040Y-1198840D01*
X138600Y-1198620D01*
X140100Y-1199000D01*
X141360Y-1199940D01*
X143300Y-1202080D01*
X149480Y-1196520D01*
X150800Y-1195720D01*
X152320Y-1195480D01*
X153820Y-1195860D01*
X155080Y-1196760D01*
X163640Y-1205940D01*
X164460Y-1207280D01*
X164700Y-1208840D01*
X164340Y-1210380D01*
X163380Y-1211640D01*
X157040Y-1217360D01*
X167399Y-1228860D01*
X169320Y-1227120D01*
X170980Y-1225240D01*
X172079Y-1223260D01*
X172280Y-1222560D01*
X173020Y-1221120D01*
X174280Y-1220100D01*
X175840Y-1219660D01*
X177460Y-1219880D01*
X178840Y-1220720D01*
X179780Y-1222040D01*
X180440Y-1223560D01*
X181940Y-1225560D01*
X185380Y-1229260D01*
X194899Y-1220380D01*
X192940Y-1218260D01*
X192120Y-1216940D01*
X191860Y-1215400D01*
X192220Y-1213880D01*
X193140Y-1212620D01*
X198720Y-1207420D01*
X200040Y-1206600D01*
X201580Y-1206340D01*
X203100Y-1206700D01*
X204360Y-1207620D01*
X206340Y-1209720D01*
X215859Y-1200840D01*
X212399Y-1197160D01*
X210500Y-1195520D01*
X208320Y-1194380D01*
X207260Y-1193560D01*
X206520Y-1192440D01*
X205360Y-1189780D01*
X205020Y-1188080D01*
X205440Y-1186400D01*
X206520Y-1185040D01*
X208080Y-1184280D01*
X210260Y-1184340D01*
X211119Y-1184620D01*
X214420Y-1186140D01*
X217580Y-1186900D01*
X220820Y-1187060D01*
X224020Y-1186600D01*
X226160Y-1186160D01*
X227620Y-1186520D01*
X228860Y-1187400D01*
X229680Y-1188660D01*
X229960Y-1190160D01*
X229960Y-1200600D01*
X230300Y-1203740D01*
X231200Y-1206540D01*
X232659Y-1209040D01*
X233180Y-1210740D01*
X232920Y-1212500D01*
X231920Y-1213980D01*
X220360Y-1224760D01*
X230900Y-1236080D01*
X232800Y-1234300D01*
X234420Y-1232400D01*
X235479Y-1230380D01*
X236080Y-1228180D01*
X236160Y-1225900D01*
X235720Y-1223660D01*
X235140Y-1221560D01*
X235420Y-1220000D01*
X236260Y-1218680D01*
X237560Y-1217800D01*
X239100Y-1217480D01*
X240660Y-1217780D01*
X241960Y-1218660D01*
X317480Y-1294180D01*
X318340Y-1295460D01*
X318660Y-1297000D01*
X318340Y-1298540D01*
X317480Y-1299820D01*
X316180Y-1300700D01*
X314660Y-1301000D01*
G37*

%LPC*%
G36*
X211240Y-1251340D02*
G01*
X213480Y-1250900D01*
X215560Y-1250000D01*
X217580Y-1248500D01*
X219480Y-1246740D01*
X208920Y-1235420D01*
X199400Y-1244280D01*
X202840Y-1247980D01*
X204740Y-1249620D01*
X206759Y-1250680D01*
X208960Y-1251260D01*
G37*
G36*
X147480Y-1243780D02*
G01*
X149720Y-1243380D01*
X151820Y-1242500D01*
X153860Y-1241040D01*
X155780Y-1239320D01*
X145420Y-1227820D01*
X135760Y-1236520D01*
X139140Y-1240280D01*
X141000Y-1241940D01*
X143000Y-1243040D01*
X145200Y-1243660D01*
G37*

%LPD*%
D10*
X43332Y-1448822D02*
G01*
X-1966Y-1448822D01*
D11*
X55884Y-1106278D02*
G01*
X96604Y-1146999D01*
X96999Y-1146999D01*
X118110Y-1145670D02*
G01*
X117545Y-1145670D01*
X67019Y-1095144D01*
X78157Y-1084005D02*
G01*
X137800Y-1143649D01*
X137800Y-1145670D01*
X100430Y-1061730D02*
G01*
X177170Y-1138470D01*
X177170Y-1145670D01*
X111559Y-1050603D02*
G01*
X220000Y-1159043D01*
X220000Y-1170000D01*
X144971Y-1017192D02*
G01*
X227779Y-1100000D01*
X400000Y-1100000D01*
X156107Y-1006055D02*
G01*
X177609Y-1027557D01*
X342519Y-1027557D01*
X370075Y-1000000D01*
X400000Y-1000000D01*
X167199Y-994899D02*
G01*
X180199Y-1007899D01*
X251999Y-1007899D01*
X359800Y-900000D01*
X400000Y-900000D01*
X-172959Y-40000D02*
G01*
X-147633Y-65326D01*
X-147633Y-90551D01*
X-31498Y-23620D02*
G01*
X-12159Y-42959D01*
X-5000Y-42959D01*
X-31496Y-23622D02*
G01*
X-47874Y-40000D01*
X-58539Y-40000D01*
D12*
X145668Y66929D02*
G01*
X131889Y80707D01*
X131889Y97593D01*
X-131889Y97593D02*
G01*
X-129922Y95625D01*
X-129922Y74798D01*
X-141729Y62989D01*
X-141730Y62991D01*
X-141730Y62993D01*
D11*
X-169308Y-684443D02*
G01*
X-144945Y-660081D01*
X-78748Y-660081D01*
X169290Y-684443D02*
G01*
X159573Y-694160D01*
X78730Y-694160D01*
X78730Y-694160D02*
G01*
X76042Y-696849D01*
X43306Y-696849D01*
X33227Y-686770D01*
X23613Y-686770D01*
X-23600Y-686799D02*
G01*
X-37600Y-686799D01*
X-64299Y-660100D01*
X-78699Y-660100D01*
X-208661Y-720470D02*
G01*
X-172633Y-684443D01*
X-169308Y-684443D01*
X78739Y-724407D02*
G01*
X78730Y-694160D01*
X-184054Y-404528D02*
G01*
X-173227Y-393701D01*
X-173227Y-381889D01*
X-131212Y-339873D01*
X-131212Y-334645D01*
X-169308Y-512404D02*
G01*
X-141156Y-484250D01*
X-129920Y-484250D01*
X169290Y-512404D02*
G01*
X141138Y-484250D01*
X129920Y-484250D01*
X23613Y-643850D02*
G01*
X-23631Y-643850D01*
X-120Y-643850D02*
G01*
X0Y-643728D01*
X0Y-614171D01*
X-147995Y-293674D02*
G01*
X-127800Y-273400D01*
X-127800Y-267699D01*
X-225399Y-335599D02*
G01*
X-224400Y-315000D01*
X-208699Y-299200D01*
X-153499Y-299200D01*
X-147995Y-293674D01*
X-108263Y-208661D02*
G01*
X-110239Y-208661D01*
X-110239Y-240160D01*
X-74803Y-330707D02*
G01*
X-78739Y-334645D01*
X-97132Y-334645D01*
X-15749Y-307089D02*
G01*
X-15749Y-287210D01*
X-5000Y-276460D01*
X50000Y-225000D02*
G01*
X89960Y-225000D01*
X90551Y-224409D01*
X185034Y-187991D02*
G01*
X183746Y-189279D01*
X183746Y-232283D01*
X78739Y-104463D02*
G01*
X69277Y-95000D01*
X45000Y-95000D01*
X122046Y-212597D02*
G01*
X137795Y-196849D01*
X137795Y-187991D01*
X-59054Y-179131D02*
G01*
X-55118Y-183067D01*
X-55118Y-208661D01*
X-70866Y-385826D02*
G01*
X-97132Y-385826D01*
X-131212Y-385826D02*
G01*
X-133858Y-388470D01*
X-133858Y-425196D01*
X-153542Y-444881D01*
X-208661Y-444881D01*
X-225394Y-428148D01*
X-225394Y-404528D01*
X-224409Y-210435D02*
G01*
X-221763Y-213081D01*
X-221763Y-263778D01*
X-221763Y-238726D02*
G01*
X-223193Y-240156D01*
X-248031Y-240156D01*
X-187683Y-263778D02*
G01*
X-177164Y-253260D01*
X-177164Y-179131D01*
X-177164Y-139760D02*
G01*
X-177164Y-159441D01*
X-177164Y-120070D02*
G01*
X-181770Y-115464D01*
X-224409Y-115464D01*
X-205100Y-62078D02*
G01*
X-207040Y-60138D01*
X-207040Y-40000D01*
X-224409Y-81385D02*
G01*
X-205100Y-62076D01*
X62800Y-243710D02*
G01*
X62800Y-230025D01*
X68416Y-224409D01*
X-5000Y-176460D02*
G01*
X11449Y-192910D01*
X15749Y-192910D01*
X207959Y15000D02*
G01*
X200785Y7826D01*
X200785Y-32480D01*
X244094Y-244094D02*
G01*
X232283Y-232283D01*
X217827Y-232283D01*
X-33616Y-1128546D02*
G01*
X-59182Y-1154113D01*
X-83249Y-1154113D01*
X-22485Y-1139677D02*
G01*
X-47817Y-1165007D01*
X-47817Y-1189546D01*
X-59200Y-1154099D02*
G01*
X-47800Y-1165000D01*
X-113600Y-1184463D02*
G01*
X-78166Y-1219897D01*
X-78166Y-1219897D02*
G01*
X-90551Y-1232280D01*
X-90551Y-1244092D01*
X122699Y-1039499D02*
G01*
X244099Y-1160900D01*
X244099Y-1200799D01*
X343299Y-1300000D01*
X400000Y-1300000D01*
X-179326Y-1055115D02*
G01*
X-160635Y-1055115D01*
X-133841Y-1028321D01*
X-222247Y-1055115D02*
G01*
X-226183Y-1051179D01*
X-251968Y-1051179D01*
X-65100Y-775599D02*
G01*
X-52100Y-775599D01*
X-22500Y-805199D01*
X-108074Y-775589D02*
G01*
X-110235Y-773427D01*
X-110235Y-744092D01*
D13*
X37199Y-206289D02*
G01*
X37199Y-170167D01*
X42013Y-165354D01*
X21808Y-145147D02*
G01*
X10199Y-133539D01*
X-5000Y-133539D01*
X42013Y-165354D02*
G01*
X21808Y-145147D01*
X-59054Y-139760D02*
G01*
X-59054Y-159441D01*
X-59054Y-139760D02*
G01*
X-11221Y-139760D01*
X-5000Y-133539D01*
D11*
X-127800Y-267699D02*
G01*
X-127899Y-208699D01*
D13*
X-101460Y-40000D02*
G01*
X-88573Y-52885D01*
X-88573Y-90551D01*
X-101460Y-40000D02*
G01*
X-94499Y-33040D01*
X-94499Y-7699D01*
X-94499Y24792D01*
D11*
X-9839Y97593D02*
G01*
X-7869Y95623D01*
X-7869Y55120D01*
X29529Y97593D02*
G01*
X31500Y95621D01*
X31500Y55120D01*
X0Y31496D02*
G01*
X9839Y41336D01*
X9839Y97593D01*
X-29499Y97600D02*
G01*
X-29499Y45199D01*
X-15799Y31500D01*
X0Y31500D01*
X115560Y-1176963D02*
G01*
X170151Y-1176963D01*
X178278Y-1185090D01*
D10*
X15747Y-1195072D02*
G01*
X15747Y-1153541D01*
X22478Y-1146810D01*
X22478Y-1139684D01*
D11*
X172654Y-811595D02*
G01*
X188975Y-795273D01*
X204724Y-795273D01*
X78730Y-660081D02*
G01*
X75000Y-656350D01*
X75000Y-630000D01*
X-78748Y-694160D02*
G01*
X-75000Y-697910D01*
X-75000Y-720000D01*
X-133800Y-1028299D02*
G01*
X-115500Y-1010000D01*
X-105000Y-1010000D01*
X-20000Y-1095000D01*
X-20000Y-1114899D01*
X-33600Y-1128499D01*
X-20000Y-1095000D02*
G01*
X-15000Y-1100000D01*
X10000Y-1100000D01*
X33616Y-1123616D01*
X33616Y-1128546D01*
D14*
X37199Y-243710D02*
G01*
X37199Y-275000D01*
X45000Y-275000D01*
X-5000Y-233539D02*
G01*
X5169Y-243710D01*
X37199Y-243710D01*
D11*
X242040Y15000D02*
G01*
X247040Y20000D01*
X270000Y20000D01*
X117577Y-32480D02*
G01*
X137795Y-32480D01*
X78739Y-45142D02*
G01*
X91401Y-32480D01*
X117577Y-32480D01*
X93539Y15000D02*
G01*
X109574Y-1035D01*
X109574Y-32480D01*
X185034Y-32480D02*
G01*
X185034Y27563D01*
X145668Y66929D01*
D13*
X-94499Y24792D02*
G01*
X-94499Y70900D01*
X95000Y55000D02*
G01*
X88580Y61419D01*
X88580Y97593D01*
X95000Y55000D02*
G01*
X100390Y60390D01*
X100390Y97593D01*
X145668Y66929D02*
G01*
X136460Y57719D01*
X136460Y15000D01*
D14*
X-224409Y-167516D02*
G01*
X-226925Y-165000D01*
X-255000Y-165000D01*
X-177164Y-159441D02*
G01*
X-216334Y-159441D01*
X-224409Y-167516D01*
X-147635Y-208661D02*
G01*
X-155000Y-216026D01*
X-155000Y-235000D01*
X-127944Y-90551D02*
G01*
X-127944Y-62055D01*
X-135000Y-55000D01*
X-135000Y-35000D01*
D11*
X-59099Y-120100D02*
G01*
X-59099Y-109099D01*
X-26999Y-76999D01*
X-5000Y-76999D01*
X-84839Y-267714D02*
G01*
X-45464Y-307089D01*
X-15749Y-307089D01*
X62800Y-206300D02*
G01*
X76095Y-193004D01*
X76095Y-165354D01*
X153544Y-187991D02*
G01*
X153544Y-236455D01*
X150000Y-240000D01*
X295000Y-120000D02*
G01*
X302040Y-127040D01*
X302040Y-155000D01*
X216500Y-188000D02*
G01*
X251999Y-188000D01*
X268000Y-171999D01*
X268000Y-155000D01*
X302040Y-55000D02*
G01*
X295000Y-62040D01*
X295000Y-120000D01*
X216534Y-32480D02*
G01*
X245441Y-32480D01*
X267959Y-55000D01*
X111559Y-894274D02*
G01*
X142305Y-863530D01*
X142305Y-841945D01*
X-225999Y-831999D02*
G01*
X-275000Y-880999D01*
X-275000Y-1051799D01*
X-248000Y-1078701D01*
X-161999Y-1078701D01*
X-122699Y-1039499D01*
X-111567Y-1050596D02*
G01*
X-155457Y-1094484D01*
X-251970Y-1094484D01*
X-290000Y-1056455D01*
X-290000Y-865000D01*
X-245000Y-820000D01*
X-401799Y-700999D02*
G01*
X-350000Y-752800D01*
X-350000Y-1085000D01*
X-280000Y-1155000D01*
X-127699Y-1155000D01*
X-68800Y-1096100D01*
X-80000Y-1085000D02*
G01*
X-135000Y-1140000D01*
X-268400Y-1140000D01*
X-335000Y-1073400D01*
X-335000Y-667800D01*
X-401799Y-600999D01*
X-400000Y-400000D02*
G01*
X-305000Y-495000D01*
X-305000Y-1061100D01*
X-256100Y-1110000D01*
X-148699Y-1110000D01*
X-100399Y-1061700D01*
X-400000Y-500000D02*
G01*
X-320000Y-580000D01*
X-320000Y-1065799D01*
X-260799Y-1125000D01*
X-141399Y-1125000D01*
X-89299Y-1072899D01*
X44800Y-827500D02*
G01*
X142300Y-730000D01*
X215000Y-730000D01*
X260000Y-685000D01*
X260000Y-330500D01*
X318800Y-271700D01*
X318800Y-216599D01*
X340000Y-195399D01*
X340000Y-60000D01*
X400000Y0D01*
X78200Y-860900D02*
G01*
X164099Y-775000D01*
X230000Y-775000D01*
X305000Y-700000D01*
X305000Y-356399D01*
X361399Y-300000D01*
X400000Y-300000D01*
X-145000Y-1017199D02*
G01*
X-159299Y-1031498D01*
X-244099Y-1031498D01*
X-260000Y-1015601D01*
X-260000Y-896999D01*
X-209000Y-845999D01*
X-196900Y-862199D02*
G01*
X-244099Y-909400D01*
X-244099Y-1007899D01*
X-234000Y-1018000D01*
X-168000Y-1018000D01*
X-156100Y-1006100D01*
X-167199Y-994899D02*
G01*
X-177300Y-1005000D01*
X-223000Y-1005000D01*
X-228299Y-999699D01*
X-228299Y-921300D01*
X-185000Y-878000D01*
X66999Y-849699D02*
G01*
X156700Y-760000D01*
X225000Y-760000D01*
X290000Y-695000D01*
X290000Y-339899D01*
X348000Y-281900D01*
X348000Y-226799D01*
X374800Y-200000D01*
X400000Y-200000D01*
X55900Y-838600D02*
G01*
X149499Y-745000D01*
X220000Y-745000D01*
X275000Y-690000D01*
X275000Y-335199D01*
X334000Y-276199D01*
X334000Y-221100D01*
X355000Y-200100D01*
X355000Y-133200D01*
X388200Y-100000D01*
X400000Y-100000D01*
X400000Y-600000D02*
G01*
X350999Y-649000D01*
X350999Y-721700D01*
X145000Y-927699D01*
X133800Y-916500D02*
G01*
X335999Y-714299D01*
X335999Y-561599D01*
X397600Y-500000D01*
X400000Y-500000D01*
X400000Y-400000D02*
G01*
X320999Y-479000D01*
X320999Y-707100D01*
X122699Y-905399D01*
X133834Y-1028328D02*
G01*
X305504Y-1200000D01*
X400000Y-1200000D01*
X33616Y-1128546D02*
G01*
X82028Y-1176959D01*
X115560Y-1176959D01*
X44753Y-1117409D02*
G01*
X33616Y-1128546D01*
X44753Y-1117409D02*
G01*
X69933Y-1142591D01*
X69933Y-1164866D01*
X144360Y-1214947D02*
G01*
X151981Y-1222568D01*
X207627Y-1222568D01*
X174717Y-1222568D02*
G01*
X175000Y-1222851D01*
X175000Y-1231999D01*
X180999Y-1238000D01*
X181999Y-1238000D01*
X157480Y-1145670D02*
G01*
X157480Y-1141057D01*
X89292Y-1072869D01*
X251999Y-188000D02*
G01*
X265000Y-200999D01*
X265000Y-263000D01*
X238000Y-290000D01*
X220999Y-290000D01*
X-88600Y-208699D02*
G01*
X-88600Y-267699D01*
X-84800Y-267699D01*
X280000Y-271999D02*
G01*
X239000Y-313000D01*
X173000Y-313000D01*
X131999Y-271999D01*
X130999Y-271999D01*
X206999Y50000D02*
G01*
X208000Y15000D01*
X263000Y-90000D02*
G01*
X267959Y-85039D01*
X267959Y-55000D01*
X131603Y-874232D02*
G01*
X124000Y-866628D01*
X124000Y-860999D01*
X400000Y100000D02*
G01*
X325000Y25000D01*
X325000Y-193499D01*
X303099Y-215399D01*
X303099Y-270599D01*
X245000Y-328699D01*
X245000Y-680000D01*
X210000Y-715000D01*
X134899Y-715000D01*
X33600Y-816300D01*
X156100Y-938800D02*
G01*
X394800Y-700000D01*
X400000Y-700000D01*
X167199Y-950000D02*
G01*
X317199Y-800000D01*
X400000Y-800000D01*
D10*
X15747Y-1237993D02*
G01*
X41538Y-1263784D01*
X70866Y-1263777D01*
X102363Y-1295273D01*
X102363Y-1448816D01*
X43305Y-1448816D01*
D15*
G01*
X68890Y97609D03*
G01*
X49200Y97609D03*
G01*
X29520Y97609D03*
G01*
X9830Y97609D03*
G01*
X-9850Y97609D03*
G01*
X-29540Y97609D03*
G01*
X-49209Y97609D03*
G01*
X-68910Y97609D03*
G01*
X131880Y97620D03*
G01*
X120070Y97609D03*
G01*
X100380Y97620D03*
G01*
X88569Y97620D03*
G01*
X-88589Y97620D03*
G01*
X-100410Y97620D03*
G01*
X-120090Y97609D03*
G01*
X-131900Y97609D03*
D16*
G01*
X-169000Y-504976D03*
G01*
X-169000Y-677023D03*
G01*
X169600Y-504976D03*
G01*
X169600Y-677023D03*
D17*
G01*
X144358Y-1214946D03*
G01*
X115641Y-1183053D03*
D18*
G01*
X302040Y-155000D03*
G01*
X267959Y-155000D03*
D19*
G01*
X22478Y-1139683D03*
G01*
X33615Y-1128546D03*
G01*
X44752Y-1117409D03*
G01*
X55882Y-1106279D03*
G01*
X67019Y-1095143D03*
G01*
X78156Y-1084006D03*
D20*
G01*
X89293Y-1072868D03*
G01*
X100430Y-1061731D03*
D19*
G01*
X111559Y-1050602D03*
D21*
G01*
X122696Y-1039465D03*
D19*
G01*
X133833Y-1028328D03*
G01*
X144970Y-1017191D03*
G01*
X156107Y-1006054D03*
G01*
X167237Y-994924D03*
D22*
G01*
X167238Y-949952D03*
G01*
X156108Y-938822D03*
G01*
X144971Y-927686D03*
G01*
X133834Y-916549D03*
G01*
X122697Y-905411D03*
D23*
G01*
X111560Y-894275D03*
G01*
X100430Y-883144D03*
D24*
G01*
X89293Y-872008D03*
G01*
X78156Y-860871D03*
G01*
X67019Y-849734D03*
D22*
G01*
X55883Y-838597D03*
G01*
X44753Y-827467D03*
G01*
X33616Y-816330D03*
G01*
X22479Y-805193D03*
D19*
G01*
X-22486Y-805200D03*
D21*
G01*
X-33616Y-816330D03*
G01*
X-44753Y-827467D03*
G01*
X-55890Y-838604D03*
G01*
X-67027Y-849741D03*
D19*
G01*
X-78163Y-860878D03*
G01*
X-89293Y-872008D03*
D20*
G01*
X-100430Y-883144D03*
G01*
X-111567Y-894282D03*
G01*
X-122704Y-905418D03*
D19*
G01*
X-133841Y-916555D03*
G01*
X-144971Y-927686D03*
G01*
X-156108Y-938822D03*
G01*
X-167245Y-949959D03*
D22*
G01*
X-167245Y-994918D03*
D23*
G01*
X-156107Y-1006054D03*
G01*
X-144971Y-1017191D03*
G01*
X-133840Y-1028321D03*
D22*
G01*
X-122703Y-1039458D03*
G01*
X-111567Y-1050595D03*
G01*
X-100430Y-1061732D03*
G01*
X-89293Y-1072869D03*
G01*
X-78163Y-1083999D03*
D24*
G01*
X-67027Y-1095136D03*
G01*
X-55889Y-1106273D03*
G01*
X-44753Y-1117409D03*
G01*
X-33615Y-1128546D03*
D23*
G01*
X-22485Y-1139676D03*
D25*
G01*
X-7Y-972438D03*
D26*
G01*
X-65154Y-775589D03*
G01*
X-108072Y-775589D03*
D27*
G01*
X78740Y-104458D03*
D28*
G01*
X78739Y-45149D03*
D29*
G01*
X216529Y-187989D03*
G01*
X200790Y-187989D03*
G01*
X185039Y-187989D03*
G01*
X169290Y-187989D03*
G01*
X153539Y-187989D03*
G01*
X137789Y-187989D03*
G01*
X137789Y-32480D03*
G01*
X153539Y-32480D03*
G01*
X169290Y-32480D03*
G01*
X185039Y-32480D03*
G01*
X200790Y-32480D03*
G01*
X216529Y-32480D03*
D30*
G01*
X177159Y-110234D03*
D31*
G01*
X-177159Y-120070D03*
G01*
X-177159Y-139760D03*
G01*
X-177159Y-159439D03*
G01*
X-177159Y-179130D03*
D32*
G01*
X-147629Y-208659D03*
G01*
X-127939Y-208659D03*
G01*
X-108260Y-208659D03*
G01*
X-88569Y-208659D03*
D31*
G01*
X-59050Y-179130D03*
G01*
X-59050Y-159439D03*
G01*
X-59050Y-139760D03*
G01*
X-59050Y-120070D03*
D32*
G01*
X-88569Y-90549D03*
G01*
X-108260Y-90549D03*
G01*
X-127939Y-90549D03*
G01*
X-147629Y-90549D03*
D33*
G01*
X-118105Y-149601D03*
D34*
G01*
X-184050Y-404529D03*
G01*
X-184059Y-335630D03*
G01*
X-225390Y-404529D03*
G01*
X-225390Y-335630D03*
D35*
G01*
X-1970Y-1448820D03*
G01*
X-163389Y-1448820D03*
D36*
G01*
X50000Y-225000D03*
D37*
G01*
X62800Y-242724D03*
D38*
G01*
X37199Y-207275D03*
D39*
G01*
X62800Y-207277D03*
D40*
G01*
X37199Y-241739D03*
D41*
G01*
X93541Y15000D03*
G01*
X136458Y15000D03*
D26*
G01*
X-84839Y-267716D03*
G01*
X-127757Y-267716D03*
G01*
X-58541Y-40000D03*
G01*
X-101458Y-40000D03*
D18*
G01*
X217827Y-232282D03*
G01*
X183746Y-232282D03*
G01*
X242040Y15000D03*
G01*
X207959Y15000D03*
D42*
G01*
X15748Y-1195073D03*
D43*
G01*
X15749Y-1237989D03*
D42*
G01*
X-5000Y-133541D03*
D43*
G01*
X-5000Y-176460D03*
D42*
G01*
X23613Y-686768D03*
D43*
G01*
X23609Y-643850D03*
D42*
G01*
X-23631Y-686768D03*
D43*
G01*
X-23629Y-643850D03*
D26*
G01*
X-179328Y-1055116D03*
G01*
X-222246Y-1055116D03*
D42*
G01*
X-5000Y-233541D03*
D43*
G01*
X-5000Y-276460D03*
D42*
G01*
X-224409Y-210434D03*
D43*
G01*
X-224409Y-167519D03*
D44*
G01*
X-83251Y-1154115D03*
G01*
X-113598Y-1184463D03*
D45*
G01*
X207626Y-1222568D03*
G01*
X178357Y-1191180D03*
D44*
G01*
X172654Y-811595D03*
G01*
X142305Y-841944D03*
D46*
G01*
X-78165Y-1219895D03*
G01*
X-47818Y-1189547D03*
D18*
G01*
X302040Y-55000D03*
G01*
X267959Y-55000D03*
D47*
G01*
X42014Y-165353D03*
G01*
X76095Y-165353D03*
G01*
X-131213Y-385825D03*
G01*
X-97132Y-385825D03*
D18*
G01*
X-172959Y-40000D03*
G01*
X-207040Y-40000D03*
D48*
G01*
X-5000Y-77040D03*
D49*
G01*
X-5000Y-42959D03*
D48*
G01*
X78731Y-660080D03*
D49*
G01*
X78730Y-694160D03*
D48*
G01*
X-224409Y-115465D03*
D49*
G01*
X-224409Y-81379D03*
D18*
G01*
X-187683Y-263778D03*
G01*
X-221764Y-263778D03*
D48*
G01*
X-78749Y-694161D03*
D49*
G01*
X-78750Y-660079D03*
D47*
G01*
X-131213Y-334645D03*
G01*
X-97132Y-334645D03*
D50*
G01*
X-170289Y292429D03*
D51*
G01*
X-170289Y127869D03*
G01*
X170270Y127869D03*
D50*
G01*
X170270Y292429D03*
D52*
G01*
X-400000Y300000D03*
G01*
X-400000Y200000D03*
G01*
X-400000Y-900000D03*
G01*
X-400000Y-1000000D03*
G01*
X-400000Y-1100000D03*
G01*
X-400000Y-1200000D03*
G01*
X-400000Y-1300000D03*
G01*
X400000Y-1300000D03*
G01*
X400000Y-1200000D03*
G01*
X400000Y-1100000D03*
G01*
X400000Y-1000000D03*
G01*
X400000Y-900000D03*
G01*
X400000Y-800000D03*
G01*
X400000Y-700000D03*
G01*
X400000Y-600000D03*
G01*
X400000Y-500000D03*
G01*
X400000Y-400000D03*
G01*
X400000Y-300000D03*
G01*
X400000Y300000D03*
D53*
G01*
X400000Y200000D03*
D52*
G01*
X-400000Y-800000D03*
G01*
X400000Y-200000D03*
G01*
X-400000Y-700000D03*
G01*
X-400000Y-600000D03*
G01*
X-400000Y-500000D03*
G01*
X-400000Y-400000D03*
G01*
X-400000Y-300000D03*
G01*
X-400000Y-200000D03*
G01*
X-400000Y-100000D03*
G01*
X-400000Y0D03*
G01*
X-400000Y100000D03*
G01*
X400000Y100000D03*
G01*
X400000Y0D03*
G01*
X400000Y-100000D03*
D54*
G01*
X-27840Y-944589D03*
G01*
X-55680Y-972429D03*
G01*
X27829Y-1000270D03*
G01*
X-10Y-1028099D03*
G01*
X0Y-916750D03*
G01*
X55680Y-972429D03*
G01*
X0Y-972429D03*
G01*
X27809Y-944589D03*
G01*
X-27840Y-1000270D03*
D55*
G01*
X96999Y-1146999D03*
G01*
X118110Y-1145670D03*
G01*
X137800Y-1145670D03*
G01*
X157480Y-1145670D03*
G01*
X177170Y-1145670D03*
G01*
X220000Y-1170000D03*
G01*
X-245000Y-820000D03*
G01*
X-225999Y-831999D03*
G01*
X-209000Y-845999D03*
G01*
X-196849Y-862199D03*
G01*
X-185039Y-877950D03*
G01*
X-118110Y-149609D03*
G01*
X-31500Y-23620D03*
G01*
X145670Y66930D03*
G01*
X-141729Y62989D03*
G01*
X-208659Y-720470D03*
G01*
X78739Y-724409D03*
G01*
X-129920Y-484250D03*
G01*
X129920Y-484250D03*
G01*
X0Y-614169D03*
G01*
X-110239Y-240160D03*
G01*
X-74800Y-330709D03*
G01*
X-15749Y-307089D03*
G01*
X90549Y-224409D03*
G01*
X244090Y-244090D03*
G01*
X45000Y-95000D03*
G01*
X122049Y-212600D03*
G01*
X-55120Y-208659D03*
G01*
X-70869Y-385830D03*
G01*
X-248029Y-240160D03*
G01*
X-205100Y-62080D03*
G01*
X15749Y-192910D03*
G01*
X-90549Y-1244090D03*
G01*
X-251970Y-1051179D03*
G01*
X204720Y-795270D03*
G01*
X-110239Y-744090D03*
G01*
X-7869Y55120D03*
G01*
X31500Y55120D03*
G01*
X0Y31500D03*
G01*
X75000Y-630000D03*
G01*
X-75000Y-720000D03*
G01*
X-53659Y-1159400D03*
G01*
X45000Y-275000D03*
G01*
X295000Y-120000D03*
G01*
X270000Y20000D03*
G01*
X-94499Y24789D03*
G01*
X95000Y55000D03*
G01*
X-255000Y-165000D03*
G01*
X-155000Y-235000D03*
G01*
X-135000Y-35000D03*
G01*
X-148000Y-293670D03*
G01*
X21810Y-145149D03*
G01*
X150000Y-240000D03*
G01*
X117579Y-32480D03*
G01*
X180999Y-1238000D03*
G01*
X220999Y-290000D03*
G01*
X205999Y-1076999D03*
G01*
X280000Y-271999D03*
G01*
X130999Y-271999D03*
G01*
X206999Y50000D03*
G01*
X263000Y-90000D03*
G01*
X124000Y-860999D03*
G01*
X345000Y-1245000D03*
G01*
X345000Y-1150000D03*
G01*
X345000Y-1065000D03*
G01*
X310000Y-1065000D03*
G01*
X275000Y-1065000D03*
G01*
X310000Y-1150000D03*
G01*
X345000Y-975000D03*
G01*
X310000Y-995000D03*
G01*
X250000Y-965000D03*
G01*
X275000Y-940000D03*
G01*
X330000Y-880000D03*
G01*
X-225000Y-1285000D03*
G01*
X-165000Y-1285000D03*
G01*
X-105000Y-1285000D03*
G01*
X-295000Y-1255000D03*
G01*
X-340000Y-1255000D03*
G01*
X-265000Y-1195000D03*
G01*
X-340000Y-1155000D03*
G01*
X-45000Y-1285000D03*
G01*
X-45000Y-520000D03*
G01*
X5000Y-520000D03*
G01*
X-45000Y-470000D03*
G01*
X50000Y-470000D03*
G01*
X5000Y-470000D03*
G01*
X50000Y-520000D03*
G01*
X-45000Y-415000D03*
G01*
X5000Y-415000D03*
G01*
X50000Y-415000D03*
G01*
X155000Y-400000D03*
G01*
X200000Y-400000D03*
G01*
X200000Y-350000D03*
G01*
X155000Y-350000D03*
G01*
X345000Y-515000D03*
G01*
X335000Y-430000D03*
G01*
X335000Y-370000D03*
G01*
X245000Y-910000D03*
G01*
X305000Y-855000D03*
M02*
