G04 Layer: BottomSilkscreenLayer*
G04 EasyEDA v6.5.50, 2025-05-29 20:10:11*
G04 51d2a156a5c9454999fc887beed5754f,29d699c3718f4358a2dc827e738e4458,10*
G04 Gerber Generator version 0.2*
G04 Scale: 100 percent, Rotated: No, Reflected: No *
G04 Dimensions in inches *
G04 leading zeros omitted , absolute positions ,3 integer and 6 decimal *
%FSLAX36Y36*%
%MOIN*%

%ADD10C,0.0001*%

%LPD*%
G36*
X49300Y-9800D02*
G01*
X27460Y-9960D01*
X25200Y-10840D01*
X23140Y-12820D01*
X22120Y-15000D01*
X22160Y-18960D01*
X23180Y-20960D01*
X24780Y-22620D01*
X26880Y-23720D01*
X34620Y-23840D01*
X35460Y-24020D01*
X35640Y-32260D01*
X36640Y-34440D01*
X38420Y-36240D01*
X40780Y-37420D01*
X58040Y-37420D01*
X60020Y-36500D01*
X61940Y-34640D01*
X63000Y-32660D01*
X63120Y-15400D01*
X62619Y-13799D01*
X61820Y-12620D01*
X60420Y-11100D01*
X59240Y-10480D01*
X58040Y-10060D01*
G37*
G36*
X81500Y-9940D02*
G01*
X78960Y-11160D01*
X77580Y-12520D01*
X76800Y-14060D01*
X76200Y-15800D01*
X76200Y-45160D01*
X76800Y-46880D01*
X77540Y-48339D01*
X79060Y-49780D01*
X81060Y-50780D01*
X83320Y-51200D01*
X85820Y-50660D01*
X86600Y-50340D01*
X88240Y-49240D01*
X89220Y-47939D01*
X89960Y-46540D01*
X90460Y-43780D01*
X90460Y-16580D01*
X89940Y-14400D01*
X89120Y-12800D01*
X87520Y-11140D01*
X85820Y-10280D01*
X84820Y-9980D01*
G37*
G36*
X-27000Y-9940D02*
G01*
X-29480Y-11160D01*
X-31000Y-12620D01*
X-31540Y-13660D01*
X-32160Y-15400D01*
X-32160Y-18700D01*
X-31100Y-20940D01*
X-29500Y-22660D01*
X-28320Y-23280D01*
X-27100Y-23720D01*
X-18760Y-23920D01*
X-18560Y-32260D01*
X-17460Y-34640D01*
X-15980Y-36160D01*
X-14400Y-36980D01*
X-13200Y-37380D01*
X-5260Y-37620D01*
X-5260Y-50320D01*
X-39800Y-50540D01*
X-41380Y-50960D01*
X-42380Y-51420D01*
X-43840Y-52500D01*
X-45060Y-54180D01*
X-45679Y-55880D01*
X-45900Y-63920D01*
X-79280Y-63920D01*
X-81980Y-64480D01*
X-83660Y-65340D01*
X-84780Y-66400D01*
X-85680Y-67780D01*
X-86560Y-70280D01*
X-86380Y-72740D01*
X-86080Y-73900D01*
X-84880Y-75660D01*
X-83539Y-77000D01*
X-82280Y-77660D01*
X-81080Y-78100D01*
X-45940Y-78300D01*
X-45679Y-86440D01*
X-45140Y-87820D01*
X-44500Y-89019D01*
X-42300Y-90920D01*
X-40199Y-91700D01*
X-37400Y-91700D01*
X-35380Y-90960D01*
X-33540Y-89680D01*
X-32500Y-88040D01*
X-31860Y-86640D01*
X-31660Y-64800D01*
X3260Y-64600D01*
X4720Y-64160D01*
X6240Y-63259D01*
X7560Y-62020D01*
X8720Y-59760D01*
X9120Y-57060D01*
X9120Y-30700D01*
X8680Y-28100D01*
X7880Y-26500D01*
X6040Y-24600D01*
X4880Y-23980D01*
X3660Y-23540D01*
X-4480Y-23340D01*
X-4720Y-15000D01*
X-5699Y-12820D01*
X-7840Y-10820D01*
X-10040Y-9960D01*
G37*
G36*
X172540Y-9980D02*
G01*
X130060Y-10080D01*
X127680Y-10500D01*
X126100Y-10960D01*
X124900Y-11180D01*
X120140Y-13240D01*
X118820Y-14000D01*
X115879Y-16000D01*
X112640Y-18660D01*
X109700Y-22140D01*
X107980Y-24740D01*
X106160Y-28380D01*
X104800Y-32320D01*
X104000Y-36240D01*
X103638Y-41000D01*
X117440Y-41000D01*
X117880Y-38220D01*
X118720Y-35440D01*
X120460Y-31860D01*
X122920Y-28840D01*
X125300Y-26860D01*
X127080Y-25820D01*
X129680Y-24700D01*
X132840Y-23860D01*
X137020Y-23420D01*
X166180Y-23480D01*
X170340Y-24000D01*
X172760Y-24780D01*
X175560Y-26200D01*
X176900Y-27100D01*
X179440Y-29080D01*
X181900Y-32140D01*
X183700Y-35640D01*
X184940Y-39640D01*
X184940Y-75460D01*
X184320Y-77900D01*
X183740Y-79580D01*
X182160Y-82760D01*
X180420Y-85040D01*
X178020Y-87220D01*
X176900Y-88059D01*
X174620Y-89340D01*
X171940Y-90340D01*
X170340Y-90719D01*
X166180Y-91280D01*
X136420Y-91260D01*
X132440Y-90740D01*
X130860Y-90360D01*
X129480Y-89740D01*
X128100Y-89240D01*
X124700Y-87000D01*
X121440Y-83660D01*
X120380Y-82060D01*
X119140Y-79680D01*
X118400Y-77900D01*
X117600Y-74720D01*
X117440Y-41000D01*
X103638Y-41000D01*
X103539Y-42380D01*
X103740Y-76720D01*
X104140Y-79880D01*
X104720Y-82560D01*
X105719Y-85640D01*
X107360Y-89220D01*
X108640Y-91240D01*
X110780Y-94179D01*
X114000Y-97480D01*
X117160Y-99880D01*
X118960Y-100879D01*
X119540Y-101359D01*
X123320Y-103040D01*
X124900Y-103580D01*
X128080Y-104340D01*
X130460Y-104800D01*
X172340Y-104660D01*
X174720Y-104220D01*
X177700Y-103440D01*
X179880Y-102720D01*
X183240Y-101020D01*
X186620Y-98820D01*
X188000Y-97820D01*
X191500Y-94380D01*
X194820Y-89560D01*
X196240Y-86760D01*
X197480Y-83460D01*
X198840Y-76520D01*
X198680Y-36420D01*
X197860Y-32260D01*
X197480Y-30880D01*
X196620Y-28540D01*
X195020Y-25320D01*
X193600Y-22940D01*
X192580Y-21640D01*
X189800Y-18500D01*
X186940Y-16000D01*
X185660Y-15000D01*
X183840Y-13939D01*
X180080Y-12000D01*
X176100Y-10760D01*
X174520Y-10360D01*
G37*
G36*
X-125920Y-9980D02*
G01*
X-168380Y-10080D01*
X-172160Y-10880D01*
X-175780Y-12100D01*
X-179300Y-13859D01*
X-183460Y-16680D01*
X-187580Y-20760D01*
X-190120Y-24320D01*
X-192280Y-28700D01*
X-192920Y-30480D01*
X-193520Y-32460D01*
X-194380Y-36420D01*
X-194347Y-71360D01*
X-180980Y-71360D01*
X-180980Y-43380D01*
X-180560Y-38800D01*
X-179820Y-36040D01*
X-179180Y-34300D01*
X-178540Y-33060D01*
X-176960Y-30680D01*
X-173939Y-27559D01*
X-171360Y-25880D01*
X-167780Y-24360D01*
X-166000Y-24020D01*
X-161840Y-23460D01*
X-131880Y-23480D01*
X-128100Y-23980D01*
X-126000Y-24580D01*
X-122340Y-26380D01*
X-120160Y-28020D01*
X-117640Y-30480D01*
X-115900Y-33060D01*
X-114360Y-36240D01*
X-113539Y-39200D01*
X-113120Y-42380D01*
X-113120Y-72380D01*
X-113720Y-76720D01*
X-114080Y-78300D01*
X-114720Y-80000D01*
X-115879Y-82340D01*
X-116900Y-83859D01*
X-120120Y-87160D01*
X-122739Y-88840D01*
X-125320Y-90020D01*
X-128500Y-90879D01*
X-132660Y-91300D01*
X-161660Y-91300D01*
X-166040Y-90719D01*
X-169180Y-89680D01*
X-172079Y-88100D01*
X-174340Y-86359D01*
X-176580Y-84060D01*
X-178700Y-80879D01*
X-179360Y-79300D01*
X-180140Y-77100D01*
X-180560Y-75520D01*
X-180980Y-71360D01*
X-194347Y-71360D01*
X-194340Y-79100D01*
X-193540Y-82860D01*
X-192480Y-86039D01*
X-191080Y-89019D01*
X-189720Y-91060D01*
X-189720Y-91340D01*
X-185859Y-96080D01*
X-182680Y-98780D01*
X-179480Y-100920D01*
X-173939Y-103460D01*
X-170159Y-104360D01*
X-167399Y-104820D01*
X-125719Y-104660D01*
X-123539Y-104220D01*
X-121260Y-103640D01*
X-118240Y-102579D01*
X-114400Y-100600D01*
X-112600Y-99540D01*
X-111300Y-98539D01*
X-108200Y-95719D01*
X-105820Y-93080D01*
X-103140Y-88920D01*
X-102640Y-88020D01*
X-100820Y-83460D01*
X-100060Y-80079D01*
X-99600Y-77300D01*
X-99760Y-35640D01*
X-100559Y-31860D01*
X-101780Y-28240D01*
X-104480Y-23320D01*
X-106140Y-21100D01*
X-108140Y-18720D01*
X-111640Y-15780D01*
X-114400Y-13939D01*
X-120160Y-11259D01*
X-123940Y-10360D01*
G37*
G36*
X-40199Y-23440D02*
G01*
X-41580Y-23920D01*
X-43420Y-25000D01*
X-44720Y-26480D01*
X-45740Y-28700D01*
X-45720Y-32260D01*
X-44580Y-34560D01*
X-42900Y-36260D01*
X-40599Y-37420D01*
X-36820Y-37400D01*
X-34940Y-36500D01*
X-33180Y-34920D01*
X-32380Y-33660D01*
X-31760Y-31860D01*
X-31760Y-29000D01*
X-32580Y-26800D01*
X-34540Y-24680D01*
X-37220Y-23460D01*
G37*
G36*
X-80780Y-23440D02*
G01*
X-82380Y-23920D01*
X-84440Y-25339D01*
X-85920Y-27440D01*
X-86519Y-29540D01*
X-86519Y-31500D01*
X-86100Y-32860D01*
X-85239Y-34640D01*
X-83539Y-36360D01*
X-81260Y-37400D01*
X-77500Y-37400D01*
X-75520Y-36440D01*
X-73520Y-34440D01*
X-72680Y-32660D01*
X-72220Y-30500D01*
X-72660Y-28300D01*
X-73720Y-26160D01*
X-75820Y-24260D01*
X-77900Y-23460D01*
G37*
G36*
X130960Y-36920D02*
G01*
X130960Y-77800D01*
X171740Y-77700D01*
X171840Y-37420D01*
X171660Y-36920D01*
G37*
G36*
X-167500Y-36920D02*
G01*
X-167500Y-77800D01*
X-126620Y-77800D01*
X-126620Y-36920D01*
G37*
G36*
X28460Y-50439D02*
G01*
X26180Y-50980D01*
X24000Y-52420D01*
X23060Y-53700D01*
X22340Y-55080D01*
X21880Y-57740D01*
X22380Y-60039D01*
X22679Y-60839D01*
X23500Y-62020D01*
X24500Y-63160D01*
X26480Y-64160D01*
X27679Y-64600D01*
X62600Y-64800D01*
X62600Y-77500D01*
X27080Y-77700D01*
X25299Y-78660D01*
X23760Y-79880D01*
X22559Y-81620D01*
X21940Y-83660D01*
X21720Y-104700D01*
X13580Y-104920D01*
X12600Y-105260D01*
X11640Y-105760D01*
X9860Y-107440D01*
X8980Y-108859D01*
X8320Y-111519D01*
X8320Y-118280D01*
X680Y-118300D01*
X-1019Y-118880D01*
X-2480Y-119820D01*
X-4000Y-121359D01*
X-4640Y-122560D01*
X-5160Y-124540D01*
X-5160Y-126519D01*
X-4560Y-128240D01*
X-3820Y-129700D01*
X-2300Y-131140D01*
X-300Y-132140D01*
X2039Y-132580D01*
X15360Y-132580D01*
X18060Y-132000D01*
X19740Y-131140D01*
X21060Y-129900D01*
X22080Y-127920D01*
X22480Y-126720D01*
X22719Y-118980D01*
X30840Y-118720D01*
X32240Y-118180D01*
X33820Y-117140D01*
X34640Y-116199D01*
X35280Y-115180D01*
X36000Y-113219D01*
X36200Y-91800D01*
X49100Y-91800D01*
X49300Y-100320D01*
X50279Y-102320D01*
X51860Y-104019D01*
X52920Y-104580D01*
X54660Y-105180D01*
X57840Y-105180D01*
X59220Y-104680D01*
X60420Y-103920D01*
X61940Y-102500D01*
X62539Y-101340D01*
X62980Y-100120D01*
X63200Y-91800D01*
X76100Y-91800D01*
X76100Y-104700D01*
X67960Y-104900D01*
X66620Y-105360D01*
X64760Y-106560D01*
X63940Y-107680D01*
X62800Y-109860D01*
X62600Y-131680D01*
X55060Y-131920D01*
X53480Y-132300D01*
X51080Y-133840D01*
X49640Y-136080D01*
X49200Y-137640D01*
X49200Y-140700D01*
X50140Y-142800D01*
X52100Y-144820D01*
X53480Y-145540D01*
X55460Y-146060D01*
X70700Y-146060D01*
X72120Y-145620D01*
X73120Y-145180D01*
X74740Y-144080D01*
X75840Y-142660D01*
X76640Y-140600D01*
X76820Y-132580D01*
X83240Y-132580D01*
X85820Y-132020D01*
X86600Y-131700D01*
X88240Y-130600D01*
X89220Y-129300D01*
X89960Y-127899D01*
X90460Y-125120D01*
X90460Y-84460D01*
X89940Y-82260D01*
X89220Y-80879D01*
X88400Y-79700D01*
X87600Y-79000D01*
X85020Y-77740D01*
X76880Y-77500D01*
X76820Y-61040D01*
X76600Y-55580D01*
X75300Y-53120D01*
X74000Y-51820D01*
X72320Y-50940D01*
X70140Y-50460D01*
G37*
G36*
X2280Y-77640D02*
G01*
X-13400Y-77740D01*
X-14800Y-78320D01*
X-15980Y-78960D01*
X-17400Y-80480D01*
X-18060Y-81560D01*
X-18660Y-83260D01*
X-18660Y-86039D01*
X-17920Y-88080D01*
X-16700Y-89860D01*
X-14800Y-91080D01*
X-13600Y-91580D01*
X-5260Y-91800D01*
X-5060Y-99920D01*
X-4600Y-101240D01*
X-3160Y-103420D01*
X-1560Y-104420D01*
X220Y-105180D01*
X3459Y-105180D01*
X5600Y-104400D01*
X6640Y-103520D01*
X7560Y-102500D01*
X8500Y-101060D01*
X9120Y-98059D01*
X9100Y-84460D01*
X8580Y-82260D01*
X7860Y-80879D01*
X7040Y-79700D01*
X6240Y-79000D01*
X4060Y-77920D01*
G37*
G36*
X-81120Y-91260D02*
G01*
X-83760Y-92520D01*
X-85140Y-93880D01*
X-85920Y-95420D01*
X-86519Y-97160D01*
X-86519Y-113040D01*
X-85800Y-115020D01*
X-84780Y-116640D01*
X-83500Y-117700D01*
X-82060Y-118440D01*
X-79700Y-118880D01*
X-73040Y-118880D01*
X-73020Y-125920D01*
X-72460Y-128240D01*
X-71360Y-129900D01*
X-70360Y-131020D01*
X-68380Y-132040D01*
X-65720Y-132500D01*
X-63300Y-132020D01*
X-61620Y-131140D01*
X-60300Y-129900D01*
X-59280Y-127920D01*
X-58880Y-126720D01*
X-58640Y-118980D01*
X-28680Y-118920D01*
X-23320Y-118720D01*
X-21340Y-117860D01*
X-19420Y-116000D01*
X-18360Y-114019D01*
X-18240Y-96760D01*
X-18760Y-95160D01*
X-19840Y-93539D01*
X-21340Y-92180D01*
X-23520Y-91320D01*
X-27000Y-91300D01*
X-29480Y-92520D01*
X-31000Y-93980D01*
X-31620Y-95140D01*
X-32040Y-96359D01*
X-32260Y-104700D01*
X-45160Y-104700D01*
X-45359Y-96560D01*
X-45839Y-95220D01*
X-47100Y-93260D01*
X-48800Y-92080D01*
X-50640Y-91300D01*
X-53880Y-91300D01*
X-56160Y-92200D01*
X-58179Y-94160D01*
X-58700Y-95160D01*
X-59400Y-97160D01*
X-59640Y-104700D01*
X-72140Y-104700D01*
X-72380Y-97160D01*
X-72780Y-95760D01*
X-73600Y-94160D01*
X-75200Y-92500D01*
X-77300Y-91420D01*
G37*
G36*
X136220Y-118280D02*
G01*
X134140Y-119040D01*
X132900Y-119980D01*
X131760Y-121100D01*
X130559Y-123600D01*
X130559Y-126920D01*
X131340Y-129080D01*
X133440Y-131200D01*
X135460Y-132140D01*
X137780Y-132580D01*
X157560Y-132580D01*
X157560Y-140020D01*
X158160Y-141740D01*
X158900Y-143180D01*
X160620Y-144860D01*
X162220Y-145520D01*
X164200Y-146060D01*
X192540Y-146060D01*
X193960Y-145620D01*
X195560Y-144980D01*
X197680Y-143000D01*
X198299Y-141800D01*
X198820Y-139820D01*
X198820Y-137500D01*
X197480Y-134660D01*
X195740Y-132980D01*
X194160Y-132320D01*
X192180Y-131780D01*
X171840Y-131780D01*
X171840Y-125559D01*
X171400Y-123140D01*
X170760Y-121560D01*
X168960Y-119620D01*
X166780Y-118640D01*
X165780Y-118320D01*
G37*
G36*
X109420Y-118280D02*
G01*
X107560Y-118859D01*
X105760Y-119920D01*
X104400Y-121500D01*
X103699Y-122940D01*
X103260Y-125320D01*
X103600Y-127500D01*
X104320Y-129100D01*
X106000Y-131000D01*
X107780Y-132040D01*
X110399Y-132580D01*
X112600Y-132140D01*
X114700Y-131120D01*
X116320Y-129360D01*
X117320Y-127160D01*
X117500Y-124540D01*
X116840Y-122280D01*
X115440Y-120360D01*
X113680Y-119019D01*
X111620Y-118320D01*
G37*
G36*
X-189180Y-118280D02*
G01*
X-191280Y-119040D01*
X-192540Y-119980D01*
X-193680Y-121100D01*
X-194880Y-123600D01*
X-194880Y-140700D01*
X-193939Y-142800D01*
X-191980Y-144820D01*
X-190600Y-145540D01*
X-188619Y-146060D01*
X-187260Y-146060D01*
X-184460Y-145220D01*
X-182880Y-143980D01*
X-182180Y-143180D01*
X-181080Y-141000D01*
X-180880Y-132680D01*
X-167900Y-132560D01*
X-167760Y-154100D01*
X-167440Y-155260D01*
X-165640Y-157760D01*
X-164180Y-158780D01*
X-162040Y-159560D01*
X-145840Y-159560D01*
X-142980Y-158220D01*
X-141640Y-156880D01*
X-140760Y-155500D01*
X-140100Y-152820D01*
X-140100Y-146060D01*
X-113720Y-146060D01*
X-113720Y-158920D01*
X-121940Y-159100D01*
X-124140Y-160100D01*
X-125940Y-161940D01*
X-127100Y-164220D01*
X-127100Y-181480D01*
X-126039Y-183680D01*
X-124140Y-185520D01*
X-122340Y-186420D01*
X-118360Y-186580D01*
X-115600Y-185200D01*
X-114380Y-183860D01*
X-113680Y-182719D01*
X-113240Y-181480D01*
X-113020Y-173160D01*
X-100120Y-173160D01*
X-100120Y-186060D01*
X-85840Y-186060D01*
X-85840Y-173160D01*
X-73220Y-173039D01*
X-73020Y-173560D01*
X-73140Y-186060D01*
X-100120Y-186060D01*
X-108260Y-186260D01*
X-109640Y-186740D01*
X-111600Y-188039D01*
X-112920Y-189920D01*
X-113520Y-191600D01*
X-113520Y-194860D01*
X-112540Y-197160D01*
X-110640Y-199000D01*
X-108460Y-200100D01*
X-100120Y-200340D01*
X-99900Y-208480D01*
X-99480Y-209700D01*
X-98480Y-211260D01*
X-97140Y-212520D01*
X-95160Y-213500D01*
X-92800Y-213939D01*
X-79480Y-213939D01*
X-76900Y-213380D01*
X-76100Y-213060D01*
X-74480Y-211960D01*
X-73500Y-210660D01*
X-72760Y-209259D01*
X-72400Y-207680D01*
X-72140Y-200340D01*
X-59640Y-200340D01*
X-59400Y-207680D01*
X-59000Y-209140D01*
X-57560Y-211700D01*
X-56260Y-212680D01*
X-55060Y-213299D01*
X-52280Y-213880D01*
X-50119Y-213480D01*
X-48520Y-212840D01*
X-46780Y-211260D01*
X-45800Y-209700D01*
X-45380Y-208480D01*
X-45160Y-200340D01*
X-18760Y-200340D01*
X-18560Y-235660D01*
X-17940Y-237300D01*
X-16480Y-239080D01*
X-14960Y-240140D01*
X-12820Y-240920D01*
X3060Y-240920D01*
X4780Y-240320D01*
X6240Y-239560D01*
X7680Y-238039D01*
X8680Y-236040D01*
X9120Y-233700D01*
X9120Y-206920D01*
X8680Y-204500D01*
X8040Y-202920D01*
X6240Y-200980D01*
X3660Y-199760D01*
X-4480Y-199540D01*
X-4700Y-191220D01*
X-5800Y-189020D01*
X-7260Y-187520D01*
X-8520Y-186720D01*
X-9840Y-186260D01*
X-17960Y-186060D01*
X-18220Y-151120D01*
X-18940Y-148960D01*
X-20339Y-147360D01*
X-21140Y-146640D01*
X-23180Y-145700D01*
X-25179Y-145340D01*
X-27300Y-145720D01*
X-29180Y-146520D01*
X-30940Y-148220D01*
X-32040Y-150340D01*
X-32320Y-160840D01*
X-32360Y-186160D01*
X-45160Y-186060D01*
X-45359Y-177920D01*
X-45980Y-176300D01*
X-47260Y-174440D01*
X-48900Y-173400D01*
X-50320Y-172760D01*
X-58640Y-172560D01*
X-58640Y-159660D01*
X-50700Y-159420D01*
X-49520Y-159100D01*
X-48140Y-158220D01*
X-46460Y-156600D01*
X-45860Y-155440D01*
X-45260Y-153700D01*
X-45260Y-137520D01*
X-46460Y-134860D01*
X-48140Y-133120D01*
X-50119Y-132240D01*
X-52260Y-131720D01*
X-55000Y-132240D01*
X-57340Y-133760D01*
X-58300Y-135060D01*
X-59020Y-136440D01*
X-59520Y-139220D01*
X-59540Y-145280D01*
X-65800Y-145280D01*
X-68380Y-145820D01*
X-69160Y-146140D01*
X-70360Y-146960D01*
X-71480Y-147960D01*
X-72500Y-149940D01*
X-72900Y-151120D01*
X-73140Y-158860D01*
X-85840Y-158860D01*
X-85840Y-146160D01*
X-78100Y-145940D01*
X-76640Y-145520D01*
X-75120Y-144620D01*
X-73800Y-143380D01*
X-72640Y-141100D01*
X-72300Y-138720D01*
X-72800Y-136440D01*
X-73100Y-135640D01*
X-73920Y-134460D01*
X-74920Y-133320D01*
X-76900Y-132320D01*
X-78100Y-131920D01*
X-85840Y-131680D01*
X-86100Y-123539D01*
X-86640Y-122160D01*
X-87400Y-120960D01*
X-88420Y-119840D01*
X-89600Y-119179D01*
X-91780Y-118320D01*
X-121359Y-118280D01*
X-123400Y-119019D01*
X-125160Y-120239D01*
X-126260Y-121700D01*
X-127040Y-123740D01*
X-127300Y-131680D01*
X-153600Y-131780D01*
X-153600Y-125559D01*
X-154040Y-123140D01*
X-154680Y-121560D01*
X-156480Y-119620D01*
X-159060Y-118379D01*
G37*
G36*
X28460Y-131780D02*
G01*
X26460Y-132320D01*
X24980Y-133020D01*
X23240Y-134720D01*
X22120Y-136840D01*
X22120Y-141000D01*
X23240Y-143120D01*
X24900Y-144780D01*
X26720Y-145640D01*
X29120Y-146140D01*
X31440Y-145620D01*
X33240Y-144720D01*
X35060Y-142760D01*
X35540Y-141880D01*
X36100Y-140020D01*
X36100Y-138020D01*
X35680Y-136440D01*
X35060Y-135080D01*
X33240Y-133140D01*
X31640Y-132320D01*
X29860Y-131820D01*
G37*
G36*
X124520Y-131800D02*
G01*
X122920Y-131940D01*
X121340Y-132320D01*
X120340Y-132780D01*
X118880Y-133860D01*
X117660Y-135540D01*
X117040Y-137240D01*
X116820Y-145280D01*
X110220Y-145280D01*
X107980Y-145820D01*
X105879Y-146960D01*
X104560Y-148260D01*
X103800Y-149760D01*
X103219Y-152540D01*
X103740Y-155000D01*
X104600Y-156680D01*
X106060Y-158200D01*
X107680Y-159100D01*
X109500Y-159560D01*
X125380Y-159560D01*
X127480Y-158680D01*
X129080Y-157480D01*
X129580Y-156880D01*
X130860Y-154500D01*
X130980Y-137640D01*
X130480Y-136040D01*
X129980Y-135060D01*
X127880Y-132940D01*
X127080Y-132500D01*
G37*
G36*
X-10820Y-131800D02*
G01*
X-13000Y-131940D01*
X-15000Y-132620D01*
X-16600Y-133840D01*
X-17900Y-135520D01*
X-18700Y-137640D01*
X-18560Y-140800D01*
X-17480Y-143000D01*
X-15640Y-144860D01*
X-13959Y-145640D01*
X-11560Y-146140D01*
X-9240Y-145620D01*
X-7400Y-144700D01*
X-5520Y-142600D01*
X-4700Y-140800D01*
X-4680Y-137040D01*
X-5620Y-135140D01*
X-7400Y-133140D01*
X-9040Y-132320D01*
G37*
G36*
X83240Y-145360D02*
G01*
X80860Y-145800D01*
X79400Y-146480D01*
X77820Y-147840D01*
X76760Y-149640D01*
X76200Y-151520D01*
X76200Y-153540D01*
X76920Y-155780D01*
X78280Y-157540D01*
X80180Y-158940D01*
X82440Y-159600D01*
X85060Y-159420D01*
X87280Y-158400D01*
X89019Y-156800D01*
X90040Y-154700D01*
X90480Y-152500D01*
X89940Y-149860D01*
X88900Y-148080D01*
X87000Y-146400D01*
X85360Y-145680D01*
G37*
G36*
X157840Y-158860D02*
G01*
X135620Y-159060D01*
X133440Y-160120D01*
X131600Y-162040D01*
X131180Y-162860D01*
X130559Y-164620D01*
X130559Y-167900D01*
X131920Y-170600D01*
X133300Y-171820D01*
X135620Y-172960D01*
X157460Y-173160D01*
X157460Y-186060D01*
X135820Y-186260D01*
X134440Y-186740D01*
X132480Y-188039D01*
X131160Y-189920D01*
X130540Y-191600D01*
X130300Y-226640D01*
X110220Y-226640D01*
X107980Y-227180D01*
X105879Y-228320D01*
X104560Y-229620D01*
X103800Y-231119D01*
X103219Y-233900D01*
X103740Y-236360D01*
X104600Y-238039D01*
X106060Y-239579D01*
X108640Y-240799D01*
X116780Y-241020D01*
X117040Y-249160D01*
X117579Y-250539D01*
X118100Y-251540D01*
X119740Y-253260D01*
X120800Y-253800D01*
X122520Y-254400D01*
X130360Y-254420D01*
X130360Y-267500D01*
X122420Y-267500D01*
X119740Y-268720D01*
X118219Y-270180D01*
X117420Y-271760D01*
X117020Y-272960D01*
X116780Y-280900D01*
X108840Y-281120D01*
X107640Y-281540D01*
X106060Y-282360D01*
X104600Y-283880D01*
X103699Y-285660D01*
X103240Y-288360D01*
X103740Y-290520D01*
X105140Y-293060D01*
X106460Y-294040D01*
X107660Y-294660D01*
X110700Y-295300D01*
X123680Y-295300D01*
X126300Y-294840D01*
X127880Y-294060D01*
X129800Y-292220D01*
X130420Y-291040D01*
X130840Y-289840D01*
X131060Y-281700D01*
X139400Y-281460D01*
X141380Y-280580D01*
X143300Y-278720D01*
X144360Y-276740D01*
X144560Y-268000D01*
X153080Y-267800D01*
X155080Y-266940D01*
X156920Y-265020D01*
X158020Y-262840D01*
X158240Y-254520D01*
X166580Y-254300D01*
X167560Y-253939D01*
X169200Y-252840D01*
X170400Y-251620D01*
X171400Y-249560D01*
X171840Y-247200D01*
X171840Y-233880D01*
X171280Y-231260D01*
X170820Y-230400D01*
X169700Y-228720D01*
X168560Y-227880D01*
X167360Y-227260D01*
X164320Y-226640D01*
X144660Y-226640D01*
X144660Y-213939D01*
X171040Y-213939D01*
X171040Y-221140D01*
X171480Y-222560D01*
X172280Y-224420D01*
X173920Y-226000D01*
X175600Y-226860D01*
X177700Y-227420D01*
X179060Y-227420D01*
X180479Y-226980D01*
X182320Y-226180D01*
X183900Y-224540D01*
X184760Y-222880D01*
X185320Y-220780D01*
X185340Y-213939D01*
X191560Y-213939D01*
X193960Y-213480D01*
X195560Y-212840D01*
X197420Y-211119D01*
X198380Y-209460D01*
X198860Y-207280D01*
X198660Y-205100D01*
X198359Y-203939D01*
X196580Y-201439D01*
X195120Y-200420D01*
X192979Y-199640D01*
X171840Y-199640D01*
X171820Y-165820D01*
X171300Y-163619D01*
X170580Y-162240D01*
X169760Y-161060D01*
X168960Y-160360D01*
X166380Y-159080D01*
G37*
G36*
X42480Y-158920D02*
G01*
X27080Y-159080D01*
X25299Y-160020D01*
X23620Y-161380D01*
X22440Y-163220D01*
X21880Y-166040D01*
X22260Y-168200D01*
X22900Y-169780D01*
X24880Y-171900D01*
X26060Y-172500D01*
X27280Y-172940D01*
X35420Y-173160D01*
X35660Y-181480D01*
X36680Y-183680D01*
X38580Y-185520D01*
X40380Y-186439D01*
X50700Y-186700D01*
X62699Y-186740D01*
X62600Y-213039D01*
X36200Y-213039D01*
X36000Y-191400D01*
X35640Y-190420D01*
X35200Y-189620D01*
X34040Y-188020D01*
X32320Y-186900D01*
X30259Y-186140D01*
X27679Y-186160D01*
X25980Y-186740D01*
X24500Y-187700D01*
X23240Y-189020D01*
X22340Y-190760D01*
X21840Y-193600D01*
X21820Y-220180D01*
X22380Y-222760D01*
X22679Y-223560D01*
X23500Y-224740D01*
X24500Y-225880D01*
X26480Y-226880D01*
X27679Y-227300D01*
X35420Y-227520D01*
X35660Y-235660D01*
X37060Y-238440D01*
X38180Y-239460D01*
X39180Y-240060D01*
X41600Y-240920D01*
X49000Y-240920D01*
X49000Y-267520D01*
X36200Y-267400D01*
X36000Y-245780D01*
X35540Y-244520D01*
X34500Y-242719D01*
X33120Y-241520D01*
X31600Y-240740D01*
X29000Y-240280D01*
X13580Y-240420D01*
X11020Y-241820D01*
X9720Y-243120D01*
X8860Y-244780D01*
X8480Y-245980D01*
X8220Y-253920D01*
X-100Y-254120D01*
X-2420Y-255260D01*
X-3780Y-256600D01*
X-4560Y-258140D01*
X-5160Y-259880D01*
X-5160Y-262260D01*
X-4540Y-264040D01*
X-3200Y-266080D01*
X-1300Y-267280D01*
X200Y-267900D01*
X21820Y-268160D01*
X21820Y-274120D01*
X22260Y-276740D01*
X23060Y-278320D01*
X23900Y-279500D01*
X24700Y-280220D01*
X27240Y-281460D01*
X31440Y-281640D01*
X62600Y-281700D01*
X62840Y-289840D01*
X63160Y-291000D01*
X64260Y-292620D01*
X65580Y-293880D01*
X67560Y-294860D01*
X69920Y-295300D01*
X76200Y-295300D01*
X76200Y-302740D01*
X76800Y-304460D01*
X77540Y-305900D01*
X79260Y-307580D01*
X80860Y-308240D01*
X82840Y-308780D01*
X84200Y-308780D01*
X85620Y-308340D01*
X87400Y-307500D01*
X88920Y-306120D01*
X90079Y-303840D01*
X90480Y-301140D01*
X90480Y-288280D01*
X90040Y-285860D01*
X89400Y-284280D01*
X87600Y-282340D01*
X85020Y-281120D01*
X76880Y-280900D01*
X76820Y-264240D01*
X76620Y-259080D01*
X75780Y-257100D01*
X73900Y-255180D01*
X72740Y-254560D01*
X71520Y-254140D01*
X63400Y-253920D01*
X63280Y-227420D01*
X97700Y-227420D01*
X99120Y-226980D01*
X100960Y-226180D01*
X102540Y-224540D01*
X103400Y-222880D01*
X103960Y-220780D01*
X103980Y-213939D01*
X110200Y-213939D01*
X112600Y-213480D01*
X114200Y-212840D01*
X116060Y-211119D01*
X117020Y-209460D01*
X117500Y-207280D01*
X117300Y-205100D01*
X117020Y-203939D01*
X115820Y-202180D01*
X114480Y-200840D01*
X113219Y-200180D01*
X112000Y-199760D01*
X104080Y-199540D01*
X104080Y-186640D01*
X112400Y-186439D01*
X113880Y-185780D01*
X115680Y-184540D01*
X116700Y-182800D01*
X117460Y-180700D01*
X117460Y-178320D01*
X116840Y-176520D01*
X115500Y-174500D01*
X113600Y-173280D01*
X112400Y-172760D01*
X104080Y-172560D01*
X103840Y-164620D01*
X103520Y-163460D01*
X102020Y-161000D01*
X100100Y-159700D01*
X98920Y-159320D01*
X97120Y-159020D01*
X94740Y-159220D01*
X92380Y-160460D01*
X91080Y-161759D01*
X90220Y-163420D01*
X89800Y-164620D01*
X89580Y-199540D01*
X76880Y-199540D01*
X76820Y-182880D01*
X76620Y-177719D01*
X75780Y-175740D01*
X73900Y-173820D01*
X72840Y-173260D01*
X71120Y-172680D01*
X49600Y-172399D01*
X49600Y-164520D01*
X48400Y-161840D01*
X46920Y-160320D01*
X45100Y-159380D01*
G37*
G36*
X192580Y-158980D02*
G01*
X189980Y-159140D01*
X187700Y-160140D01*
X185780Y-162100D01*
X184860Y-164020D01*
X184840Y-168000D01*
X186000Y-170300D01*
X188120Y-172240D01*
X190400Y-173080D01*
X193760Y-172940D01*
X195720Y-171960D01*
X197659Y-170080D01*
X198680Y-167840D01*
X198880Y-165219D01*
X198240Y-163080D01*
X197000Y-161140D01*
X195479Y-159960D01*
X193960Y-159300D01*
G37*
G36*
X2859Y-158980D02*
G01*
X20Y-159160D01*
X-2100Y-160100D01*
X-3880Y-161840D01*
X-4760Y-163619D01*
X-5160Y-165219D01*
X-5160Y-167040D01*
X-4420Y-169280D01*
X-3320Y-170900D01*
X-1900Y-172020D01*
X-100Y-172960D01*
X3260Y-173080D01*
X5540Y-172240D01*
X7620Y-170320D01*
X8700Y-168200D01*
X9140Y-166040D01*
X8680Y-163820D01*
X7840Y-162040D01*
X5960Y-160140D01*
X4060Y-159300D01*
G37*
G36*
X-173939Y-159020D02*
G01*
X-175920Y-159180D01*
X-177520Y-159640D01*
X-178500Y-160219D01*
X-179840Y-161439D01*
X-180840Y-163000D01*
X-181260Y-164220D01*
X-181480Y-172560D01*
X-190020Y-172760D01*
X-192200Y-173880D01*
X-193720Y-175340D01*
X-194259Y-176380D01*
X-194860Y-178120D01*
X-194880Y-194860D01*
X-193900Y-197160D01*
X-192000Y-199000D01*
X-189820Y-200140D01*
X-172360Y-200140D01*
X-170320Y-199060D01*
X-168420Y-197160D01*
X-167420Y-194980D01*
X-167240Y-186840D01*
X-166800Y-186560D01*
X-159260Y-186540D01*
X-157120Y-185760D01*
X-156080Y-184880D01*
X-155160Y-183860D01*
X-154220Y-182420D01*
X-153600Y-179420D01*
X-154140Y-177120D01*
X-154960Y-175520D01*
X-156560Y-173860D01*
X-158660Y-172760D01*
X-166400Y-172640D01*
X-167240Y-172460D01*
X-167420Y-164020D01*
X-168460Y-162000D01*
X-170200Y-160260D01*
X-172160Y-159280D01*
G37*
G36*
X13660Y-172659D02*
G01*
X11459Y-173740D01*
X9780Y-175340D01*
X8760Y-177120D01*
X8280Y-179700D01*
X8880Y-182380D01*
X10140Y-184340D01*
X11860Y-185760D01*
X13779Y-186580D01*
X17160Y-186600D01*
X19340Y-185600D01*
X20800Y-184340D01*
X22040Y-182399D01*
X22599Y-180300D01*
X22620Y-179020D01*
X22020Y-176780D01*
X20780Y-174840D01*
X19160Y-173540D01*
X17360Y-172680D01*
G37*
G36*
X-148740Y-186160D02*
G01*
X-151000Y-187040D01*
X-152840Y-188800D01*
X-153740Y-190219D01*
X-154460Y-193160D01*
X-153940Y-195780D01*
X-152380Y-198260D01*
X-150560Y-199460D01*
X-148740Y-200140D01*
X-132260Y-200140D01*
X-130480Y-199560D01*
X-129300Y-198760D01*
X-128360Y-197960D01*
X-127460Y-196560D01*
X-126620Y-194160D01*
X-126620Y-191800D01*
X-127500Y-189620D01*
X-128680Y-188020D01*
X-130399Y-186900D01*
X-132260Y-186180D01*
G37*
G36*
X-120960Y-199640D02*
G01*
X-122540Y-200060D01*
X-124320Y-200940D01*
X-126080Y-202719D01*
X-127080Y-204899D01*
X-127080Y-208480D01*
X-126039Y-210780D01*
X-124140Y-212659D01*
X-122320Y-213500D01*
X-120040Y-213920D01*
X-117980Y-213520D01*
X-115860Y-212440D01*
X-113940Y-210360D01*
X-113080Y-208080D01*
X-113219Y-204700D01*
X-114160Y-202920D01*
X-115280Y-201500D01*
X-116900Y-200380D01*
X-118980Y-199680D01*
G37*
G36*
X-39400Y-213140D02*
G01*
X-41380Y-213680D01*
X-43019Y-214500D01*
X-44800Y-216500D01*
X-45720Y-218400D01*
X-45720Y-222160D01*
X-44800Y-224060D01*
X-43019Y-226060D01*
X-41160Y-227000D01*
X-38740Y-227500D01*
X-36420Y-227000D01*
X-34680Y-226140D01*
X-32880Y-224340D01*
X-31760Y-221880D01*
X-31760Y-218660D01*
X-32960Y-216119D01*
X-34800Y-214340D01*
X-36220Y-213660D01*
X-38000Y-213180D01*
G37*
G36*
X-173540Y-213140D02*
G01*
X-175720Y-213299D01*
X-177719Y-213980D01*
X-179320Y-215200D01*
X-180620Y-216880D01*
X-181420Y-219000D01*
X-181280Y-222160D01*
X-180200Y-224360D01*
X-178340Y-226220D01*
X-176680Y-227000D01*
X-174280Y-227500D01*
X-171960Y-226980D01*
X-170120Y-226060D01*
X-168220Y-223960D01*
X-167420Y-222160D01*
X-167399Y-218400D01*
X-168340Y-216500D01*
X-170120Y-214500D01*
X-171759Y-213680D01*
G37*
G36*
X-107060Y-213160D02*
G01*
X-109380Y-213700D01*
X-111039Y-214780D01*
X-112480Y-216340D01*
X-113520Y-218480D01*
X-113520Y-222079D01*
X-112640Y-223960D01*
X-111440Y-225500D01*
X-109200Y-226960D01*
X-106400Y-227480D01*
X-103960Y-226960D01*
X-101700Y-225500D01*
X-100580Y-224160D01*
X-99580Y-221960D01*
X-99580Y-218600D01*
X-100420Y-216680D01*
X-101840Y-214940D01*
X-103800Y-213680D01*
X-105879Y-213180D01*
G37*
G36*
X-147740Y-213160D02*
G01*
X-149920Y-213680D01*
X-151520Y-214500D01*
X-152960Y-216020D01*
X-153860Y-217800D01*
X-154380Y-219780D01*
X-154400Y-226640D01*
X-160640Y-226640D01*
X-163340Y-227200D01*
X-165020Y-228060D01*
X-166540Y-229500D01*
X-167040Y-230500D01*
X-167780Y-232480D01*
X-167979Y-240219D01*
X-180880Y-240219D01*
X-181100Y-231880D01*
X-181600Y-230380D01*
X-183060Y-228720D01*
X-183860Y-228000D01*
X-185900Y-227060D01*
X-187900Y-226700D01*
X-190020Y-227079D01*
X-191900Y-227900D01*
X-193660Y-229579D01*
X-194780Y-231700D01*
X-194899Y-249240D01*
X-193520Y-251960D01*
X-192140Y-253180D01*
X-189820Y-254320D01*
X-167979Y-254520D01*
X-167780Y-262640D01*
X-167320Y-263960D01*
X-165920Y-266080D01*
X-164020Y-267280D01*
X-162480Y-267900D01*
X-159260Y-267900D01*
X-157120Y-267120D01*
X-156080Y-266240D01*
X-155160Y-265220D01*
X-154260Y-263840D01*
X-153720Y-261860D01*
X-153500Y-254520D01*
X-141000Y-254520D01*
X-141000Y-267400D01*
X-149140Y-267640D01*
X-150120Y-267980D01*
X-151080Y-268480D01*
X-152840Y-270160D01*
X-153740Y-271580D01*
X-154460Y-274520D01*
X-153940Y-277140D01*
X-152380Y-279620D01*
X-150580Y-280820D01*
X-148940Y-281440D01*
X-140900Y-281640D01*
X-140900Y-294500D01*
X-148120Y-294500D01*
X-149540Y-294940D01*
X-150420Y-295300D01*
X-86519Y-295300D01*
X-86519Y-335180D01*
X-126620Y-335180D01*
X-126620Y-295300D01*
X-150420Y-295300D01*
X-151120Y-295580D01*
X-152840Y-297160D01*
X-153940Y-299360D01*
X-154460Y-301620D01*
X-153940Y-304120D01*
X-153040Y-305900D01*
X-151520Y-307360D01*
X-149840Y-308220D01*
X-147740Y-308780D01*
X-140900Y-308780D01*
X-140900Y-321640D01*
X-149140Y-321820D01*
X-151700Y-323180D01*
X-153000Y-324480D01*
X-153860Y-326140D01*
X-154240Y-327340D01*
X-154500Y-335280D01*
X-162820Y-335480D01*
X-165140Y-336620D01*
X-166500Y-337960D01*
X-167280Y-339500D01*
X-167880Y-341220D01*
X-167880Y-357100D01*
X-167160Y-359080D01*
X-166140Y-360700D01*
X-164860Y-361780D01*
X-163400Y-362520D01*
X-161119Y-362939D01*
X-158660Y-362700D01*
X-157200Y-361960D01*
X-155720Y-360980D01*
X-154360Y-359040D01*
X-153760Y-356900D01*
X-153560Y-349460D01*
X-100020Y-349460D01*
X-100120Y-362260D01*
X-113020Y-362260D01*
X-113120Y-349460D01*
X-127200Y-349460D01*
X-127300Y-362260D01*
X-148740Y-362460D01*
X-149940Y-362900D01*
X-151520Y-363720D01*
X-153180Y-365439D01*
X-153860Y-367020D01*
X-154380Y-369000D01*
X-154400Y-389340D01*
X-160640Y-389340D01*
X-163340Y-389920D01*
X-165020Y-390780D01*
X-166540Y-392220D01*
X-167040Y-393220D01*
X-167920Y-395720D01*
X-167740Y-398180D01*
X-167440Y-399340D01*
X-166480Y-400760D01*
X-164820Y-402480D01*
X-163760Y-403020D01*
X-162040Y-403640D01*
X-132500Y-403640D01*
X-131080Y-403180D01*
X-129880Y-402580D01*
X-128400Y-401360D01*
X-127400Y-399920D01*
X-126620Y-397780D01*
X-126620Y-376640D01*
X-113780Y-376640D01*
X-113500Y-398360D01*
X-112300Y-400880D01*
X-110920Y-402239D01*
X-109380Y-403040D01*
X-107660Y-403640D01*
X-105280Y-403640D01*
X-103240Y-402900D01*
X-101380Y-401620D01*
X-100120Y-399560D01*
X-99640Y-398180D01*
X-99360Y-376640D01*
X-86519Y-376640D01*
X-86519Y-384099D01*
X-85920Y-385820D01*
X-85180Y-387260D01*
X-83460Y-388940D01*
X-81860Y-389600D01*
X-79880Y-390140D01*
X-78520Y-390140D01*
X-77100Y-389700D01*
X-75320Y-388860D01*
X-73800Y-387480D01*
X-72640Y-385200D01*
X-72240Y-382500D01*
X-72240Y-376640D01*
X-66000Y-376640D01*
X-63300Y-376079D01*
X-61620Y-375220D01*
X-60300Y-373980D01*
X-59280Y-371980D01*
X-58760Y-370000D01*
X-58740Y-355140D01*
X-59200Y-353740D01*
X-60000Y-351840D01*
X-61700Y-350080D01*
X-62980Y-349420D01*
X-64200Y-348980D01*
X-72140Y-348760D01*
X-72140Y-335880D01*
X-64000Y-335680D01*
X-62020Y-334799D01*
X-59960Y-332819D01*
X-59180Y-331300D01*
X-58740Y-328960D01*
X-58740Y-322280D01*
X-51140Y-322280D01*
X-49720Y-321840D01*
X-48520Y-321220D01*
X-47040Y-320000D01*
X-46040Y-318560D01*
X-45260Y-316440D01*
X-45260Y-314040D01*
X-45860Y-312320D01*
X-46600Y-310860D01*
X-48140Y-309420D01*
X-49920Y-308520D01*
X-52699Y-308020D01*
X-72240Y-308000D01*
X-72240Y-295300D01*
X-66000Y-295300D01*
X-63300Y-294720D01*
X-61620Y-293860D01*
X-60300Y-292620D01*
X-59280Y-290620D01*
X-58760Y-288640D01*
X-58740Y-287280D01*
X-59200Y-285860D01*
X-59840Y-284280D01*
X-61820Y-282160D01*
X-63019Y-281540D01*
X-65000Y-281000D01*
X-72240Y-281000D01*
X-72260Y-260660D01*
X-72780Y-258480D01*
X-73600Y-256880D01*
X-75200Y-255219D01*
X-77300Y-254140D01*
X-81120Y-253980D01*
X-83760Y-255240D01*
X-85140Y-256600D01*
X-85980Y-258280D01*
X-86420Y-259480D01*
X-86620Y-280900D01*
X-99420Y-281000D01*
X-99320Y-254520D01*
X-91199Y-254320D01*
X-88800Y-253200D01*
X-87280Y-251740D01*
X-86359Y-249940D01*
X-85940Y-247640D01*
X-86180Y-245180D01*
X-87100Y-243359D01*
X-88840Y-241620D01*
X-91199Y-240420D01*
X-108460Y-240420D01*
X-110640Y-241480D01*
X-112480Y-243400D01*
X-112899Y-244240D01*
X-113500Y-245980D01*
X-113780Y-267520D01*
X-126519Y-267400D01*
X-126720Y-245780D01*
X-127180Y-244480D01*
X-128059Y-243000D01*
X-129100Y-241880D01*
X-130740Y-240900D01*
X-132060Y-240479D01*
X-140000Y-240219D01*
X-140120Y-227420D01*
X-132900Y-227420D01*
X-131480Y-226980D01*
X-129880Y-226340D01*
X-127760Y-224360D01*
X-127140Y-223160D01*
X-126620Y-221180D01*
X-126620Y-218880D01*
X-127820Y-216220D01*
X-129660Y-214340D01*
X-131680Y-213560D01*
X-133060Y-213180D01*
G37*
G36*
X191580Y-226680D02*
G01*
X189600Y-227079D01*
X187240Y-228320D01*
X185920Y-229620D01*
X185159Y-231119D01*
X184540Y-234160D01*
X184560Y-288240D01*
X185100Y-290520D01*
X186500Y-293060D01*
X187820Y-294040D01*
X189020Y-294660D01*
X191800Y-295240D01*
X193960Y-294840D01*
X195560Y-294200D01*
X197300Y-292620D01*
X198280Y-291040D01*
X198820Y-289040D01*
X198820Y-232680D01*
X198220Y-230960D01*
X197460Y-229500D01*
X195940Y-228060D01*
X194160Y-227160D01*
G37*
G36*
X-52500Y-226680D02*
G01*
X-54480Y-227079D01*
X-56840Y-228320D01*
X-58140Y-229620D01*
X-58920Y-231119D01*
X-59540Y-234160D01*
X-59540Y-247140D01*
X-59100Y-249560D01*
X-58460Y-251140D01*
X-56460Y-253260D01*
X-55420Y-253800D01*
X-53680Y-254400D01*
X-50900Y-254420D01*
X-48820Y-253660D01*
X-47600Y-252620D01*
X-47300Y-252620D01*
X-46000Y-250620D01*
X-45260Y-248560D01*
X-45260Y-232680D01*
X-45860Y-230960D01*
X-46600Y-229500D01*
X-48140Y-228060D01*
X-49920Y-227160D01*
G37*
G36*
X84220Y-240340D02*
G01*
X81380Y-240520D01*
X79260Y-241439D01*
X77480Y-243200D01*
X76600Y-244980D01*
X76200Y-246580D01*
X76200Y-248400D01*
X76940Y-250640D01*
X78040Y-252260D01*
X79460Y-253380D01*
X81260Y-254320D01*
X84620Y-254440D01*
X86900Y-253600D01*
X88980Y-251680D01*
X90060Y-249560D01*
X90480Y-247399D01*
X90040Y-245180D01*
X89200Y-243400D01*
X87320Y-241500D01*
X85420Y-240660D01*
G37*
G36*
X-24320Y-240340D02*
G01*
X-27220Y-240520D01*
X-29380Y-241580D01*
X-31200Y-243520D01*
X-32160Y-245700D01*
X-32160Y-248920D01*
X-31680Y-250340D01*
X-30320Y-252440D01*
X-28600Y-253619D01*
X-26760Y-254420D01*
X-23560Y-254420D01*
X-20640Y-252960D01*
X-19200Y-251340D01*
X-18220Y-249160D01*
X-18200Y-245760D01*
X-19220Y-243520D01*
X-21020Y-241600D01*
X-22919Y-240640D01*
G37*
G36*
X110420Y-253920D02*
G01*
X108180Y-254160D01*
X106380Y-255060D01*
X104520Y-256900D01*
X103480Y-258880D01*
X103480Y-263040D01*
X104520Y-265040D01*
X106320Y-266820D01*
X108120Y-267720D01*
X110300Y-268080D01*
X111820Y-267880D01*
X113400Y-267440D01*
X115000Y-266360D01*
X116440Y-264780D01*
X117020Y-263440D01*
X117460Y-262100D01*
X117460Y-260060D01*
X117040Y-258480D01*
X116199Y-256780D01*
X114280Y-254980D01*
X112400Y-254140D01*
G37*
G36*
X-40400Y-254020D02*
G01*
X-41780Y-254520D01*
X-42980Y-255180D01*
X-44620Y-256900D01*
X-45300Y-258260D01*
X-45700Y-259480D01*
X-45940Y-267400D01*
X-54080Y-267620D01*
X-55320Y-268060D01*
X-56460Y-268780D01*
X-57980Y-270180D01*
X-59220Y-272580D01*
X-59220Y-276540D01*
X-58300Y-278320D01*
X-57460Y-279500D01*
X-56660Y-280220D01*
X-54080Y-281480D01*
X-45940Y-281700D01*
X-45880Y-297780D01*
X-45679Y-303620D01*
X-44360Y-306100D01*
X-43060Y-307400D01*
X-41380Y-308240D01*
X-39400Y-308780D01*
X-24540Y-308780D01*
X-23320Y-308400D01*
X-22280Y-308200D01*
X-20160Y-306720D01*
X-19460Y-305900D01*
X-18360Y-303720D01*
X-18160Y-295400D01*
X-10620Y-295140D01*
X-9200Y-294740D01*
X-7120Y-293620D01*
X-5940Y-292420D01*
X-4680Y-289840D01*
X-4680Y-272580D01*
X-5800Y-270380D01*
X-7060Y-269060D01*
X-8159Y-268260D01*
X-10220Y-267500D01*
X-13000Y-267520D01*
X-14800Y-268140D01*
X-16600Y-269280D01*
X-17420Y-270400D01*
X-18560Y-272580D01*
X-18760Y-280900D01*
X-31660Y-280900D01*
X-31860Y-259080D01*
X-32980Y-256700D01*
X-34040Y-255560D01*
X-35540Y-254600D01*
X-37020Y-254060D01*
G37*
G36*
X163200Y-267500D02*
G01*
X161140Y-268260D01*
X159380Y-269700D01*
X158340Y-271220D01*
X157560Y-273360D01*
X157560Y-289240D01*
X158160Y-290960D01*
X158900Y-292420D01*
X160420Y-293860D01*
X162420Y-294860D01*
X164680Y-295280D01*
X167220Y-294740D01*
X169620Y-293280D01*
X170580Y-292020D01*
X171320Y-290620D01*
X171820Y-287840D01*
X171840Y-274780D01*
X171380Y-272180D01*
X170500Y-270380D01*
X168359Y-268380D01*
X166180Y-267540D01*
G37*
G36*
X98320Y-267500D02*
G01*
X94940Y-267600D01*
X92739Y-268680D01*
X90900Y-270540D01*
X90120Y-272180D01*
X89620Y-274500D01*
X90120Y-276900D01*
X91060Y-278760D01*
X93040Y-280560D01*
X94940Y-281480D01*
X98720Y-281480D01*
X100500Y-280660D01*
X102600Y-278760D01*
X103520Y-276940D01*
X104040Y-274620D01*
X103539Y-272200D01*
X102780Y-270580D01*
X101580Y-269320D01*
X100220Y-268280D01*
G37*
G36*
X-159660Y-281000D02*
G01*
X-162420Y-281160D01*
X-164120Y-281760D01*
X-165820Y-283060D01*
X-167140Y-284780D01*
X-167719Y-286460D01*
X-167940Y-288740D01*
X-167440Y-290620D01*
X-166280Y-292700D01*
X-164660Y-294080D01*
X-163000Y-294860D01*
X-160640Y-295280D01*
X-158260Y-294760D01*
X-156680Y-293940D01*
X-154840Y-292020D01*
X-154060Y-290420D01*
X-153600Y-288000D01*
X-154040Y-285860D01*
X-154820Y-284220D01*
X-156180Y-282620D01*
X-157640Y-281720D01*
G37*
G36*
X1100Y-294500D02*
G01*
X-300Y-294940D01*
X-1900Y-295580D01*
X-3760Y-297320D01*
X-4720Y-298960D01*
X-5200Y-301140D01*
X-5040Y-316820D01*
X-4720Y-317980D01*
X-2920Y-320480D01*
X-1460Y-321500D01*
X680Y-322280D01*
X16860Y-322280D01*
X19540Y-321060D01*
X21060Y-319600D01*
X21960Y-318200D01*
X22620Y-315540D01*
X22620Y-308780D01*
X35420Y-308880D01*
X35480Y-333880D01*
X35640Y-344200D01*
X36680Y-346380D01*
X38580Y-348240D01*
X40380Y-349159D01*
X57640Y-349280D01*
X59220Y-348780D01*
X60420Y-347980D01*
X61940Y-346580D01*
X62480Y-345540D01*
X63080Y-343800D01*
X63080Y-340640D01*
X62600Y-339240D01*
X61840Y-338060D01*
X60420Y-336540D01*
X59240Y-335920D01*
X58040Y-335480D01*
X49700Y-335280D01*
X49700Y-322380D01*
X62600Y-322380D01*
X62800Y-330520D01*
X63420Y-332120D01*
X64660Y-333940D01*
X66660Y-335220D01*
X68520Y-335780D01*
X71240Y-335780D01*
X73900Y-334560D01*
X75440Y-333100D01*
X76360Y-331260D01*
X76820Y-328660D01*
X76680Y-313240D01*
X75740Y-311460D01*
X74400Y-309820D01*
X72860Y-308760D01*
X70740Y-308120D01*
X49700Y-307900D01*
X49480Y-299760D01*
X49140Y-298780D01*
X48620Y-297780D01*
X46520Y-295640D01*
X45720Y-295220D01*
X43160Y-294540D01*
G37*
G36*
X-173939Y-294520D02*
G01*
X-189020Y-294620D01*
X-190600Y-295020D01*
X-193000Y-296560D01*
X-194440Y-298800D01*
X-194880Y-300360D01*
X-194880Y-303420D01*
X-193939Y-305520D01*
X-191980Y-307540D01*
X-190600Y-308260D01*
X-188619Y-308780D01*
X-173380Y-308780D01*
X-171960Y-308340D01*
X-170960Y-307900D01*
X-169320Y-306800D01*
X-168240Y-305380D01*
X-167440Y-303320D01*
X-167420Y-299740D01*
X-168780Y-297200D01*
X-170080Y-295880D01*
X-171759Y-295020D01*
G37*
G36*
X168960Y-308040D02*
G01*
X132440Y-308160D01*
X129280Y-308560D01*
X124320Y-309720D01*
X122720Y-310400D01*
X118600Y-312420D01*
X116060Y-314120D01*
X114660Y-315240D01*
X111460Y-318200D01*
X108340Y-322380D01*
X105620Y-327939D01*
X104400Y-332299D01*
X103980Y-334880D01*
X103715Y-338459D01*
X117560Y-338459D01*
X118420Y-334480D01*
X119060Y-332740D01*
X119700Y-331500D01*
X121800Y-328340D01*
X124560Y-325760D01*
X125700Y-324920D01*
X129080Y-323220D01*
X132640Y-322220D01*
X133640Y-322020D01*
X168160Y-321920D01*
X171400Y-322640D01*
X173240Y-323280D01*
X174920Y-324099D01*
X178080Y-326220D01*
X180920Y-329120D01*
X182800Y-331880D01*
X183700Y-333880D01*
X184400Y-335880D01*
X184800Y-337660D01*
X184960Y-373180D01*
X184480Y-375560D01*
X183540Y-378459D01*
X182560Y-380400D01*
X181660Y-381719D01*
X179880Y-384000D01*
X177000Y-386380D01*
X173920Y-387920D01*
X171540Y-388800D01*
X169560Y-389219D01*
X134040Y-389380D01*
X131860Y-388900D01*
X129620Y-388200D01*
X127100Y-386920D01*
X124320Y-385020D01*
X121540Y-382040D01*
X120500Y-380720D01*
X118820Y-377380D01*
X118000Y-374960D01*
X117600Y-372780D01*
X117560Y-338459D01*
X103715Y-338459D01*
X103539Y-340840D01*
X103740Y-374760D01*
X104140Y-378340D01*
X104920Y-381700D01*
X105600Y-383700D01*
X107340Y-387400D01*
X108820Y-389840D01*
X111220Y-393020D01*
X113800Y-395600D01*
X117080Y-398160D01*
X121620Y-400660D01*
X125500Y-402020D01*
X127680Y-402660D01*
X130860Y-403140D01*
X171540Y-403100D01*
X174320Y-402680D01*
X177300Y-401900D01*
X179700Y-401100D01*
X183039Y-399420D01*
X185440Y-398000D01*
X190080Y-394280D01*
X192560Y-391260D01*
X193440Y-390040D01*
X195600Y-386480D01*
X197420Y-381900D01*
X198380Y-377939D01*
X198860Y-374159D01*
X198680Y-334880D01*
X198280Y-332100D01*
X197800Y-330520D01*
X197500Y-329120D01*
X196400Y-326340D01*
X195159Y-323760D01*
X192480Y-319800D01*
X190159Y-317020D01*
X187220Y-314500D01*
X183440Y-311960D01*
X180080Y-310340D01*
X176100Y-309020D01*
X173720Y-308540D01*
G37*
G36*
X-106480Y-308040D02*
G01*
X-108859Y-308440D01*
X-110640Y-309340D01*
X-112460Y-311200D01*
X-113420Y-313060D01*
X-113560Y-316840D01*
X-112560Y-319100D01*
X-110740Y-321019D01*
X-109060Y-321860D01*
X-107460Y-322280D01*
X-105440Y-322280D01*
X-104100Y-321840D01*
X-102760Y-321240D01*
X-101180Y-319820D01*
X-100100Y-318200D01*
X-99560Y-316620D01*
X-99580Y-313400D01*
X-100700Y-311140D01*
X-102500Y-309340D01*
X-104100Y-308520D01*
G37*
G36*
X-11220Y-321719D02*
G01*
X-27100Y-321800D01*
X-29280Y-322840D01*
X-31120Y-324760D01*
X-31600Y-325700D01*
X-32040Y-326940D01*
X-32260Y-335280D01*
X-40780Y-335500D01*
X-41780Y-335840D01*
X-42779Y-336440D01*
X-44500Y-338060D01*
X-45439Y-339880D01*
X-45880Y-342480D01*
X-45740Y-357700D01*
X-44700Y-359880D01*
X-42880Y-361700D01*
X-40599Y-362819D01*
X-32460Y-363000D01*
X-32160Y-363459D01*
X-32160Y-371000D01*
X-31380Y-373160D01*
X-30080Y-374540D01*
X-29280Y-375260D01*
X-28280Y-375820D01*
X-26300Y-376520D01*
X-18760Y-376740D01*
X-18760Y-389260D01*
X-31660Y-389260D01*
X-31880Y-381120D01*
X-32220Y-380140D01*
X-32740Y-379140D01*
X-34840Y-377000D01*
X-35620Y-376580D01*
X-38400Y-375860D01*
X-52900Y-375860D01*
X-55180Y-376420D01*
X-57360Y-377860D01*
X-58300Y-379140D01*
X-59020Y-380520D01*
X-59480Y-383180D01*
X-58980Y-385480D01*
X-58680Y-386280D01*
X-57859Y-387460D01*
X-56860Y-388600D01*
X-54880Y-389600D01*
X-53680Y-390020D01*
X-45940Y-390240D01*
X-45700Y-398380D01*
X-44300Y-401160D01*
X-43179Y-402180D01*
X-42180Y-402780D01*
X-39760Y-403640D01*
X-10420Y-403640D01*
X-8700Y-403040D01*
X-7260Y-402280D01*
X-5800Y-400760D01*
X-5000Y-399140D01*
X-4560Y-396599D01*
X-4480Y-376740D01*
X8320Y-376640D01*
X8320Y-397360D01*
X9400Y-400360D01*
X11399Y-402480D01*
X12600Y-403100D01*
X14580Y-403640D01*
X16860Y-403640D01*
X19540Y-402420D01*
X21060Y-400959D01*
X21960Y-399560D01*
X22620Y-396900D01*
X22620Y-376640D01*
X35520Y-376640D01*
X35500Y-395880D01*
X35760Y-398579D01*
X37060Y-401160D01*
X38180Y-402180D01*
X39180Y-402780D01*
X41600Y-403640D01*
X44020Y-403640D01*
X46120Y-402760D01*
X47720Y-401560D01*
X48220Y-400959D01*
X49500Y-398579D01*
X49700Y-390240D01*
X62600Y-390240D01*
X62800Y-398380D01*
X63420Y-400020D01*
X64880Y-401800D01*
X66400Y-402860D01*
X68540Y-403640D01*
X70940Y-403640D01*
X72660Y-403040D01*
X74100Y-402280D01*
X75560Y-400760D01*
X76360Y-399140D01*
X76820Y-396520D01*
X76680Y-381120D01*
X75300Y-378540D01*
X74000Y-377239D01*
X72340Y-376400D01*
X71120Y-376000D01*
X63200Y-375760D01*
X63000Y-367420D01*
X61860Y-365100D01*
X60500Y-363760D01*
X58960Y-362960D01*
X57240Y-362360D01*
X9120Y-362360D01*
X9100Y-342020D01*
X8580Y-339840D01*
X7760Y-338240D01*
X6160Y-336580D01*
X4060Y-335480D01*
X-3680Y-335360D01*
X-4520Y-335180D01*
X-4700Y-326740D01*
X-5740Y-324700D01*
X-7480Y-322980D01*
X-9440Y-322000D01*
G37*
G36*
X171140Y-335180D02*
G01*
X131060Y-335280D01*
X131060Y-376160D01*
X170940Y-376260D01*
X171840Y-376040D01*
X171840Y-335600D01*
G37*
G36*
X81500Y-335379D02*
G01*
X78960Y-336599D01*
X77580Y-337960D01*
X76740Y-339640D01*
X76300Y-340840D01*
X76100Y-348760D01*
X67960Y-348980D01*
X66620Y-349440D01*
X64760Y-350640D01*
X63940Y-351760D01*
X62820Y-353920D01*
X62660Y-357320D01*
X63900Y-360080D01*
X65380Y-361599D01*
X66960Y-362420D01*
X68160Y-362819D01*
X76100Y-363060D01*
X76300Y-371000D01*
X76740Y-372200D01*
X77540Y-373780D01*
X79060Y-375220D01*
X81140Y-376260D01*
X83520Y-376580D01*
X85860Y-376100D01*
X88260Y-374640D01*
X89220Y-373380D01*
X89960Y-371980D01*
X90460Y-369200D01*
X90460Y-342020D01*
X89940Y-339840D01*
X89120Y-338240D01*
X87520Y-336580D01*
X85820Y-335720D01*
X84820Y-335400D01*
G37*
G36*
X-175500Y-362360D02*
G01*
X-176920Y-362819D01*
X-177900Y-363240D01*
X-179540Y-364560D01*
X-180600Y-366079D01*
X-181380Y-368220D01*
X-181380Y-384480D01*
X-180479Y-386780D01*
X-178299Y-389000D01*
X-176800Y-389760D01*
X-173680Y-390220D01*
X-171960Y-389700D01*
X-170960Y-389260D01*
X-169320Y-388160D01*
X-168240Y-386740D01*
X-167399Y-384680D01*
X-167399Y-368020D01*
X-167960Y-366240D01*
X-168780Y-365040D01*
X-169780Y-363920D01*
X-170960Y-363260D01*
X-173140Y-362400D01*
G37*
G36*
X-65800Y-389400D02*
G01*
X-68180Y-389799D01*
X-70100Y-390760D01*
X-71800Y-392500D01*
X-72600Y-394219D01*
X-73100Y-396540D01*
X-72600Y-398940D01*
X-71680Y-400760D01*
X-69740Y-402600D01*
X-68380Y-403220D01*
X-66780Y-403640D01*
X-64800Y-403640D01*
X-62939Y-403060D01*
X-62040Y-402600D01*
X-60100Y-400760D01*
X-59180Y-398940D01*
X-58680Y-396540D01*
X-59200Y-394219D01*
X-60020Y-392420D01*
X-61680Y-390760D01*
X-63400Y-389880D01*
G37*
M02*
