G04 Layer: InnerLayer1*
G04 EasyEDA v6.5.50, 2025-05-29 20:10:11*
G04 51d2a156a5c9454999fc887beed5754f,29d699c3718f4358a2dc827e738e4458,10*
G04 Gerber Generator version 0.2*
G04 Scale: 100 percent, Rotated: No, Reflected: No *
G04 Dimensions in inches *
G04 leading zeros omitted , absolute positions ,3 integer and 6 decimal *
%FSLAX36Y36*%
%MOIN*%

%ADD10O,0.047244X0.070866*%
%ADD11O,0.047244X0.07873999999999999*%
%ADD12C,0.0600*%
%ADD13R,0.0600X0.0600*%
%ADD14C,0.0240*%
%ADD15C,0.0138*%
%ADD16C,0.0116*%

%LPD*%
G36*
X-355920Y-1302140D02*
G01*
X-357380Y-1301879D01*
X-358660Y-1301080D01*
X-359540Y-1299860D01*
X-359920Y-1298420D01*
X-360160Y-1294640D01*
X-361240Y-1289379D01*
X-363000Y-1284300D01*
X-365420Y-1279520D01*
X-368459Y-1275080D01*
X-372060Y-1271100D01*
X-376160Y-1267640D01*
X-380680Y-1264760D01*
X-385560Y-1262500D01*
X-390680Y-1260900D01*
X-395980Y-1260000D01*
X-401340Y-1259820D01*
X-406680Y-1260360D01*
X-411900Y-1261620D01*
X-416920Y-1263540D01*
X-421620Y-1266120D01*
X-425940Y-1269300D01*
X-429799Y-1273040D01*
X-432660Y-1276660D01*
X-433920Y-1277700D01*
X-435480Y-1278160D01*
X-437120Y-1277960D01*
X-438519Y-1277100D01*
X-439460Y-1275780D01*
X-439799Y-1274180D01*
X-439799Y-1225820D01*
X-439460Y-1224220D01*
X-438519Y-1222880D01*
X-437120Y-1222040D01*
X-435480Y-1221840D01*
X-433920Y-1222300D01*
X-432660Y-1223340D01*
X-429799Y-1226960D01*
X-425940Y-1230700D01*
X-421620Y-1233880D01*
X-416920Y-1236460D01*
X-411900Y-1238380D01*
X-406680Y-1239620D01*
X-401340Y-1240160D01*
X-395980Y-1239980D01*
X-390680Y-1239100D01*
X-385560Y-1237500D01*
X-380680Y-1235240D01*
X-376160Y-1232360D01*
X-372060Y-1228880D01*
X-368459Y-1224900D01*
X-365420Y-1220480D01*
X-363000Y-1215680D01*
X-361240Y-1210620D01*
X-360160Y-1205360D01*
X-359799Y-1200000D01*
X-360160Y-1194640D01*
X-361240Y-1189380D01*
X-363000Y-1184300D01*
X-365420Y-1179520D01*
X-368459Y-1175080D01*
X-372060Y-1171100D01*
X-376160Y-1167640D01*
X-380680Y-1164760D01*
X-385560Y-1162500D01*
X-390680Y-1160900D01*
X-395980Y-1160000D01*
X-401340Y-1159820D01*
X-406680Y-1160360D01*
X-411900Y-1161620D01*
X-416920Y-1163540D01*
X-421620Y-1166120D01*
X-425940Y-1169300D01*
X-429799Y-1173040D01*
X-432660Y-1176660D01*
X-433920Y-1177700D01*
X-435480Y-1178160D01*
X-437120Y-1177960D01*
X-438519Y-1177100D01*
X-439460Y-1175780D01*
X-439799Y-1174180D01*
X-439799Y-1125820D01*
X-439460Y-1124220D01*
X-438519Y-1122880D01*
X-437120Y-1122040D01*
X-435480Y-1121840D01*
X-433920Y-1122300D01*
X-432660Y-1123340D01*
X-429799Y-1126960D01*
X-425940Y-1130700D01*
X-421620Y-1133880D01*
X-416920Y-1136460D01*
X-411900Y-1138380D01*
X-406680Y-1139620D01*
X-401340Y-1140160D01*
X-395980Y-1139980D01*
X-390680Y-1139100D01*
X-385560Y-1137500D01*
X-380680Y-1135240D01*
X-376160Y-1132360D01*
X-372060Y-1128880D01*
X-368459Y-1124900D01*
X-365420Y-1120480D01*
X-363000Y-1115680D01*
X-361240Y-1110620D01*
X-360160Y-1105360D01*
X-359799Y-1100000D01*
X-360160Y-1094640D01*
X-361240Y-1089380D01*
X-363000Y-1084300D01*
X-365420Y-1079520D01*
X-368459Y-1075080D01*
X-372060Y-1071100D01*
X-376160Y-1067640D01*
X-380680Y-1064760D01*
X-385560Y-1062500D01*
X-390680Y-1060900D01*
X-395980Y-1060000D01*
X-401340Y-1059820D01*
X-406680Y-1060360D01*
X-411900Y-1061620D01*
X-416920Y-1063540D01*
X-421620Y-1066120D01*
X-425940Y-1069300D01*
X-429799Y-1073040D01*
X-432660Y-1076660D01*
X-433920Y-1077700D01*
X-435480Y-1078160D01*
X-437120Y-1077960D01*
X-438519Y-1077100D01*
X-439460Y-1075780D01*
X-439799Y-1074180D01*
X-439799Y-1025819D01*
X-439460Y-1024220D01*
X-438519Y-1022880D01*
X-437120Y-1022039D01*
X-435480Y-1021840D01*
X-433920Y-1022300D01*
X-432660Y-1023340D01*
X-429799Y-1026960D01*
X-425940Y-1030699D01*
X-421620Y-1033880D01*
X-416920Y-1036460D01*
X-411900Y-1038379D01*
X-406680Y-1039620D01*
X-401340Y-1040160D01*
X-395980Y-1039980D01*
X-390680Y-1039100D01*
X-385560Y-1037500D01*
X-380680Y-1035240D01*
X-376160Y-1032360D01*
X-372060Y-1028880D01*
X-368459Y-1024900D01*
X-365420Y-1020480D01*
X-363000Y-1015680D01*
X-361240Y-1010620D01*
X-360160Y-1005360D01*
X-359799Y-1000000D01*
X-360160Y-994640D01*
X-361240Y-989380D01*
X-363000Y-984300D01*
X-365420Y-979520D01*
X-368459Y-975080D01*
X-372060Y-971100D01*
X-376160Y-967640D01*
X-380680Y-964760D01*
X-385560Y-962500D01*
X-390680Y-960900D01*
X-395980Y-960000D01*
X-401340Y-959820D01*
X-406680Y-960360D01*
X-411900Y-961620D01*
X-416920Y-963540D01*
X-421620Y-966120D01*
X-425940Y-969300D01*
X-429799Y-973040D01*
X-432660Y-976660D01*
X-433920Y-977700D01*
X-435480Y-978160D01*
X-437120Y-977960D01*
X-438519Y-977099D01*
X-439460Y-975780D01*
X-439799Y-974180D01*
X-439799Y-925819D01*
X-439460Y-924220D01*
X-438519Y-922880D01*
X-437120Y-922039D01*
X-435480Y-921840D01*
X-433920Y-922300D01*
X-432660Y-923340D01*
X-429799Y-926960D01*
X-425940Y-930699D01*
X-421620Y-933880D01*
X-416920Y-936460D01*
X-411900Y-938379D01*
X-406680Y-939620D01*
X-401340Y-940160D01*
X-395980Y-939980D01*
X-390680Y-939100D01*
X-385560Y-937500D01*
X-380680Y-935240D01*
X-376160Y-932360D01*
X-372060Y-928880D01*
X-368459Y-924900D01*
X-365420Y-920480D01*
X-363000Y-915680D01*
X-361240Y-910620D01*
X-360160Y-905360D01*
X-359799Y-900000D01*
X-360160Y-894640D01*
X-361240Y-889380D01*
X-363000Y-884300D01*
X-365420Y-879520D01*
X-368459Y-875080D01*
X-372060Y-871100D01*
X-376160Y-867640D01*
X-380680Y-864760D01*
X-385560Y-862500D01*
X-390680Y-860900D01*
X-395980Y-860000D01*
X-401340Y-859820D01*
X-406680Y-860360D01*
X-411900Y-861620D01*
X-416920Y-863540D01*
X-421620Y-866120D01*
X-425940Y-869300D01*
X-429799Y-873040D01*
X-432660Y-876660D01*
X-433920Y-877700D01*
X-435480Y-878160D01*
X-437120Y-877960D01*
X-438519Y-877099D01*
X-439460Y-875780D01*
X-439799Y-874180D01*
X-439799Y-825819D01*
X-439460Y-824220D01*
X-438519Y-822880D01*
X-437120Y-822039D01*
X-435480Y-821840D01*
X-433920Y-822300D01*
X-432660Y-823340D01*
X-429799Y-826960D01*
X-425940Y-830699D01*
X-421620Y-833880D01*
X-416920Y-836460D01*
X-411900Y-838379D01*
X-406680Y-839620D01*
X-401340Y-840160D01*
X-395980Y-839980D01*
X-390680Y-839100D01*
X-385560Y-837500D01*
X-380680Y-835240D01*
X-376160Y-832360D01*
X-372060Y-828880D01*
X-368459Y-824900D01*
X-365420Y-820480D01*
X-363000Y-815680D01*
X-361240Y-810620D01*
X-360160Y-805360D01*
X-359799Y-800000D01*
X-360160Y-794640D01*
X-361240Y-789380D01*
X-363000Y-784300D01*
X-365420Y-779520D01*
X-368459Y-775080D01*
X-372060Y-771100D01*
X-376160Y-767640D01*
X-380680Y-764760D01*
X-385560Y-762500D01*
X-390680Y-760900D01*
X-395980Y-760000D01*
X-401340Y-759820D01*
X-406680Y-760360D01*
X-411900Y-761620D01*
X-416920Y-763540D01*
X-421620Y-766120D01*
X-425940Y-769300D01*
X-429799Y-773040D01*
X-432660Y-776660D01*
X-433920Y-777700D01*
X-435480Y-778160D01*
X-437120Y-777940D01*
X-438519Y-777099D01*
X-439460Y-775780D01*
X-439799Y-774180D01*
X-439799Y-725819D01*
X-439460Y-724220D01*
X-438519Y-722880D01*
X-437120Y-722039D01*
X-435480Y-721840D01*
X-433920Y-722300D01*
X-432660Y-723340D01*
X-429799Y-726960D01*
X-425940Y-730699D01*
X-421620Y-733880D01*
X-416920Y-736460D01*
X-411900Y-738379D01*
X-406680Y-739620D01*
X-401340Y-740160D01*
X-395980Y-739980D01*
X-390680Y-739100D01*
X-385560Y-737500D01*
X-380680Y-735240D01*
X-376160Y-732360D01*
X-372060Y-728880D01*
X-368459Y-724900D01*
X-365420Y-720480D01*
X-363000Y-715680D01*
X-361240Y-710620D01*
X-360160Y-705360D01*
X-359799Y-700000D01*
X-360160Y-694640D01*
X-361240Y-689380D01*
X-363000Y-684300D01*
X-365420Y-679520D01*
X-368459Y-675080D01*
X-372060Y-671100D01*
X-376160Y-667640D01*
X-380680Y-664760D01*
X-385560Y-662500D01*
X-390680Y-660900D01*
X-395980Y-660000D01*
X-401340Y-659820D01*
X-406680Y-660360D01*
X-411900Y-661620D01*
X-416920Y-663540D01*
X-421620Y-666120D01*
X-425940Y-669300D01*
X-429799Y-673040D01*
X-432660Y-676640D01*
X-433920Y-677700D01*
X-435480Y-678160D01*
X-437120Y-677940D01*
X-438519Y-677099D01*
X-439460Y-675780D01*
X-439799Y-674160D01*
X-439799Y-625820D01*
X-439460Y-624220D01*
X-438519Y-622880D01*
X-437120Y-622040D01*
X-435480Y-621840D01*
X-433920Y-622300D01*
X-432660Y-623340D01*
X-429799Y-626960D01*
X-425940Y-630700D01*
X-421620Y-633880D01*
X-416920Y-636460D01*
X-411900Y-638380D01*
X-406680Y-639620D01*
X-401340Y-640160D01*
X-395980Y-639980D01*
X-390680Y-639100D01*
X-385560Y-637500D01*
X-380680Y-635240D01*
X-376160Y-632360D01*
X-372060Y-628880D01*
X-368459Y-624900D01*
X-365420Y-620480D01*
X-363000Y-615680D01*
X-361240Y-610620D01*
X-360160Y-605360D01*
X-359799Y-600000D01*
X-360160Y-594640D01*
X-361240Y-589380D01*
X-363000Y-584300D01*
X-365420Y-579520D01*
X-368459Y-575080D01*
X-372060Y-571100D01*
X-376160Y-567640D01*
X-380680Y-564760D01*
X-385560Y-562500D01*
X-390680Y-560900D01*
X-395980Y-560000D01*
X-401340Y-559820D01*
X-406680Y-560360D01*
X-411900Y-561620D01*
X-416920Y-563540D01*
X-421620Y-566120D01*
X-425940Y-569300D01*
X-429799Y-573040D01*
X-432660Y-576640D01*
X-433920Y-577700D01*
X-435480Y-578160D01*
X-437120Y-577940D01*
X-438519Y-577100D01*
X-439460Y-575780D01*
X-439799Y-574160D01*
X-439799Y-525820D01*
X-439460Y-524219D01*
X-438519Y-522879D01*
X-437120Y-522040D01*
X-435480Y-521840D01*
X-433920Y-522299D01*
X-432660Y-523340D01*
X-429799Y-526960D01*
X-425940Y-530700D01*
X-421620Y-533880D01*
X-416920Y-536460D01*
X-411900Y-538380D01*
X-406680Y-539620D01*
X-401340Y-540160D01*
X-395980Y-539980D01*
X-390680Y-539100D01*
X-385560Y-537500D01*
X-380680Y-535240D01*
X-376160Y-532360D01*
X-372060Y-528880D01*
X-368459Y-524900D01*
X-365420Y-520480D01*
X-363000Y-515680D01*
X-361240Y-510620D01*
X-360160Y-505360D01*
X-359799Y-500000D01*
X-360160Y-494640D01*
X-361240Y-489380D01*
X-363000Y-484300D01*
X-365420Y-479520D01*
X-368459Y-475080D01*
X-372060Y-471100D01*
X-376160Y-467640D01*
X-380680Y-464760D01*
X-385560Y-462500D01*
X-390680Y-460900D01*
X-395980Y-460000D01*
X-401340Y-459820D01*
X-406680Y-460360D01*
X-411900Y-461620D01*
X-416920Y-463540D01*
X-421620Y-466120D01*
X-425940Y-469300D01*
X-429799Y-473040D01*
X-432660Y-476640D01*
X-433920Y-477700D01*
X-435480Y-478160D01*
X-437120Y-477939D01*
X-438519Y-477100D01*
X-439460Y-475780D01*
X-439799Y-474159D01*
X-439799Y-425820D01*
X-439460Y-424219D01*
X-438519Y-422879D01*
X-437120Y-422040D01*
X-435480Y-421840D01*
X-433920Y-422299D01*
X-432660Y-423340D01*
X-429799Y-426960D01*
X-425940Y-430700D01*
X-421620Y-433880D01*
X-416920Y-436460D01*
X-411900Y-438380D01*
X-406680Y-439620D01*
X-401340Y-440160D01*
X-395980Y-439980D01*
X-390680Y-439099D01*
X-385560Y-437500D01*
X-380680Y-435240D01*
X-376160Y-432360D01*
X-372060Y-428880D01*
X-368459Y-424900D01*
X-365420Y-420480D01*
X-363000Y-415680D01*
X-361240Y-410620D01*
X-360160Y-405360D01*
X-359799Y-400000D01*
X-360160Y-394640D01*
X-361240Y-389380D01*
X-363000Y-384300D01*
X-365420Y-379520D01*
X-368459Y-375080D01*
X-372060Y-371100D01*
X-376160Y-367640D01*
X-380680Y-364760D01*
X-385560Y-362500D01*
X-390680Y-360900D01*
X-395980Y-360000D01*
X-401340Y-359820D01*
X-406680Y-360360D01*
X-411900Y-361620D01*
X-416920Y-363540D01*
X-421620Y-366120D01*
X-425940Y-369300D01*
X-429799Y-373040D01*
X-432660Y-376640D01*
X-433920Y-377700D01*
X-435480Y-378160D01*
X-437120Y-377939D01*
X-438519Y-377100D01*
X-439460Y-375780D01*
X-439799Y-374159D01*
X-439799Y-325820D01*
X-439460Y-324219D01*
X-438519Y-322879D01*
X-437120Y-322040D01*
X-435480Y-321840D01*
X-433920Y-322299D01*
X-432660Y-323340D01*
X-429799Y-326960D01*
X-425940Y-330700D01*
X-421620Y-333880D01*
X-416920Y-336460D01*
X-411900Y-338380D01*
X-406680Y-339620D01*
X-401340Y-340160D01*
X-395980Y-339980D01*
X-390680Y-339099D01*
X-385560Y-337500D01*
X-380680Y-335240D01*
X-376160Y-332360D01*
X-372060Y-328880D01*
X-368459Y-324900D01*
X-365420Y-320480D01*
X-363000Y-315680D01*
X-361240Y-310620D01*
X-360160Y-305360D01*
X-359799Y-300000D01*
X-360160Y-294640D01*
X-361240Y-289380D01*
X-363000Y-284300D01*
X-365420Y-279520D01*
X-368459Y-275080D01*
X-372060Y-271100D01*
X-376160Y-267640D01*
X-380680Y-264760D01*
X-385560Y-262500D01*
X-390680Y-260900D01*
X-395980Y-260000D01*
X-401340Y-259820D01*
X-406680Y-260360D01*
X-411900Y-261620D01*
X-416920Y-263540D01*
X-421620Y-266120D01*
X-425940Y-269300D01*
X-429799Y-273040D01*
X-432660Y-276640D01*
X-433920Y-277700D01*
X-435480Y-278160D01*
X-437120Y-277940D01*
X-438519Y-277100D01*
X-439460Y-275780D01*
X-439799Y-274160D01*
X-439799Y-225820D01*
X-439460Y-224220D01*
X-438519Y-222900D01*
X-437120Y-222040D01*
X-435480Y-221840D01*
X-433920Y-222300D01*
X-432660Y-223340D01*
X-429799Y-226960D01*
X-425940Y-230700D01*
X-421620Y-233880D01*
X-416920Y-236460D01*
X-411900Y-238380D01*
X-406680Y-239640D01*
X-401340Y-240159D01*
X-395980Y-239980D01*
X-390680Y-239100D01*
X-385560Y-237500D01*
X-380680Y-235240D01*
X-376160Y-232360D01*
X-372060Y-228880D01*
X-368459Y-224899D01*
X-365420Y-220479D01*
X-363000Y-215680D01*
X-361240Y-210620D01*
X-360160Y-205360D01*
X-359799Y-200000D01*
X-360160Y-194640D01*
X-361240Y-189380D01*
X-363000Y-184300D01*
X-365420Y-179520D01*
X-368459Y-175100D01*
X-372060Y-171100D01*
X-376160Y-167640D01*
X-380680Y-164760D01*
X-385560Y-162500D01*
X-390680Y-160900D01*
X-395980Y-160000D01*
X-401340Y-159840D01*
X-406680Y-160360D01*
X-411900Y-161620D01*
X-416920Y-163540D01*
X-421620Y-166119D01*
X-425940Y-169300D01*
X-429799Y-173039D01*
X-432660Y-176640D01*
X-433920Y-177700D01*
X-435480Y-178160D01*
X-437120Y-177940D01*
X-438519Y-177100D01*
X-439460Y-175780D01*
X-439799Y-174180D01*
X-439799Y-125820D01*
X-439460Y-124220D01*
X-438519Y-122899D01*
X-437120Y-122040D01*
X-435480Y-121840D01*
X-433920Y-122300D01*
X-432660Y-123340D01*
X-429799Y-126960D01*
X-425940Y-130700D01*
X-421620Y-133880D01*
X-416920Y-136460D01*
X-411900Y-138380D01*
X-406680Y-139640D01*
X-401340Y-140160D01*
X-395980Y-139980D01*
X-390680Y-139100D01*
X-385560Y-137500D01*
X-380680Y-135240D01*
X-376160Y-132360D01*
X-372060Y-128880D01*
X-368459Y-124900D01*
X-365420Y-120480D01*
X-363000Y-115680D01*
X-361240Y-110620D01*
X-360160Y-105360D01*
X-359799Y-100000D01*
X-360160Y-94640D01*
X-361240Y-89380D01*
X-363000Y-84300D01*
X-365420Y-79520D01*
X-368459Y-75100D01*
X-372060Y-71100D01*
X-376160Y-67640D01*
X-380680Y-64760D01*
X-385560Y-62500D01*
X-390680Y-60900D01*
X-395980Y-60000D01*
X-401340Y-59840D01*
X-406680Y-60359D01*
X-411900Y-61620D01*
X-416920Y-63540D01*
X-421620Y-66120D01*
X-425940Y-69300D01*
X-429799Y-73040D01*
X-432660Y-76640D01*
X-433920Y-77700D01*
X-435480Y-78160D01*
X-437120Y-77940D01*
X-438519Y-77100D01*
X-439460Y-75780D01*
X-439799Y-74180D01*
X-439799Y-25820D01*
X-439460Y-24220D01*
X-438519Y-22900D01*
X-437120Y-22040D01*
X-435480Y-21840D01*
X-433920Y-22300D01*
X-432660Y-23340D01*
X-429799Y-26960D01*
X-425940Y-30700D01*
X-421620Y-33880D01*
X-416920Y-36460D01*
X-411900Y-38380D01*
X-406680Y-39640D01*
X-401340Y-40160D01*
X-395980Y-39980D01*
X-390680Y-39100D01*
X-385560Y-37500D01*
X-380680Y-35240D01*
X-376160Y-32360D01*
X-372060Y-28880D01*
X-368459Y-24900D01*
X-365420Y-20480D01*
X-363000Y-15680D01*
X-361240Y-10620D01*
X-360160Y-5360D01*
X-359799Y0D01*
X-360160Y5360D01*
X-361240Y10620D01*
X-363000Y15700D01*
X-365420Y20480D01*
X-368459Y24900D01*
X-372060Y28900D01*
X-376160Y32360D01*
X-380680Y35240D01*
X-385560Y37500D01*
X-390680Y39100D01*
X-395980Y40000D01*
X-401340Y40160D01*
X-406680Y39640D01*
X-411900Y38380D01*
X-416920Y36460D01*
X-421620Y33880D01*
X-425940Y30700D01*
X-429799Y26960D01*
X-432660Y23360D01*
X-433920Y22300D01*
X-435480Y21840D01*
X-437120Y22060D01*
X-438519Y22900D01*
X-439460Y24220D01*
X-439799Y25820D01*
X-439799Y74180D01*
X-439460Y75780D01*
X-438519Y77100D01*
X-437120Y77960D01*
X-435480Y78160D01*
X-433920Y77700D01*
X-432660Y76660D01*
X-429799Y73040D01*
X-425940Y69300D01*
X-421620Y66120D01*
X-416920Y63540D01*
X-411900Y61620D01*
X-406680Y60359D01*
X-401340Y59840D01*
X-395980Y60020D01*
X-390680Y60900D01*
X-385560Y62500D01*
X-380680Y64760D01*
X-376160Y67640D01*
X-372060Y71120D01*
X-368459Y75100D01*
X-365420Y79520D01*
X-363000Y84320D01*
X-361240Y89380D01*
X-360160Y94640D01*
X-359799Y100000D01*
X-360160Y105360D01*
X-361240Y110620D01*
X-363000Y115700D01*
X-365420Y120480D01*
X-368459Y124900D01*
X-372060Y128900D01*
X-376160Y132360D01*
X-380680Y135240D01*
X-385560Y137500D01*
X-390680Y139100D01*
X-395980Y140000D01*
X-401340Y140160D01*
X-406680Y139640D01*
X-411900Y138380D01*
X-416920Y136460D01*
X-421620Y133880D01*
X-425940Y130700D01*
X-429799Y126960D01*
X-432660Y123360D01*
X-433920Y122300D01*
X-435480Y121840D01*
X-437120Y122060D01*
X-438519Y122899D01*
X-439460Y124220D01*
X-439799Y125820D01*
X-439799Y174180D01*
X-439460Y175780D01*
X-438519Y177100D01*
X-437120Y177960D01*
X-435480Y178160D01*
X-433920Y177700D01*
X-432660Y176660D01*
X-429799Y173039D01*
X-425940Y169300D01*
X-421620Y166119D01*
X-416920Y163540D01*
X-411900Y161620D01*
X-406680Y160360D01*
X-401340Y159840D01*
X-395980Y160020D01*
X-390680Y160900D01*
X-385560Y162500D01*
X-380680Y164760D01*
X-376160Y167640D01*
X-372060Y171100D01*
X-368459Y175100D01*
X-365420Y179520D01*
X-363000Y184300D01*
X-361240Y189380D01*
X-360160Y194640D01*
X-359799Y200000D01*
X-360160Y205360D01*
X-361240Y210620D01*
X-363000Y215700D01*
X-365420Y220479D01*
X-368459Y224899D01*
X-372060Y228900D01*
X-376160Y232360D01*
X-380680Y235240D01*
X-385560Y237500D01*
X-390680Y239100D01*
X-395980Y239980D01*
X-401340Y240159D01*
X-406680Y239640D01*
X-411900Y238380D01*
X-416920Y236460D01*
X-421620Y233880D01*
X-425940Y230700D01*
X-429799Y226960D01*
X-432660Y223340D01*
X-433920Y222300D01*
X-435480Y221840D01*
X-437120Y222040D01*
X-438519Y222900D01*
X-439460Y224220D01*
X-439799Y225820D01*
X-439799Y274180D01*
X-439460Y275780D01*
X-438519Y277100D01*
X-437120Y277960D01*
X-435480Y278160D01*
X-433920Y277700D01*
X-432660Y276660D01*
X-429799Y273040D01*
X-425940Y269300D01*
X-421620Y266120D01*
X-416920Y263540D01*
X-411900Y261620D01*
X-406680Y260360D01*
X-401340Y259840D01*
X-395980Y260000D01*
X-390680Y260900D01*
X-385560Y262500D01*
X-380680Y264760D01*
X-376160Y267640D01*
X-372060Y271100D01*
X-368459Y275100D01*
X-365420Y279520D01*
X-363000Y284300D01*
X-361240Y289380D01*
X-360160Y294640D01*
X-359799Y300000D01*
X-360160Y305360D01*
X-361240Y310620D01*
X-363000Y315680D01*
X-365420Y320480D01*
X-368459Y324900D01*
X-372060Y328880D01*
X-376280Y332420D01*
X-377480Y333620D01*
X-378080Y335220D01*
X-377960Y336920D01*
X-377140Y338420D01*
X-375780Y339440D01*
X-374120Y339799D01*
X-191080Y339799D01*
X-189460Y339460D01*
X-188120Y338480D01*
X-187280Y337060D01*
X-187100Y335420D01*
X-187600Y333840D01*
X-188680Y332600D01*
X-192420Y329799D01*
X-195840Y326380D01*
X-198720Y322520D01*
X-201040Y318280D01*
X-202719Y313760D01*
X-203760Y309060D01*
X-204100Y304100D01*
X-204100Y280760D01*
X-203760Y275820D01*
X-202719Y271100D01*
X-201040Y266580D01*
X-198720Y262340D01*
X-195840Y258480D01*
X-192420Y255060D01*
X-188560Y252180D01*
X-184320Y249860D01*
X-179800Y248180D01*
X-175100Y247160D01*
X-170280Y246820D01*
X-165479Y247160D01*
X-160760Y248180D01*
X-156240Y249860D01*
X-152000Y252180D01*
X-148140Y255060D01*
X-144740Y258480D01*
X-141840Y262340D01*
X-139520Y266580D01*
X-137840Y271100D01*
X-136820Y275820D01*
X-136460Y280760D01*
X-136460Y304100D01*
X-136820Y309060D01*
X-137840Y313760D01*
X-139520Y318280D01*
X-141840Y322520D01*
X-144740Y326380D01*
X-148140Y329799D01*
X-151880Y332600D01*
X-152980Y333840D01*
X-153460Y335420D01*
X-153280Y337060D01*
X-152440Y338480D01*
X-151100Y339460D01*
X-149480Y339799D01*
X149460Y339799D01*
X151080Y339460D01*
X152420Y338480D01*
X153260Y337060D01*
X153440Y335420D01*
X152960Y333840D01*
X151860Y332600D01*
X148120Y329799D01*
X144720Y326380D01*
X141820Y322520D01*
X139500Y318280D01*
X137820Y313760D01*
X136800Y309060D01*
X136440Y304100D01*
X136440Y280760D01*
X136800Y275820D01*
X137820Y271100D01*
X139500Y266580D01*
X141820Y262340D01*
X144720Y258480D01*
X148120Y255060D01*
X151980Y252180D01*
X156220Y249860D01*
X160740Y248180D01*
X165460Y247160D01*
X170260Y246820D01*
X175080Y247160D01*
X179780Y248180D01*
X184300Y249860D01*
X188540Y252180D01*
X192399Y255060D01*
X195820Y258480D01*
X198700Y262340D01*
X201020Y266580D01*
X202700Y271100D01*
X203740Y275820D01*
X204080Y280760D01*
X204080Y304100D01*
X203740Y309060D01*
X202700Y313760D01*
X201020Y318280D01*
X198700Y322520D01*
X195820Y326380D01*
X192399Y329799D01*
X188660Y332600D01*
X187580Y333840D01*
X187079Y335420D01*
X187260Y337060D01*
X188100Y338480D01*
X189440Y339460D01*
X191060Y339799D01*
X374240Y339799D01*
X375860Y339460D01*
X377200Y338480D01*
X378040Y337040D01*
X378220Y335400D01*
X377720Y333820D01*
X376620Y332580D01*
X374060Y330700D01*
X370200Y326960D01*
X366860Y322740D01*
X364120Y318120D01*
X362040Y313180D01*
X360620Y308000D01*
X359900Y302680D01*
X359900Y297320D01*
X360620Y292000D01*
X362040Y286820D01*
X364120Y281880D01*
X366860Y277260D01*
X370200Y273040D01*
X374060Y269300D01*
X378380Y266120D01*
X383080Y263540D01*
X388100Y261620D01*
X393320Y260360D01*
X398660Y259840D01*
X404020Y260000D01*
X409320Y260900D01*
X414440Y262500D01*
X419320Y264760D01*
X423840Y267640D01*
X427939Y271100D01*
X431540Y275100D01*
X432500Y276480D01*
X433720Y277640D01*
X435319Y278200D01*
X436980Y278040D01*
X438440Y277220D01*
X439440Y275860D01*
X439799Y274220D01*
X439799Y242920D01*
X439520Y241439D01*
X438700Y240159D01*
X437460Y239280D01*
X435980Y238920D01*
X434480Y239140D01*
X432260Y239920D01*
X429780Y240200D01*
X417500Y240200D01*
X417500Y217500D01*
X435800Y217500D01*
X437320Y217200D01*
X438620Y216320D01*
X439500Y215040D01*
X439799Y213500D01*
X439799Y186500D01*
X439500Y184960D01*
X438620Y183680D01*
X437320Y182800D01*
X435800Y182500D01*
X417500Y182500D01*
X417500Y159800D01*
X429780Y159800D01*
X432260Y160080D01*
X434480Y160859D01*
X435980Y161080D01*
X437460Y160720D01*
X438700Y159840D01*
X439520Y158560D01*
X439799Y157080D01*
X439799Y125780D01*
X439440Y124120D01*
X438440Y122780D01*
X436980Y121960D01*
X435319Y121800D01*
X433720Y122360D01*
X432500Y123500D01*
X431540Y124900D01*
X427939Y128900D01*
X423840Y132360D01*
X419320Y135240D01*
X414440Y137500D01*
X409320Y139100D01*
X404020Y140000D01*
X398660Y140160D01*
X393320Y139640D01*
X388080Y138380D01*
X383080Y136460D01*
X378380Y133880D01*
X374040Y130700D01*
X370180Y126960D01*
X366860Y122739D01*
X364120Y118120D01*
X362020Y113180D01*
X360620Y108000D01*
X359900Y102680D01*
X359900Y97320D01*
X360620Y92000D01*
X362020Y86820D01*
X364120Y81880D01*
X366860Y77260D01*
X370180Y73040D01*
X374040Y69300D01*
X378380Y66120D01*
X383080Y63540D01*
X388080Y61620D01*
X393320Y60359D01*
X398660Y59840D01*
X404020Y60020D01*
X409320Y60900D01*
X414440Y62500D01*
X419320Y64760D01*
X423840Y67640D01*
X427939Y71120D01*
X431540Y75100D01*
X432500Y76500D01*
X433720Y77640D01*
X435319Y78200D01*
X436980Y78060D01*
X438440Y77220D01*
X439440Y75880D01*
X439799Y74240D01*
X439799Y25780D01*
X439440Y24120D01*
X438440Y22780D01*
X436980Y21960D01*
X435319Y21800D01*
X433720Y22360D01*
X432500Y23500D01*
X431540Y24900D01*
X427939Y28900D01*
X423840Y32360D01*
X419320Y35240D01*
X414440Y37500D01*
X409320Y39100D01*
X404020Y40000D01*
X398660Y40160D01*
X393320Y39640D01*
X388080Y38380D01*
X383080Y36460D01*
X378380Y33880D01*
X374040Y30700D01*
X370180Y26960D01*
X366860Y22740D01*
X364120Y18120D01*
X362020Y13180D01*
X360620Y8000D01*
X359900Y2680D01*
X359900Y-2680D01*
X360620Y-8000D01*
X362020Y-13180D01*
X364120Y-18120D01*
X366860Y-22740D01*
X370180Y-26960D01*
X374040Y-30700D01*
X378380Y-33880D01*
X383080Y-36460D01*
X388080Y-38380D01*
X393320Y-39640D01*
X398660Y-40160D01*
X404020Y-39980D01*
X409320Y-39100D01*
X414440Y-37500D01*
X419320Y-35240D01*
X423840Y-32360D01*
X427939Y-28880D01*
X431540Y-24900D01*
X432500Y-23500D01*
X433720Y-22360D01*
X435319Y-21800D01*
X436980Y-21940D01*
X438440Y-22780D01*
X439440Y-24120D01*
X439799Y-25760D01*
X439799Y-74220D01*
X439440Y-75880D01*
X438440Y-77220D01*
X436980Y-78040D01*
X435319Y-78200D01*
X433720Y-77640D01*
X432500Y-76500D01*
X431540Y-75100D01*
X427939Y-71100D01*
X423840Y-67640D01*
X419320Y-64760D01*
X414440Y-62500D01*
X409320Y-60900D01*
X404020Y-60000D01*
X398660Y-59840D01*
X393320Y-60359D01*
X388080Y-61620D01*
X383080Y-63540D01*
X378380Y-66120D01*
X374040Y-69300D01*
X370180Y-73040D01*
X366860Y-77260D01*
X364120Y-81880D01*
X362020Y-86820D01*
X360620Y-92000D01*
X359900Y-97320D01*
X359900Y-102680D01*
X360620Y-108000D01*
X362020Y-113180D01*
X364120Y-118120D01*
X366860Y-122739D01*
X370180Y-126960D01*
X374040Y-130700D01*
X378380Y-133880D01*
X383080Y-136460D01*
X388080Y-138380D01*
X393320Y-139640D01*
X398660Y-140160D01*
X404020Y-139980D01*
X409320Y-139100D01*
X414440Y-137500D01*
X419320Y-135240D01*
X423840Y-132360D01*
X427939Y-128880D01*
X431540Y-124900D01*
X432500Y-123500D01*
X433720Y-122360D01*
X435319Y-121800D01*
X436980Y-121940D01*
X438440Y-122780D01*
X439440Y-124120D01*
X439799Y-125760D01*
X439799Y-174220D01*
X439440Y-175859D01*
X438440Y-177220D01*
X436980Y-178039D01*
X435319Y-178180D01*
X433720Y-177640D01*
X432500Y-176480D01*
X431540Y-175080D01*
X427939Y-171100D01*
X423840Y-167640D01*
X419320Y-164740D01*
X414440Y-162480D01*
X409320Y-160900D01*
X404020Y-160000D01*
X398660Y-159820D01*
X393320Y-160360D01*
X388100Y-161600D01*
X383080Y-163540D01*
X378380Y-166119D01*
X374060Y-169300D01*
X370200Y-173039D01*
X366860Y-177240D01*
X364120Y-181860D01*
X362040Y-186820D01*
X360620Y-191980D01*
X359900Y-197300D01*
X359900Y-202680D01*
X360620Y-208000D01*
X362040Y-213180D01*
X364120Y-218120D01*
X366860Y-222740D01*
X370200Y-226960D01*
X374060Y-230680D01*
X378380Y-233880D01*
X383080Y-236460D01*
X388100Y-238380D01*
X393320Y-239620D01*
X398660Y-240159D01*
X404020Y-239980D01*
X409320Y-239100D01*
X414440Y-237500D01*
X419320Y-235240D01*
X423840Y-232360D01*
X427939Y-228880D01*
X431540Y-224899D01*
X432500Y-223500D01*
X433720Y-222360D01*
X435319Y-221800D01*
X436980Y-221940D01*
X438440Y-222780D01*
X439440Y-224120D01*
X439799Y-225780D01*
X439799Y-274220D01*
X439440Y-275860D01*
X438440Y-277220D01*
X436980Y-278040D01*
X435319Y-278200D01*
X433720Y-277640D01*
X432500Y-276480D01*
X431540Y-275080D01*
X427939Y-271100D01*
X423840Y-267640D01*
X419320Y-264760D01*
X414440Y-262500D01*
X409320Y-260900D01*
X404020Y-260000D01*
X398660Y-259820D01*
X393320Y-260360D01*
X388100Y-261620D01*
X383080Y-263540D01*
X378380Y-266120D01*
X374060Y-269300D01*
X370200Y-273040D01*
X366860Y-277260D01*
X364120Y-281880D01*
X362040Y-286820D01*
X360620Y-292000D01*
X359900Y-297320D01*
X359900Y-302680D01*
X360620Y-308000D01*
X362040Y-313180D01*
X364120Y-318120D01*
X366860Y-322740D01*
X370200Y-326960D01*
X374060Y-330680D01*
X378380Y-333880D01*
X383080Y-336460D01*
X388100Y-338380D01*
X393320Y-339620D01*
X398660Y-340160D01*
X404020Y-339980D01*
X409320Y-339099D01*
X414440Y-337500D01*
X419320Y-335240D01*
X423840Y-332360D01*
X427939Y-328880D01*
X431540Y-324900D01*
X432500Y-323500D01*
X433720Y-322360D01*
X435319Y-321800D01*
X436980Y-321960D01*
X438440Y-322780D01*
X439440Y-324120D01*
X439799Y-325780D01*
X439799Y-374219D01*
X439440Y-375860D01*
X438440Y-377220D01*
X436980Y-378040D01*
X435319Y-378200D01*
X433720Y-377640D01*
X432500Y-376480D01*
X431540Y-375080D01*
X427939Y-371100D01*
X423840Y-367640D01*
X419320Y-364760D01*
X414440Y-362500D01*
X409320Y-360900D01*
X404020Y-360000D01*
X398660Y-359820D01*
X393320Y-360360D01*
X388100Y-361620D01*
X383080Y-363540D01*
X378380Y-366120D01*
X374060Y-369300D01*
X370200Y-373040D01*
X366860Y-377260D01*
X364120Y-381880D01*
X362040Y-386820D01*
X360620Y-392000D01*
X359900Y-397320D01*
X359900Y-402680D01*
X360620Y-408000D01*
X362040Y-413180D01*
X364120Y-418120D01*
X366860Y-422740D01*
X370200Y-426960D01*
X374060Y-430680D01*
X378380Y-433880D01*
X383080Y-436460D01*
X388100Y-438380D01*
X393320Y-439620D01*
X398660Y-440160D01*
X404020Y-439980D01*
X409320Y-439099D01*
X414440Y-437500D01*
X419320Y-435240D01*
X423840Y-432360D01*
X427939Y-428880D01*
X431540Y-424900D01*
X432500Y-423500D01*
X433720Y-422360D01*
X435319Y-421800D01*
X436980Y-421960D01*
X438440Y-422780D01*
X439440Y-424120D01*
X439799Y-425780D01*
X439799Y-474219D01*
X439440Y-475860D01*
X438440Y-477220D01*
X436980Y-478040D01*
X435319Y-478200D01*
X433720Y-477640D01*
X432500Y-476480D01*
X431540Y-475080D01*
X427939Y-471100D01*
X423840Y-467640D01*
X419320Y-464760D01*
X414440Y-462500D01*
X409320Y-460900D01*
X404020Y-460000D01*
X398660Y-459820D01*
X393320Y-460360D01*
X388100Y-461620D01*
X383080Y-463540D01*
X378380Y-466120D01*
X374060Y-469300D01*
X370200Y-473040D01*
X366860Y-477260D01*
X364120Y-481880D01*
X362040Y-486820D01*
X360620Y-492000D01*
X359900Y-497320D01*
X359900Y-502680D01*
X360620Y-508000D01*
X362040Y-513180D01*
X364120Y-518120D01*
X366860Y-522740D01*
X370200Y-526960D01*
X374060Y-530680D01*
X378380Y-533880D01*
X383080Y-536460D01*
X388100Y-538380D01*
X393320Y-539620D01*
X398660Y-540160D01*
X404020Y-539980D01*
X409320Y-539100D01*
X414440Y-537500D01*
X419320Y-535240D01*
X423840Y-532360D01*
X427939Y-528880D01*
X431540Y-524900D01*
X432500Y-523500D01*
X433720Y-522360D01*
X435319Y-521800D01*
X436980Y-521960D01*
X438440Y-522780D01*
X439440Y-524120D01*
X439799Y-525780D01*
X439799Y-574220D01*
X439440Y-575860D01*
X438440Y-577220D01*
X436980Y-578040D01*
X435319Y-578200D01*
X433720Y-577640D01*
X432500Y-576480D01*
X431540Y-575080D01*
X427939Y-571100D01*
X423840Y-567640D01*
X419320Y-564760D01*
X414440Y-562500D01*
X409320Y-560900D01*
X404020Y-560000D01*
X398660Y-559820D01*
X393320Y-560360D01*
X388100Y-561620D01*
X383080Y-563540D01*
X378380Y-566120D01*
X374060Y-569300D01*
X370200Y-573040D01*
X366860Y-577260D01*
X364120Y-581880D01*
X362040Y-586820D01*
X360620Y-592000D01*
X359900Y-597320D01*
X359900Y-602680D01*
X360620Y-608000D01*
X362040Y-613180D01*
X364120Y-618120D01*
X366860Y-622740D01*
X370200Y-626960D01*
X374060Y-630680D01*
X378380Y-633880D01*
X383080Y-636460D01*
X388100Y-638380D01*
X393320Y-639620D01*
X398660Y-640160D01*
X404020Y-639980D01*
X409320Y-639100D01*
X414440Y-637500D01*
X419320Y-635240D01*
X423840Y-632360D01*
X427939Y-628880D01*
X431540Y-624900D01*
X432500Y-623500D01*
X433720Y-622360D01*
X435319Y-621800D01*
X436980Y-621960D01*
X438440Y-622780D01*
X439440Y-624120D01*
X439799Y-625780D01*
X439799Y-674220D01*
X439440Y-675860D01*
X438440Y-677220D01*
X436980Y-678040D01*
X435319Y-678199D01*
X433720Y-677640D01*
X432500Y-676480D01*
X431540Y-675080D01*
X427939Y-671100D01*
X423840Y-667640D01*
X419320Y-664760D01*
X414440Y-662500D01*
X409320Y-660900D01*
X404020Y-660000D01*
X398660Y-659820D01*
X393320Y-660360D01*
X388100Y-661620D01*
X383080Y-663540D01*
X378380Y-666120D01*
X374060Y-669300D01*
X370200Y-673040D01*
X366860Y-677260D01*
X364120Y-681880D01*
X362040Y-686820D01*
X360620Y-692000D01*
X359900Y-697320D01*
X359900Y-702680D01*
X360620Y-708000D01*
X362040Y-713180D01*
X364120Y-718120D01*
X366860Y-722740D01*
X370200Y-726960D01*
X374060Y-730680D01*
X378380Y-733880D01*
X383080Y-736460D01*
X388100Y-738379D01*
X393320Y-739620D01*
X398660Y-740160D01*
X404020Y-739980D01*
X409320Y-739100D01*
X414440Y-737500D01*
X419320Y-735240D01*
X423840Y-732360D01*
X427939Y-728880D01*
X431540Y-724900D01*
X432500Y-723500D01*
X433720Y-722360D01*
X435319Y-721800D01*
X436980Y-721960D01*
X438440Y-722780D01*
X439440Y-724120D01*
X439799Y-725780D01*
X439799Y-774220D01*
X439440Y-775860D01*
X438440Y-777220D01*
X436980Y-778040D01*
X435319Y-778199D01*
X433720Y-777640D01*
X432500Y-776480D01*
X431540Y-775080D01*
X427939Y-771100D01*
X423840Y-767640D01*
X419320Y-764760D01*
X414440Y-762500D01*
X409320Y-760900D01*
X404020Y-760000D01*
X398660Y-759820D01*
X393320Y-760360D01*
X388100Y-761620D01*
X383080Y-763540D01*
X378380Y-766120D01*
X374060Y-769300D01*
X370200Y-773040D01*
X366860Y-777260D01*
X364120Y-781880D01*
X362040Y-786820D01*
X360620Y-792000D01*
X359900Y-797320D01*
X359900Y-802680D01*
X360620Y-808000D01*
X362040Y-813180D01*
X364120Y-818120D01*
X366860Y-822740D01*
X370200Y-826960D01*
X374060Y-830680D01*
X378380Y-833880D01*
X383080Y-836460D01*
X388100Y-838379D01*
X393320Y-839620D01*
X398660Y-840160D01*
X404020Y-839980D01*
X409320Y-839100D01*
X414440Y-837500D01*
X419320Y-835240D01*
X423840Y-832360D01*
X427939Y-828880D01*
X431540Y-824900D01*
X432500Y-823500D01*
X433720Y-822360D01*
X435319Y-821800D01*
X436980Y-821960D01*
X438440Y-822780D01*
X439440Y-824120D01*
X439799Y-825780D01*
X439799Y-874220D01*
X439440Y-875860D01*
X438440Y-877220D01*
X436980Y-878040D01*
X435319Y-878199D01*
X433720Y-877640D01*
X432500Y-876480D01*
X431540Y-875080D01*
X427939Y-871100D01*
X423840Y-867640D01*
X419320Y-864760D01*
X414440Y-862500D01*
X409320Y-860900D01*
X404020Y-860000D01*
X398660Y-859820D01*
X393320Y-860360D01*
X388100Y-861620D01*
X383080Y-863540D01*
X378380Y-866120D01*
X374060Y-869300D01*
X370200Y-873040D01*
X366860Y-877260D01*
X364120Y-881880D01*
X362040Y-886820D01*
X360620Y-892000D01*
X359900Y-897320D01*
X359900Y-902680D01*
X360620Y-908000D01*
X362040Y-913180D01*
X364120Y-918120D01*
X366860Y-922740D01*
X370200Y-926960D01*
X374060Y-930680D01*
X378380Y-933880D01*
X383080Y-936460D01*
X388100Y-938379D01*
X393320Y-939620D01*
X398660Y-940160D01*
X404020Y-939980D01*
X409320Y-939100D01*
X414440Y-937500D01*
X419320Y-935240D01*
X423840Y-932360D01*
X427939Y-928880D01*
X431540Y-924900D01*
X432500Y-923500D01*
X433720Y-922360D01*
X435319Y-921800D01*
X436980Y-921940D01*
X438440Y-922780D01*
X439440Y-924120D01*
X439799Y-925780D01*
X439799Y-974220D01*
X439440Y-975860D01*
X438440Y-977220D01*
X436980Y-978040D01*
X435319Y-978199D01*
X433720Y-977640D01*
X432500Y-976480D01*
X431540Y-975080D01*
X427939Y-971100D01*
X423840Y-967640D01*
X419320Y-964760D01*
X414440Y-962500D01*
X409320Y-960900D01*
X404020Y-960000D01*
X398660Y-959820D01*
X393320Y-960360D01*
X388100Y-961620D01*
X383080Y-963540D01*
X378380Y-966120D01*
X374060Y-969300D01*
X370200Y-973040D01*
X366860Y-977260D01*
X364120Y-981880D01*
X362040Y-986820D01*
X360620Y-992000D01*
X359900Y-997320D01*
X359900Y-1002680D01*
X360620Y-1008000D01*
X362040Y-1013180D01*
X364120Y-1018120D01*
X366860Y-1022740D01*
X370200Y-1026960D01*
X374060Y-1030680D01*
X378380Y-1033880D01*
X383080Y-1036460D01*
X388100Y-1038379D01*
X393320Y-1039620D01*
X398660Y-1040160D01*
X404020Y-1039980D01*
X409320Y-1039100D01*
X414440Y-1037500D01*
X419320Y-1035240D01*
X423840Y-1032360D01*
X427939Y-1028880D01*
X431540Y-1024900D01*
X432500Y-1023500D01*
X433720Y-1022360D01*
X435319Y-1021800D01*
X436980Y-1021940D01*
X438440Y-1022780D01*
X439440Y-1024120D01*
X439799Y-1025780D01*
X439799Y-1074220D01*
X439440Y-1075860D01*
X438440Y-1077220D01*
X436980Y-1078040D01*
X435319Y-1078200D01*
X433720Y-1077640D01*
X432500Y-1076480D01*
X431540Y-1075080D01*
X427939Y-1071100D01*
X423840Y-1067640D01*
X419320Y-1064760D01*
X414440Y-1062500D01*
X409320Y-1060900D01*
X404020Y-1060000D01*
X398660Y-1059820D01*
X393320Y-1060360D01*
X388100Y-1061620D01*
X383080Y-1063540D01*
X378380Y-1066120D01*
X374060Y-1069300D01*
X370200Y-1073040D01*
X366860Y-1077260D01*
X364120Y-1081880D01*
X362040Y-1086820D01*
X360620Y-1092000D01*
X359900Y-1097320D01*
X359900Y-1102680D01*
X360620Y-1108000D01*
X362040Y-1113180D01*
X364120Y-1118120D01*
X366860Y-1122740D01*
X370200Y-1126960D01*
X374060Y-1130680D01*
X378380Y-1133880D01*
X383080Y-1136460D01*
X388100Y-1138380D01*
X393320Y-1139620D01*
X398660Y-1140160D01*
X404020Y-1139980D01*
X409320Y-1139100D01*
X414440Y-1137500D01*
X419320Y-1135240D01*
X423840Y-1132360D01*
X427939Y-1128880D01*
X431540Y-1124900D01*
X432500Y-1123500D01*
X433720Y-1122360D01*
X435319Y-1121800D01*
X436980Y-1121940D01*
X438440Y-1122780D01*
X439440Y-1124120D01*
X439799Y-1125780D01*
X439799Y-1174220D01*
X439440Y-1175860D01*
X438440Y-1177220D01*
X436980Y-1178040D01*
X435319Y-1178200D01*
X433720Y-1177640D01*
X432500Y-1176480D01*
X431540Y-1175080D01*
X427939Y-1171100D01*
X423840Y-1167640D01*
X419320Y-1164760D01*
X414440Y-1162500D01*
X409320Y-1160900D01*
X404020Y-1160000D01*
X398660Y-1159820D01*
X393320Y-1160360D01*
X388100Y-1161620D01*
X383080Y-1163540D01*
X378380Y-1166120D01*
X374060Y-1169300D01*
X370200Y-1173040D01*
X366860Y-1177260D01*
X364120Y-1181880D01*
X362040Y-1186820D01*
X360620Y-1192000D01*
X359900Y-1197320D01*
X359900Y-1202680D01*
X360620Y-1208000D01*
X362040Y-1213180D01*
X364120Y-1218120D01*
X366860Y-1222740D01*
X370200Y-1226960D01*
X374060Y-1230680D01*
X378380Y-1233880D01*
X383080Y-1236460D01*
X388100Y-1238380D01*
X393320Y-1239620D01*
X398660Y-1240160D01*
X404020Y-1239980D01*
X409320Y-1239100D01*
X414440Y-1237500D01*
X419320Y-1235240D01*
X423840Y-1232360D01*
X427939Y-1228880D01*
X431540Y-1224900D01*
X432500Y-1223500D01*
X433720Y-1222360D01*
X435319Y-1221800D01*
X436980Y-1221940D01*
X438440Y-1222780D01*
X439440Y-1224120D01*
X439799Y-1225780D01*
X439799Y-1274220D01*
X439440Y-1275860D01*
X438440Y-1277220D01*
X436980Y-1278040D01*
X435319Y-1278200D01*
X433720Y-1277640D01*
X432500Y-1276480D01*
X431540Y-1275080D01*
X427939Y-1271100D01*
X423840Y-1267640D01*
X419320Y-1264760D01*
X414440Y-1262500D01*
X409320Y-1260900D01*
X404020Y-1260000D01*
X398660Y-1259820D01*
X393320Y-1260360D01*
X388100Y-1261620D01*
X383080Y-1263540D01*
X378380Y-1266120D01*
X374060Y-1269300D01*
X370200Y-1273040D01*
X366860Y-1277260D01*
X364120Y-1281879D01*
X362040Y-1286819D01*
X360620Y-1292000D01*
X359960Y-1296900D01*
X359520Y-1298240D01*
X358620Y-1299360D01*
X357400Y-1300100D01*
X356000Y-1300360D01*
G37*

%LPC*%
G36*
X220820Y-1187060D02*
G01*
X224020Y-1186600D01*
X227100Y-1185520D01*
X229899Y-1183900D01*
X232360Y-1181780D01*
X234360Y-1179220D01*
X235840Y-1176340D01*
X236759Y-1173240D01*
X237079Y-1170000D01*
X236759Y-1166760D01*
X235840Y-1163660D01*
X234360Y-1160780D01*
X232360Y-1158220D01*
X229899Y-1156100D01*
X227100Y-1154480D01*
X224020Y-1153400D01*
X220820Y-1152940D01*
X217580Y-1153100D01*
X214420Y-1153860D01*
X211460Y-1155220D01*
X208820Y-1157100D01*
X206580Y-1159440D01*
X204820Y-1162180D01*
X203619Y-1165200D01*
X203000Y-1168380D01*
X203000Y-1171620D01*
X203619Y-1174800D01*
X204820Y-1177820D01*
X206580Y-1180560D01*
X208820Y-1182900D01*
X211460Y-1184780D01*
X214420Y-1186140D01*
X217580Y-1186900D01*
G37*
G36*
X-52840Y-1176440D02*
G01*
X-49640Y-1175980D01*
X-46560Y-1174920D01*
X-43760Y-1173300D01*
X-41300Y-1171180D01*
X-39300Y-1168620D01*
X-37820Y-1165740D01*
X-36900Y-1162620D01*
X-36580Y-1159400D01*
X-36900Y-1156160D01*
X-37820Y-1153060D01*
X-39300Y-1150160D01*
X-41300Y-1147620D01*
X-43760Y-1145500D01*
X-46560Y-1143860D01*
X-49640Y-1142800D01*
X-52840Y-1142340D01*
X-56080Y-1142500D01*
X-59240Y-1143260D01*
X-62200Y-1144620D01*
X-64840Y-1146500D01*
X-67080Y-1148840D01*
X-68840Y-1151580D01*
X-70040Y-1154580D01*
X-70660Y-1157780D01*
X-70660Y-1161020D01*
X-70040Y-1164200D01*
X-68840Y-1167220D01*
X-67080Y-1169960D01*
X-64840Y-1172300D01*
X-62200Y-1174180D01*
X-59240Y-1175520D01*
X-56080Y-1176300D01*
G37*
G36*
X97820Y-1164060D02*
G01*
X101020Y-1163600D01*
X104100Y-1162520D01*
X106740Y-1161000D01*
X107920Y-1160560D01*
X109179Y-1160500D01*
X110399Y-1160820D01*
X112520Y-1161800D01*
X115680Y-1162560D01*
X118920Y-1162720D01*
X122140Y-1162260D01*
X125200Y-1161200D01*
X127100Y-1160320D01*
X128379Y-1160260D01*
X129580Y-1160600D01*
X132220Y-1161800D01*
X135360Y-1162560D01*
X138600Y-1162720D01*
X141820Y-1162260D01*
X144880Y-1161200D01*
X146800Y-1160320D01*
X148060Y-1160260D01*
X149280Y-1160600D01*
X151900Y-1161800D01*
X155060Y-1162560D01*
X158300Y-1162720D01*
X161500Y-1162260D01*
X164579Y-1161200D01*
X166480Y-1160320D01*
X167740Y-1160260D01*
X168960Y-1160600D01*
X171580Y-1161800D01*
X174740Y-1162560D01*
X177979Y-1162720D01*
X181180Y-1162260D01*
X184259Y-1161200D01*
X187060Y-1159580D01*
X189520Y-1157440D01*
X191520Y-1154900D01*
X193020Y-1152020D01*
X193920Y-1148900D01*
X194240Y-1145660D01*
X193920Y-1142440D01*
X193020Y-1139320D01*
X191520Y-1136440D01*
X189520Y-1133880D01*
X187060Y-1131760D01*
X184259Y-1130140D01*
X181180Y-1129080D01*
X177979Y-1128620D01*
X174740Y-1128760D01*
X171580Y-1129540D01*
X168960Y-1130740D01*
X167740Y-1131060D01*
X166480Y-1131000D01*
X164579Y-1130140D01*
X161500Y-1129080D01*
X158300Y-1128620D01*
X155060Y-1128760D01*
X151900Y-1129540D01*
X149280Y-1130740D01*
X148060Y-1131060D01*
X146800Y-1131000D01*
X144880Y-1130140D01*
X141820Y-1129080D01*
X138600Y-1128620D01*
X135360Y-1128760D01*
X132220Y-1129540D01*
X129580Y-1130740D01*
X128379Y-1131060D01*
X127100Y-1131000D01*
X125200Y-1130140D01*
X122140Y-1129080D01*
X118920Y-1128620D01*
X115680Y-1128760D01*
X112520Y-1129540D01*
X109580Y-1130880D01*
X108760Y-1131460D01*
X107380Y-1132100D01*
X105860Y-1132160D01*
X101020Y-1130400D01*
X97820Y-1129940D01*
X94580Y-1130100D01*
X91420Y-1130860D01*
X88460Y-1132220D01*
X85820Y-1134100D01*
X83580Y-1136440D01*
X81820Y-1139180D01*
X80620Y-1142200D01*
X80000Y-1145380D01*
X80000Y-1148620D01*
X80620Y-1151800D01*
X81820Y-1154820D01*
X83580Y-1157560D01*
X85820Y-1159900D01*
X88460Y-1161780D01*
X91420Y-1163140D01*
X94580Y-1163900D01*
G37*
G36*
X206820Y-1094060D02*
G01*
X210020Y-1093600D01*
X213100Y-1092520D01*
X215900Y-1090900D01*
X218359Y-1088780D01*
X220360Y-1086220D01*
X221840Y-1083340D01*
X222760Y-1080240D01*
X223080Y-1077000D01*
X222760Y-1073760D01*
X221840Y-1070660D01*
X220360Y-1067780D01*
X218359Y-1065220D01*
X215900Y-1063100D01*
X213100Y-1061480D01*
X210020Y-1060400D01*
X206820Y-1059940D01*
X203580Y-1060100D01*
X200420Y-1060860D01*
X197460Y-1062220D01*
X194820Y-1064100D01*
X192580Y-1066440D01*
X190820Y-1069180D01*
X189620Y-1072200D01*
X189000Y-1075380D01*
X189000Y-1078620D01*
X189620Y-1081800D01*
X190820Y-1084820D01*
X192580Y-1087560D01*
X194820Y-1089900D01*
X197460Y-1091780D01*
X200420Y-1093140D01*
X203580Y-1093900D01*
G37*
G36*
X-184220Y-895000D02*
G01*
X-181020Y-894539D01*
X-177940Y-893480D01*
X-175140Y-891860D01*
X-172680Y-889740D01*
X-170680Y-887180D01*
X-169200Y-884300D01*
X-168280Y-881180D01*
X-167960Y-877960D01*
X-168280Y-874720D01*
X-169200Y-871600D01*
X-170680Y-868720D01*
X-172680Y-866180D01*
X-175140Y-864040D01*
X-178080Y-862340D01*
X-179060Y-861540D01*
X-179740Y-860480D01*
X-180080Y-858980D01*
X-181000Y-855860D01*
X-182480Y-852980D01*
X-184500Y-850420D01*
X-186940Y-848300D01*
X-190180Y-846460D01*
X-191160Y-845660D01*
X-191860Y-844599D01*
X-192240Y-842760D01*
X-193160Y-839659D01*
X-194640Y-836780D01*
X-196640Y-834220D01*
X-199100Y-832099D01*
X-201900Y-830480D01*
X-204980Y-829400D01*
X-206680Y-829160D01*
X-208120Y-828660D01*
X-209259Y-827680D01*
X-209960Y-826340D01*
X-210159Y-825660D01*
X-211640Y-822780D01*
X-213640Y-820220D01*
X-216100Y-818100D01*
X-218900Y-816480D01*
X-221980Y-815400D01*
X-225180Y-814940D01*
X-227340Y-814760D01*
X-228640Y-814000D01*
X-229579Y-812820D01*
X-230640Y-810780D01*
X-232640Y-808220D01*
X-235100Y-806100D01*
X-237900Y-804479D01*
X-240980Y-803400D01*
X-244180Y-802940D01*
X-247420Y-803100D01*
X-250580Y-803860D01*
X-253540Y-805220D01*
X-256180Y-807099D01*
X-258420Y-809440D01*
X-260180Y-812180D01*
X-261380Y-815200D01*
X-262000Y-818379D01*
X-262000Y-821620D01*
X-261380Y-824800D01*
X-260180Y-827820D01*
X-258420Y-830560D01*
X-256180Y-832900D01*
X-253540Y-834780D01*
X-250580Y-836140D01*
X-247420Y-836900D01*
X-244820Y-837020D01*
X-243340Y-837380D01*
X-242100Y-838259D01*
X-239420Y-842560D01*
X-237180Y-844900D01*
X-234540Y-846780D01*
X-231600Y-848120D01*
X-227940Y-848980D01*
X-226759Y-849479D01*
X-225799Y-850300D01*
X-225140Y-851400D01*
X-224180Y-853820D01*
X-222420Y-856560D01*
X-220180Y-858900D01*
X-217540Y-860780D01*
X-216000Y-861480D01*
X-214960Y-862180D01*
X-214180Y-863180D01*
X-213740Y-864360D01*
X-213240Y-867020D01*
X-212020Y-870020D01*
X-210260Y-872760D01*
X-208020Y-875100D01*
X-205380Y-876979D01*
X-204140Y-877560D01*
X-203080Y-878259D01*
X-202300Y-879260D01*
X-201860Y-880440D01*
X-201420Y-882760D01*
X-200219Y-885780D01*
X-198460Y-888500D01*
X-196220Y-890860D01*
X-193580Y-892740D01*
X-190620Y-894080D01*
X-187460Y-894840D01*
G37*
G36*
X124820Y-878060D02*
G01*
X128020Y-877600D01*
X131100Y-876520D01*
X133900Y-874900D01*
X136360Y-872780D01*
X138360Y-870220D01*
X139840Y-867340D01*
X140760Y-864240D01*
X141080Y-861000D01*
X140760Y-857760D01*
X139840Y-854659D01*
X138360Y-851780D01*
X136360Y-849220D01*
X133900Y-847099D01*
X131100Y-845480D01*
X128020Y-844400D01*
X124820Y-843940D01*
X121580Y-844100D01*
X118420Y-844860D01*
X115460Y-846220D01*
X112820Y-848100D01*
X110580Y-850440D01*
X108820Y-853180D01*
X107620Y-856200D01*
X107000Y-859380D01*
X107000Y-862620D01*
X107620Y-865800D01*
X108820Y-868820D01*
X110580Y-871560D01*
X112820Y-873900D01*
X115460Y-875780D01*
X118420Y-877140D01*
X121580Y-877900D01*
G37*
G36*
X79560Y-741460D02*
G01*
X82760Y-741000D01*
X85840Y-739940D01*
X88640Y-738319D01*
X91100Y-736180D01*
X93100Y-733640D01*
X94580Y-730759D01*
X95500Y-727640D01*
X95820Y-724400D01*
X95500Y-721180D01*
X94580Y-718060D01*
X93100Y-715180D01*
X91100Y-712620D01*
X88640Y-710500D01*
X85840Y-708880D01*
X82760Y-707820D01*
X79560Y-707360D01*
X76320Y-707520D01*
X73160Y-708280D01*
X70200Y-709620D01*
X67560Y-711500D01*
X65320Y-713860D01*
X63560Y-716580D01*
X62360Y-719599D01*
X61740Y-722780D01*
X61740Y-726040D01*
X62360Y-729220D01*
X63560Y-732240D01*
X65320Y-734960D01*
X67560Y-737320D01*
X70200Y-739200D01*
X73160Y-740540D01*
X76320Y-741300D01*
G37*
G36*
X-207840Y-737520D02*
G01*
X-204640Y-737060D01*
X-201560Y-736000D01*
X-198760Y-734380D01*
X-196300Y-732260D01*
X-194300Y-729700D01*
X-192820Y-726820D01*
X-191900Y-723700D01*
X-191580Y-720480D01*
X-191900Y-717240D01*
X-192820Y-714120D01*
X-194300Y-711240D01*
X-196300Y-708700D01*
X-198760Y-706560D01*
X-201560Y-704940D01*
X-204640Y-703880D01*
X-207840Y-703420D01*
X-211100Y-703580D01*
X-214240Y-704340D01*
X-217200Y-705680D01*
X-219840Y-707560D01*
X-222079Y-709920D01*
X-223840Y-712640D01*
X-225040Y-715660D01*
X-225660Y-718840D01*
X-225660Y-722099D01*
X-225040Y-725280D01*
X-223840Y-728300D01*
X-222079Y-731020D01*
X-219840Y-733379D01*
X-217200Y-735260D01*
X-214240Y-736600D01*
X-211100Y-737360D01*
G37*
G36*
X-74180Y-737060D02*
G01*
X-70980Y-736600D01*
X-67900Y-735520D01*
X-65100Y-733900D01*
X-62640Y-731780D01*
X-60640Y-729220D01*
X-59160Y-726340D01*
X-58240Y-723240D01*
X-57920Y-720000D01*
X-58240Y-716760D01*
X-59160Y-713660D01*
X-60640Y-710780D01*
X-62640Y-708220D01*
X-65100Y-706100D01*
X-67900Y-704479D01*
X-70980Y-703400D01*
X-74180Y-702940D01*
X-77420Y-703100D01*
X-80580Y-703860D01*
X-83539Y-705220D01*
X-86180Y-707099D01*
X-88420Y-709440D01*
X-90180Y-712180D01*
X-91380Y-715200D01*
X-92000Y-718379D01*
X-92000Y-721620D01*
X-91380Y-724800D01*
X-90180Y-727820D01*
X-88420Y-730560D01*
X-86180Y-732900D01*
X-83539Y-734780D01*
X-80580Y-736140D01*
X-77420Y-736900D01*
G37*
G36*
X75820Y-647060D02*
G01*
X79020Y-646600D01*
X82100Y-645520D01*
X84900Y-643900D01*
X87360Y-641780D01*
X89360Y-639220D01*
X90840Y-636340D01*
X91760Y-633240D01*
X92080Y-630000D01*
X91760Y-626760D01*
X90840Y-623660D01*
X89360Y-620780D01*
X87360Y-618220D01*
X84900Y-616100D01*
X82100Y-614480D01*
X79020Y-613400D01*
X75820Y-612940D01*
X72580Y-613100D01*
X69420Y-613860D01*
X66460Y-615220D01*
X63820Y-617100D01*
X61580Y-619440D01*
X59820Y-622180D01*
X58620Y-625200D01*
X58000Y-628380D01*
X58000Y-631620D01*
X58620Y-634800D01*
X59820Y-637820D01*
X61580Y-640560D01*
X63820Y-642900D01*
X66460Y-644780D01*
X69420Y-646140D01*
X72580Y-646900D01*
G37*
G36*
X-70060Y-402879D02*
G01*
X-66840Y-402420D01*
X-63780Y-401360D01*
X-60960Y-399739D01*
X-58520Y-397600D01*
X-56500Y-395060D01*
X-55020Y-392180D01*
X-54100Y-389060D01*
X-53800Y-385820D01*
X-54100Y-382600D01*
X-55020Y-379480D01*
X-56500Y-376599D01*
X-58520Y-374040D01*
X-60960Y-371920D01*
X-63780Y-370300D01*
X-66840Y-369240D01*
X-70060Y-368780D01*
X-73300Y-368920D01*
X-76440Y-369700D01*
X-79400Y-371040D01*
X-82040Y-372920D01*
X-84280Y-375280D01*
X-86039Y-378000D01*
X-87240Y-381019D01*
X-87860Y-384200D01*
X-87860Y-387440D01*
X-87240Y-390640D01*
X-86039Y-393640D01*
X-84280Y-396380D01*
X-82040Y-398720D01*
X-79400Y-400620D01*
X-76440Y-401960D01*
X-73300Y-402720D01*
G37*
G36*
X-74000Y-347760D02*
G01*
X-70780Y-347299D01*
X-67720Y-346240D01*
X-64900Y-344620D01*
X-62440Y-342480D01*
X-60439Y-339940D01*
X-58960Y-337060D01*
X-58040Y-333940D01*
X-57740Y-330700D01*
X-58040Y-327480D01*
X-58960Y-324360D01*
X-60439Y-321480D01*
X-62440Y-318920D01*
X-64900Y-316800D01*
X-67720Y-315180D01*
X-70780Y-314120D01*
X-74000Y-313660D01*
X-77240Y-313820D01*
X-80380Y-314580D01*
X-83340Y-315920D01*
X-85980Y-317800D01*
X-88219Y-320160D01*
X-89980Y-322879D01*
X-91180Y-325900D01*
X-91800Y-329080D01*
X-91800Y-332340D01*
X-91180Y-335520D01*
X-89980Y-338540D01*
X-88219Y-341260D01*
X-85980Y-343620D01*
X-83340Y-345500D01*
X-80380Y-346840D01*
X-77240Y-347600D01*
G37*
G36*
X-147180Y-310720D02*
G01*
X-143980Y-310260D01*
X-140900Y-309200D01*
X-138100Y-307580D01*
X-135640Y-305460D01*
X-133640Y-302900D01*
X-132140Y-300020D01*
X-131240Y-296900D01*
X-130920Y-293680D01*
X-131240Y-290440D01*
X-132140Y-287320D01*
X-133640Y-284440D01*
X-135640Y-281900D01*
X-138100Y-279760D01*
X-140900Y-278140D01*
X-143980Y-277080D01*
X-147180Y-276620D01*
X-150420Y-276780D01*
X-153580Y-277540D01*
X-156540Y-278880D01*
X-159180Y-280780D01*
X-161420Y-283120D01*
X-163160Y-285860D01*
X-164380Y-288860D01*
X-165000Y-292060D01*
X-165000Y-295300D01*
X-164380Y-298480D01*
X-163160Y-301500D01*
X-161420Y-304220D01*
X-159180Y-306580D01*
X-156540Y-308460D01*
X-153580Y-309800D01*
X-150420Y-310580D01*
G37*
G36*
X221820Y-307060D02*
G01*
X225020Y-306600D01*
X228100Y-305520D01*
X230900Y-303900D01*
X233359Y-301780D01*
X235360Y-299220D01*
X236840Y-296340D01*
X237760Y-293240D01*
X238080Y-290000D01*
X237760Y-286760D01*
X236840Y-283660D01*
X235360Y-280780D01*
X233359Y-278220D01*
X230900Y-276100D01*
X228100Y-274480D01*
X225020Y-273400D01*
X221820Y-272940D01*
X218580Y-273100D01*
X215420Y-273860D01*
X212460Y-275220D01*
X209820Y-277100D01*
X207580Y-279440D01*
X205820Y-282180D01*
X204620Y-285200D01*
X204000Y-288380D01*
X204000Y-291620D01*
X204620Y-294800D01*
X205820Y-297820D01*
X207580Y-300560D01*
X209820Y-302900D01*
X212460Y-304780D01*
X215420Y-306140D01*
X218580Y-306900D01*
G37*
G36*
X45820Y-292060D02*
G01*
X49020Y-291600D01*
X52100Y-290520D01*
X54900Y-288900D01*
X57360Y-286780D01*
X59360Y-284220D01*
X60839Y-281340D01*
X61760Y-278240D01*
X62080Y-275000D01*
X61760Y-271760D01*
X60839Y-268660D01*
X59360Y-265780D01*
X57360Y-263220D01*
X54900Y-261100D01*
X52100Y-259480D01*
X49020Y-258400D01*
X45820Y-257940D01*
X42580Y-258100D01*
X39420Y-258860D01*
X36460Y-260219D01*
X33820Y-262100D01*
X31580Y-264440D01*
X29820Y-267180D01*
X28620Y-270200D01*
X28000Y-273380D01*
X28000Y-276620D01*
X28620Y-279800D01*
X29820Y-282820D01*
X31580Y-285560D01*
X33820Y-287900D01*
X36460Y-289780D01*
X39420Y-291140D01*
X42580Y-291900D01*
G37*
G36*
X280820Y-289060D02*
G01*
X284020Y-288600D01*
X287100Y-287520D01*
X289900Y-285900D01*
X292360Y-283780D01*
X294360Y-281220D01*
X295840Y-278340D01*
X296760Y-275240D01*
X297080Y-272000D01*
X296760Y-268760D01*
X295840Y-265660D01*
X294360Y-262780D01*
X292360Y-260219D01*
X289900Y-258100D01*
X287100Y-256480D01*
X284020Y-255400D01*
X280820Y-254940D01*
X277580Y-255100D01*
X274420Y-255859D01*
X271460Y-257220D01*
X268820Y-259100D01*
X266580Y-261439D01*
X264820Y-264180D01*
X263620Y-267200D01*
X263000Y-270380D01*
X263000Y-273620D01*
X263620Y-276800D01*
X264820Y-279820D01*
X266580Y-282560D01*
X268820Y-284900D01*
X271460Y-286780D01*
X274420Y-288140D01*
X277580Y-288900D01*
G37*
G36*
X131820Y-289060D02*
G01*
X135020Y-288600D01*
X138100Y-287520D01*
X140900Y-285900D01*
X143360Y-283780D01*
X145360Y-281220D01*
X146840Y-278340D01*
X147760Y-275240D01*
X148080Y-272000D01*
X147760Y-268760D01*
X146840Y-265660D01*
X145380Y-262800D01*
X144940Y-261200D01*
X145200Y-259560D01*
X146080Y-258160D01*
X147480Y-257240D01*
X149120Y-256980D01*
X150820Y-257060D01*
X154020Y-256600D01*
X157100Y-255520D01*
X159900Y-253900D01*
X162360Y-251780D01*
X164360Y-249220D01*
X165840Y-246340D01*
X166759Y-243240D01*
X167079Y-240000D01*
X166759Y-236759D01*
X165840Y-233660D01*
X164360Y-230780D01*
X162360Y-228220D01*
X159900Y-226100D01*
X157100Y-224480D01*
X154020Y-223400D01*
X150820Y-222940D01*
X147580Y-223100D01*
X144420Y-223860D01*
X143080Y-224480D01*
X141480Y-224840D01*
X139880Y-224520D01*
X138520Y-223600D01*
X137660Y-222200D01*
X137420Y-220580D01*
X138820Y-215820D01*
X139120Y-212600D01*
X138820Y-209360D01*
X137900Y-206260D01*
X136400Y-203359D01*
X134400Y-200820D01*
X131940Y-198700D01*
X129140Y-197060D01*
X126080Y-196000D01*
X122860Y-195539D01*
X119620Y-195700D01*
X116460Y-196460D01*
X113520Y-197820D01*
X110860Y-199700D01*
X108620Y-202040D01*
X106880Y-204780D01*
X105660Y-207780D01*
X105060Y-210980D01*
X105060Y-214220D01*
X105660Y-217399D01*
X106880Y-220420D01*
X108620Y-223160D01*
X110860Y-225500D01*
X113520Y-227380D01*
X116460Y-228740D01*
X119620Y-229500D01*
X122860Y-229660D01*
X126080Y-229180D01*
X129340Y-228060D01*
X130840Y-227840D01*
X132320Y-228200D01*
X133540Y-229080D01*
X134360Y-230340D01*
X134660Y-231840D01*
X134360Y-233320D01*
X133620Y-235200D01*
X133000Y-238380D01*
X133000Y-241620D01*
X133620Y-244800D01*
X134860Y-247900D01*
X135440Y-248900D01*
X135980Y-250460D01*
X135840Y-252079D01*
X135060Y-253520D01*
X133780Y-254520D01*
X132200Y-254920D01*
X128560Y-255100D01*
X125420Y-255859D01*
X122460Y-257220D01*
X119820Y-259100D01*
X117579Y-261439D01*
X115820Y-264180D01*
X114620Y-267200D01*
X114000Y-270380D01*
X114000Y-273620D01*
X114620Y-276800D01*
X115820Y-279820D01*
X117579Y-282560D01*
X119820Y-284900D01*
X122460Y-286780D01*
X125420Y-288140D01*
X128560Y-288900D01*
G37*
G36*
X-109420Y-257200D02*
G01*
X-106220Y-256740D01*
X-103140Y-255680D01*
X-100340Y-254060D01*
X-97880Y-251940D01*
X-95879Y-249380D01*
X-94380Y-246500D01*
X-93480Y-243380D01*
X-93160Y-240159D01*
X-93480Y-236920D01*
X-94380Y-233820D01*
X-95879Y-230920D01*
X-97880Y-228380D01*
X-100340Y-226260D01*
X-103140Y-224620D01*
X-106220Y-223560D01*
X-109420Y-223100D01*
X-112660Y-223260D01*
X-115820Y-224020D01*
X-118780Y-225380D01*
X-121420Y-227260D01*
X-123660Y-229600D01*
X-125399Y-232340D01*
X-126620Y-235340D01*
X-127240Y-238540D01*
X-127240Y-241780D01*
X-126620Y-244960D01*
X-125399Y-247979D01*
X-123660Y-250720D01*
X-121420Y-253060D01*
X-118780Y-254940D01*
X-115820Y-256280D01*
X-112660Y-257060D01*
G37*
G36*
X-154180Y-252060D02*
G01*
X-150980Y-251600D01*
X-147900Y-250520D01*
X-145100Y-248900D01*
X-142640Y-246780D01*
X-140640Y-244220D01*
X-139160Y-241340D01*
X-138240Y-238240D01*
X-137920Y-235000D01*
X-138240Y-231759D01*
X-139160Y-228660D01*
X-140640Y-225780D01*
X-142640Y-223220D01*
X-145100Y-221100D01*
X-147900Y-219480D01*
X-150980Y-218400D01*
X-154180Y-217940D01*
X-157420Y-218100D01*
X-160580Y-218860D01*
X-163540Y-220219D01*
X-166180Y-222100D01*
X-168420Y-224440D01*
X-170180Y-227180D01*
X-171380Y-230200D01*
X-172000Y-233380D01*
X-172000Y-236620D01*
X-171380Y-239800D01*
X-170180Y-242820D01*
X-168420Y-245560D01*
X-166180Y-247900D01*
X-163540Y-249780D01*
X-160580Y-251140D01*
X-157420Y-251900D01*
G37*
G36*
X-54300Y-225720D02*
G01*
X-51100Y-225260D01*
X-48019Y-224200D01*
X-45220Y-222560D01*
X-42760Y-220440D01*
X-40759Y-217900D01*
X-39260Y-215000D01*
X-38360Y-211900D01*
X-38040Y-208660D01*
X-38360Y-205440D01*
X-39260Y-202320D01*
X-40759Y-199440D01*
X-42760Y-196880D01*
X-45220Y-194760D01*
X-48019Y-193140D01*
X-51100Y-192079D01*
X-54300Y-191600D01*
X-57539Y-191759D01*
X-60700Y-192520D01*
X-63660Y-193880D01*
X-66300Y-195760D01*
X-68540Y-198100D01*
X-70300Y-200840D01*
X-71500Y-203860D01*
X-72120Y-207040D01*
X-72120Y-210280D01*
X-71500Y-213480D01*
X-70300Y-216480D01*
X-68540Y-219220D01*
X-66300Y-221560D01*
X-63660Y-223440D01*
X-60700Y-224800D01*
X-57539Y-225560D01*
G37*
G36*
X-254180Y-182060D02*
G01*
X-250980Y-181600D01*
X-247900Y-180520D01*
X-245100Y-178900D01*
X-242640Y-176780D01*
X-240640Y-174220D01*
X-239160Y-171340D01*
X-238240Y-168240D01*
X-237920Y-165000D01*
X-238240Y-161759D01*
X-239160Y-158660D01*
X-240640Y-155780D01*
X-242640Y-153220D01*
X-245100Y-151100D01*
X-247900Y-149480D01*
X-250980Y-148400D01*
X-254180Y-147940D01*
X-257420Y-148100D01*
X-260580Y-148860D01*
X-263540Y-150220D01*
X-266180Y-152100D01*
X-268420Y-154440D01*
X-270180Y-157180D01*
X-271380Y-160200D01*
X-272000Y-163380D01*
X-272000Y-166620D01*
X-271380Y-169800D01*
X-270180Y-172820D01*
X-268420Y-175560D01*
X-266180Y-177900D01*
X-263540Y-179780D01*
X-260580Y-181140D01*
X-257420Y-181900D01*
G37*
G36*
X22620Y-162200D02*
G01*
X25840Y-161740D01*
X28900Y-160680D01*
X31720Y-159060D01*
X34160Y-156920D01*
X36160Y-154380D01*
X37660Y-151500D01*
X38580Y-148380D01*
X38880Y-145140D01*
X38580Y-141920D01*
X37660Y-138800D01*
X36160Y-135920D01*
X34160Y-133360D01*
X31720Y-131240D01*
X28900Y-129620D01*
X25840Y-128560D01*
X22620Y-128100D01*
X19380Y-128260D01*
X16220Y-129019D01*
X13280Y-130360D01*
X10620Y-132240D01*
X8380Y-134600D01*
X6640Y-137320D01*
X5420Y-140340D01*
X4820Y-143520D01*
X4820Y-146780D01*
X5420Y-149960D01*
X6640Y-152980D01*
X8380Y-155700D01*
X10620Y-158060D01*
X13280Y-159940D01*
X16220Y-161280D01*
X19380Y-162040D01*
G37*
G36*
X295820Y-137060D02*
G01*
X299020Y-136600D01*
X302100Y-135520D01*
X304900Y-133900D01*
X307360Y-131780D01*
X309360Y-129220D01*
X310840Y-126340D01*
X311760Y-123240D01*
X312080Y-120000D01*
X311760Y-116760D01*
X310840Y-113660D01*
X309360Y-110780D01*
X307360Y-108219D01*
X304900Y-106100D01*
X302100Y-104480D01*
X299020Y-103400D01*
X295820Y-102940D01*
X292580Y-103100D01*
X289420Y-103859D01*
X286460Y-105220D01*
X283820Y-107100D01*
X281580Y-109440D01*
X279820Y-112180D01*
X278620Y-115200D01*
X278000Y-118379D01*
X278000Y-121620D01*
X278620Y-124800D01*
X279820Y-127820D01*
X281580Y-130559D01*
X283820Y-132900D01*
X286460Y-134780D01*
X289420Y-136140D01*
X292580Y-136900D01*
G37*
G36*
X45820Y-112060D02*
G01*
X49020Y-111600D01*
X52100Y-110520D01*
X54900Y-108900D01*
X57360Y-106780D01*
X59360Y-104220D01*
X60839Y-101340D01*
X61760Y-98240D01*
X62080Y-95000D01*
X61760Y-91760D01*
X60839Y-88660D01*
X59360Y-85780D01*
X57360Y-83219D01*
X54900Y-81100D01*
X52100Y-79480D01*
X49020Y-78400D01*
X45820Y-77940D01*
X42580Y-78100D01*
X39420Y-78860D01*
X36460Y-80220D01*
X33820Y-82100D01*
X31580Y-84440D01*
X29820Y-87180D01*
X28620Y-90200D01*
X28000Y-93379D01*
X28000Y-96620D01*
X28620Y-99800D01*
X29820Y-102820D01*
X31580Y-105559D01*
X33820Y-107899D01*
X36460Y-109780D01*
X39420Y-111140D01*
X42580Y-111900D01*
G37*
G36*
X263820Y-107060D02*
G01*
X267020Y-106600D01*
X270100Y-105520D01*
X272900Y-103900D01*
X275360Y-101780D01*
X277360Y-99220D01*
X278840Y-96340D01*
X279760Y-93240D01*
X280080Y-90000D01*
X279760Y-86760D01*
X278840Y-83660D01*
X277360Y-80780D01*
X275360Y-78220D01*
X272900Y-76100D01*
X270100Y-74480D01*
X267020Y-73400D01*
X263820Y-72940D01*
X260580Y-73100D01*
X257420Y-73860D01*
X254460Y-75220D01*
X251820Y-77100D01*
X249579Y-79440D01*
X247820Y-82180D01*
X246620Y-85200D01*
X246000Y-88379D01*
X246000Y-91620D01*
X246620Y-94800D01*
X247820Y-97820D01*
X249579Y-100559D01*
X251820Y-102899D01*
X254460Y-104780D01*
X257420Y-106140D01*
X260580Y-106900D01*
G37*
G36*
X-134180Y-52060D02*
G01*
X-130980Y-51600D01*
X-127899Y-50519D01*
X-125100Y-48900D01*
X-122640Y-46780D01*
X-120640Y-44220D01*
X-119160Y-41340D01*
X-118240Y-38240D01*
X-117920Y-35000D01*
X-118240Y-31760D01*
X-119160Y-28660D01*
X-120640Y-25780D01*
X-122640Y-23220D01*
X-125100Y-21100D01*
X-127899Y-19480D01*
X-130980Y-18400D01*
X-134180Y-17940D01*
X-137420Y-18100D01*
X-140580Y-18860D01*
X-143540Y-20219D01*
X-146180Y-22100D01*
X-148420Y-24440D01*
X-150180Y-27180D01*
X-151380Y-30200D01*
X-152000Y-33380D01*
X-152000Y-36620D01*
X-151380Y-39800D01*
X-150180Y-42820D01*
X-148420Y-45560D01*
X-146180Y-47900D01*
X-143540Y-49780D01*
X-140580Y-51140D01*
X-137420Y-51900D01*
G37*
G36*
X118400Y-49540D02*
G01*
X121600Y-49080D01*
X124660Y-48019D01*
X127480Y-46380D01*
X129940Y-44260D01*
X131940Y-41720D01*
X133420Y-38820D01*
X134340Y-35720D01*
X134640Y-32480D01*
X134340Y-29260D01*
X133420Y-26140D01*
X131940Y-23260D01*
X129940Y-20700D01*
X127480Y-18580D01*
X124660Y-16960D01*
X121600Y-15900D01*
X118400Y-15420D01*
X115140Y-15580D01*
X112000Y-16339D01*
X109040Y-17700D01*
X106400Y-19580D01*
X104160Y-21920D01*
X102400Y-24660D01*
X101199Y-27679D01*
X100580Y-30860D01*
X100580Y-34100D01*
X101199Y-37300D01*
X102400Y-40300D01*
X104160Y-43040D01*
X106400Y-45380D01*
X109040Y-47260D01*
X112000Y-48620D01*
X115140Y-49380D01*
G37*
G36*
X270820Y2940D02*
G01*
X274020Y3400D01*
X277100Y4480D01*
X279900Y6100D01*
X282360Y8220D01*
X284360Y10780D01*
X285840Y13660D01*
X286760Y16760D01*
X287080Y20000D01*
X286760Y23240D01*
X285840Y26340D01*
X284360Y29220D01*
X282360Y31780D01*
X279900Y33900D01*
X277100Y35520D01*
X274020Y36600D01*
X270820Y37060D01*
X267580Y36900D01*
X264420Y36140D01*
X261460Y34780D01*
X258820Y32900D01*
X256580Y30560D01*
X254820Y27820D01*
X253619Y24800D01*
X253000Y21620D01*
X253000Y18380D01*
X253619Y15200D01*
X254820Y12180D01*
X256580Y9440D01*
X258820Y7100D01*
X261460Y5220D01*
X264420Y3860D01*
X267580Y3100D01*
G37*
G36*
X-93680Y7740D02*
G01*
X-90480Y8200D01*
X-87400Y9260D01*
X-84600Y10880D01*
X-82140Y13020D01*
X-80140Y15560D01*
X-78660Y18440D01*
X-77740Y21560D01*
X-77420Y24800D01*
X-77740Y28020D01*
X-78660Y31140D01*
X-80140Y34020D01*
X-82140Y36580D01*
X-84600Y38700D01*
X-87400Y40320D01*
X-90480Y41380D01*
X-93680Y41840D01*
X-96920Y41700D01*
X-100079Y40920D01*
X-103040Y39580D01*
X-105680Y37700D01*
X-107920Y35340D01*
X-109680Y32620D01*
X-110879Y29600D01*
X-111500Y26420D01*
X-111500Y23180D01*
X-110879Y19980D01*
X-109680Y16980D01*
X-107920Y14240D01*
X-105680Y11900D01*
X-103040Y10000D01*
X-100079Y8660D01*
X-96920Y7900D01*
G37*
G36*
X820Y14440D02*
G01*
X4020Y14900D01*
X7100Y15960D01*
X9900Y17580D01*
X12360Y19720D01*
X14360Y22260D01*
X15840Y25160D01*
X16760Y28260D01*
X17080Y31500D01*
X16760Y34720D01*
X16299Y36300D01*
X16160Y37940D01*
X16700Y39480D01*
X17820Y40700D01*
X19320Y41340D01*
X20960Y41340D01*
X22460Y40700D01*
X22960Y40340D01*
X25920Y38980D01*
X29060Y38220D01*
X32300Y38060D01*
X35520Y38520D01*
X38580Y39580D01*
X41400Y41220D01*
X43860Y43339D01*
X45860Y45880D01*
X47340Y48780D01*
X48259Y51880D01*
X48560Y55119D01*
X48259Y58339D01*
X47340Y61460D01*
X45860Y64340D01*
X43860Y66900D01*
X41400Y69020D01*
X38580Y70640D01*
X35520Y71700D01*
X32300Y72180D01*
X29060Y72020D01*
X25920Y71260D01*
X22960Y69900D01*
X20320Y68020D01*
X18080Y65680D01*
X16319Y62939D01*
X15560Y61020D01*
X14640Y59660D01*
X13260Y58760D01*
X11640Y58500D01*
X10060Y58920D01*
X8780Y59940D01*
X6480Y64340D01*
X4480Y66900D01*
X2020Y69020D01*
X-780Y70640D01*
X-3840Y71700D01*
X-7060Y72180D01*
X-10300Y72020D01*
X-13460Y71260D01*
X-16400Y69900D01*
X-19060Y68020D01*
X-21300Y65680D01*
X-23040Y62939D01*
X-24260Y59920D01*
X-24860Y56740D01*
X-24860Y53500D01*
X-24260Y50300D01*
X-23040Y47300D01*
X-21300Y44560D01*
X-19060Y42220D01*
X-17700Y41240D01*
X-16520Y39940D01*
X-16020Y38240D01*
X-17000Y33120D01*
X-17000Y29880D01*
X-16379Y26680D01*
X-15180Y23680D01*
X-13420Y20940D01*
X-11180Y18600D01*
X-8540Y16720D01*
X-5580Y15360D01*
X-2420Y14600D01*
G37*
G36*
X207820Y32940D02*
G01*
X211020Y33400D01*
X214100Y34480D01*
X216900Y36100D01*
X219360Y38220D01*
X221360Y40780D01*
X222840Y43660D01*
X223760Y46760D01*
X224080Y50000D01*
X223760Y53240D01*
X222840Y56340D01*
X221360Y59220D01*
X219360Y61780D01*
X216900Y63900D01*
X214100Y65519D01*
X211020Y66600D01*
X207820Y67060D01*
X204579Y66900D01*
X201420Y66140D01*
X198460Y64780D01*
X195820Y62900D01*
X193580Y60560D01*
X191820Y57820D01*
X190620Y54800D01*
X190000Y51620D01*
X190000Y48380D01*
X190620Y45199D01*
X191820Y42180D01*
X193580Y39440D01*
X195820Y37100D01*
X198460Y35220D01*
X201420Y33860D01*
X204579Y33100D01*
G37*
G36*
X95820Y37940D02*
G01*
X99019Y38400D01*
X102100Y39480D01*
X104900Y41100D01*
X107360Y43220D01*
X109360Y45780D01*
X110840Y48660D01*
X111760Y51760D01*
X112080Y55000D01*
X111760Y58240D01*
X110840Y61340D01*
X109360Y64220D01*
X107360Y66780D01*
X104900Y68900D01*
X102100Y70520D01*
X99019Y71600D01*
X95820Y72060D01*
X92579Y71900D01*
X89420Y71140D01*
X86460Y69780D01*
X83820Y67900D01*
X81580Y65560D01*
X79820Y62820D01*
X78620Y59800D01*
X78000Y56620D01*
X78000Y53380D01*
X78620Y50199D01*
X79820Y47180D01*
X81580Y44440D01*
X83820Y42100D01*
X86460Y40220D01*
X89420Y38860D01*
X92579Y38100D01*
G37*
G36*
X170260Y78300D02*
G01*
X175080Y78660D01*
X179780Y79680D01*
X184300Y81359D01*
X188540Y83680D01*
X192399Y86560D01*
X195820Y89980D01*
X198700Y93840D01*
X201020Y98080D01*
X202700Y102600D01*
X203740Y107300D01*
X204080Y112260D01*
X204080Y143480D01*
X203740Y148420D01*
X202700Y153140D01*
X201020Y157660D01*
X198700Y161900D01*
X195820Y165760D01*
X192399Y169180D01*
X188540Y172060D01*
X184300Y174380D01*
X179780Y176060D01*
X175080Y177079D01*
X170260Y177420D01*
X165460Y177079D01*
X160740Y176060D01*
X156220Y174380D01*
X151980Y172060D01*
X148120Y169180D01*
X144720Y165760D01*
X141680Y161660D01*
X140620Y160400D01*
X139140Y159700D01*
X137520Y159620D01*
X135980Y160219D01*
X134820Y161380D01*
X133840Y162880D01*
X131060Y165920D01*
X127800Y168440D01*
X124179Y170400D01*
X120280Y171740D01*
X116220Y172420D01*
X112100Y172420D01*
X108040Y171740D01*
X104140Y170400D01*
X100520Y168440D01*
X97260Y165920D01*
X94480Y162880D01*
X92220Y159440D01*
X90559Y155660D01*
X89560Y151660D01*
X89200Y147560D01*
X89560Y143440D01*
X90559Y139460D01*
X92220Y135680D01*
X94480Y132240D01*
X97260Y129200D01*
X100520Y126660D01*
X104140Y124700D01*
X108040Y123360D01*
X112100Y122700D01*
X116220Y122700D01*
X120280Y123360D01*
X124179Y124700D01*
X127800Y126660D01*
X129980Y128360D01*
X131580Y129120D01*
X133360Y129100D01*
X134960Y128320D01*
X136060Y126940D01*
X136440Y125200D01*
X136440Y112260D01*
X136800Y107300D01*
X137820Y102600D01*
X139500Y98080D01*
X141820Y93840D01*
X144720Y89980D01*
X148120Y86560D01*
X151980Y83680D01*
X156220Y81359D01*
X160740Y79680D01*
X165460Y78660D01*
G37*
G36*
X-170280Y78300D02*
G01*
X-165479Y78660D01*
X-160760Y79680D01*
X-156240Y81359D01*
X-152000Y83680D01*
X-148140Y86560D01*
X-144740Y89980D01*
X-141840Y93840D01*
X-139520Y98080D01*
X-137840Y102600D01*
X-136820Y107300D01*
X-136460Y112260D01*
X-136460Y125200D01*
X-136060Y126940D01*
X-134980Y128320D01*
X-133380Y129100D01*
X-131600Y129120D01*
X-130000Y128360D01*
X-127820Y126660D01*
X-124200Y124700D01*
X-120300Y123360D01*
X-116240Y122700D01*
X-112120Y122700D01*
X-108059Y123360D01*
X-104160Y124700D01*
X-100540Y126660D01*
X-97280Y129200D01*
X-94500Y132240D01*
X-92240Y135680D01*
X-90580Y139460D01*
X-89560Y143440D01*
X-89220Y147560D01*
X-89560Y151660D01*
X-90580Y155660D01*
X-92240Y159440D01*
X-94500Y162880D01*
X-97280Y165920D01*
X-100540Y168440D01*
X-104160Y170400D01*
X-108059Y171740D01*
X-112120Y172420D01*
X-116240Y172420D01*
X-120300Y171740D01*
X-124200Y170400D01*
X-127820Y168440D01*
X-131080Y165920D01*
X-133860Y162880D01*
X-134840Y161380D01*
X-136000Y160219D01*
X-137540Y159620D01*
X-139160Y159700D01*
X-140640Y160400D01*
X-144740Y165760D01*
X-148140Y169180D01*
X-152000Y172060D01*
X-156240Y174380D01*
X-160760Y176060D01*
X-165479Y177079D01*
X-170280Y177420D01*
X-175100Y177079D01*
X-179800Y176060D01*
X-184320Y174380D01*
X-188560Y172060D01*
X-192420Y169180D01*
X-195840Y165760D01*
X-198720Y161900D01*
X-201040Y157660D01*
X-202719Y153140D01*
X-203760Y148420D01*
X-204100Y143480D01*
X-204100Y112260D01*
X-203760Y107300D01*
X-202719Y102600D01*
X-201040Y98080D01*
X-198720Y93840D01*
X-195840Y89980D01*
X-192420Y86560D01*
X-188560Y83680D01*
X-184320Y81359D01*
X-179800Y79680D01*
X-175100Y78660D01*
G37*
G36*
X370220Y159800D02*
G01*
X382500Y159800D01*
X382500Y182500D01*
X359799Y182500D01*
X359799Y170219D01*
X360080Y167740D01*
X360840Y165580D01*
X362040Y163660D01*
X363660Y162040D01*
X365580Y160840D01*
X367740Y160080D01*
G37*
G36*
X359799Y217500D02*
G01*
X382500Y217500D01*
X382500Y240200D01*
X370220Y240200D01*
X367740Y239920D01*
X365580Y239160D01*
X363660Y237960D01*
X362040Y236340D01*
X360840Y234420D01*
X360080Y232260D01*
X359799Y229780D01*
G37*

%LPD*%
D10*
G01*
X-170289Y292429D03*
D11*
G01*
X-170289Y127869D03*
G01*
X170270Y127869D03*
D10*
G01*
X170270Y292429D03*
D12*
G01*
X-400000Y300000D03*
G01*
X-400000Y200000D03*
G01*
X-400000Y-900000D03*
G01*
X-400000Y-1000000D03*
G01*
X-400000Y-1100000D03*
G01*
X-400000Y-1200000D03*
G01*
X-400000Y-1300000D03*
G01*
X400000Y-1300000D03*
G01*
X400000Y-1200000D03*
G01*
X400000Y-1100000D03*
G01*
X400000Y-1000000D03*
G01*
X400000Y-900000D03*
G01*
X400000Y-800000D03*
G01*
X400000Y-700000D03*
G01*
X400000Y-600000D03*
G01*
X400000Y-500000D03*
G01*
X400000Y-400000D03*
G01*
X400000Y-300000D03*
G01*
X400000Y300000D03*
D13*
G01*
X400000Y200000D03*
D12*
G01*
X-400000Y-800000D03*
G01*
X400000Y-200000D03*
G01*
X-400000Y-700000D03*
G01*
X-400000Y-600000D03*
G01*
X-400000Y-500000D03*
G01*
X-400000Y-400000D03*
G01*
X-400000Y-300000D03*
G01*
X-400000Y-200000D03*
G01*
X-400000Y-100000D03*
G01*
X-400000Y0D03*
G01*
X-400000Y100000D03*
G01*
X400000Y100000D03*
G01*
X400000Y0D03*
G01*
X400000Y-100000D03*
D14*
G01*
X-27840Y-944589D03*
G01*
X-55680Y-972429D03*
G01*
X27829Y-1000270D03*
G01*
X-10Y-1028099D03*
G01*
X0Y-916750D03*
G01*
X55680Y-972429D03*
G01*
X0Y-972429D03*
G01*
X27809Y-944589D03*
G01*
X-27840Y-1000270D03*
D15*
G01*
X96999Y-1146999D03*
G01*
X118110Y-1145670D03*
G01*
X137800Y-1145670D03*
G01*
X157480Y-1145670D03*
G01*
X177170Y-1145670D03*
G01*
X220000Y-1170000D03*
G01*
X-245000Y-820000D03*
G01*
X-225999Y-831999D03*
G01*
X-209000Y-845999D03*
G01*
X-196849Y-862199D03*
G01*
X-185039Y-877950D03*
G01*
X-118110Y-149609D03*
G01*
X-31500Y-23620D03*
G01*
X145670Y66930D03*
G01*
X-141729Y62989D03*
G01*
X-208659Y-720470D03*
G01*
X78739Y-724409D03*
G01*
X-129920Y-484250D03*
G01*
X129920Y-484250D03*
G01*
X0Y-614169D03*
G01*
X-110239Y-240160D03*
G01*
X-74800Y-330709D03*
G01*
X-15749Y-307089D03*
G01*
X90549Y-224409D03*
G01*
X244090Y-244090D03*
G01*
X45000Y-95000D03*
G01*
X122049Y-212600D03*
G01*
X-55120Y-208659D03*
G01*
X-70869Y-385830D03*
G01*
X-248029Y-240160D03*
G01*
X-205100Y-62080D03*
G01*
X15749Y-192910D03*
G01*
X-90549Y-1244090D03*
G01*
X-251970Y-1051179D03*
G01*
X204720Y-795270D03*
G01*
X-110239Y-744090D03*
G01*
X-7869Y55120D03*
G01*
X31500Y55120D03*
G01*
X0Y31500D03*
G01*
X75000Y-630000D03*
G01*
X-75000Y-720000D03*
G01*
X-53659Y-1159400D03*
G01*
X45000Y-275000D03*
G01*
X295000Y-120000D03*
G01*
X270000Y20000D03*
G01*
X-94499Y24789D03*
G01*
X95000Y55000D03*
G01*
X-255000Y-165000D03*
G01*
X-155000Y-235000D03*
G01*
X-135000Y-35000D03*
G01*
X-148000Y-293670D03*
G01*
X21810Y-145149D03*
G01*
X150000Y-240000D03*
G01*
X117579Y-32480D03*
G01*
X180999Y-1238000D03*
G01*
X220999Y-290000D03*
G01*
X205999Y-1076999D03*
G01*
X280000Y-271999D03*
G01*
X130999Y-271999D03*
G01*
X206999Y50000D03*
G01*
X263000Y-90000D03*
G01*
X124000Y-860999D03*
G01*
X345000Y-1245000D03*
G01*
X345000Y-1150000D03*
G01*
X345000Y-1065000D03*
G01*
X310000Y-1065000D03*
G01*
X275000Y-1065000D03*
G01*
X310000Y-1150000D03*
G01*
X345000Y-975000D03*
G01*
X310000Y-995000D03*
G01*
X250000Y-965000D03*
G01*
X275000Y-940000D03*
G01*
X330000Y-880000D03*
G01*
X-225000Y-1285000D03*
G01*
X-165000Y-1285000D03*
G01*
X-105000Y-1285000D03*
G01*
X-295000Y-1255000D03*
G01*
X-340000Y-1255000D03*
G01*
X-265000Y-1195000D03*
G01*
X-340000Y-1155000D03*
G01*
X-45000Y-1285000D03*
G01*
X-45000Y-520000D03*
G01*
X5000Y-520000D03*
G01*
X-45000Y-470000D03*
G01*
X50000Y-470000D03*
G01*
X5000Y-470000D03*
G01*
X50000Y-520000D03*
G01*
X-45000Y-415000D03*
G01*
X5000Y-415000D03*
G01*
X50000Y-415000D03*
G01*
X155000Y-400000D03*
G01*
X200000Y-400000D03*
G01*
X200000Y-350000D03*
G01*
X155000Y-350000D03*
G01*
X345000Y-515000D03*
G01*
X335000Y-430000D03*
G01*
X335000Y-370000D03*
G01*
X245000Y-910000D03*
G01*
X305000Y-855000D03*
M02*
