G04 Layer: InnerLayer2*
G04 EasyEDA v6.5.50, 2025-05-29 20:10:11*
G04 51d2a156a5c9454999fc887beed5754f,29d699c3718f4358a2dc827e738e4458,10*
G04 Gerber Generator version 0.2*
G04 Scale: 100 percent, Rotated: No, Reflected: No *
G04 Dimensions in inches *
G04 leading zeros omitted , absolute positions ,3 integer and 6 decimal *
%FSLAX36Y36*%
%MOIN*%

%ADD10C,0.0118*%
%ADD11C,0.0079*%
%ADD12C,0.0157*%
%ADD13O,0.047244X0.070866*%
%ADD14O,0.047244X0.07873999999999999*%
%ADD15C,0.0600*%
%ADD16R,0.0600X0.0600*%
%ADD17C,0.0240*%
%ADD18C,0.0138*%
%ADD19C,0.0168*%

%LPD*%
G36*
X-355920Y-1302140D02*
G01*
X-357380Y-1301879D01*
X-358660Y-1301080D01*
X-359540Y-1299860D01*
X-359920Y-1298420D01*
X-360160Y-1294640D01*
X-361240Y-1289379D01*
X-363000Y-1284300D01*
X-365420Y-1279520D01*
X-368459Y-1275080D01*
X-372060Y-1271100D01*
X-376160Y-1267640D01*
X-380680Y-1264760D01*
X-385560Y-1262500D01*
X-390680Y-1260900D01*
X-395980Y-1260000D01*
X-401340Y-1259820D01*
X-406680Y-1260360D01*
X-411900Y-1261620D01*
X-416920Y-1263540D01*
X-421620Y-1266120D01*
X-425940Y-1269300D01*
X-429799Y-1273040D01*
X-432660Y-1276660D01*
X-433920Y-1277700D01*
X-435480Y-1278160D01*
X-437120Y-1277960D01*
X-438519Y-1277100D01*
X-439460Y-1275780D01*
X-439799Y-1274180D01*
X-439799Y-1225820D01*
X-439460Y-1224220D01*
X-438519Y-1222880D01*
X-437120Y-1222040D01*
X-435480Y-1221840D01*
X-433920Y-1222300D01*
X-432660Y-1223340D01*
X-429799Y-1226960D01*
X-425940Y-1230700D01*
X-421620Y-1233880D01*
X-416920Y-1236460D01*
X-411900Y-1238380D01*
X-406680Y-1239620D01*
X-401340Y-1240160D01*
X-395980Y-1239980D01*
X-390680Y-1239100D01*
X-385560Y-1237500D01*
X-380680Y-1235240D01*
X-376160Y-1232360D01*
X-372060Y-1228880D01*
X-368459Y-1224900D01*
X-365420Y-1220480D01*
X-363000Y-1215680D01*
X-361240Y-1210620D01*
X-360160Y-1205360D01*
X-359799Y-1200000D01*
X-360160Y-1194640D01*
X-361240Y-1189380D01*
X-363000Y-1184300D01*
X-365420Y-1179520D01*
X-368459Y-1175080D01*
X-372060Y-1171100D01*
X-376160Y-1167640D01*
X-380680Y-1164760D01*
X-385560Y-1162500D01*
X-390680Y-1160900D01*
X-395980Y-1160000D01*
X-401340Y-1159820D01*
X-406680Y-1160360D01*
X-411900Y-1161620D01*
X-416920Y-1163540D01*
X-421620Y-1166120D01*
X-425940Y-1169300D01*
X-429799Y-1173040D01*
X-432660Y-1176660D01*
X-433920Y-1177700D01*
X-435480Y-1178160D01*
X-437120Y-1177960D01*
X-438519Y-1177100D01*
X-439460Y-1175780D01*
X-439799Y-1174180D01*
X-439799Y-1125820D01*
X-439460Y-1124220D01*
X-438519Y-1122880D01*
X-437120Y-1122040D01*
X-435480Y-1121840D01*
X-433920Y-1122300D01*
X-432660Y-1123340D01*
X-429799Y-1126960D01*
X-425940Y-1130700D01*
X-421620Y-1133880D01*
X-416920Y-1136460D01*
X-411900Y-1138380D01*
X-406680Y-1139620D01*
X-401340Y-1140160D01*
X-395980Y-1139980D01*
X-390680Y-1139100D01*
X-385560Y-1137500D01*
X-380680Y-1135240D01*
X-376160Y-1132360D01*
X-372060Y-1128880D01*
X-368459Y-1124900D01*
X-365420Y-1120480D01*
X-363000Y-1115680D01*
X-361240Y-1110620D01*
X-360160Y-1105360D01*
X-359799Y-1100000D01*
X-360160Y-1094640D01*
X-361240Y-1089380D01*
X-363000Y-1084300D01*
X-365420Y-1079520D01*
X-368459Y-1075080D01*
X-372060Y-1071100D01*
X-376160Y-1067640D01*
X-380680Y-1064760D01*
X-385560Y-1062500D01*
X-390680Y-1060900D01*
X-395980Y-1060000D01*
X-401340Y-1059820D01*
X-406680Y-1060360D01*
X-411900Y-1061620D01*
X-416920Y-1063540D01*
X-421620Y-1066120D01*
X-425940Y-1069300D01*
X-429799Y-1073040D01*
X-432660Y-1076660D01*
X-433920Y-1077700D01*
X-435480Y-1078160D01*
X-437120Y-1077960D01*
X-438519Y-1077100D01*
X-439460Y-1075780D01*
X-439799Y-1074180D01*
X-439799Y-1025819D01*
X-439460Y-1024220D01*
X-438519Y-1022880D01*
X-437120Y-1022039D01*
X-435480Y-1021840D01*
X-433920Y-1022300D01*
X-432660Y-1023340D01*
X-429799Y-1026960D01*
X-425940Y-1030699D01*
X-421620Y-1033880D01*
X-416920Y-1036460D01*
X-411900Y-1038379D01*
X-406680Y-1039620D01*
X-401340Y-1040160D01*
X-395980Y-1039980D01*
X-390680Y-1039100D01*
X-385560Y-1037500D01*
X-380680Y-1035240D01*
X-376160Y-1032360D01*
X-372060Y-1028880D01*
X-368459Y-1024900D01*
X-365420Y-1020480D01*
X-363000Y-1015680D01*
X-361240Y-1010620D01*
X-360160Y-1005360D01*
X-359799Y-1000000D01*
X-360160Y-994640D01*
X-361240Y-989380D01*
X-363000Y-984300D01*
X-365420Y-979520D01*
X-368459Y-975080D01*
X-372060Y-971100D01*
X-376160Y-967640D01*
X-380680Y-964760D01*
X-385560Y-962500D01*
X-390680Y-960900D01*
X-395980Y-960000D01*
X-401340Y-959820D01*
X-406680Y-960360D01*
X-411900Y-961620D01*
X-416920Y-963540D01*
X-421620Y-966120D01*
X-425940Y-969300D01*
X-429799Y-973040D01*
X-432660Y-976660D01*
X-433920Y-977700D01*
X-435480Y-978160D01*
X-437120Y-977960D01*
X-438519Y-977099D01*
X-439460Y-975780D01*
X-439799Y-974180D01*
X-439799Y-925819D01*
X-439460Y-924220D01*
X-438519Y-922880D01*
X-437120Y-922039D01*
X-435480Y-921840D01*
X-433920Y-922300D01*
X-432660Y-923340D01*
X-429799Y-926960D01*
X-425940Y-930699D01*
X-421620Y-933880D01*
X-416920Y-936460D01*
X-411900Y-938379D01*
X-406680Y-939620D01*
X-401340Y-940160D01*
X-395980Y-939980D01*
X-390680Y-939100D01*
X-385560Y-937500D01*
X-380680Y-935240D01*
X-376160Y-932360D01*
X-372060Y-928880D01*
X-368459Y-924900D01*
X-365420Y-920480D01*
X-363000Y-915680D01*
X-361240Y-910620D01*
X-360160Y-905360D01*
X-359799Y-900000D01*
X-360160Y-894640D01*
X-361240Y-889380D01*
X-363000Y-884300D01*
X-365420Y-879520D01*
X-368459Y-875080D01*
X-372060Y-871100D01*
X-376160Y-867640D01*
X-380680Y-864760D01*
X-385560Y-862500D01*
X-390680Y-860900D01*
X-395980Y-860000D01*
X-401340Y-859820D01*
X-406680Y-860360D01*
X-411900Y-861620D01*
X-416920Y-863540D01*
X-421620Y-866120D01*
X-425940Y-869300D01*
X-429799Y-873040D01*
X-432660Y-876660D01*
X-433920Y-877700D01*
X-435480Y-878160D01*
X-437120Y-877960D01*
X-438519Y-877099D01*
X-439460Y-875780D01*
X-439799Y-874180D01*
X-439799Y-825819D01*
X-439460Y-824220D01*
X-438519Y-822880D01*
X-437120Y-822039D01*
X-435480Y-821840D01*
X-433920Y-822300D01*
X-432660Y-823340D01*
X-429799Y-826960D01*
X-425940Y-830699D01*
X-421620Y-833880D01*
X-416920Y-836460D01*
X-411900Y-838379D01*
X-406680Y-839620D01*
X-401340Y-840160D01*
X-395980Y-839980D01*
X-390680Y-839100D01*
X-385560Y-837500D01*
X-380680Y-835240D01*
X-376160Y-832360D01*
X-372060Y-828880D01*
X-368459Y-824900D01*
X-365420Y-820480D01*
X-363000Y-815680D01*
X-361240Y-810620D01*
X-360160Y-805360D01*
X-359799Y-800000D01*
X-360160Y-794640D01*
X-361240Y-789380D01*
X-363000Y-784300D01*
X-365420Y-779520D01*
X-368459Y-775080D01*
X-372060Y-771100D01*
X-376160Y-767640D01*
X-380680Y-764760D01*
X-385560Y-762500D01*
X-390680Y-760900D01*
X-395980Y-760000D01*
X-401340Y-759820D01*
X-406680Y-760360D01*
X-411900Y-761620D01*
X-416920Y-763540D01*
X-421620Y-766120D01*
X-425940Y-769300D01*
X-429799Y-773040D01*
X-432660Y-776660D01*
X-433920Y-777700D01*
X-435480Y-778160D01*
X-437120Y-777940D01*
X-438519Y-777099D01*
X-439460Y-775780D01*
X-439799Y-774180D01*
X-439799Y-725819D01*
X-439460Y-724220D01*
X-438519Y-722880D01*
X-437120Y-722039D01*
X-435480Y-721840D01*
X-433920Y-722300D01*
X-432660Y-723340D01*
X-429799Y-726960D01*
X-425940Y-730699D01*
X-421620Y-733880D01*
X-416920Y-736460D01*
X-411900Y-738379D01*
X-406680Y-739620D01*
X-401340Y-740160D01*
X-395980Y-739980D01*
X-390680Y-739100D01*
X-385560Y-737500D01*
X-380680Y-735240D01*
X-376160Y-732360D01*
X-372060Y-728880D01*
X-368459Y-724900D01*
X-365420Y-720480D01*
X-363000Y-715680D01*
X-361240Y-710620D01*
X-360160Y-705360D01*
X-359799Y-700000D01*
X-360160Y-694640D01*
X-361240Y-689380D01*
X-363000Y-684300D01*
X-365420Y-679520D01*
X-368459Y-675080D01*
X-372060Y-671100D01*
X-376160Y-667640D01*
X-380680Y-664760D01*
X-385560Y-662500D01*
X-390680Y-660900D01*
X-395980Y-660000D01*
X-401340Y-659820D01*
X-406680Y-660360D01*
X-411900Y-661620D01*
X-416920Y-663540D01*
X-421620Y-666120D01*
X-425940Y-669300D01*
X-429799Y-673040D01*
X-432660Y-676640D01*
X-433920Y-677700D01*
X-435480Y-678160D01*
X-437120Y-677940D01*
X-438519Y-677099D01*
X-439460Y-675780D01*
X-439799Y-674160D01*
X-439799Y-625820D01*
X-439460Y-624220D01*
X-438519Y-622880D01*
X-437120Y-622040D01*
X-435480Y-621840D01*
X-433920Y-622300D01*
X-432660Y-623340D01*
X-429799Y-626960D01*
X-425940Y-630700D01*
X-421620Y-633880D01*
X-416920Y-636460D01*
X-411900Y-638380D01*
X-406680Y-639620D01*
X-401340Y-640160D01*
X-395980Y-639980D01*
X-390680Y-639100D01*
X-385560Y-637500D01*
X-380680Y-635240D01*
X-376160Y-632360D01*
X-372060Y-628880D01*
X-368459Y-624900D01*
X-365420Y-620480D01*
X-363000Y-615680D01*
X-361240Y-610620D01*
X-360160Y-605360D01*
X-359799Y-600000D01*
X-360160Y-594640D01*
X-361240Y-589380D01*
X-363000Y-584300D01*
X-365420Y-579520D01*
X-368459Y-575080D01*
X-372060Y-571100D01*
X-376160Y-567640D01*
X-380680Y-564760D01*
X-385560Y-562500D01*
X-390680Y-560900D01*
X-395980Y-560000D01*
X-401340Y-559820D01*
X-406680Y-560360D01*
X-411900Y-561620D01*
X-416920Y-563540D01*
X-421620Y-566120D01*
X-425940Y-569300D01*
X-429799Y-573040D01*
X-432660Y-576640D01*
X-433920Y-577700D01*
X-435480Y-578160D01*
X-437120Y-577940D01*
X-438519Y-577100D01*
X-439460Y-575780D01*
X-439799Y-574160D01*
X-439799Y-525820D01*
X-439460Y-524219D01*
X-438519Y-522879D01*
X-437120Y-522040D01*
X-435480Y-521840D01*
X-433920Y-522299D01*
X-432660Y-523340D01*
X-429799Y-526960D01*
X-425940Y-530700D01*
X-421620Y-533880D01*
X-416920Y-536460D01*
X-411900Y-538380D01*
X-406680Y-539620D01*
X-401340Y-540160D01*
X-395980Y-539980D01*
X-390680Y-539100D01*
X-385560Y-537500D01*
X-380680Y-535240D01*
X-376160Y-532360D01*
X-372060Y-528880D01*
X-368459Y-524900D01*
X-365420Y-520480D01*
X-363000Y-515680D01*
X-361240Y-510620D01*
X-360160Y-505360D01*
X-359799Y-500000D01*
X-360160Y-494640D01*
X-361240Y-489380D01*
X-363000Y-484300D01*
X-365420Y-479520D01*
X-368459Y-475080D01*
X-372060Y-471100D01*
X-376160Y-467640D01*
X-380680Y-464760D01*
X-385560Y-462500D01*
X-390680Y-460900D01*
X-395980Y-460000D01*
X-401340Y-459820D01*
X-406680Y-460360D01*
X-411900Y-461620D01*
X-416920Y-463540D01*
X-421620Y-466120D01*
X-425940Y-469300D01*
X-429799Y-473040D01*
X-432660Y-476640D01*
X-433920Y-477700D01*
X-435480Y-478160D01*
X-437120Y-477939D01*
X-438519Y-477100D01*
X-439460Y-475780D01*
X-439799Y-474159D01*
X-439799Y-425820D01*
X-439460Y-424219D01*
X-438519Y-422879D01*
X-437120Y-422040D01*
X-435480Y-421840D01*
X-433920Y-422299D01*
X-432660Y-423340D01*
X-429799Y-426960D01*
X-425940Y-430700D01*
X-421620Y-433880D01*
X-416920Y-436460D01*
X-411900Y-438380D01*
X-406680Y-439620D01*
X-401340Y-440160D01*
X-395980Y-439980D01*
X-390680Y-439099D01*
X-385560Y-437500D01*
X-380680Y-435240D01*
X-376160Y-432360D01*
X-372060Y-428880D01*
X-368459Y-424900D01*
X-365420Y-420480D01*
X-363000Y-415680D01*
X-361240Y-410620D01*
X-360160Y-405360D01*
X-359799Y-400000D01*
X-360160Y-394640D01*
X-361240Y-389380D01*
X-363000Y-384300D01*
X-365420Y-379520D01*
X-368459Y-375080D01*
X-372060Y-371100D01*
X-376160Y-367640D01*
X-380680Y-364760D01*
X-385560Y-362500D01*
X-390680Y-360900D01*
X-395980Y-360000D01*
X-401340Y-359820D01*
X-406680Y-360360D01*
X-411900Y-361620D01*
X-416920Y-363540D01*
X-421620Y-366120D01*
X-425940Y-369300D01*
X-429799Y-373040D01*
X-432660Y-376640D01*
X-433920Y-377700D01*
X-435480Y-378160D01*
X-437120Y-377939D01*
X-438519Y-377100D01*
X-439460Y-375780D01*
X-439799Y-374159D01*
X-439799Y-325820D01*
X-439460Y-324219D01*
X-438519Y-322879D01*
X-437120Y-322040D01*
X-435480Y-321840D01*
X-433920Y-322299D01*
X-432660Y-323340D01*
X-429799Y-326960D01*
X-425940Y-330700D01*
X-421620Y-333880D01*
X-416920Y-336460D01*
X-411900Y-338380D01*
X-406680Y-339620D01*
X-401340Y-340160D01*
X-395980Y-339980D01*
X-390680Y-339099D01*
X-385560Y-337500D01*
X-380680Y-335240D01*
X-376160Y-332360D01*
X-372060Y-328880D01*
X-368459Y-324900D01*
X-365420Y-320480D01*
X-363000Y-315680D01*
X-361240Y-310620D01*
X-360160Y-305360D01*
X-359799Y-300000D01*
X-360160Y-294640D01*
X-361240Y-289380D01*
X-363000Y-284300D01*
X-365420Y-279520D01*
X-368459Y-275080D01*
X-372060Y-271100D01*
X-376160Y-267640D01*
X-380680Y-264760D01*
X-385560Y-262500D01*
X-390680Y-260900D01*
X-395980Y-260000D01*
X-401340Y-259820D01*
X-406680Y-260360D01*
X-411900Y-261620D01*
X-416920Y-263540D01*
X-421620Y-266120D01*
X-425940Y-269300D01*
X-429799Y-273040D01*
X-432660Y-276640D01*
X-433920Y-277700D01*
X-435480Y-278160D01*
X-437120Y-277940D01*
X-438519Y-277100D01*
X-439460Y-275780D01*
X-439799Y-274160D01*
X-439799Y-225820D01*
X-439460Y-224220D01*
X-438519Y-222900D01*
X-437120Y-222040D01*
X-435480Y-221840D01*
X-433920Y-222300D01*
X-432660Y-223340D01*
X-429799Y-226960D01*
X-425940Y-230700D01*
X-421620Y-233880D01*
X-416920Y-236460D01*
X-411900Y-238380D01*
X-406680Y-239640D01*
X-401340Y-240159D01*
X-395980Y-239980D01*
X-390680Y-239100D01*
X-385560Y-237500D01*
X-380680Y-235240D01*
X-376160Y-232360D01*
X-372060Y-228880D01*
X-368459Y-224899D01*
X-365420Y-220479D01*
X-363000Y-215680D01*
X-361240Y-210620D01*
X-360160Y-205360D01*
X-359799Y-200000D01*
X-360160Y-194640D01*
X-361240Y-189380D01*
X-363000Y-184300D01*
X-365420Y-179520D01*
X-368459Y-175100D01*
X-372060Y-171100D01*
X-376160Y-167640D01*
X-380680Y-164760D01*
X-385560Y-162500D01*
X-390680Y-160900D01*
X-395980Y-160000D01*
X-401340Y-159840D01*
X-406680Y-160360D01*
X-411900Y-161620D01*
X-416920Y-163540D01*
X-421620Y-166119D01*
X-425940Y-169300D01*
X-429799Y-173039D01*
X-432660Y-176640D01*
X-433920Y-177700D01*
X-435480Y-178160D01*
X-437120Y-177940D01*
X-438519Y-177100D01*
X-439460Y-175780D01*
X-439799Y-174180D01*
X-439799Y-125820D01*
X-439460Y-124220D01*
X-438519Y-122899D01*
X-437120Y-122040D01*
X-435480Y-121840D01*
X-433920Y-122300D01*
X-432660Y-123340D01*
X-429799Y-126960D01*
X-425940Y-130700D01*
X-421620Y-133880D01*
X-416920Y-136460D01*
X-411900Y-138380D01*
X-406680Y-139640D01*
X-401340Y-140160D01*
X-395980Y-139980D01*
X-390680Y-139100D01*
X-385560Y-137500D01*
X-380680Y-135240D01*
X-376160Y-132360D01*
X-372060Y-128880D01*
X-368459Y-124900D01*
X-365420Y-120480D01*
X-363000Y-115680D01*
X-361240Y-110620D01*
X-360160Y-105360D01*
X-359799Y-100000D01*
X-360160Y-94640D01*
X-361240Y-89380D01*
X-363000Y-84300D01*
X-365420Y-79520D01*
X-368459Y-75100D01*
X-372060Y-71100D01*
X-376160Y-67640D01*
X-380680Y-64760D01*
X-385560Y-62500D01*
X-390680Y-60900D01*
X-395980Y-60000D01*
X-401340Y-59840D01*
X-406680Y-60359D01*
X-411900Y-61620D01*
X-416920Y-63540D01*
X-421620Y-66120D01*
X-425940Y-69300D01*
X-429799Y-73040D01*
X-432660Y-76640D01*
X-433920Y-77700D01*
X-435480Y-78160D01*
X-437120Y-77940D01*
X-438519Y-77100D01*
X-439460Y-75780D01*
X-439799Y-74180D01*
X-439799Y-25820D01*
X-439460Y-24220D01*
X-438519Y-22900D01*
X-437120Y-22040D01*
X-435480Y-21840D01*
X-433920Y-22300D01*
X-432660Y-23340D01*
X-429799Y-26960D01*
X-425940Y-30700D01*
X-421620Y-33880D01*
X-416920Y-36460D01*
X-411900Y-38380D01*
X-406680Y-39640D01*
X-401340Y-40160D01*
X-395980Y-39980D01*
X-390680Y-39100D01*
X-385560Y-37500D01*
X-380680Y-35240D01*
X-376160Y-32360D01*
X-372060Y-28880D01*
X-368459Y-24900D01*
X-365420Y-20480D01*
X-363000Y-15680D01*
X-361240Y-10620D01*
X-360160Y-5360D01*
X-359799Y0D01*
X-360160Y5360D01*
X-361240Y10620D01*
X-363000Y15700D01*
X-365420Y20480D01*
X-368459Y24900D01*
X-372060Y28900D01*
X-376160Y32360D01*
X-380680Y35240D01*
X-385560Y37500D01*
X-390680Y39100D01*
X-395980Y40000D01*
X-401340Y40160D01*
X-406680Y39640D01*
X-411900Y38380D01*
X-416920Y36460D01*
X-421620Y33880D01*
X-425940Y30700D01*
X-429799Y26960D01*
X-432660Y23360D01*
X-433920Y22300D01*
X-435480Y21840D01*
X-437120Y22060D01*
X-438519Y22900D01*
X-439460Y24220D01*
X-439799Y25820D01*
X-439799Y74180D01*
X-439460Y75780D01*
X-438519Y77100D01*
X-437120Y77960D01*
X-435480Y78160D01*
X-433920Y77700D01*
X-432660Y76660D01*
X-429799Y73040D01*
X-425940Y69300D01*
X-421620Y66120D01*
X-416920Y63540D01*
X-411900Y61620D01*
X-406680Y60359D01*
X-401340Y59840D01*
X-395980Y60020D01*
X-390680Y60900D01*
X-385560Y62500D01*
X-380680Y64760D01*
X-376160Y67640D01*
X-372060Y71120D01*
X-368459Y75100D01*
X-365420Y79520D01*
X-363000Y84320D01*
X-361240Y89380D01*
X-360160Y94640D01*
X-359799Y100000D01*
X-360160Y105360D01*
X-361240Y110620D01*
X-363000Y115700D01*
X-365420Y120480D01*
X-368459Y124900D01*
X-372060Y128900D01*
X-376160Y132360D01*
X-380680Y135240D01*
X-385560Y137500D01*
X-390680Y139100D01*
X-395980Y140000D01*
X-401340Y140160D01*
X-406680Y139640D01*
X-411900Y138380D01*
X-416920Y136460D01*
X-421620Y133880D01*
X-425940Y130700D01*
X-429799Y126960D01*
X-432660Y123360D01*
X-433920Y122300D01*
X-435480Y121840D01*
X-437120Y122060D01*
X-438519Y122899D01*
X-439460Y124220D01*
X-439799Y125820D01*
X-439799Y174180D01*
X-439460Y175780D01*
X-438519Y177100D01*
X-437120Y177960D01*
X-435480Y178160D01*
X-433920Y177700D01*
X-432660Y176660D01*
X-429799Y173039D01*
X-425940Y169300D01*
X-421620Y166119D01*
X-417500Y163860D01*
X-417500Y182500D01*
X-435800Y182500D01*
X-437320Y182800D01*
X-438620Y183680D01*
X-439500Y184960D01*
X-439799Y186500D01*
X-439799Y213500D01*
X-439500Y215040D01*
X-438620Y216320D01*
X-437320Y217200D01*
X-435800Y217500D01*
X-417500Y217500D01*
X-417500Y236140D01*
X-421620Y233880D01*
X-425940Y230700D01*
X-429799Y226960D01*
X-432660Y223340D01*
X-433920Y222300D01*
X-435480Y221840D01*
X-437120Y222040D01*
X-438519Y222900D01*
X-439460Y224220D01*
X-439799Y225820D01*
X-439799Y274180D01*
X-439460Y275780D01*
X-438519Y277100D01*
X-437120Y277960D01*
X-435480Y278160D01*
X-433920Y277700D01*
X-432660Y276660D01*
X-429799Y273040D01*
X-425940Y269300D01*
X-421620Y266120D01*
X-416920Y263540D01*
X-411900Y261620D01*
X-406680Y260360D01*
X-401340Y259840D01*
X-395980Y260000D01*
X-390680Y260900D01*
X-385560Y262500D01*
X-380680Y264760D01*
X-376160Y267640D01*
X-372060Y271100D01*
X-368459Y275100D01*
X-365319Y279720D01*
X-364420Y280900D01*
X-363180Y281660D01*
X-361740Y281920D01*
X-344140Y281920D01*
X-342620Y281620D01*
X-341320Y280760D01*
X-304240Y243680D01*
X-303380Y242380D01*
X-303080Y240859D01*
X-303060Y99300D01*
X-302580Y95860D01*
X-301520Y92700D01*
X-299900Y89800D01*
X-297640Y87080D01*
X-222300Y11760D01*
X-219540Y9660D01*
X-216560Y8179D01*
X-213340Y7260D01*
X-209840Y6919D01*
X-94700Y6720D01*
X-92160Y6919D01*
X-64140Y6919D01*
X-62619Y6620D01*
X-61320Y5760D01*
X-57240Y1719D01*
X-54500Y-360D01*
X-51520Y-1840D01*
X-48320Y-2740D01*
X-44460Y-3080D01*
X-42820Y-3420D01*
X-41480Y-4400D01*
X-40640Y-5860D01*
X-40480Y-7520D01*
X-41000Y-9100D01*
X-42140Y-10340D01*
X-42680Y-10720D01*
X-44920Y-13060D01*
X-46660Y-15800D01*
X-47880Y-18820D01*
X-48500Y-22000D01*
X-48500Y-25240D01*
X-47880Y-28440D01*
X-46660Y-31440D01*
X-44920Y-34180D01*
X-42680Y-36520D01*
X-40039Y-38400D01*
X-37080Y-39760D01*
X-33920Y-40519D01*
X-30680Y-40679D01*
X-27480Y-40220D01*
X-24400Y-39160D01*
X-21600Y-37520D01*
X-19140Y-35400D01*
X-17140Y-32860D01*
X-15640Y-29960D01*
X-14740Y-26860D01*
X-14420Y-23620D01*
X-14740Y-20400D01*
X-15380Y-18200D01*
X-15520Y-16740D01*
X-15120Y-15300D01*
X-14240Y-14120D01*
X-12980Y-13340D01*
X-11540Y-13080D01*
X30700Y-13060D01*
X34140Y-12580D01*
X37300Y-11520D01*
X40199Y-9900D01*
X42920Y-7640D01*
X73260Y22719D01*
X75360Y25500D01*
X76860Y28520D01*
X77580Y30820D01*
X77940Y33480D01*
X78380Y34840D01*
X79280Y35940D01*
X80500Y36680D01*
X81900Y36920D01*
X94820Y36920D01*
X98320Y37260D01*
X101519Y38160D01*
X104500Y39640D01*
X107160Y41660D01*
X109400Y44120D01*
X111160Y46960D01*
X112360Y50060D01*
X112980Y53339D01*
X112980Y56660D01*
X112360Y59940D01*
X111160Y63040D01*
X109400Y65880D01*
X107160Y68340D01*
X104500Y70360D01*
X101519Y71840D01*
X98320Y72740D01*
X94820Y73080D01*
X64300Y73060D01*
X60860Y72580D01*
X57699Y71520D01*
X54800Y69900D01*
X52100Y67660D01*
X50340Y65900D01*
X48940Y64980D01*
X47280Y64720D01*
X45660Y65180D01*
X44360Y66240D01*
X43860Y66900D01*
X41400Y69020D01*
X38580Y70640D01*
X35520Y71700D01*
X32300Y72180D01*
X29060Y72020D01*
X25920Y71260D01*
X22960Y69900D01*
X20320Y68020D01*
X18080Y65680D01*
X16319Y62939D01*
X15560Y61020D01*
X14640Y59660D01*
X13260Y58760D01*
X11640Y58500D01*
X10060Y58920D01*
X8780Y59940D01*
X6480Y64340D01*
X4480Y66900D01*
X2020Y69020D01*
X-780Y70640D01*
X-3840Y71700D01*
X-7060Y72180D01*
X-10300Y72020D01*
X-13460Y71260D01*
X-16400Y69900D01*
X-19060Y68020D01*
X-21300Y65680D01*
X-23040Y62939D01*
X-24260Y59920D01*
X-24860Y56740D01*
X-24860Y53500D01*
X-24260Y50300D01*
X-23040Y47300D01*
X-21300Y44560D01*
X-19060Y42220D01*
X-17700Y41240D01*
X-16600Y40060D01*
X-16060Y38540D01*
X-16160Y36940D01*
X-16540Y35500D01*
X-17260Y34080D01*
X-18440Y33060D01*
X-19940Y32580D01*
X-25179Y33080D01*
X-35860Y33080D01*
X-37380Y33380D01*
X-38680Y34240D01*
X-42760Y38280D01*
X-45500Y40359D01*
X-48480Y41840D01*
X-51680Y42740D01*
X-55180Y43080D01*
X-94120Y43080D01*
X-96560Y42880D01*
X-128219Y42939D01*
X-129780Y43259D01*
X-131100Y44180D01*
X-131960Y45540D01*
X-132200Y47120D01*
X-131800Y48680D01*
X-130820Y49960D01*
X-129380Y51220D01*
X-127380Y53760D01*
X-125879Y56640D01*
X-124960Y59760D01*
X-124660Y63000D01*
X-124960Y66220D01*
X-125879Y69340D01*
X-127380Y72220D01*
X-129380Y74780D01*
X-131820Y76900D01*
X-134640Y78520D01*
X-137700Y79580D01*
X-140920Y80040D01*
X-146100Y79800D01*
X-147680Y80480D01*
X-148820Y81760D01*
X-149320Y83400D01*
X-149080Y85100D01*
X-148160Y86560D01*
X-144740Y89980D01*
X-141840Y93840D01*
X-139520Y98080D01*
X-137840Y102600D01*
X-136820Y107300D01*
X-136460Y112260D01*
X-136460Y125200D01*
X-136060Y126940D01*
X-134980Y128320D01*
X-133380Y129100D01*
X-131600Y129120D01*
X-130000Y128360D01*
X-127820Y126660D01*
X-124200Y124700D01*
X-120300Y123360D01*
X-116240Y122700D01*
X-112120Y122700D01*
X-108059Y123360D01*
X-104160Y124700D01*
X-100540Y126660D01*
X-97280Y129200D01*
X-94500Y132240D01*
X-92240Y135680D01*
X-90580Y139460D01*
X-89560Y143440D01*
X-89220Y147560D01*
X-89560Y151660D01*
X-90580Y155660D01*
X-92240Y159440D01*
X-94500Y162880D01*
X-97280Y165920D01*
X-100540Y168440D01*
X-104160Y170400D01*
X-108059Y171740D01*
X-112120Y172420D01*
X-116240Y172420D01*
X-120300Y171740D01*
X-124200Y170400D01*
X-127820Y168440D01*
X-131080Y165920D01*
X-133860Y162880D01*
X-134840Y161380D01*
X-136000Y160219D01*
X-137540Y159620D01*
X-139160Y159700D01*
X-140640Y160400D01*
X-144740Y165760D01*
X-148140Y169180D01*
X-152000Y172060D01*
X-156240Y174380D01*
X-160760Y176060D01*
X-165479Y177079D01*
X-170280Y177420D01*
X-175100Y177079D01*
X-179800Y176060D01*
X-184320Y174380D01*
X-188560Y172060D01*
X-192420Y169180D01*
X-195840Y165760D01*
X-198720Y161900D01*
X-201040Y157660D01*
X-202719Y153140D01*
X-203760Y148420D01*
X-204100Y143480D01*
X-204100Y112260D01*
X-203760Y107300D01*
X-202719Y102600D01*
X-201040Y98080D01*
X-198720Y93840D01*
X-195840Y89980D01*
X-192420Y86560D01*
X-188560Y83680D01*
X-184320Y81359D01*
X-179800Y79680D01*
X-175100Y78660D01*
X-170280Y78300D01*
X-165479Y78660D01*
X-160760Y79680D01*
X-159280Y80239D01*
X-157760Y80480D01*
X-156280Y80160D01*
X-155020Y79280D01*
X-154180Y78020D01*
X-153880Y76520D01*
X-154160Y75020D01*
X-156900Y70820D01*
X-158120Y67800D01*
X-158720Y64620D01*
X-158720Y61360D01*
X-158120Y58179D01*
X-156900Y55160D01*
X-155160Y52440D01*
X-152560Y49760D01*
X-151720Y48460D01*
X-151440Y46920D01*
X-151760Y45420D01*
X-152640Y44140D01*
X-153920Y43280D01*
X-155440Y42980D01*
X-200840Y43060D01*
X-202380Y43360D01*
X-203660Y44220D01*
X-265760Y106320D01*
X-266620Y107620D01*
X-266920Y109140D01*
X-266940Y250700D01*
X-267420Y254140D01*
X-268480Y257300D01*
X-270100Y260200D01*
X-272360Y262920D01*
X-322720Y313260D01*
X-325500Y315360D01*
X-328480Y316840D01*
X-331680Y317740D01*
X-335180Y318080D01*
X-361740Y318080D01*
X-363180Y318340D01*
X-364420Y319100D01*
X-368459Y324900D01*
X-372060Y328880D01*
X-376280Y332420D01*
X-377480Y333620D01*
X-378080Y335220D01*
X-377960Y336920D01*
X-377140Y338420D01*
X-375780Y339440D01*
X-374120Y339799D01*
X-191080Y339799D01*
X-189460Y339460D01*
X-188120Y338480D01*
X-187280Y337060D01*
X-187100Y335420D01*
X-187600Y333840D01*
X-188680Y332600D01*
X-192420Y329799D01*
X-195840Y326380D01*
X-198720Y322520D01*
X-201040Y318280D01*
X-202719Y313760D01*
X-203760Y309060D01*
X-204100Y304100D01*
X-204100Y280760D01*
X-203760Y275820D01*
X-202719Y271100D01*
X-201040Y266580D01*
X-198720Y262340D01*
X-195840Y258480D01*
X-192420Y255060D01*
X-188560Y252180D01*
X-184320Y249860D01*
X-179800Y248180D01*
X-175100Y247160D01*
X-170280Y246820D01*
X-165479Y247160D01*
X-160760Y248180D01*
X-156240Y249860D01*
X-152000Y252180D01*
X-148140Y255060D01*
X-144740Y258480D01*
X-141840Y262340D01*
X-139520Y266580D01*
X-137840Y271100D01*
X-136820Y275820D01*
X-136460Y280760D01*
X-136460Y304100D01*
X-136820Y309060D01*
X-137840Y313760D01*
X-139520Y318280D01*
X-141840Y322520D01*
X-144740Y326380D01*
X-148140Y329799D01*
X-151880Y332600D01*
X-152980Y333840D01*
X-153460Y335420D01*
X-153280Y337060D01*
X-152440Y338480D01*
X-151100Y339460D01*
X-149480Y339799D01*
X149460Y339799D01*
X151080Y339460D01*
X152420Y338480D01*
X153260Y337060D01*
X153440Y335420D01*
X152960Y333840D01*
X151860Y332600D01*
X148120Y329799D01*
X144720Y326380D01*
X141820Y322520D01*
X139500Y318280D01*
X137820Y313760D01*
X136800Y309060D01*
X136440Y304100D01*
X136440Y280760D01*
X136800Y275820D01*
X137820Y271100D01*
X139500Y266580D01*
X141820Y262340D01*
X144720Y258480D01*
X148120Y255060D01*
X151980Y252180D01*
X156220Y249860D01*
X160740Y248180D01*
X165460Y247160D01*
X170260Y246820D01*
X175080Y247160D01*
X179780Y248180D01*
X184300Y249860D01*
X188540Y252180D01*
X192399Y255060D01*
X195820Y258480D01*
X198700Y262340D01*
X201020Y266580D01*
X202700Y271100D01*
X203740Y275820D01*
X204080Y280760D01*
X204080Y304100D01*
X203740Y309060D01*
X202700Y313760D01*
X201020Y318280D01*
X198700Y322520D01*
X195820Y326380D01*
X192399Y329799D01*
X188660Y332600D01*
X187580Y333840D01*
X187079Y335420D01*
X187260Y337060D01*
X188100Y338480D01*
X189440Y339460D01*
X191060Y339799D01*
X374240Y339799D01*
X375860Y339460D01*
X377200Y338480D01*
X378040Y337040D01*
X378220Y335400D01*
X377720Y333820D01*
X376620Y332580D01*
X374060Y330700D01*
X370200Y326960D01*
X366860Y322740D01*
X364120Y318120D01*
X362040Y313180D01*
X360620Y308000D01*
X360080Y304020D01*
X359700Y302780D01*
X358940Y301720D01*
X283760Y226520D01*
X281620Y223939D01*
X280140Y221160D01*
X279220Y218140D01*
X278900Y214800D01*
X278900Y106320D01*
X278600Y104800D01*
X277720Y103500D01*
X229340Y55119D01*
X228120Y54280D01*
X226660Y53960D01*
X225180Y54180D01*
X223880Y54940D01*
X222960Y56120D01*
X221360Y59220D01*
X219360Y61780D01*
X216900Y63900D01*
X214100Y65519D01*
X211020Y66600D01*
X207820Y67060D01*
X204579Y66900D01*
X201420Y66140D01*
X198460Y64780D01*
X195820Y62900D01*
X193580Y60560D01*
X191820Y57820D01*
X190620Y54800D01*
X190000Y51620D01*
X190000Y48380D01*
X190620Y45199D01*
X191820Y42180D01*
X193039Y40279D01*
X193580Y39040D01*
X193660Y37680D01*
X193299Y36380D01*
X192520Y35280D01*
X171500Y14280D01*
X170200Y13400D01*
X168680Y13100D01*
X113200Y13100D01*
X109860Y12780D01*
X106840Y11860D01*
X104060Y10380D01*
X101480Y8240D01*
X33760Y-59480D01*
X31620Y-62060D01*
X30139Y-64840D01*
X29220Y-67860D01*
X28900Y-71200D01*
X28900Y-74900D01*
X28600Y-76420D01*
X27719Y-77720D01*
X26420Y-78600D01*
X24900Y-78900D01*
X-114900Y-78900D01*
X-116420Y-78600D01*
X-117720Y-77720D01*
X-118580Y-76420D01*
X-118900Y-74900D01*
X-118900Y-41040D01*
X-118740Y-39920D01*
X-118240Y-38240D01*
X-117920Y-35000D01*
X-118240Y-31760D01*
X-119160Y-28660D01*
X-120640Y-25780D01*
X-122640Y-23220D01*
X-125100Y-21100D01*
X-127899Y-19480D01*
X-130980Y-18400D01*
X-134180Y-17940D01*
X-137420Y-18100D01*
X-140580Y-18860D01*
X-143540Y-20219D01*
X-146180Y-22100D01*
X-148420Y-24440D01*
X-150180Y-27180D01*
X-151380Y-30200D01*
X-152000Y-33380D01*
X-152000Y-36620D01*
X-151100Y-41260D01*
X-151100Y-64900D01*
X-151400Y-66420D01*
X-152280Y-67720D01*
X-153580Y-68600D01*
X-155100Y-68900D01*
X-179800Y-68900D01*
X-184720Y-69380D01*
X-186220Y-68940D01*
X-187420Y-67940D01*
X-188160Y-66580D01*
X-188320Y-65020D01*
X-188020Y-62080D01*
X-188340Y-58840D01*
X-189259Y-55740D01*
X-190740Y-52840D01*
X-192740Y-50300D01*
X-195200Y-48179D01*
X-198000Y-46540D01*
X-201080Y-45480D01*
X-204280Y-45020D01*
X-207540Y-45180D01*
X-210680Y-45940D01*
X-213640Y-47300D01*
X-216280Y-49180D01*
X-218520Y-51520D01*
X-220280Y-54260D01*
X-221480Y-57260D01*
X-222100Y-60460D01*
X-222100Y-63700D01*
X-221480Y-66880D01*
X-220280Y-69900D01*
X-218520Y-72640D01*
X-216280Y-74980D01*
X-213640Y-76860D01*
X-210680Y-78200D01*
X-207540Y-78980D01*
X-206280Y-79040D01*
X-204780Y-79400D01*
X-203540Y-80300D01*
X-202740Y-81580D01*
X-202460Y-83100D01*
X-202780Y-84600D01*
X-203640Y-85860D01*
X-210500Y-92720D01*
X-211800Y-93600D01*
X-213320Y-93900D01*
X-254800Y-93900D01*
X-258140Y-94220D01*
X-261160Y-95140D01*
X-263940Y-96620D01*
X-266520Y-98760D01*
X-296240Y-128480D01*
X-298380Y-131060D01*
X-299860Y-133840D01*
X-300780Y-136860D01*
X-301100Y-140200D01*
X-301100Y-179800D01*
X-300780Y-183140D01*
X-299860Y-186160D01*
X-298380Y-188939D01*
X-296240Y-191520D01*
X-276520Y-211240D01*
X-273940Y-213380D01*
X-271160Y-214860D01*
X-268140Y-215780D01*
X-264800Y-216100D01*
X-254420Y-216100D01*
X-252820Y-216439D01*
X-251480Y-217399D01*
X-250640Y-218820D01*
X-250440Y-220460D01*
X-250920Y-222040D01*
X-252000Y-223280D01*
X-256560Y-225380D01*
X-259220Y-227260D01*
X-261460Y-229600D01*
X-263200Y-232340D01*
X-264420Y-235340D01*
X-265020Y-238540D01*
X-265020Y-241780D01*
X-264420Y-244960D01*
X-263200Y-247979D01*
X-261460Y-250720D01*
X-259220Y-253060D01*
X-256560Y-254940D01*
X-253619Y-256280D01*
X-250460Y-257060D01*
X-247220Y-257200D01*
X-244000Y-256740D01*
X-240940Y-255680D01*
X-238120Y-254060D01*
X-235680Y-251940D01*
X-233660Y-249380D01*
X-232180Y-246500D01*
X-231260Y-243380D01*
X-230960Y-240159D01*
X-231260Y-236920D01*
X-232180Y-233820D01*
X-233660Y-230920D01*
X-235680Y-228380D01*
X-238120Y-226260D01*
X-240940Y-224620D01*
X-243080Y-223880D01*
X-244460Y-223080D01*
X-245400Y-221800D01*
X-245780Y-220240D01*
X-245500Y-218660D01*
X-244660Y-217320D01*
X-243340Y-216420D01*
X-241780Y-216100D01*
X-198320Y-216100D01*
X-196800Y-216420D01*
X-195500Y-217280D01*
X-170880Y-241900D01*
X-170340Y-242560D01*
X-168420Y-245560D01*
X-166180Y-247900D01*
X-163540Y-249780D01*
X-160580Y-251140D01*
X-157420Y-251900D01*
X-154180Y-252060D01*
X-150980Y-251600D01*
X-147900Y-250520D01*
X-145100Y-248900D01*
X-142640Y-246780D01*
X-140640Y-244220D01*
X-139160Y-241340D01*
X-138240Y-238240D01*
X-137920Y-235000D01*
X-138240Y-231759D01*
X-139160Y-228660D01*
X-140640Y-225780D01*
X-142640Y-223220D01*
X-145100Y-221100D01*
X-147080Y-219940D01*
X-147920Y-219320D01*
X-178480Y-188760D01*
X-181060Y-186620D01*
X-183840Y-185140D01*
X-186860Y-184220D01*
X-190200Y-183900D01*
X-240120Y-183900D01*
X-241700Y-183580D01*
X-243020Y-182659D01*
X-243880Y-181300D01*
X-244120Y-179700D01*
X-243720Y-178140D01*
X-240640Y-174220D01*
X-240060Y-173100D01*
X-239340Y-172100D01*
X-234500Y-167280D01*
X-233200Y-166420D01*
X-231680Y-166100D01*
X-170200Y-166100D01*
X-166860Y-165780D01*
X-163840Y-164860D01*
X-161060Y-163380D01*
X-158480Y-161240D01*
X-141920Y-144700D01*
X-140620Y-143820D01*
X-139080Y-143520D01*
X-137560Y-143840D01*
X-136260Y-144700D01*
X-135380Y-146000D01*
X-135080Y-147540D01*
X-135100Y-151240D01*
X-134500Y-154420D01*
X-133280Y-157420D01*
X-131520Y-160159D01*
X-129280Y-162500D01*
X-126640Y-164400D01*
X-123699Y-165740D01*
X-120540Y-166500D01*
X-117300Y-166660D01*
X-114080Y-166200D01*
X-111020Y-165140D01*
X-108200Y-163520D01*
X-105760Y-161380D01*
X-103740Y-158840D01*
X-102260Y-155960D01*
X-101340Y-152840D01*
X-101039Y-149600D01*
X-101340Y-146380D01*
X-102260Y-143260D01*
X-103740Y-140380D01*
X-105760Y-137820D01*
X-108200Y-135700D01*
X-111020Y-134080D01*
X-114080Y-133020D01*
X-117300Y-132560D01*
X-120060Y-132680D01*
X-121640Y-132440D01*
X-123000Y-131600D01*
X-123920Y-130300D01*
X-124260Y-128760D01*
X-123960Y-127180D01*
X-123080Y-125860D01*
X-109500Y-112280D01*
X-108200Y-111420D01*
X-106679Y-111100D01*
X38820Y-111100D01*
X39760Y-111220D01*
X42580Y-111900D01*
X45820Y-112060D01*
X49020Y-111600D01*
X52100Y-110520D01*
X54900Y-108900D01*
X57360Y-106780D01*
X59360Y-104220D01*
X60839Y-101340D01*
X61760Y-98240D01*
X62080Y-95000D01*
X61760Y-91760D01*
X61260Y-90079D01*
X61100Y-88960D01*
X61100Y-79320D01*
X61420Y-77800D01*
X62280Y-76500D01*
X97360Y-41420D01*
X98859Y-40480D01*
X100620Y-40279D01*
X102280Y-40839D01*
X103539Y-42080D01*
X104160Y-43040D01*
X106400Y-45380D01*
X109040Y-47260D01*
X112000Y-48620D01*
X115140Y-49380D01*
X118400Y-49540D01*
X121600Y-49080D01*
X124660Y-48019D01*
X127480Y-46380D01*
X129940Y-44260D01*
X131940Y-41720D01*
X133420Y-38820D01*
X134340Y-35720D01*
X134640Y-32480D01*
X134340Y-29260D01*
X133420Y-26140D01*
X132800Y-24940D01*
X132380Y-23380D01*
X132600Y-21760D01*
X133440Y-20379D01*
X134780Y-19440D01*
X136360Y-19100D01*
X176800Y-19100D01*
X180140Y-18780D01*
X183160Y-17860D01*
X185940Y-16379D01*
X188520Y-14240D01*
X210500Y7720D01*
X211800Y8580D01*
X213320Y8900D01*
X221800Y8900D01*
X225140Y9220D01*
X228160Y10140D01*
X230940Y11620D01*
X233520Y13759D01*
X306240Y86480D01*
X308380Y89060D01*
X309860Y91840D01*
X310780Y94860D01*
X311100Y98200D01*
X311100Y206680D01*
X311420Y208200D01*
X312280Y209500D01*
X370480Y267700D01*
X371640Y268520D01*
X373020Y268860D01*
X374420Y268720D01*
X375680Y268100D01*
X378380Y266120D01*
X383080Y263540D01*
X388100Y261620D01*
X393320Y260360D01*
X398660Y259840D01*
X404020Y260000D01*
X409320Y260900D01*
X414440Y262500D01*
X419320Y264760D01*
X423840Y267640D01*
X427939Y271100D01*
X431540Y275100D01*
X432500Y276480D01*
X433720Y277640D01*
X435319Y278200D01*
X436980Y278040D01*
X438440Y277220D01*
X439440Y275860D01*
X439799Y274220D01*
X439799Y242920D01*
X439520Y241439D01*
X438700Y240159D01*
X437460Y239280D01*
X435980Y238920D01*
X434480Y239140D01*
X432260Y239920D01*
X429780Y240200D01*
X370220Y240200D01*
X367740Y239920D01*
X365580Y239160D01*
X363660Y237960D01*
X362040Y236340D01*
X360840Y234420D01*
X360080Y232260D01*
X359799Y229780D01*
X359799Y170219D01*
X360080Y167740D01*
X360840Y165580D01*
X362040Y163660D01*
X363660Y162040D01*
X365580Y160840D01*
X367740Y160080D01*
X370220Y159800D01*
X429780Y159800D01*
X432260Y160080D01*
X434480Y160859D01*
X435980Y161080D01*
X437460Y160720D01*
X438700Y159840D01*
X439520Y158560D01*
X439799Y157080D01*
X439799Y125780D01*
X439440Y124120D01*
X438440Y122780D01*
X436980Y121960D01*
X435319Y121800D01*
X433720Y122360D01*
X432500Y123500D01*
X431540Y124900D01*
X427939Y128900D01*
X423840Y132360D01*
X419320Y135240D01*
X414440Y137500D01*
X409320Y139100D01*
X404020Y140000D01*
X398660Y140160D01*
X393320Y139640D01*
X388080Y138380D01*
X383080Y136460D01*
X378380Y133880D01*
X374040Y130700D01*
X370180Y126960D01*
X366860Y122739D01*
X364120Y118120D01*
X362020Y113180D01*
X360620Y108000D01*
X359900Y102680D01*
X359900Y97320D01*
X360620Y92000D01*
X362020Y86820D01*
X364120Y81880D01*
X366860Y77260D01*
X370180Y73040D01*
X374040Y69300D01*
X378380Y66120D01*
X383080Y63540D01*
X388080Y61620D01*
X393320Y60359D01*
X398660Y59840D01*
X404020Y60020D01*
X409320Y60900D01*
X414440Y62500D01*
X419320Y64760D01*
X423840Y67640D01*
X427939Y71120D01*
X431540Y75100D01*
X432500Y76500D01*
X433720Y77640D01*
X435319Y78200D01*
X436980Y78060D01*
X438440Y77220D01*
X439440Y75880D01*
X439799Y74240D01*
X439799Y25780D01*
X439440Y24120D01*
X438440Y22780D01*
X436980Y21960D01*
X435319Y21800D01*
X433720Y22360D01*
X432500Y23500D01*
X431540Y24900D01*
X427939Y28900D01*
X423840Y32360D01*
X419320Y35240D01*
X414440Y37500D01*
X409320Y39100D01*
X404020Y40000D01*
X398660Y40160D01*
X393320Y39640D01*
X388080Y38380D01*
X383080Y36460D01*
X378380Y33880D01*
X374040Y30700D01*
X370180Y26960D01*
X366860Y22740D01*
X364120Y18120D01*
X362020Y13180D01*
X360620Y8000D01*
X359900Y2680D01*
X359900Y-2680D01*
X360620Y-8000D01*
X362020Y-13180D01*
X364120Y-18120D01*
X366860Y-22740D01*
X370180Y-26960D01*
X374040Y-30700D01*
X378380Y-33880D01*
X383080Y-36460D01*
X388080Y-38380D01*
X393320Y-39640D01*
X398660Y-40160D01*
X404020Y-39980D01*
X409320Y-39100D01*
X414440Y-37500D01*
X419320Y-35240D01*
X423840Y-32360D01*
X427939Y-28880D01*
X431540Y-24900D01*
X432500Y-23500D01*
X433720Y-22360D01*
X435319Y-21800D01*
X436980Y-21940D01*
X438440Y-22780D01*
X439440Y-24120D01*
X439799Y-25760D01*
X439799Y-74220D01*
X439440Y-75880D01*
X438440Y-77220D01*
X436980Y-78040D01*
X435319Y-78200D01*
X433720Y-77640D01*
X432500Y-76500D01*
X431540Y-75100D01*
X427939Y-71100D01*
X423840Y-67640D01*
X419320Y-64760D01*
X414440Y-62500D01*
X409320Y-60900D01*
X404020Y-60000D01*
X398660Y-59840D01*
X393320Y-60359D01*
X388080Y-61620D01*
X383080Y-63540D01*
X378380Y-66120D01*
X374040Y-69300D01*
X370180Y-73040D01*
X366860Y-77260D01*
X364120Y-81880D01*
X362020Y-86820D01*
X360620Y-92000D01*
X359900Y-97320D01*
X359900Y-102680D01*
X360620Y-108000D01*
X362020Y-113180D01*
X364120Y-118120D01*
X366860Y-122739D01*
X370180Y-126960D01*
X374040Y-130700D01*
X378380Y-133880D01*
X383080Y-136460D01*
X388080Y-138380D01*
X393320Y-139640D01*
X398660Y-140160D01*
X404020Y-139980D01*
X409320Y-139100D01*
X414440Y-137500D01*
X419320Y-135240D01*
X423840Y-132360D01*
X427939Y-128880D01*
X431540Y-124900D01*
X432500Y-123500D01*
X433720Y-122360D01*
X435319Y-121800D01*
X436980Y-121940D01*
X438440Y-122780D01*
X439440Y-124120D01*
X439799Y-125760D01*
X439799Y-174220D01*
X439440Y-175859D01*
X438440Y-177220D01*
X436980Y-178039D01*
X435319Y-178180D01*
X433720Y-177640D01*
X432500Y-176480D01*
X431540Y-175080D01*
X427939Y-171100D01*
X423840Y-167640D01*
X419320Y-164740D01*
X414440Y-162480D01*
X409320Y-160900D01*
X404020Y-160000D01*
X398660Y-159820D01*
X393320Y-160360D01*
X388100Y-161600D01*
X383080Y-163540D01*
X378380Y-166119D01*
X374060Y-169300D01*
X370200Y-173039D01*
X366860Y-177240D01*
X364120Y-181860D01*
X362040Y-186820D01*
X360620Y-191980D01*
X359900Y-197300D01*
X359900Y-202680D01*
X360620Y-208000D01*
X362040Y-213180D01*
X364120Y-218120D01*
X366860Y-222740D01*
X370200Y-226960D01*
X374060Y-230680D01*
X378380Y-233880D01*
X383080Y-236460D01*
X388100Y-238380D01*
X393320Y-239620D01*
X398660Y-240159D01*
X404020Y-239980D01*
X409320Y-239100D01*
X414440Y-237500D01*
X419320Y-235240D01*
X423840Y-232360D01*
X427939Y-228880D01*
X431540Y-224899D01*
X432500Y-223500D01*
X433720Y-222360D01*
X435319Y-221800D01*
X436980Y-221940D01*
X438440Y-222780D01*
X439440Y-224120D01*
X439799Y-225780D01*
X439799Y-274220D01*
X439440Y-275860D01*
X438440Y-277220D01*
X436980Y-278040D01*
X435319Y-278200D01*
X433720Y-277640D01*
X432500Y-276480D01*
X431540Y-275080D01*
X427939Y-271100D01*
X423840Y-267640D01*
X419320Y-264760D01*
X414440Y-262500D01*
X409320Y-260900D01*
X404020Y-260000D01*
X398660Y-259820D01*
X393320Y-260360D01*
X388100Y-261620D01*
X383080Y-263540D01*
X378380Y-266120D01*
X374060Y-269300D01*
X370200Y-273040D01*
X366860Y-277260D01*
X364120Y-281880D01*
X362040Y-286820D01*
X360620Y-292000D01*
X359900Y-297320D01*
X359900Y-302680D01*
X360620Y-308000D01*
X362040Y-313180D01*
X364120Y-318120D01*
X366860Y-322740D01*
X370200Y-326960D01*
X374060Y-330680D01*
X378380Y-333880D01*
X383080Y-336460D01*
X388100Y-338380D01*
X393320Y-339620D01*
X398660Y-340160D01*
X404020Y-339980D01*
X409320Y-339099D01*
X414440Y-337500D01*
X419320Y-335240D01*
X423840Y-332360D01*
X427939Y-328880D01*
X431540Y-324900D01*
X432500Y-323500D01*
X433720Y-322360D01*
X435319Y-321800D01*
X436980Y-321960D01*
X438440Y-322780D01*
X439440Y-324120D01*
X439799Y-325780D01*
X439799Y-374219D01*
X439440Y-375860D01*
X438440Y-377220D01*
X436980Y-378040D01*
X435319Y-378200D01*
X433720Y-377640D01*
X432500Y-376480D01*
X431540Y-375080D01*
X427939Y-371100D01*
X423840Y-367640D01*
X419320Y-364760D01*
X414440Y-362500D01*
X409320Y-360900D01*
X404020Y-360000D01*
X398660Y-359820D01*
X393320Y-360360D01*
X388100Y-361620D01*
X383080Y-363540D01*
X378380Y-366120D01*
X374060Y-369300D01*
X370200Y-373040D01*
X366860Y-377260D01*
X364120Y-381880D01*
X362040Y-386820D01*
X360620Y-392000D01*
X359900Y-397320D01*
X359900Y-402680D01*
X360620Y-408000D01*
X362040Y-413180D01*
X364120Y-418120D01*
X366860Y-422740D01*
X370200Y-426960D01*
X374060Y-430680D01*
X378380Y-433880D01*
X383080Y-436460D01*
X388100Y-438380D01*
X393320Y-439620D01*
X398660Y-440160D01*
X404020Y-439980D01*
X409320Y-439099D01*
X414440Y-437500D01*
X419320Y-435240D01*
X423840Y-432360D01*
X427939Y-428880D01*
X431540Y-424900D01*
X432500Y-423500D01*
X433720Y-422360D01*
X435319Y-421800D01*
X436980Y-421960D01*
X438440Y-422780D01*
X439440Y-424120D01*
X439799Y-425780D01*
X439799Y-474219D01*
X439440Y-475860D01*
X438440Y-477220D01*
X436980Y-478040D01*
X435319Y-478200D01*
X433720Y-477640D01*
X432500Y-476480D01*
X431540Y-475080D01*
X427939Y-471100D01*
X423840Y-467640D01*
X419320Y-464760D01*
X414440Y-462500D01*
X409320Y-460900D01*
X404020Y-460000D01*
X398660Y-459820D01*
X393320Y-460360D01*
X388100Y-461620D01*
X383080Y-463540D01*
X378380Y-466120D01*
X374060Y-469300D01*
X370200Y-473040D01*
X366860Y-477260D01*
X364120Y-481880D01*
X362040Y-486820D01*
X360620Y-492000D01*
X359860Y-497580D01*
X359360Y-499060D01*
X358320Y-500220D01*
X356920Y-500920D01*
X355379Y-501019D01*
X353900Y-500520D01*
X352100Y-499480D01*
X349020Y-498400D01*
X345820Y-497939D01*
X342580Y-498100D01*
X339420Y-498860D01*
X336460Y-500220D01*
X333820Y-502100D01*
X331580Y-504440D01*
X329820Y-507180D01*
X328620Y-510200D01*
X328000Y-513380D01*
X328000Y-516620D01*
X328620Y-519799D01*
X329820Y-522819D01*
X331580Y-525560D01*
X333820Y-527900D01*
X336460Y-529780D01*
X339420Y-531140D01*
X342580Y-531900D01*
X345820Y-532060D01*
X349020Y-531600D01*
X352100Y-530520D01*
X354900Y-528900D01*
X357360Y-526780D01*
X359440Y-524140D01*
X360120Y-522980D01*
X361140Y-521820D01*
X362520Y-521140D01*
X364060Y-521040D01*
X365520Y-521520D01*
X366700Y-522540D01*
X370200Y-526960D01*
X374060Y-530680D01*
X378380Y-533880D01*
X383080Y-536460D01*
X388100Y-538380D01*
X393320Y-539620D01*
X398660Y-540160D01*
X404020Y-539980D01*
X409320Y-539100D01*
X414440Y-537500D01*
X419320Y-535240D01*
X423840Y-532360D01*
X427939Y-528880D01*
X431540Y-524900D01*
X432500Y-523500D01*
X433720Y-522360D01*
X435319Y-521800D01*
X436980Y-521960D01*
X438440Y-522780D01*
X439440Y-524120D01*
X439799Y-525780D01*
X439799Y-574220D01*
X439440Y-575860D01*
X438440Y-577220D01*
X436980Y-578040D01*
X435319Y-578200D01*
X433720Y-577640D01*
X432500Y-576480D01*
X431540Y-575080D01*
X427939Y-571100D01*
X423840Y-567640D01*
X419320Y-564760D01*
X414440Y-562500D01*
X409320Y-560900D01*
X404020Y-560000D01*
X398660Y-559820D01*
X393320Y-560360D01*
X388100Y-561620D01*
X383080Y-563540D01*
X378380Y-566120D01*
X374060Y-569300D01*
X370200Y-573040D01*
X366860Y-577260D01*
X364120Y-581880D01*
X362040Y-586820D01*
X360620Y-592000D01*
X359900Y-597320D01*
X359900Y-602680D01*
X360620Y-608000D01*
X362040Y-613180D01*
X364120Y-618120D01*
X366860Y-622740D01*
X370200Y-626960D01*
X374060Y-630680D01*
X378380Y-633880D01*
X383080Y-636460D01*
X388100Y-638380D01*
X393320Y-639620D01*
X398660Y-640160D01*
X404020Y-639980D01*
X409320Y-639100D01*
X414440Y-637500D01*
X419320Y-635240D01*
X423840Y-632360D01*
X427939Y-628880D01*
X431540Y-624900D01*
X432500Y-623500D01*
X433720Y-622360D01*
X435319Y-621800D01*
X436980Y-621960D01*
X438440Y-622780D01*
X439440Y-624120D01*
X439799Y-625780D01*
X439799Y-674220D01*
X439440Y-675860D01*
X438440Y-677220D01*
X436980Y-678040D01*
X435319Y-678199D01*
X433720Y-677640D01*
X432500Y-676480D01*
X431540Y-675080D01*
X427939Y-671100D01*
X423840Y-667640D01*
X419320Y-664760D01*
X414440Y-662500D01*
X409320Y-660900D01*
X404020Y-660000D01*
X398660Y-659820D01*
X393320Y-660360D01*
X388100Y-661620D01*
X383080Y-663540D01*
X378380Y-666120D01*
X374060Y-669300D01*
X370200Y-673040D01*
X366860Y-677260D01*
X364120Y-681880D01*
X362040Y-686820D01*
X360620Y-692000D01*
X359900Y-697320D01*
X359900Y-702680D01*
X360620Y-708000D01*
X362040Y-713180D01*
X364120Y-718120D01*
X366860Y-722740D01*
X370200Y-726960D01*
X374060Y-730680D01*
X378380Y-733880D01*
X383080Y-736460D01*
X388100Y-738379D01*
X393320Y-739620D01*
X398660Y-740160D01*
X404020Y-739980D01*
X409320Y-739100D01*
X414440Y-737500D01*
X419320Y-735240D01*
X423840Y-732360D01*
X427939Y-728880D01*
X431540Y-724900D01*
X432500Y-723500D01*
X433720Y-722360D01*
X435319Y-721800D01*
X436980Y-721960D01*
X438440Y-722780D01*
X439440Y-724120D01*
X439799Y-725780D01*
X439799Y-774220D01*
X439440Y-775860D01*
X438440Y-777220D01*
X436980Y-778040D01*
X435319Y-778199D01*
X433720Y-777640D01*
X432500Y-776480D01*
X431540Y-775080D01*
X427939Y-771100D01*
X423840Y-767640D01*
X419320Y-764760D01*
X414440Y-762500D01*
X409320Y-760900D01*
X404020Y-760000D01*
X398660Y-759820D01*
X393320Y-760360D01*
X388100Y-761620D01*
X383080Y-763540D01*
X378380Y-766120D01*
X374060Y-769300D01*
X370200Y-773040D01*
X366860Y-777260D01*
X364120Y-781880D01*
X362040Y-786820D01*
X360620Y-792000D01*
X359900Y-797320D01*
X359900Y-802680D01*
X360620Y-808000D01*
X362040Y-813180D01*
X364120Y-818120D01*
X366860Y-822740D01*
X370200Y-826960D01*
X374060Y-830680D01*
X378380Y-833880D01*
X383080Y-836460D01*
X388100Y-838379D01*
X393320Y-839620D01*
X398660Y-840160D01*
X404020Y-839980D01*
X409320Y-839100D01*
X414440Y-837500D01*
X419320Y-835240D01*
X423840Y-832360D01*
X427939Y-828880D01*
X431540Y-824900D01*
X432500Y-823500D01*
X433720Y-822360D01*
X435319Y-821800D01*
X436980Y-821960D01*
X438440Y-822780D01*
X439440Y-824120D01*
X439799Y-825780D01*
X439799Y-874220D01*
X439440Y-875860D01*
X438440Y-877220D01*
X436980Y-878040D01*
X435319Y-878199D01*
X433720Y-877640D01*
X432500Y-876480D01*
X431540Y-875080D01*
X427939Y-871100D01*
X423840Y-867640D01*
X419320Y-864760D01*
X414440Y-862500D01*
X409320Y-860900D01*
X404020Y-860000D01*
X398660Y-859820D01*
X393320Y-860360D01*
X388100Y-861620D01*
X383080Y-863540D01*
X378380Y-866120D01*
X374060Y-869300D01*
X370200Y-873040D01*
X366860Y-877260D01*
X364120Y-881880D01*
X362040Y-886820D01*
X360620Y-892000D01*
X359900Y-897320D01*
X359900Y-902680D01*
X360620Y-908000D01*
X362040Y-913180D01*
X364120Y-918120D01*
X366860Y-922740D01*
X370200Y-926960D01*
X374060Y-930680D01*
X378380Y-933880D01*
X383080Y-936460D01*
X388100Y-938379D01*
X393320Y-939620D01*
X398660Y-940160D01*
X404020Y-939980D01*
X409320Y-939100D01*
X414440Y-937500D01*
X419320Y-935240D01*
X423840Y-932360D01*
X427939Y-928880D01*
X431540Y-924900D01*
X432500Y-923500D01*
X433720Y-922360D01*
X435319Y-921800D01*
X436980Y-921940D01*
X438440Y-922780D01*
X439440Y-924120D01*
X439799Y-925780D01*
X439799Y-974220D01*
X439440Y-975860D01*
X438440Y-977220D01*
X436980Y-978040D01*
X435319Y-978199D01*
X433720Y-977640D01*
X432500Y-976480D01*
X431540Y-975080D01*
X427939Y-971100D01*
X423840Y-967640D01*
X419320Y-964760D01*
X414440Y-962500D01*
X409320Y-960900D01*
X404020Y-960000D01*
X398660Y-959820D01*
X393320Y-960360D01*
X388100Y-961620D01*
X383080Y-963540D01*
X378380Y-966120D01*
X374060Y-969300D01*
X370200Y-973040D01*
X368960Y-974599D01*
X367760Y-975620D01*
X366260Y-976100D01*
X364680Y-975960D01*
X363300Y-975220D01*
X362280Y-974020D01*
X361840Y-972500D01*
X361760Y-971760D01*
X360840Y-968660D01*
X359360Y-965780D01*
X357360Y-963220D01*
X354900Y-961100D01*
X352100Y-959479D01*
X349020Y-958400D01*
X345820Y-957940D01*
X342580Y-958100D01*
X339420Y-958860D01*
X336460Y-960220D01*
X333820Y-962099D01*
X331580Y-964440D01*
X329820Y-967180D01*
X328620Y-970200D01*
X328000Y-973379D01*
X328000Y-976620D01*
X328480Y-979080D01*
X328459Y-980699D01*
X327780Y-982200D01*
X326540Y-983300D01*
X325000Y-983800D01*
X323360Y-983640D01*
X321940Y-982860D01*
X319900Y-981100D01*
X317100Y-979479D01*
X314020Y-978400D01*
X310820Y-977940D01*
X307580Y-978100D01*
X304420Y-978860D01*
X301460Y-980220D01*
X298820Y-982099D01*
X296580Y-984440D01*
X294820Y-987180D01*
X293620Y-990200D01*
X293000Y-993379D01*
X293000Y-996620D01*
X293620Y-999800D01*
X294820Y-1002820D01*
X296580Y-1005560D01*
X298820Y-1007900D01*
X301460Y-1009780D01*
X304420Y-1011140D01*
X307580Y-1011900D01*
X310820Y-1012060D01*
X314020Y-1011600D01*
X317100Y-1010520D01*
X319900Y-1008900D01*
X322360Y-1006780D01*
X324360Y-1004220D01*
X325840Y-1001340D01*
X326760Y-998240D01*
X327080Y-995000D01*
X326520Y-989539D01*
X327180Y-987920D01*
X328459Y-986720D01*
X330140Y-986200D01*
X331900Y-986440D01*
X333360Y-987420D01*
X333820Y-987900D01*
X336460Y-989780D01*
X339420Y-991140D01*
X342580Y-991900D01*
X345820Y-992060D01*
X349020Y-991600D01*
X352100Y-990520D01*
X354500Y-989140D01*
X356180Y-988620D01*
X357939Y-988880D01*
X359400Y-989860D01*
X360300Y-991380D01*
X360460Y-993139D01*
X359900Y-997320D01*
X359900Y-1002680D01*
X360620Y-1008000D01*
X362040Y-1013180D01*
X364120Y-1018120D01*
X366860Y-1022740D01*
X370200Y-1026960D01*
X374060Y-1030680D01*
X378380Y-1033880D01*
X383080Y-1036460D01*
X388100Y-1038379D01*
X393320Y-1039620D01*
X398660Y-1040160D01*
X404020Y-1039980D01*
X409320Y-1039100D01*
X414440Y-1037500D01*
X419320Y-1035240D01*
X423840Y-1032360D01*
X427939Y-1028880D01*
X431540Y-1024900D01*
X432500Y-1023500D01*
X433720Y-1022360D01*
X435319Y-1021800D01*
X436980Y-1021940D01*
X438440Y-1022780D01*
X439440Y-1024120D01*
X439799Y-1025780D01*
X439799Y-1074220D01*
X439440Y-1075860D01*
X438440Y-1077220D01*
X436980Y-1078040D01*
X435319Y-1078200D01*
X433720Y-1077640D01*
X432500Y-1076480D01*
X431540Y-1075080D01*
X427939Y-1071100D01*
X423840Y-1067640D01*
X419320Y-1064760D01*
X414440Y-1062500D01*
X409320Y-1060900D01*
X404020Y-1060000D01*
X398660Y-1059820D01*
X393320Y-1060360D01*
X388100Y-1061620D01*
X383080Y-1063540D01*
X378380Y-1066120D01*
X374060Y-1069300D01*
X370200Y-1073040D01*
X366860Y-1077260D01*
X364120Y-1081880D01*
X362040Y-1086820D01*
X360620Y-1092000D01*
X359900Y-1097320D01*
X359900Y-1102680D01*
X360620Y-1108000D01*
X362040Y-1113180D01*
X364120Y-1118120D01*
X366860Y-1122740D01*
X370200Y-1126960D01*
X374060Y-1130680D01*
X378380Y-1133880D01*
X383080Y-1136460D01*
X388100Y-1138380D01*
X393320Y-1139620D01*
X398660Y-1140160D01*
X404020Y-1139980D01*
X409320Y-1139100D01*
X414440Y-1137500D01*
X419320Y-1135240D01*
X423840Y-1132360D01*
X427939Y-1128880D01*
X431540Y-1124900D01*
X432500Y-1123500D01*
X433720Y-1122360D01*
X435319Y-1121800D01*
X436980Y-1121940D01*
X438440Y-1122780D01*
X439440Y-1124120D01*
X439799Y-1125780D01*
X439799Y-1174220D01*
X439440Y-1175860D01*
X438440Y-1177220D01*
X436980Y-1178040D01*
X435319Y-1178200D01*
X433720Y-1177640D01*
X432500Y-1176480D01*
X431540Y-1175080D01*
X427939Y-1171100D01*
X423840Y-1167640D01*
X419320Y-1164760D01*
X414440Y-1162500D01*
X409320Y-1160900D01*
X404020Y-1160000D01*
X398660Y-1159820D01*
X393320Y-1160360D01*
X388100Y-1161620D01*
X383080Y-1163540D01*
X378380Y-1166120D01*
X374060Y-1169300D01*
X370200Y-1173040D01*
X366860Y-1177260D01*
X364120Y-1181880D01*
X362040Y-1186820D01*
X360620Y-1192000D01*
X359900Y-1197320D01*
X359900Y-1202680D01*
X360620Y-1208000D01*
X362040Y-1213180D01*
X364120Y-1218120D01*
X366860Y-1222740D01*
X370200Y-1226960D01*
X374060Y-1230680D01*
X378380Y-1233880D01*
X383080Y-1236460D01*
X388100Y-1238380D01*
X393320Y-1239620D01*
X398660Y-1240160D01*
X404020Y-1239980D01*
X409320Y-1239100D01*
X414440Y-1237500D01*
X419320Y-1235240D01*
X423840Y-1232360D01*
X427939Y-1228880D01*
X431540Y-1224900D01*
X432500Y-1223500D01*
X433720Y-1222360D01*
X435319Y-1221800D01*
X436980Y-1221940D01*
X438440Y-1222780D01*
X439440Y-1224120D01*
X439799Y-1225780D01*
X439799Y-1274220D01*
X439440Y-1275860D01*
X438440Y-1277220D01*
X436980Y-1278040D01*
X435319Y-1278200D01*
X433720Y-1277640D01*
X432500Y-1276480D01*
X431540Y-1275080D01*
X427939Y-1271100D01*
X423840Y-1267640D01*
X419320Y-1264760D01*
X414440Y-1262500D01*
X409320Y-1260900D01*
X404020Y-1260000D01*
X398660Y-1259820D01*
X393320Y-1260360D01*
X388100Y-1261620D01*
X383080Y-1263540D01*
X378380Y-1266120D01*
X374060Y-1269300D01*
X370200Y-1273040D01*
X366860Y-1277260D01*
X364120Y-1281879D01*
X362040Y-1286819D01*
X360620Y-1292000D01*
X359960Y-1296900D01*
X359520Y-1298240D01*
X358620Y-1299360D01*
X357400Y-1300100D01*
X356000Y-1300360D01*
X-27980Y-1301320D01*
X-29700Y-1300940D01*
X-31100Y-1299840D01*
X-31880Y-1298240D01*
X-31880Y-1296459D01*
X-31120Y-1294860D01*
X-30640Y-1294220D01*
X-29160Y-1291339D01*
X-28240Y-1288240D01*
X-27919Y-1285000D01*
X-28240Y-1281759D01*
X-29160Y-1278660D01*
X-30640Y-1275780D01*
X-32639Y-1273220D01*
X-35100Y-1271100D01*
X-37900Y-1269480D01*
X-40980Y-1268400D01*
X-44180Y-1267940D01*
X-47420Y-1268100D01*
X-50580Y-1268860D01*
X-53540Y-1270220D01*
X-56180Y-1272100D01*
X-58420Y-1274440D01*
X-60180Y-1277180D01*
X-61380Y-1280200D01*
X-62000Y-1283380D01*
X-62000Y-1286620D01*
X-61380Y-1289800D01*
X-60180Y-1292820D01*
X-58620Y-1295240D01*
X-58019Y-1296840D01*
X-58140Y-1298540D01*
X-58960Y-1300020D01*
X-60320Y-1301040D01*
X-61980Y-1301399D01*
X-88100Y-1301480D01*
X-89820Y-1301080D01*
X-91220Y-1299980D01*
X-92000Y-1298380D01*
X-92000Y-1296600D01*
X-91240Y-1295000D01*
X-90640Y-1294220D01*
X-89160Y-1291339D01*
X-88240Y-1288240D01*
X-87920Y-1285000D01*
X-88240Y-1281759D01*
X-89160Y-1278660D01*
X-90640Y-1275780D01*
X-92640Y-1273220D01*
X-95100Y-1271100D01*
X-97899Y-1269480D01*
X-100980Y-1268400D01*
X-104179Y-1267940D01*
X-107420Y-1268100D01*
X-110580Y-1268860D01*
X-113539Y-1270220D01*
X-116180Y-1272100D01*
X-118420Y-1274440D01*
X-120180Y-1277180D01*
X-121380Y-1280200D01*
X-122000Y-1283380D01*
X-122000Y-1286620D01*
X-121380Y-1289800D01*
X-120180Y-1292820D01*
X-118520Y-1295400D01*
X-117920Y-1296980D01*
X-118040Y-1298680D01*
X-118859Y-1300180D01*
X-120220Y-1301200D01*
X-121880Y-1301560D01*
X-148200Y-1301620D01*
X-149940Y-1301240D01*
X-151340Y-1300140D01*
X-152120Y-1298540D01*
X-152120Y-1296759D01*
X-151360Y-1295160D01*
X-150640Y-1294220D01*
X-149160Y-1291339D01*
X-148240Y-1288240D01*
X-147920Y-1285000D01*
X-148240Y-1281759D01*
X-149160Y-1278660D01*
X-150640Y-1275780D01*
X-152640Y-1273220D01*
X-155100Y-1271100D01*
X-157900Y-1269480D01*
X-160980Y-1268400D01*
X-164180Y-1267940D01*
X-167420Y-1268100D01*
X-170580Y-1268860D01*
X-173540Y-1270220D01*
X-176180Y-1272100D01*
X-178420Y-1274440D01*
X-180180Y-1277180D01*
X-181380Y-1280200D01*
X-182000Y-1283380D01*
X-182000Y-1286620D01*
X-181380Y-1289800D01*
X-180180Y-1292820D01*
X-178420Y-1295540D01*
X-177820Y-1297140D01*
X-177940Y-1298839D01*
X-178760Y-1300320D01*
X-180120Y-1301339D01*
X-181780Y-1301699D01*
X-208320Y-1301780D01*
X-210060Y-1301380D01*
X-211460Y-1300280D01*
X-212240Y-1298680D01*
X-212240Y-1296900D01*
X-211480Y-1295300D01*
X-210640Y-1294220D01*
X-209160Y-1291339D01*
X-208240Y-1288240D01*
X-207920Y-1285000D01*
X-208240Y-1281759D01*
X-209160Y-1278660D01*
X-210640Y-1275780D01*
X-212640Y-1273220D01*
X-215100Y-1271100D01*
X-217900Y-1269480D01*
X-220980Y-1268400D01*
X-224180Y-1267940D01*
X-227420Y-1268100D01*
X-230580Y-1268860D01*
X-233540Y-1270220D01*
X-236180Y-1272100D01*
X-238420Y-1274440D01*
X-240180Y-1277180D01*
X-241380Y-1280200D01*
X-242000Y-1283380D01*
X-242000Y-1286620D01*
X-241380Y-1289800D01*
X-240180Y-1292820D01*
X-238320Y-1295700D01*
X-237740Y-1297280D01*
X-237860Y-1298980D01*
X-238660Y-1300480D01*
X-240020Y-1301500D01*
X-241680Y-1301860D01*
G37*

%LPC*%
G36*
X-294180Y-1272060D02*
G01*
X-290980Y-1271600D01*
X-287900Y-1270520D01*
X-285100Y-1268900D01*
X-282640Y-1266780D01*
X-280640Y-1264220D01*
X-279160Y-1261340D01*
X-278240Y-1258240D01*
X-277920Y-1255000D01*
X-278240Y-1251760D01*
X-279160Y-1248660D01*
X-280640Y-1245780D01*
X-282640Y-1243220D01*
X-285100Y-1241100D01*
X-287900Y-1239480D01*
X-290980Y-1238400D01*
X-294180Y-1237940D01*
X-297420Y-1238100D01*
X-300580Y-1238860D01*
X-303540Y-1240220D01*
X-306180Y-1242100D01*
X-308420Y-1244440D01*
X-310180Y-1247180D01*
X-311380Y-1250200D01*
X-312000Y-1253380D01*
X-312000Y-1256620D01*
X-311380Y-1259800D01*
X-310180Y-1262820D01*
X-308420Y-1265560D01*
X-306180Y-1267900D01*
X-303540Y-1269780D01*
X-300580Y-1271140D01*
X-297420Y-1271900D01*
G37*
G36*
X-339180Y-1272060D02*
G01*
X-335980Y-1271600D01*
X-332900Y-1270520D01*
X-330100Y-1268900D01*
X-327640Y-1266780D01*
X-325640Y-1264220D01*
X-324159Y-1261340D01*
X-323240Y-1258240D01*
X-322920Y-1255000D01*
X-323240Y-1251760D01*
X-324159Y-1248660D01*
X-325640Y-1245780D01*
X-327640Y-1243220D01*
X-330100Y-1241100D01*
X-332900Y-1239480D01*
X-335980Y-1238400D01*
X-339180Y-1237940D01*
X-342420Y-1238100D01*
X-345580Y-1238860D01*
X-348540Y-1240220D01*
X-351180Y-1242100D01*
X-353420Y-1244440D01*
X-355180Y-1247180D01*
X-356380Y-1250200D01*
X-357000Y-1253380D01*
X-357000Y-1256620D01*
X-356380Y-1259800D01*
X-355180Y-1262820D01*
X-353420Y-1265560D01*
X-351180Y-1267900D01*
X-348540Y-1269780D01*
X-345580Y-1271140D01*
X-342420Y-1271900D01*
G37*
G36*
X345820Y-1262060D02*
G01*
X349020Y-1261600D01*
X352100Y-1260520D01*
X354900Y-1258900D01*
X357360Y-1256780D01*
X359360Y-1254220D01*
X360840Y-1251340D01*
X361760Y-1248240D01*
X362080Y-1245000D01*
X361760Y-1241760D01*
X360840Y-1238660D01*
X359360Y-1235780D01*
X357360Y-1233220D01*
X354900Y-1231100D01*
X352100Y-1229480D01*
X349020Y-1228400D01*
X345820Y-1227940D01*
X342580Y-1228100D01*
X339420Y-1228860D01*
X336460Y-1230220D01*
X333820Y-1232100D01*
X331580Y-1234440D01*
X329820Y-1237180D01*
X328620Y-1240200D01*
X328000Y-1243380D01*
X328000Y-1246620D01*
X328620Y-1249800D01*
X329820Y-1252820D01*
X331580Y-1255560D01*
X333820Y-1257900D01*
X336460Y-1259780D01*
X339420Y-1261140D01*
X342580Y-1261900D01*
G37*
G36*
X-89740Y-1261140D02*
G01*
X-86519Y-1260680D01*
X-83460Y-1259620D01*
X-80640Y-1258000D01*
X-78200Y-1255880D01*
X-76180Y-1253320D01*
X-74700Y-1250440D01*
X-73780Y-1247320D01*
X-73480Y-1244100D01*
X-73780Y-1240860D01*
X-74700Y-1237740D01*
X-76180Y-1234860D01*
X-78200Y-1232320D01*
X-80640Y-1230180D01*
X-83460Y-1228560D01*
X-86519Y-1227500D01*
X-89740Y-1227040D01*
X-92980Y-1227200D01*
X-96140Y-1227960D01*
X-99080Y-1229300D01*
X-101740Y-1231200D01*
X-103980Y-1233540D01*
X-105719Y-1236260D01*
X-106940Y-1239280D01*
X-107540Y-1242460D01*
X-107540Y-1245720D01*
X-106940Y-1248900D01*
X-105719Y-1251920D01*
X-103980Y-1254640D01*
X-101740Y-1257000D01*
X-99080Y-1258880D01*
X-96140Y-1260220D01*
X-92980Y-1261000D01*
G37*
G36*
X181820Y-1255060D02*
G01*
X185020Y-1254600D01*
X188100Y-1253520D01*
X190900Y-1251900D01*
X193359Y-1249780D01*
X195360Y-1247220D01*
X196840Y-1244340D01*
X197760Y-1241240D01*
X198080Y-1238000D01*
X197760Y-1234760D01*
X196840Y-1231660D01*
X195360Y-1228780D01*
X193359Y-1226220D01*
X190900Y-1224100D01*
X188100Y-1222480D01*
X185020Y-1221400D01*
X181820Y-1220940D01*
X178580Y-1221100D01*
X175420Y-1221860D01*
X172460Y-1223220D01*
X169820Y-1225100D01*
X167580Y-1227440D01*
X165820Y-1230180D01*
X164620Y-1233200D01*
X164000Y-1236380D01*
X164000Y-1239620D01*
X164620Y-1242800D01*
X165820Y-1245820D01*
X167580Y-1248560D01*
X169820Y-1250900D01*
X172460Y-1252780D01*
X175420Y-1254140D01*
X178580Y-1254900D01*
G37*
G36*
X-264180Y-1212060D02*
G01*
X-260980Y-1211600D01*
X-257900Y-1210520D01*
X-255100Y-1208900D01*
X-252640Y-1206780D01*
X-250640Y-1204220D01*
X-249160Y-1201340D01*
X-248240Y-1198240D01*
X-247920Y-1195000D01*
X-248240Y-1191760D01*
X-249160Y-1188660D01*
X-250640Y-1185780D01*
X-252640Y-1183220D01*
X-255100Y-1181100D01*
X-257900Y-1179480D01*
X-260980Y-1178400D01*
X-264180Y-1177940D01*
X-267420Y-1178100D01*
X-270580Y-1178860D01*
X-273540Y-1180220D01*
X-276180Y-1182100D01*
X-278420Y-1184440D01*
X-280180Y-1187180D01*
X-281380Y-1190200D01*
X-282000Y-1193380D01*
X-282000Y-1196620D01*
X-281380Y-1199800D01*
X-280180Y-1202820D01*
X-278420Y-1205560D01*
X-276180Y-1207900D01*
X-273540Y-1209780D01*
X-270580Y-1211140D01*
X-267420Y-1211900D01*
G37*
G36*
X220820Y-1187060D02*
G01*
X224020Y-1186600D01*
X227100Y-1185520D01*
X229899Y-1183900D01*
X232360Y-1181780D01*
X234360Y-1179220D01*
X235840Y-1176340D01*
X236759Y-1173240D01*
X237079Y-1170000D01*
X236759Y-1166760D01*
X235840Y-1163660D01*
X234360Y-1160780D01*
X232360Y-1158220D01*
X229899Y-1156100D01*
X227100Y-1154480D01*
X224020Y-1153400D01*
X220820Y-1152940D01*
X217580Y-1153100D01*
X214420Y-1153860D01*
X211460Y-1155220D01*
X208820Y-1157100D01*
X206580Y-1159440D01*
X204820Y-1162180D01*
X203619Y-1165200D01*
X203000Y-1168380D01*
X203000Y-1171620D01*
X203619Y-1174800D01*
X204820Y-1177820D01*
X206580Y-1180560D01*
X208820Y-1182900D01*
X211460Y-1184780D01*
X214420Y-1186140D01*
X217580Y-1186900D01*
G37*
G36*
X-339180Y-1172060D02*
G01*
X-335980Y-1171600D01*
X-332900Y-1170520D01*
X-330100Y-1168900D01*
X-327640Y-1166780D01*
X-325640Y-1164220D01*
X-324159Y-1161340D01*
X-323240Y-1158240D01*
X-322920Y-1155000D01*
X-323240Y-1151760D01*
X-324159Y-1148660D01*
X-325640Y-1145780D01*
X-327640Y-1143220D01*
X-330100Y-1141100D01*
X-332900Y-1139480D01*
X-335980Y-1138400D01*
X-339180Y-1137940D01*
X-342420Y-1138100D01*
X-345580Y-1138860D01*
X-348540Y-1140220D01*
X-351180Y-1142100D01*
X-353420Y-1144440D01*
X-355180Y-1147180D01*
X-356380Y-1150200D01*
X-357000Y-1153380D01*
X-357000Y-1156620D01*
X-356380Y-1159800D01*
X-355180Y-1162820D01*
X-353420Y-1165560D01*
X-351180Y-1167900D01*
X-348540Y-1169780D01*
X-345580Y-1171140D01*
X-342420Y-1171900D01*
G37*
G36*
X310820Y-1167060D02*
G01*
X314020Y-1166600D01*
X317100Y-1165520D01*
X319900Y-1163900D01*
X322360Y-1161780D01*
X324400Y-1159180D01*
X325540Y-1158200D01*
X326960Y-1157700D01*
X328480Y-1157780D01*
X329860Y-1158400D01*
X330900Y-1159500D01*
X331580Y-1160560D01*
X333820Y-1162900D01*
X336460Y-1164780D01*
X339420Y-1166140D01*
X342580Y-1166900D01*
X345820Y-1167060D01*
X349020Y-1166600D01*
X352100Y-1165520D01*
X354900Y-1163900D01*
X357360Y-1161780D01*
X359360Y-1159220D01*
X360840Y-1156340D01*
X361760Y-1153240D01*
X362080Y-1150000D01*
X361760Y-1146760D01*
X360840Y-1143660D01*
X359360Y-1140780D01*
X357360Y-1138220D01*
X354900Y-1136100D01*
X352100Y-1134480D01*
X349020Y-1133400D01*
X345820Y-1132940D01*
X342580Y-1133100D01*
X339420Y-1133860D01*
X336460Y-1135220D01*
X333820Y-1137100D01*
X331580Y-1139440D01*
X330900Y-1140500D01*
X329860Y-1141600D01*
X328480Y-1142220D01*
X326960Y-1142300D01*
X325540Y-1141800D01*
X324400Y-1140820D01*
X322360Y-1138220D01*
X319900Y-1136100D01*
X317100Y-1134480D01*
X314020Y-1133400D01*
X310820Y-1132940D01*
X307580Y-1133100D01*
X304420Y-1133860D01*
X301460Y-1135220D01*
X298820Y-1137100D01*
X296580Y-1139440D01*
X294820Y-1142180D01*
X293620Y-1145200D01*
X293000Y-1148380D01*
X293000Y-1151620D01*
X293620Y-1154800D01*
X294820Y-1157820D01*
X296580Y-1160560D01*
X298820Y-1162900D01*
X301460Y-1164780D01*
X304420Y-1166140D01*
X307580Y-1166900D01*
G37*
G36*
X97820Y-1164060D02*
G01*
X101020Y-1163600D01*
X104100Y-1162520D01*
X106740Y-1161000D01*
X107920Y-1160560D01*
X109179Y-1160500D01*
X110399Y-1160820D01*
X112520Y-1161800D01*
X115680Y-1162560D01*
X118920Y-1162720D01*
X122140Y-1162260D01*
X125200Y-1161200D01*
X127100Y-1160320D01*
X128379Y-1160260D01*
X129580Y-1160600D01*
X132220Y-1161800D01*
X135360Y-1162560D01*
X138600Y-1162720D01*
X141820Y-1162260D01*
X144880Y-1161200D01*
X146800Y-1160320D01*
X148060Y-1160260D01*
X149280Y-1160600D01*
X151900Y-1161800D01*
X155060Y-1162560D01*
X158300Y-1162720D01*
X161500Y-1162260D01*
X164579Y-1161200D01*
X166480Y-1160320D01*
X167740Y-1160260D01*
X168960Y-1160600D01*
X171580Y-1161800D01*
X174740Y-1162560D01*
X177979Y-1162720D01*
X181180Y-1162260D01*
X184259Y-1161200D01*
X187060Y-1159580D01*
X189520Y-1157440D01*
X191520Y-1154900D01*
X193020Y-1152020D01*
X193920Y-1148900D01*
X194240Y-1145660D01*
X193920Y-1142440D01*
X193020Y-1139320D01*
X191520Y-1136440D01*
X189520Y-1133880D01*
X187060Y-1131760D01*
X184259Y-1130140D01*
X181180Y-1129080D01*
X177979Y-1128620D01*
X174740Y-1128760D01*
X171580Y-1129540D01*
X168960Y-1130740D01*
X167740Y-1131060D01*
X166480Y-1131000D01*
X164579Y-1130140D01*
X161500Y-1129080D01*
X158300Y-1128620D01*
X155060Y-1128760D01*
X151900Y-1129540D01*
X149280Y-1130740D01*
X148060Y-1131060D01*
X146800Y-1131000D01*
X144880Y-1130140D01*
X141820Y-1129080D01*
X138600Y-1128620D01*
X135360Y-1128760D01*
X132220Y-1129540D01*
X129580Y-1130740D01*
X128379Y-1131060D01*
X127100Y-1131000D01*
X125200Y-1130140D01*
X122140Y-1129080D01*
X118920Y-1128620D01*
X115680Y-1128760D01*
X112520Y-1129540D01*
X109580Y-1130880D01*
X108760Y-1131460D01*
X107380Y-1132100D01*
X105860Y-1132160D01*
X101020Y-1130400D01*
X97820Y-1129940D01*
X94580Y-1130100D01*
X91420Y-1130860D01*
X88460Y-1132220D01*
X85820Y-1134100D01*
X83580Y-1136440D01*
X81820Y-1139180D01*
X80620Y-1142200D01*
X80000Y-1145380D01*
X80000Y-1148620D01*
X80620Y-1151800D01*
X81820Y-1154820D01*
X83580Y-1157560D01*
X85820Y-1159900D01*
X88460Y-1161780D01*
X91420Y-1163140D01*
X94580Y-1163900D01*
G37*
G36*
X206820Y-1094060D02*
G01*
X210020Y-1093600D01*
X213100Y-1092520D01*
X215900Y-1090900D01*
X218359Y-1088780D01*
X220360Y-1086220D01*
X221840Y-1083340D01*
X222760Y-1080240D01*
X223080Y-1077000D01*
X222760Y-1073760D01*
X221840Y-1070660D01*
X220360Y-1067780D01*
X218359Y-1065220D01*
X215900Y-1063100D01*
X213100Y-1061480D01*
X210020Y-1060400D01*
X206820Y-1059940D01*
X203580Y-1060100D01*
X200420Y-1060860D01*
X197460Y-1062220D01*
X194820Y-1064100D01*
X192580Y-1066440D01*
X190820Y-1069180D01*
X189620Y-1072200D01*
X189000Y-1075380D01*
X189000Y-1078620D01*
X189620Y-1081800D01*
X190820Y-1084820D01*
X192580Y-1087560D01*
X194820Y-1089900D01*
X197460Y-1091780D01*
X200420Y-1093140D01*
X203580Y-1093900D01*
G37*
G36*
X275820Y-1082060D02*
G01*
X279020Y-1081600D01*
X282100Y-1080520D01*
X284900Y-1078900D01*
X287360Y-1076780D01*
X289400Y-1074180D01*
X290540Y-1073200D01*
X291960Y-1072700D01*
X293480Y-1072780D01*
X294860Y-1073400D01*
X295900Y-1074500D01*
X296580Y-1075560D01*
X298820Y-1077900D01*
X301460Y-1079780D01*
X304420Y-1081140D01*
X307580Y-1081900D01*
X310820Y-1082060D01*
X314020Y-1081600D01*
X317100Y-1080520D01*
X319900Y-1078900D01*
X322360Y-1076780D01*
X324400Y-1074180D01*
X325540Y-1073200D01*
X326960Y-1072700D01*
X328480Y-1072780D01*
X329860Y-1073400D01*
X330900Y-1074500D01*
X331580Y-1075560D01*
X333820Y-1077900D01*
X336460Y-1079780D01*
X339420Y-1081140D01*
X342580Y-1081900D01*
X345820Y-1082060D01*
X349020Y-1081600D01*
X352100Y-1080520D01*
X354900Y-1078900D01*
X357360Y-1076780D01*
X359360Y-1074220D01*
X360840Y-1071340D01*
X361760Y-1068240D01*
X362080Y-1065000D01*
X361760Y-1061760D01*
X360840Y-1058660D01*
X359360Y-1055780D01*
X357360Y-1053220D01*
X354900Y-1051100D01*
X352100Y-1049480D01*
X349020Y-1048400D01*
X345820Y-1047940D01*
X342580Y-1048100D01*
X339420Y-1048860D01*
X336460Y-1050220D01*
X333820Y-1052100D01*
X331580Y-1054440D01*
X330900Y-1055500D01*
X329860Y-1056600D01*
X328480Y-1057220D01*
X326960Y-1057300D01*
X325540Y-1056800D01*
X324400Y-1055820D01*
X322360Y-1053220D01*
X319900Y-1051100D01*
X317100Y-1049480D01*
X314020Y-1048400D01*
X310820Y-1047940D01*
X307580Y-1048100D01*
X304420Y-1048860D01*
X301460Y-1050220D01*
X298820Y-1052100D01*
X296580Y-1054440D01*
X295900Y-1055500D01*
X294860Y-1056600D01*
X293480Y-1057220D01*
X291960Y-1057300D01*
X290540Y-1056800D01*
X289400Y-1055820D01*
X287360Y-1053220D01*
X284900Y-1051100D01*
X282100Y-1049480D01*
X279020Y-1048400D01*
X275820Y-1047940D01*
X272580Y-1048100D01*
X269420Y-1048860D01*
X266460Y-1050220D01*
X263820Y-1052100D01*
X261580Y-1054440D01*
X259820Y-1057180D01*
X258619Y-1060200D01*
X258000Y-1063380D01*
X258000Y-1066620D01*
X258619Y-1069800D01*
X259820Y-1072820D01*
X261580Y-1075560D01*
X263820Y-1077900D01*
X266460Y-1079780D01*
X269420Y-1081140D01*
X272580Y-1081900D01*
G37*
G36*
X-251160Y-1068240D02*
G01*
X-247940Y-1067760D01*
X-244880Y-1066700D01*
X-242060Y-1065080D01*
X-239620Y-1062960D01*
X-237600Y-1060400D01*
X-236119Y-1057520D01*
X-235200Y-1054400D01*
X-234899Y-1051180D01*
X-235200Y-1047940D01*
X-236119Y-1044840D01*
X-237600Y-1041940D01*
X-239620Y-1039400D01*
X-242060Y-1037280D01*
X-244880Y-1035639D01*
X-247940Y-1034580D01*
X-251160Y-1034120D01*
X-254400Y-1034280D01*
X-257560Y-1035040D01*
X-260500Y-1036400D01*
X-263140Y-1038280D01*
X-265380Y-1040620D01*
X-267140Y-1043360D01*
X-268340Y-1046360D01*
X-268960Y-1049560D01*
X-268960Y-1052800D01*
X-268340Y-1055980D01*
X-267140Y-1059000D01*
X-265380Y-1061740D01*
X-263140Y-1064080D01*
X-260500Y-1065960D01*
X-257560Y-1067320D01*
X-254400Y-1068080D01*
G37*
G36*
X0Y-1050280D02*
G01*
X3840Y-1049940D01*
X7580Y-1048940D01*
X11080Y-1047320D01*
X14260Y-1045100D01*
X16980Y-1042360D01*
X19200Y-1039200D01*
X20840Y-1035680D01*
X21840Y-1031960D01*
X22180Y-1028100D01*
X22060Y-1026660D01*
X22280Y-1024940D01*
X23200Y-1023480D01*
X24660Y-1022560D01*
X26380Y-1022320D01*
X27820Y-1022460D01*
X31680Y-1022120D01*
X35420Y-1021120D01*
X38920Y-1019479D01*
X42080Y-1017260D01*
X44820Y-1014539D01*
X47040Y-1011360D01*
X48680Y-1007860D01*
X49680Y-1004120D01*
X50000Y-1000280D01*
X49880Y-998820D01*
X50100Y-997099D01*
X51040Y-995639D01*
X52500Y-994720D01*
X54220Y-994479D01*
X55679Y-994620D01*
X59540Y-994280D01*
X63259Y-993280D01*
X66780Y-991640D01*
X69940Y-989419D01*
X72680Y-986700D01*
X74900Y-983520D01*
X76520Y-980020D01*
X77520Y-976280D01*
X77860Y-972440D01*
X77520Y-968580D01*
X76520Y-964840D01*
X74900Y-961340D01*
X72680Y-958180D01*
X69940Y-955440D01*
X66780Y-953220D01*
X63259Y-951580D01*
X59540Y-950580D01*
X55679Y-950240D01*
X54200Y-950380D01*
X52480Y-950160D01*
X51020Y-949220D01*
X50100Y-947760D01*
X49860Y-946040D01*
X50000Y-944599D01*
X49660Y-940740D01*
X48660Y-937000D01*
X47020Y-933500D01*
X44800Y-930340D01*
X42080Y-927600D01*
X38900Y-925380D01*
X35400Y-923740D01*
X31660Y-922740D01*
X27820Y-922400D01*
X26400Y-922540D01*
X24680Y-922300D01*
X23220Y-921380D01*
X22280Y-919920D01*
X22060Y-918199D01*
X22180Y-916760D01*
X21840Y-912900D01*
X20840Y-909160D01*
X19220Y-905660D01*
X17000Y-902500D01*
X14260Y-899760D01*
X11100Y-897540D01*
X7580Y-895900D01*
X3860Y-894900D01*
X0Y-894560D01*
X-3860Y-894900D01*
X-7580Y-895900D01*
X-11100Y-897540D01*
X-14260Y-899760D01*
X-17000Y-902500D01*
X-19220Y-905660D01*
X-20840Y-909160D01*
X-21840Y-912900D01*
X-22180Y-916760D01*
X-22060Y-918199D01*
X-22280Y-919920D01*
X-23220Y-921380D01*
X-24680Y-922300D01*
X-26400Y-922540D01*
X-27839Y-922400D01*
X-31700Y-922740D01*
X-35420Y-923740D01*
X-38940Y-925380D01*
X-42100Y-927600D01*
X-44840Y-930340D01*
X-47060Y-933500D01*
X-48680Y-937000D01*
X-49680Y-940740D01*
X-50020Y-944599D01*
X-49900Y-946040D01*
X-50119Y-947760D01*
X-51060Y-949220D01*
X-52520Y-950140D01*
X-54240Y-950380D01*
X-55679Y-950240D01*
X-59540Y-950580D01*
X-63259Y-951580D01*
X-66780Y-953220D01*
X-69940Y-955440D01*
X-72680Y-958180D01*
X-74900Y-961340D01*
X-76520Y-964840D01*
X-77520Y-968580D01*
X-77860Y-972440D01*
X-77520Y-976280D01*
X-76520Y-980020D01*
X-74900Y-983520D01*
X-72680Y-986700D01*
X-69940Y-989419D01*
X-66780Y-991640D01*
X-63259Y-993280D01*
X-59540Y-994280D01*
X-55679Y-994620D01*
X-54240Y-994500D01*
X-52520Y-994720D01*
X-51060Y-995639D01*
X-50119Y-997099D01*
X-49900Y-998820D01*
X-50020Y-1000280D01*
X-49680Y-1004120D01*
X-48680Y-1007860D01*
X-47060Y-1011360D01*
X-44840Y-1014539D01*
X-42100Y-1017260D01*
X-38940Y-1019479D01*
X-35420Y-1021120D01*
X-31700Y-1022120D01*
X-27839Y-1022460D01*
X-26400Y-1022320D01*
X-24680Y-1022560D01*
X-23220Y-1023480D01*
X-22300Y-1024940D01*
X-22060Y-1026660D01*
X-22200Y-1028100D01*
X-21860Y-1031960D01*
X-20860Y-1035680D01*
X-19220Y-1039200D01*
X-17000Y-1042360D01*
X-14260Y-1045100D01*
X-11100Y-1047320D01*
X-7600Y-1048940D01*
X-3860Y-1049940D01*
G37*
G36*
X250820Y-982060D02*
G01*
X254020Y-981600D01*
X257100Y-980520D01*
X259899Y-978900D01*
X262360Y-976780D01*
X264360Y-974220D01*
X265840Y-971340D01*
X266760Y-968240D01*
X267080Y-965000D01*
X266600Y-960000D01*
X267160Y-958439D01*
X268320Y-957220D01*
X269840Y-956600D01*
X271520Y-956640D01*
X272580Y-956900D01*
X275820Y-957060D01*
X279020Y-956600D01*
X282100Y-955520D01*
X284900Y-953900D01*
X287360Y-951780D01*
X289360Y-949220D01*
X290840Y-946340D01*
X291760Y-943240D01*
X292080Y-940000D01*
X291760Y-936760D01*
X290840Y-933660D01*
X289360Y-930780D01*
X287360Y-928220D01*
X284900Y-926100D01*
X282100Y-924479D01*
X279020Y-923400D01*
X275820Y-922940D01*
X272580Y-923100D01*
X269420Y-923860D01*
X266460Y-925220D01*
X263820Y-927099D01*
X261580Y-929440D01*
X259820Y-932180D01*
X258619Y-935200D01*
X258000Y-938379D01*
X258000Y-941620D01*
X258400Y-943680D01*
X258400Y-945180D01*
X257840Y-946600D01*
X256800Y-947700D01*
X255420Y-948319D01*
X253900Y-948400D01*
X250820Y-947940D01*
X247580Y-948100D01*
X244420Y-948860D01*
X241460Y-950220D01*
X238820Y-952099D01*
X236580Y-954440D01*
X234820Y-957180D01*
X233619Y-960200D01*
X233000Y-963379D01*
X233000Y-966620D01*
X233619Y-969800D01*
X234820Y-972820D01*
X236580Y-975560D01*
X238820Y-977900D01*
X241460Y-979780D01*
X244420Y-981140D01*
X247580Y-981900D01*
G37*
G36*
X245820Y-927060D02*
G01*
X249020Y-926600D01*
X252100Y-925520D01*
X254899Y-923900D01*
X257360Y-921780D01*
X259360Y-919220D01*
X260840Y-916340D01*
X261759Y-913240D01*
X262079Y-910000D01*
X261759Y-906760D01*
X260840Y-903660D01*
X259360Y-900780D01*
X257360Y-898220D01*
X254899Y-896100D01*
X252100Y-894479D01*
X249020Y-893400D01*
X245820Y-892940D01*
X242580Y-893100D01*
X239420Y-893860D01*
X236460Y-895220D01*
X233820Y-897099D01*
X231580Y-899440D01*
X229820Y-902180D01*
X228619Y-905200D01*
X228000Y-908379D01*
X228000Y-911620D01*
X228619Y-914800D01*
X229820Y-917820D01*
X231580Y-920560D01*
X233820Y-922900D01*
X236460Y-924780D01*
X239420Y-926140D01*
X242580Y-926900D01*
G37*
G36*
X330820Y-897060D02*
G01*
X334020Y-896600D01*
X337100Y-895520D01*
X339900Y-893900D01*
X342360Y-891780D01*
X344360Y-889220D01*
X345840Y-886340D01*
X346760Y-883240D01*
X347080Y-880000D01*
X346760Y-876760D01*
X345840Y-873660D01*
X344360Y-870780D01*
X342360Y-868220D01*
X339900Y-866100D01*
X337100Y-864479D01*
X334020Y-863400D01*
X330820Y-862940D01*
X327580Y-863100D01*
X326520Y-863360D01*
X324840Y-863400D01*
X323320Y-862780D01*
X322160Y-861560D01*
X321599Y-860000D01*
X322080Y-855000D01*
X321760Y-851760D01*
X320840Y-848660D01*
X319360Y-845780D01*
X317360Y-843220D01*
X314900Y-841100D01*
X312100Y-839479D01*
X309020Y-838400D01*
X305820Y-837940D01*
X302580Y-838100D01*
X299420Y-838860D01*
X296460Y-840220D01*
X293820Y-842099D01*
X291580Y-844440D01*
X289820Y-847180D01*
X288620Y-850200D01*
X288000Y-853379D01*
X288000Y-856620D01*
X288620Y-859800D01*
X289820Y-862820D01*
X291580Y-865560D01*
X293820Y-867900D01*
X296460Y-869780D01*
X299420Y-871140D01*
X302580Y-871900D01*
X305820Y-872060D01*
X308900Y-871600D01*
X310420Y-871680D01*
X311800Y-872300D01*
X312840Y-873400D01*
X313400Y-874820D01*
X313400Y-876320D01*
X313000Y-878379D01*
X313000Y-881620D01*
X313620Y-884800D01*
X314820Y-887820D01*
X316580Y-890560D01*
X318820Y-892900D01*
X321460Y-894780D01*
X324420Y-896140D01*
X327580Y-896900D01*
G37*
G36*
X-184220Y-895000D02*
G01*
X-181020Y-894539D01*
X-177940Y-893480D01*
X-175140Y-891860D01*
X-172680Y-889740D01*
X-170680Y-887180D01*
X-169200Y-884300D01*
X-168280Y-881180D01*
X-167960Y-877960D01*
X-168280Y-874720D01*
X-169200Y-871600D01*
X-170680Y-868720D01*
X-172680Y-866180D01*
X-175140Y-864040D01*
X-178080Y-862340D01*
X-179060Y-861540D01*
X-179740Y-860480D01*
X-180080Y-858980D01*
X-181000Y-855860D01*
X-182480Y-852980D01*
X-184500Y-850420D01*
X-186940Y-848300D01*
X-190180Y-846460D01*
X-191160Y-845660D01*
X-191860Y-844599D01*
X-192240Y-842760D01*
X-193160Y-839659D01*
X-194640Y-836780D01*
X-196640Y-834220D01*
X-199100Y-832099D01*
X-201900Y-830480D01*
X-204980Y-829400D01*
X-206680Y-829160D01*
X-208120Y-828660D01*
X-209259Y-827680D01*
X-209960Y-826340D01*
X-210159Y-825660D01*
X-211640Y-822780D01*
X-213640Y-820220D01*
X-216100Y-818100D01*
X-218900Y-816480D01*
X-221980Y-815400D01*
X-225180Y-814940D01*
X-227340Y-814760D01*
X-228640Y-814000D01*
X-229579Y-812820D01*
X-230640Y-810780D01*
X-232640Y-808220D01*
X-235100Y-806100D01*
X-237900Y-804479D01*
X-240980Y-803400D01*
X-244180Y-802940D01*
X-247420Y-803100D01*
X-250580Y-803860D01*
X-253540Y-805220D01*
X-256180Y-807099D01*
X-258420Y-809440D01*
X-260180Y-812180D01*
X-261380Y-815200D01*
X-262000Y-818379D01*
X-262000Y-821620D01*
X-261380Y-824800D01*
X-260180Y-827820D01*
X-258420Y-830560D01*
X-256180Y-832900D01*
X-253540Y-834780D01*
X-250580Y-836140D01*
X-247420Y-836900D01*
X-244820Y-837020D01*
X-243340Y-837380D01*
X-242100Y-838259D01*
X-239420Y-842560D01*
X-237180Y-844900D01*
X-234540Y-846780D01*
X-231600Y-848120D01*
X-227940Y-848980D01*
X-226759Y-849479D01*
X-225799Y-850300D01*
X-225140Y-851400D01*
X-224180Y-853820D01*
X-222420Y-856560D01*
X-220180Y-858900D01*
X-217540Y-860780D01*
X-216000Y-861480D01*
X-214960Y-862180D01*
X-214180Y-863180D01*
X-213740Y-864360D01*
X-213240Y-867020D01*
X-212020Y-870020D01*
X-210260Y-872760D01*
X-208020Y-875100D01*
X-205380Y-876979D01*
X-204140Y-877560D01*
X-203080Y-878259D01*
X-202300Y-879260D01*
X-201860Y-880440D01*
X-201420Y-882760D01*
X-200219Y-885780D01*
X-198460Y-888500D01*
X-196220Y-890860D01*
X-193580Y-892740D01*
X-190620Y-894080D01*
X-187460Y-894840D01*
G37*
G36*
X205539Y-812320D02*
G01*
X208740Y-811860D01*
X211820Y-810800D01*
X214620Y-809180D01*
X217079Y-807060D01*
X219080Y-804500D01*
X220580Y-801620D01*
X221480Y-798500D01*
X221800Y-795280D01*
X221480Y-792039D01*
X220580Y-788920D01*
X219080Y-786040D01*
X217079Y-783500D01*
X214620Y-781360D01*
X211820Y-779740D01*
X208740Y-778680D01*
X205539Y-778220D01*
X202300Y-778379D01*
X199140Y-779140D01*
X196180Y-780480D01*
X193540Y-782380D01*
X191300Y-784720D01*
X189560Y-787460D01*
X188340Y-790460D01*
X187719Y-793660D01*
X187719Y-796900D01*
X188340Y-800080D01*
X189560Y-803100D01*
X191300Y-805819D01*
X193540Y-808180D01*
X196180Y-810060D01*
X199140Y-811400D01*
X202300Y-812180D01*
G37*
G36*
X-109420Y-761140D02*
G01*
X-106220Y-760680D01*
X-103140Y-759620D01*
X-100340Y-758000D01*
X-97880Y-755879D01*
X-95879Y-753319D01*
X-94380Y-750440D01*
X-93480Y-747320D01*
X-93160Y-744100D01*
X-93480Y-740860D01*
X-94380Y-737740D01*
X-95879Y-734860D01*
X-97880Y-732320D01*
X-100340Y-730180D01*
X-103140Y-728560D01*
X-106220Y-727500D01*
X-109420Y-727039D01*
X-112660Y-727200D01*
X-115820Y-727960D01*
X-118780Y-729300D01*
X-121420Y-731200D01*
X-123660Y-733540D01*
X-125399Y-736280D01*
X-126620Y-739280D01*
X-127240Y-742480D01*
X-127240Y-745720D01*
X-126620Y-748900D01*
X-125399Y-751919D01*
X-123660Y-754640D01*
X-121420Y-757000D01*
X-118780Y-758880D01*
X-115820Y-760220D01*
X-112660Y-761000D01*
G37*
G36*
X79560Y-741460D02*
G01*
X82760Y-741000D01*
X85840Y-739940D01*
X88640Y-738319D01*
X91100Y-736180D01*
X93100Y-733640D01*
X94580Y-730759D01*
X95500Y-727640D01*
X95820Y-724400D01*
X95500Y-721180D01*
X94580Y-718060D01*
X93100Y-715180D01*
X91100Y-712620D01*
X88640Y-710500D01*
X85840Y-708880D01*
X82760Y-707820D01*
X79560Y-707360D01*
X76320Y-707520D01*
X73160Y-708280D01*
X70200Y-709620D01*
X67560Y-711500D01*
X65320Y-713860D01*
X63560Y-716580D01*
X62360Y-719599D01*
X61740Y-722780D01*
X61740Y-726040D01*
X62360Y-729220D01*
X63560Y-732240D01*
X65320Y-734960D01*
X67560Y-737320D01*
X70200Y-739200D01*
X73160Y-740540D01*
X76320Y-741300D01*
G37*
G36*
X-207840Y-737520D02*
G01*
X-204640Y-737060D01*
X-201560Y-736000D01*
X-198760Y-734380D01*
X-196300Y-732260D01*
X-194300Y-729700D01*
X-192820Y-726820D01*
X-191900Y-723700D01*
X-191580Y-720480D01*
X-191900Y-717240D01*
X-192820Y-714120D01*
X-194300Y-711240D01*
X-196300Y-708700D01*
X-198760Y-706560D01*
X-201560Y-704940D01*
X-204640Y-703880D01*
X-207840Y-703420D01*
X-211100Y-703580D01*
X-214240Y-704340D01*
X-217200Y-705680D01*
X-219840Y-707560D01*
X-222079Y-709920D01*
X-223840Y-712640D01*
X-225040Y-715660D01*
X-225660Y-718840D01*
X-225660Y-722099D01*
X-225040Y-725280D01*
X-223840Y-728300D01*
X-222079Y-731020D01*
X-219840Y-733379D01*
X-217200Y-735260D01*
X-214240Y-736600D01*
X-211100Y-737360D01*
G37*
G36*
X820Y-631220D02*
G01*
X4020Y-630760D01*
X7100Y-629700D01*
X9900Y-628080D01*
X12360Y-625960D01*
X14360Y-623400D01*
X15840Y-620520D01*
X16760Y-617400D01*
X17080Y-614180D01*
X16760Y-610940D01*
X15840Y-607820D01*
X14360Y-604940D01*
X12360Y-602400D01*
X9900Y-600260D01*
X7100Y-598640D01*
X4020Y-597580D01*
X820Y-597120D01*
X-2420Y-597280D01*
X-5580Y-598040D01*
X-8540Y-599380D01*
X-11180Y-601280D01*
X-13420Y-603620D01*
X-15180Y-606340D01*
X-16379Y-609360D01*
X-17000Y-612540D01*
X-17000Y-615800D01*
X-16379Y-618980D01*
X-15180Y-622000D01*
X-13420Y-624720D01*
X-11180Y-627080D01*
X-8540Y-628960D01*
X-5580Y-630300D01*
X-2420Y-631080D01*
G37*
G36*
X5820Y-537060D02*
G01*
X9020Y-536600D01*
X12100Y-535520D01*
X14900Y-533900D01*
X17360Y-531780D01*
X19360Y-529220D01*
X20840Y-526340D01*
X21760Y-523240D01*
X22080Y-520000D01*
X21760Y-516760D01*
X20840Y-513660D01*
X19360Y-510780D01*
X17360Y-508220D01*
X14900Y-506100D01*
X12100Y-504480D01*
X9020Y-503400D01*
X5820Y-502939D01*
X2580Y-503100D01*
X-580Y-503860D01*
X-3540Y-505220D01*
X-6180Y-507100D01*
X-8420Y-509440D01*
X-10180Y-512180D01*
X-11379Y-515200D01*
X-12000Y-518380D01*
X-12000Y-521620D01*
X-11379Y-524800D01*
X-10180Y-527820D01*
X-8420Y-530560D01*
X-6180Y-532900D01*
X-3540Y-534780D01*
X-580Y-536140D01*
X2580Y-536900D01*
G37*
G36*
X-44180Y-537060D02*
G01*
X-40980Y-536600D01*
X-37900Y-535520D01*
X-35100Y-533900D01*
X-32639Y-531780D01*
X-30640Y-529220D01*
X-29160Y-526340D01*
X-28240Y-523240D01*
X-27919Y-520000D01*
X-28240Y-516760D01*
X-29160Y-513660D01*
X-30640Y-510780D01*
X-32639Y-508220D01*
X-35100Y-506100D01*
X-37900Y-504480D01*
X-40980Y-503400D01*
X-44180Y-502939D01*
X-47420Y-503100D01*
X-50580Y-503860D01*
X-53540Y-505220D01*
X-56180Y-507100D01*
X-58420Y-509440D01*
X-60180Y-512180D01*
X-61380Y-515200D01*
X-62000Y-518380D01*
X-62000Y-521620D01*
X-61380Y-524800D01*
X-60180Y-527820D01*
X-58420Y-530560D01*
X-56180Y-532900D01*
X-53540Y-534780D01*
X-50580Y-536140D01*
X-47420Y-536900D01*
G37*
G36*
X50820Y-537060D02*
G01*
X54020Y-536600D01*
X57100Y-535520D01*
X59900Y-533900D01*
X62360Y-531780D01*
X64360Y-529220D01*
X65840Y-526340D01*
X66760Y-523240D01*
X67080Y-520000D01*
X66760Y-516760D01*
X65840Y-513660D01*
X64360Y-510780D01*
X62360Y-508220D01*
X59900Y-506100D01*
X57100Y-504480D01*
X54020Y-503400D01*
X50820Y-502939D01*
X47580Y-503100D01*
X44420Y-503860D01*
X41460Y-505220D01*
X38820Y-507100D01*
X36580Y-509440D01*
X34820Y-512180D01*
X33620Y-515200D01*
X33000Y-518380D01*
X33000Y-521620D01*
X33620Y-524800D01*
X34820Y-527820D01*
X36580Y-530560D01*
X38820Y-532900D01*
X41460Y-534780D01*
X44420Y-536140D01*
X47580Y-536900D01*
G37*
G36*
X130740Y-501300D02*
G01*
X133940Y-500840D01*
X137020Y-499780D01*
X139820Y-498160D01*
X142280Y-496040D01*
X144280Y-493480D01*
X145760Y-490600D01*
X146680Y-487480D01*
X147000Y-484260D01*
X146680Y-481019D01*
X145760Y-477900D01*
X144280Y-475020D01*
X142280Y-472480D01*
X139820Y-470340D01*
X137020Y-468720D01*
X133940Y-467660D01*
X130740Y-467200D01*
X127500Y-467360D01*
X124340Y-468120D01*
X121380Y-469460D01*
X118740Y-471340D01*
X116500Y-473700D01*
X114740Y-476420D01*
X113539Y-479440D01*
X112920Y-482620D01*
X112920Y-485880D01*
X113539Y-489060D01*
X114740Y-492080D01*
X116500Y-494799D01*
X118740Y-497160D01*
X121380Y-499040D01*
X124340Y-500379D01*
X127500Y-501140D01*
G37*
G36*
X-129100Y-501300D02*
G01*
X-125900Y-500840D01*
X-122820Y-499780D01*
X-120020Y-498160D01*
X-117560Y-496040D01*
X-115559Y-493480D01*
X-114080Y-490600D01*
X-113160Y-487480D01*
X-112840Y-484260D01*
X-113160Y-481019D01*
X-114080Y-477900D01*
X-115559Y-475020D01*
X-117560Y-472480D01*
X-120020Y-470340D01*
X-122820Y-468720D01*
X-125900Y-467660D01*
X-129100Y-467200D01*
X-132360Y-467360D01*
X-135500Y-468120D01*
X-138460Y-469460D01*
X-141100Y-471340D01*
X-143340Y-473700D01*
X-145100Y-476420D01*
X-146300Y-479440D01*
X-146920Y-482620D01*
X-146920Y-485880D01*
X-146300Y-489060D01*
X-145100Y-492080D01*
X-143340Y-494799D01*
X-141100Y-497160D01*
X-138460Y-499040D01*
X-135500Y-500379D01*
X-132360Y-501140D01*
G37*
G36*
X5820Y-487060D02*
G01*
X9020Y-486599D01*
X12100Y-485520D01*
X14900Y-483900D01*
X17360Y-481780D01*
X19360Y-479219D01*
X20840Y-476340D01*
X21760Y-473240D01*
X22080Y-470000D01*
X21760Y-466760D01*
X20840Y-463660D01*
X19360Y-460780D01*
X17360Y-458220D01*
X14900Y-456100D01*
X12100Y-454480D01*
X9020Y-453400D01*
X5820Y-452939D01*
X2580Y-453100D01*
X-580Y-453860D01*
X-3540Y-455220D01*
X-6180Y-457100D01*
X-8420Y-459440D01*
X-10180Y-462180D01*
X-11379Y-465200D01*
X-12000Y-468380D01*
X-12000Y-471620D01*
X-11379Y-474799D01*
X-10180Y-477819D01*
X-8420Y-480560D01*
X-6180Y-482900D01*
X-3540Y-484780D01*
X-580Y-486140D01*
X2580Y-486900D01*
G37*
G36*
X-44180Y-487060D02*
G01*
X-40980Y-486599D01*
X-37900Y-485520D01*
X-35100Y-483900D01*
X-32639Y-481780D01*
X-30640Y-479219D01*
X-29160Y-476340D01*
X-28240Y-473240D01*
X-27919Y-470000D01*
X-28240Y-466760D01*
X-29160Y-463660D01*
X-30640Y-460780D01*
X-32639Y-458220D01*
X-35100Y-456100D01*
X-37900Y-454480D01*
X-40980Y-453400D01*
X-44180Y-452939D01*
X-47420Y-453100D01*
X-50580Y-453860D01*
X-53540Y-455220D01*
X-56180Y-457100D01*
X-58420Y-459440D01*
X-60180Y-462180D01*
X-61380Y-465200D01*
X-62000Y-468380D01*
X-62000Y-471620D01*
X-61380Y-474799D01*
X-60180Y-477819D01*
X-58420Y-480560D01*
X-56180Y-482900D01*
X-53540Y-484780D01*
X-50580Y-486140D01*
X-47420Y-486900D01*
G37*
G36*
X50820Y-487060D02*
G01*
X54020Y-486599D01*
X57100Y-485520D01*
X59900Y-483900D01*
X62360Y-481780D01*
X64360Y-479219D01*
X65840Y-476340D01*
X66760Y-473240D01*
X67080Y-470000D01*
X66760Y-466760D01*
X65840Y-463660D01*
X64360Y-460780D01*
X62360Y-458220D01*
X59900Y-456100D01*
X57100Y-454480D01*
X54020Y-453400D01*
X50820Y-452939D01*
X47580Y-453100D01*
X44420Y-453860D01*
X41460Y-455220D01*
X38820Y-457100D01*
X36580Y-459440D01*
X34820Y-462180D01*
X33620Y-465200D01*
X33000Y-468380D01*
X33000Y-471620D01*
X33620Y-474799D01*
X34820Y-477819D01*
X36580Y-480560D01*
X38820Y-482900D01*
X41460Y-484780D01*
X44420Y-486140D01*
X47580Y-486900D01*
G37*
G36*
X335820Y-447060D02*
G01*
X339020Y-446599D01*
X342100Y-445520D01*
X344900Y-443900D01*
X347360Y-441780D01*
X349360Y-439219D01*
X350840Y-436340D01*
X351760Y-433240D01*
X352080Y-430000D01*
X351760Y-426760D01*
X350840Y-423660D01*
X349360Y-420780D01*
X347360Y-418220D01*
X344900Y-416100D01*
X342100Y-414480D01*
X339020Y-413400D01*
X335820Y-412939D01*
X332580Y-413100D01*
X329420Y-413860D01*
X326460Y-415220D01*
X323820Y-417100D01*
X321580Y-419440D01*
X319820Y-422180D01*
X318620Y-425200D01*
X318000Y-428380D01*
X318000Y-431620D01*
X318620Y-434799D01*
X319820Y-437819D01*
X321580Y-440560D01*
X323820Y-442900D01*
X326460Y-444780D01*
X329420Y-446140D01*
X332580Y-446900D01*
G37*
G36*
X50820Y-432060D02*
G01*
X54020Y-431599D01*
X57100Y-430520D01*
X59900Y-428900D01*
X62360Y-426780D01*
X64360Y-424219D01*
X65840Y-421340D01*
X66760Y-418240D01*
X67080Y-415000D01*
X66760Y-411760D01*
X65840Y-408660D01*
X64360Y-405780D01*
X62360Y-403220D01*
X59900Y-401100D01*
X57100Y-399480D01*
X54020Y-398400D01*
X50820Y-397939D01*
X47580Y-398100D01*
X44420Y-398860D01*
X41460Y-400220D01*
X38820Y-402100D01*
X36580Y-404440D01*
X34820Y-407180D01*
X33620Y-410200D01*
X33000Y-413380D01*
X33000Y-416620D01*
X33620Y-419799D01*
X34820Y-422819D01*
X36580Y-425560D01*
X38820Y-427900D01*
X41460Y-429780D01*
X44420Y-431140D01*
X47580Y-431900D01*
G37*
G36*
X5820Y-432060D02*
G01*
X9020Y-431599D01*
X12100Y-430520D01*
X14900Y-428900D01*
X17360Y-426780D01*
X19360Y-424219D01*
X20840Y-421340D01*
X21760Y-418240D01*
X22080Y-415000D01*
X21760Y-411760D01*
X20840Y-408660D01*
X19360Y-405780D01*
X17360Y-403220D01*
X14900Y-401100D01*
X12100Y-399480D01*
X9020Y-398400D01*
X5820Y-397939D01*
X2580Y-398100D01*
X-580Y-398860D01*
X-3540Y-400220D01*
X-6180Y-402100D01*
X-8420Y-404440D01*
X-10180Y-407180D01*
X-11379Y-410200D01*
X-12000Y-413380D01*
X-12000Y-416620D01*
X-11379Y-419799D01*
X-10180Y-422819D01*
X-8420Y-425560D01*
X-6180Y-427900D01*
X-3540Y-429780D01*
X-580Y-431140D01*
X2580Y-431900D01*
G37*
G36*
X-44180Y-432060D02*
G01*
X-40980Y-431599D01*
X-37900Y-430520D01*
X-35100Y-428900D01*
X-32639Y-426780D01*
X-30640Y-424219D01*
X-29160Y-421340D01*
X-28240Y-418240D01*
X-27919Y-415000D01*
X-28240Y-411760D01*
X-29160Y-408660D01*
X-30640Y-405780D01*
X-32639Y-403220D01*
X-35100Y-401100D01*
X-37900Y-399480D01*
X-40980Y-398400D01*
X-44180Y-397939D01*
X-47420Y-398100D01*
X-51080Y-399020D01*
X-52600Y-399099D01*
X-54020Y-398620D01*
X-55180Y-397620D01*
X-55880Y-396280D01*
X-56020Y-394760D01*
X-55599Y-393300D01*
X-55020Y-392180D01*
X-54100Y-389060D01*
X-53800Y-385820D01*
X-54100Y-382600D01*
X-55020Y-379480D01*
X-56500Y-376599D01*
X-58520Y-374040D01*
X-60960Y-371920D01*
X-63780Y-370300D01*
X-66840Y-369240D01*
X-70060Y-368780D01*
X-73300Y-368920D01*
X-76440Y-369700D01*
X-79400Y-371040D01*
X-82040Y-372920D01*
X-84280Y-375280D01*
X-86039Y-378000D01*
X-87240Y-381019D01*
X-87860Y-384200D01*
X-87860Y-387440D01*
X-87240Y-390640D01*
X-86039Y-393640D01*
X-84280Y-396380D01*
X-82040Y-398720D01*
X-79400Y-400620D01*
X-76440Y-401960D01*
X-73300Y-402720D01*
X-70060Y-402879D01*
X-66840Y-402420D01*
X-65160Y-401840D01*
X-63660Y-401620D01*
X-62200Y-401980D01*
X-60960Y-402860D01*
X-60140Y-404140D01*
X-59860Y-405620D01*
X-60140Y-407100D01*
X-61380Y-410200D01*
X-62000Y-413380D01*
X-62000Y-416620D01*
X-61380Y-419799D01*
X-60180Y-422819D01*
X-58420Y-425560D01*
X-56180Y-427900D01*
X-53540Y-429780D01*
X-50580Y-431140D01*
X-47420Y-431900D01*
G37*
G36*
X155820Y-417060D02*
G01*
X159020Y-416599D01*
X162100Y-415520D01*
X164899Y-413900D01*
X167360Y-411780D01*
X169360Y-409219D01*
X170840Y-406340D01*
X171759Y-403240D01*
X172079Y-400000D01*
X171759Y-396760D01*
X170840Y-393660D01*
X169360Y-390780D01*
X167360Y-388220D01*
X164899Y-386100D01*
X162100Y-384480D01*
X159020Y-383400D01*
X155820Y-382939D01*
X152580Y-383100D01*
X149420Y-383860D01*
X146460Y-385220D01*
X143820Y-387100D01*
X141580Y-389440D01*
X139820Y-392180D01*
X138620Y-395200D01*
X138000Y-398380D01*
X138000Y-401620D01*
X138620Y-404799D01*
X139820Y-407819D01*
X141580Y-410560D01*
X143820Y-412900D01*
X146460Y-414780D01*
X149420Y-416140D01*
X152580Y-416900D01*
G37*
G36*
X200820Y-417060D02*
G01*
X204020Y-416599D01*
X207100Y-415520D01*
X209899Y-413900D01*
X212360Y-411780D01*
X214360Y-409219D01*
X215840Y-406340D01*
X216759Y-403240D01*
X217079Y-400000D01*
X216759Y-396760D01*
X215840Y-393660D01*
X214360Y-390780D01*
X212360Y-388220D01*
X209899Y-386100D01*
X207100Y-384480D01*
X204020Y-383400D01*
X200820Y-382939D01*
X197580Y-383100D01*
X194420Y-383860D01*
X191460Y-385220D01*
X188820Y-387100D01*
X186580Y-389440D01*
X184820Y-392180D01*
X183619Y-395200D01*
X183000Y-398380D01*
X183000Y-401620D01*
X183619Y-404799D01*
X184820Y-407819D01*
X186580Y-410560D01*
X188820Y-412900D01*
X191460Y-414780D01*
X194420Y-416140D01*
X197580Y-416900D01*
G37*
G36*
X335820Y-387060D02*
G01*
X339020Y-386599D01*
X342100Y-385520D01*
X344900Y-383900D01*
X347360Y-381780D01*
X349360Y-379219D01*
X350840Y-376340D01*
X351760Y-373240D01*
X352080Y-370000D01*
X351760Y-366760D01*
X350840Y-363660D01*
X349360Y-360780D01*
X347360Y-358220D01*
X344900Y-356100D01*
X342100Y-354480D01*
X339020Y-353400D01*
X335820Y-352939D01*
X332580Y-353100D01*
X329420Y-353860D01*
X326460Y-355220D01*
X323820Y-357100D01*
X321580Y-359440D01*
X319820Y-362180D01*
X318620Y-365200D01*
X318000Y-368380D01*
X318000Y-371620D01*
X318620Y-374799D01*
X319820Y-377819D01*
X321580Y-380560D01*
X323820Y-382900D01*
X326460Y-384780D01*
X329420Y-386140D01*
X332580Y-386900D01*
G37*
G36*
X200820Y-367060D02*
G01*
X204020Y-366599D01*
X207100Y-365520D01*
X209899Y-363900D01*
X212360Y-361780D01*
X214360Y-359219D01*
X215840Y-356340D01*
X216759Y-353240D01*
X217079Y-350000D01*
X216759Y-346760D01*
X215840Y-343660D01*
X214360Y-340780D01*
X212360Y-338220D01*
X209899Y-336100D01*
X207100Y-334480D01*
X204020Y-333400D01*
X200820Y-332939D01*
X197580Y-333100D01*
X194420Y-333860D01*
X191460Y-335220D01*
X188820Y-337100D01*
X186580Y-339440D01*
X184820Y-342180D01*
X183619Y-345200D01*
X183000Y-348380D01*
X183000Y-351620D01*
X183619Y-354799D01*
X184820Y-357819D01*
X186580Y-360560D01*
X188820Y-362900D01*
X191460Y-364780D01*
X194420Y-366140D01*
X197580Y-366900D01*
G37*
G36*
X155820Y-367060D02*
G01*
X159020Y-366599D01*
X162100Y-365520D01*
X164899Y-363900D01*
X167360Y-361780D01*
X169360Y-359219D01*
X170840Y-356340D01*
X171759Y-353240D01*
X172079Y-350000D01*
X171759Y-346760D01*
X170840Y-343660D01*
X169360Y-340780D01*
X167360Y-338220D01*
X164899Y-336100D01*
X162100Y-334480D01*
X159020Y-333400D01*
X155820Y-332939D01*
X152580Y-333100D01*
X149420Y-333860D01*
X146460Y-335220D01*
X143820Y-337100D01*
X141580Y-339440D01*
X139820Y-342180D01*
X138620Y-345200D01*
X138000Y-348380D01*
X138000Y-351620D01*
X138620Y-354799D01*
X139820Y-357819D01*
X141580Y-360560D01*
X143820Y-362900D01*
X146460Y-364780D01*
X149420Y-366140D01*
X152580Y-366900D01*
G37*
G36*
X-74000Y-347760D02*
G01*
X-70780Y-347299D01*
X-67720Y-346240D01*
X-64900Y-344620D01*
X-62440Y-342480D01*
X-60439Y-339940D01*
X-58960Y-337060D01*
X-58040Y-333940D01*
X-57740Y-330700D01*
X-58040Y-327480D01*
X-58960Y-324360D01*
X-60439Y-321480D01*
X-62440Y-318920D01*
X-64900Y-316800D01*
X-67720Y-315180D01*
X-70780Y-314120D01*
X-74000Y-313660D01*
X-77240Y-313820D01*
X-80380Y-314580D01*
X-83340Y-315920D01*
X-85980Y-317800D01*
X-88219Y-320160D01*
X-89980Y-322879D01*
X-91180Y-325900D01*
X-91800Y-329080D01*
X-91800Y-332340D01*
X-91180Y-335520D01*
X-89980Y-338540D01*
X-88219Y-341260D01*
X-85980Y-343620D01*
X-83340Y-345500D01*
X-80380Y-346840D01*
X-77240Y-347600D01*
G37*
G36*
X-14940Y-324140D02*
G01*
X-11720Y-323680D01*
X-8660Y-322620D01*
X-5840Y-321000D01*
X-3400Y-318860D01*
X-1380Y-316320D01*
X100Y-313440D01*
X1019Y-310320D01*
X1320Y-307080D01*
X1019Y-303860D01*
X100Y-300740D01*
X-1380Y-297860D01*
X-3400Y-295300D01*
X-5840Y-293180D01*
X-8660Y-291560D01*
X-11720Y-290500D01*
X-14940Y-290040D01*
X-18180Y-290180D01*
X-21340Y-290960D01*
X-24280Y-292300D01*
X-26920Y-294180D01*
X-29160Y-296540D01*
X-30920Y-299260D01*
X-32120Y-302280D01*
X-32740Y-305460D01*
X-32740Y-308700D01*
X-32120Y-311900D01*
X-30920Y-314900D01*
X-29160Y-317640D01*
X-26920Y-319980D01*
X-24280Y-321880D01*
X-21340Y-323220D01*
X-18180Y-323980D01*
G37*
G36*
X-147180Y-310720D02*
G01*
X-143980Y-310260D01*
X-140900Y-309200D01*
X-139420Y-308340D01*
X-138460Y-307940D01*
X-137420Y-307820D01*
X-113880Y-307820D01*
X-110740Y-307480D01*
X-107940Y-306560D01*
X-105340Y-305060D01*
X-103560Y-303560D01*
X-70160Y-270140D01*
X-68160Y-267680D01*
X-66820Y-265060D01*
X-66040Y-262160D01*
X-65860Y-259840D01*
X-65860Y-228619D01*
X-65600Y-227220D01*
X-64860Y-225980D01*
X-63720Y-225100D01*
X-62360Y-224660D01*
X-60920Y-224740D01*
X-57539Y-225560D01*
X-54300Y-225720D01*
X-51100Y-225260D01*
X-48019Y-224200D01*
X-45220Y-222560D01*
X-42760Y-220440D01*
X-40759Y-217900D01*
X-39260Y-215000D01*
X-38360Y-211900D01*
X-38040Y-208660D01*
X-38360Y-205440D01*
X-39260Y-202320D01*
X-40759Y-199440D01*
X-42760Y-196880D01*
X-45220Y-194760D01*
X-48019Y-193140D01*
X-51100Y-192079D01*
X-54300Y-191600D01*
X-57539Y-191759D01*
X-60920Y-192580D01*
X-62360Y-192659D01*
X-63720Y-192240D01*
X-64860Y-191340D01*
X-65600Y-190100D01*
X-65860Y-188700D01*
X-65860Y-187520D01*
X-65560Y-185980D01*
X-64700Y-184680D01*
X-45320Y-165300D01*
X-44020Y-164440D01*
X-42480Y-164140D01*
X16740Y-164140D01*
X19940Y-163800D01*
X21960Y-163200D01*
X23740Y-162300D01*
X25780Y-161759D01*
X28900Y-160680D01*
X31720Y-159060D01*
X34160Y-156920D01*
X36160Y-154380D01*
X37660Y-151500D01*
X38580Y-148380D01*
X38880Y-145140D01*
X38580Y-141920D01*
X37660Y-138800D01*
X36160Y-135920D01*
X34160Y-133360D01*
X31720Y-131240D01*
X28900Y-129620D01*
X25840Y-128560D01*
X22620Y-128100D01*
X19380Y-128260D01*
X16220Y-129019D01*
X13280Y-130360D01*
X10620Y-132240D01*
X8360Y-134620D01*
X7040Y-135540D01*
X5460Y-135860D01*
X-49800Y-135860D01*
X-52939Y-136200D01*
X-55740Y-137100D01*
X-58339Y-138600D01*
X-60100Y-140120D01*
X-89840Y-169860D01*
X-91840Y-172320D01*
X-93180Y-174940D01*
X-93960Y-177840D01*
X-94140Y-180159D01*
X-94140Y-222900D01*
X-94480Y-224520D01*
X-95460Y-225880D01*
X-96900Y-226700D01*
X-98560Y-226880D01*
X-100140Y-226360D01*
X-103140Y-224620D01*
X-106220Y-223560D01*
X-109420Y-223100D01*
X-112660Y-223260D01*
X-115820Y-224020D01*
X-118780Y-225380D01*
X-121420Y-227260D01*
X-123660Y-229600D01*
X-125399Y-232340D01*
X-126620Y-235340D01*
X-127240Y-238540D01*
X-127240Y-241780D01*
X-126620Y-244960D01*
X-125399Y-247979D01*
X-123660Y-250720D01*
X-121420Y-253060D01*
X-118780Y-254940D01*
X-115820Y-256280D01*
X-112660Y-257060D01*
X-109420Y-257200D01*
X-107040Y-256860D01*
X-105399Y-256980D01*
X-103920Y-257740D01*
X-102899Y-259040D01*
X-102480Y-260640D01*
X-102739Y-262260D01*
X-103640Y-263660D01*
X-118360Y-278360D01*
X-119660Y-279240D01*
X-121180Y-279540D01*
X-137420Y-279540D01*
X-138460Y-279400D01*
X-139420Y-279000D01*
X-140900Y-278140D01*
X-143980Y-277080D01*
X-147180Y-276620D01*
X-150420Y-276780D01*
X-153580Y-277540D01*
X-156540Y-278880D01*
X-159180Y-280780D01*
X-161420Y-283120D01*
X-163160Y-285860D01*
X-164380Y-288860D01*
X-165000Y-292060D01*
X-165000Y-295300D01*
X-164380Y-298480D01*
X-163160Y-301500D01*
X-161420Y-304220D01*
X-159180Y-306580D01*
X-156540Y-308460D01*
X-153580Y-309800D01*
X-150420Y-310580D01*
G37*
G36*
X221820Y-307060D02*
G01*
X225020Y-306600D01*
X228100Y-305520D01*
X230900Y-303900D01*
X233359Y-301780D01*
X235360Y-299220D01*
X236840Y-296340D01*
X237760Y-293240D01*
X238080Y-290000D01*
X237760Y-286760D01*
X236840Y-283660D01*
X235360Y-280780D01*
X233359Y-278220D01*
X230900Y-276100D01*
X228100Y-274480D01*
X225020Y-273400D01*
X221820Y-272940D01*
X218580Y-273100D01*
X215420Y-273860D01*
X212460Y-275220D01*
X209820Y-277100D01*
X207580Y-279440D01*
X205820Y-282180D01*
X204620Y-285200D01*
X204000Y-288380D01*
X204000Y-291620D01*
X204620Y-294800D01*
X205820Y-297820D01*
X207580Y-300560D01*
X209820Y-302900D01*
X212460Y-304780D01*
X215420Y-306140D01*
X218580Y-306900D01*
G37*
G36*
X280820Y-289060D02*
G01*
X284020Y-288600D01*
X287100Y-287520D01*
X289900Y-285900D01*
X292360Y-283780D01*
X294360Y-281220D01*
X295840Y-278340D01*
X296760Y-275240D01*
X297080Y-272000D01*
X296760Y-268760D01*
X295840Y-265660D01*
X294360Y-262780D01*
X292360Y-260219D01*
X289900Y-258100D01*
X287100Y-256480D01*
X284020Y-255400D01*
X280820Y-254940D01*
X277580Y-255100D01*
X274420Y-255859D01*
X271460Y-257220D01*
X268820Y-259100D01*
X266580Y-261439D01*
X264820Y-264180D01*
X263620Y-267200D01*
X263000Y-270380D01*
X263000Y-273620D01*
X263620Y-276800D01*
X264820Y-279820D01*
X266580Y-282560D01*
X268820Y-284900D01*
X271460Y-286780D01*
X274420Y-288140D01*
X277580Y-288900D01*
G37*
G36*
X131820Y-289060D02*
G01*
X135020Y-288600D01*
X138100Y-287520D01*
X140900Y-285900D01*
X143360Y-283780D01*
X145360Y-281220D01*
X146840Y-278340D01*
X147760Y-275240D01*
X148080Y-272000D01*
X147760Y-268760D01*
X146840Y-265660D01*
X145380Y-262800D01*
X144940Y-261200D01*
X145200Y-259560D01*
X146080Y-258160D01*
X147480Y-257240D01*
X149120Y-256980D01*
X150820Y-257060D01*
X154020Y-256600D01*
X157100Y-255520D01*
X159900Y-253900D01*
X162360Y-251780D01*
X164360Y-249220D01*
X165840Y-246340D01*
X166759Y-243240D01*
X167079Y-240000D01*
X166759Y-236759D01*
X165840Y-233660D01*
X164360Y-230780D01*
X162360Y-228220D01*
X159900Y-226100D01*
X157100Y-224480D01*
X154020Y-223400D01*
X150820Y-222940D01*
X147580Y-223100D01*
X144420Y-223860D01*
X143080Y-224480D01*
X141480Y-224840D01*
X139880Y-224520D01*
X138520Y-223600D01*
X137660Y-222200D01*
X137420Y-220580D01*
X138820Y-215820D01*
X139120Y-212600D01*
X138820Y-209360D01*
X137900Y-206260D01*
X136400Y-203359D01*
X134400Y-200820D01*
X131940Y-198700D01*
X129140Y-197060D01*
X126080Y-196000D01*
X122860Y-195539D01*
X119620Y-195700D01*
X116460Y-196460D01*
X113520Y-197820D01*
X110860Y-199700D01*
X108620Y-202040D01*
X106880Y-204780D01*
X105520Y-208160D01*
X104580Y-209560D01*
X103120Y-210440D01*
X101420Y-210640D01*
X99800Y-210140D01*
X97640Y-208880D01*
X94580Y-207820D01*
X91359Y-207360D01*
X88120Y-207520D01*
X84960Y-208280D01*
X82020Y-209620D01*
X79380Y-211500D01*
X77140Y-213860D01*
X75380Y-216580D01*
X74180Y-219600D01*
X73560Y-222780D01*
X73560Y-226040D01*
X74180Y-229220D01*
X75380Y-232240D01*
X77140Y-234960D01*
X79380Y-237320D01*
X82020Y-239200D01*
X84960Y-240539D01*
X88120Y-241300D01*
X91359Y-241460D01*
X94580Y-241000D01*
X97640Y-239940D01*
X100460Y-238320D01*
X102899Y-236180D01*
X104920Y-233640D01*
X106400Y-230760D01*
X106860Y-229160D01*
X107560Y-227820D01*
X108699Y-226840D01*
X110140Y-226340D01*
X111640Y-226400D01*
X113520Y-227380D01*
X116460Y-228740D01*
X119620Y-229500D01*
X122860Y-229660D01*
X126080Y-229180D01*
X129340Y-228060D01*
X130840Y-227840D01*
X132320Y-228200D01*
X133540Y-229080D01*
X134360Y-230340D01*
X134660Y-231840D01*
X134360Y-233320D01*
X133620Y-235200D01*
X133000Y-238380D01*
X133000Y-241620D01*
X133620Y-244800D01*
X134860Y-247900D01*
X135440Y-248900D01*
X135980Y-250460D01*
X135840Y-252079D01*
X135060Y-253520D01*
X133780Y-254520D01*
X132200Y-254920D01*
X128560Y-255100D01*
X125420Y-255859D01*
X122460Y-257220D01*
X119820Y-259100D01*
X117579Y-261439D01*
X115820Y-264180D01*
X114620Y-267200D01*
X114000Y-270380D01*
X114000Y-273620D01*
X114620Y-276800D01*
X115820Y-279820D01*
X117579Y-282560D01*
X119820Y-284900D01*
X122460Y-286780D01*
X125420Y-288140D01*
X128560Y-288900D01*
G37*
G36*
X244899Y-261140D02*
G01*
X248120Y-260680D01*
X251180Y-259620D01*
X254000Y-258000D01*
X256439Y-255880D01*
X258460Y-253320D01*
X259940Y-250440D01*
X260859Y-247320D01*
X261160Y-244100D01*
X260859Y-240859D01*
X259940Y-237740D01*
X258460Y-234860D01*
X256439Y-232320D01*
X254000Y-230180D01*
X251180Y-228560D01*
X248120Y-227500D01*
X244899Y-227040D01*
X241660Y-227200D01*
X238520Y-227960D01*
X235560Y-229300D01*
X232920Y-231200D01*
X230680Y-233540D01*
X228920Y-236280D01*
X227719Y-239280D01*
X227100Y-242480D01*
X227100Y-245720D01*
X227719Y-248900D01*
X228920Y-251920D01*
X230680Y-254640D01*
X232920Y-257000D01*
X235560Y-258880D01*
X238520Y-260219D01*
X241660Y-261000D01*
G37*
G36*
X16560Y-209960D02*
G01*
X19780Y-209500D01*
X22839Y-208440D01*
X25660Y-206820D01*
X28100Y-204700D01*
X30099Y-202140D01*
X31600Y-199259D01*
X32519Y-196140D01*
X32820Y-192920D01*
X32519Y-189680D01*
X31600Y-186560D01*
X30099Y-183680D01*
X28100Y-181140D01*
X25660Y-179000D01*
X22839Y-177380D01*
X19780Y-176320D01*
X16560Y-175859D01*
X13320Y-176020D01*
X10160Y-176780D01*
X7220Y-178120D01*
X4560Y-180020D01*
X2320Y-182360D01*
X580Y-185100D01*
X-640Y-188100D01*
X-1240Y-191300D01*
X-1240Y-194540D01*
X-640Y-197719D01*
X580Y-200740D01*
X2320Y-203460D01*
X4560Y-205820D01*
X7220Y-207700D01*
X10160Y-209040D01*
X13320Y-209820D01*
G37*
G36*
X263820Y-107060D02*
G01*
X267020Y-106600D01*
X270100Y-105520D01*
X272900Y-103900D01*
X275360Y-101780D01*
X277360Y-99220D01*
X278840Y-96340D01*
X279760Y-93240D01*
X280080Y-90000D01*
X279760Y-86760D01*
X278840Y-83660D01*
X277360Y-80780D01*
X275360Y-78220D01*
X272900Y-76100D01*
X270100Y-74480D01*
X267020Y-73400D01*
X263820Y-72940D01*
X260580Y-73100D01*
X257420Y-73860D01*
X254460Y-75220D01*
X251820Y-77100D01*
X249579Y-79440D01*
X247820Y-82180D01*
X246620Y-85200D01*
X246000Y-88379D01*
X246000Y-91620D01*
X246620Y-94800D01*
X247820Y-97820D01*
X249579Y-100559D01*
X251820Y-102899D01*
X254460Y-104780D01*
X257420Y-106140D01*
X260580Y-106900D01*
G37*
G36*
X146480Y49880D02*
G01*
X149700Y50340D01*
X152760Y51400D01*
X155580Y53019D01*
X158020Y55140D01*
X160040Y57699D01*
X161520Y60580D01*
X162440Y63700D01*
X162740Y66920D01*
X162440Y70160D01*
X161439Y73520D01*
X161300Y75060D01*
X161740Y76520D01*
X162700Y77720D01*
X164040Y78460D01*
X165560Y78640D01*
X170260Y78300D01*
X175080Y78660D01*
X179780Y79680D01*
X184300Y81359D01*
X188540Y83680D01*
X192399Y86560D01*
X195820Y89980D01*
X198700Y93840D01*
X201020Y98080D01*
X202700Y102600D01*
X203740Y107300D01*
X204080Y112260D01*
X204080Y143480D01*
X203740Y148420D01*
X202700Y153140D01*
X201020Y157660D01*
X198700Y161900D01*
X195820Y165760D01*
X192399Y169180D01*
X188540Y172060D01*
X184300Y174380D01*
X179780Y176060D01*
X175080Y177079D01*
X170260Y177420D01*
X165460Y177079D01*
X160740Y176060D01*
X156220Y174380D01*
X151980Y172060D01*
X148120Y169180D01*
X144720Y165760D01*
X141680Y161660D01*
X140620Y160400D01*
X139140Y159700D01*
X137520Y159620D01*
X135980Y160219D01*
X134820Y161380D01*
X133840Y162880D01*
X131060Y165920D01*
X127800Y168440D01*
X124179Y170400D01*
X120280Y171740D01*
X116220Y172420D01*
X112100Y172420D01*
X108040Y171740D01*
X104140Y170400D01*
X100520Y168440D01*
X97260Y165920D01*
X94480Y162880D01*
X92220Y159440D01*
X90559Y155660D01*
X89560Y151660D01*
X89200Y147560D01*
X89560Y143440D01*
X90559Y139460D01*
X92220Y135680D01*
X94480Y132240D01*
X97260Y129200D01*
X100520Y126660D01*
X104140Y124700D01*
X108040Y123360D01*
X112100Y122700D01*
X116220Y122700D01*
X120280Y123360D01*
X124179Y124700D01*
X127800Y126660D01*
X129980Y128360D01*
X131580Y129120D01*
X133360Y129100D01*
X134960Y128320D01*
X136060Y126940D01*
X136440Y125200D01*
X136440Y112260D01*
X136800Y107300D01*
X137820Y102600D01*
X139500Y98080D01*
X141820Y93840D01*
X144740Y89920D01*
X145420Y88520D01*
X145500Y86940D01*
X144980Y85460D01*
X143920Y84300D01*
X142480Y83640D01*
X140080Y83059D01*
X137140Y81720D01*
X134480Y79840D01*
X132240Y77480D01*
X130500Y74760D01*
X129280Y71740D01*
X128680Y68560D01*
X128680Y65300D01*
X129280Y62120D01*
X130500Y59100D01*
X132240Y56380D01*
X134480Y54020D01*
X137140Y52140D01*
X140080Y50800D01*
X143240Y50039D01*
G37*
G36*
X-382500Y163920D02*
G01*
X-380680Y164760D01*
X-376160Y167640D01*
X-372060Y171100D01*
X-368459Y175100D01*
X-365420Y179520D01*
X-363920Y182500D01*
X-382500Y182500D01*
G37*
G36*
X-382500Y217500D02*
G01*
X-363920Y217500D01*
X-365420Y220479D01*
X-368459Y224899D01*
X-372060Y228900D01*
X-376160Y232360D01*
X-380680Y235240D01*
X-382500Y236080D01*
G37*

%LPD*%
D10*
X205000Y25000D02*
G01*
X221999Y25000D01*
X295000Y98000D01*
X295000Y215000D01*
X380000Y300000D01*
X400000Y300000D01*
X205000Y25000D02*
G01*
X176999Y-3000D01*
X113000Y-3000D01*
X45000Y-95000D02*
G01*
X45000Y-70999D01*
X113000Y-3000D01*
D11*
X21808Y-145147D02*
G01*
X16956Y-150000D01*
X-50000Y-150000D01*
X-80000Y-180000D01*
X-80000Y-260000D01*
X-113674Y-293674D01*
X-147995Y-293674D01*
D10*
X-155000Y-235000D02*
G01*
X-190000Y-200000D01*
X-265000Y-200000D01*
X-285000Y-180000D01*
X-285000Y-140000D01*
X-255000Y-110000D01*
X-205000Y-110000D01*
X-180000Y-85000D01*
X-145000Y-85000D01*
X-135000Y-75000D01*
X-135000Y-35000D01*
X-255000Y-165000D02*
G01*
X-240000Y-150000D01*
X-170000Y-150000D01*
X-115000Y-95000D01*
X45000Y-95000D01*
D12*
X-94499Y24792D02*
G01*
X-94292Y25000D01*
X-55000Y25000D01*
X-45000Y15000D01*
X-25000Y15000D01*
X-15000Y5000D01*
X30000Y5000D01*
X60000Y35000D01*
X60000Y50000D01*
X65000Y55000D01*
X95000Y55000D01*
X-94499Y24800D02*
G01*
X-210000Y25000D01*
X-285000Y100000D01*
X-285000Y250000D01*
X-335000Y300000D01*
X-400000Y300000D01*
D13*
G01*
X-170289Y292429D03*
D14*
G01*
X-170289Y127869D03*
G01*
X170270Y127869D03*
D13*
G01*
X170270Y292429D03*
D15*
G01*
X-400000Y300000D03*
G01*
X-400000Y200000D03*
G01*
X-400000Y-900000D03*
G01*
X-400000Y-1000000D03*
G01*
X-400000Y-1100000D03*
G01*
X-400000Y-1200000D03*
G01*
X-400000Y-1300000D03*
G01*
X400000Y-1300000D03*
G01*
X400000Y-1200000D03*
G01*
X400000Y-1100000D03*
G01*
X400000Y-1000000D03*
G01*
X400000Y-900000D03*
G01*
X400000Y-800000D03*
G01*
X400000Y-700000D03*
G01*
X400000Y-600000D03*
G01*
X400000Y-500000D03*
G01*
X400000Y-400000D03*
G01*
X400000Y-300000D03*
G01*
X400000Y300000D03*
D16*
G01*
X400000Y200000D03*
D15*
G01*
X-400000Y-800000D03*
G01*
X400000Y-200000D03*
G01*
X-400000Y-700000D03*
G01*
X-400000Y-600000D03*
G01*
X-400000Y-500000D03*
G01*
X-400000Y-400000D03*
G01*
X-400000Y-300000D03*
G01*
X-400000Y-200000D03*
G01*
X-400000Y-100000D03*
G01*
X-400000Y0D03*
G01*
X-400000Y100000D03*
G01*
X400000Y100000D03*
G01*
X400000Y0D03*
G01*
X400000Y-100000D03*
D17*
G01*
X-27840Y-944589D03*
G01*
X-55680Y-972429D03*
G01*
X27829Y-1000270D03*
G01*
X-10Y-1028099D03*
G01*
X0Y-916750D03*
G01*
X55680Y-972429D03*
G01*
X0Y-972429D03*
G01*
X27809Y-944589D03*
G01*
X-27840Y-1000270D03*
D18*
G01*
X96999Y-1146999D03*
G01*
X118110Y-1145670D03*
G01*
X137800Y-1145670D03*
G01*
X157480Y-1145670D03*
G01*
X177170Y-1145670D03*
G01*
X220000Y-1170000D03*
G01*
X-245000Y-820000D03*
G01*
X-225999Y-831999D03*
G01*
X-209000Y-845999D03*
G01*
X-196849Y-862199D03*
G01*
X-185039Y-877950D03*
G01*
X-118110Y-149609D03*
G01*
X-31500Y-23620D03*
G01*
X145670Y66930D03*
G01*
X-141729Y62989D03*
G01*
X-208659Y-720470D03*
G01*
X78739Y-724409D03*
G01*
X-129920Y-484250D03*
G01*
X129920Y-484250D03*
G01*
X0Y-614169D03*
G01*
X-110239Y-240160D03*
G01*
X-74800Y-330709D03*
G01*
X-15749Y-307089D03*
G01*
X90549Y-224409D03*
G01*
X244090Y-244090D03*
G01*
X45000Y-95000D03*
G01*
X122049Y-212600D03*
G01*
X-55120Y-208659D03*
G01*
X-70869Y-385830D03*
G01*
X-248029Y-240160D03*
G01*
X-205100Y-62080D03*
G01*
X15749Y-192910D03*
G01*
X-90549Y-1244090D03*
G01*
X-251970Y-1051179D03*
G01*
X204720Y-795270D03*
G01*
X-110239Y-744090D03*
G01*
X-7869Y55120D03*
G01*
X31500Y55120D03*
G01*
X0Y31500D03*
G01*
X75000Y-630000D03*
G01*
X-75000Y-720000D03*
G01*
X-53659Y-1159400D03*
G01*
X45000Y-275000D03*
G01*
X295000Y-120000D03*
G01*
X270000Y20000D03*
G01*
X-94499Y24789D03*
G01*
X95000Y55000D03*
G01*
X-255000Y-165000D03*
G01*
X-155000Y-235000D03*
G01*
X-135000Y-35000D03*
G01*
X-148000Y-293670D03*
G01*
X21810Y-145149D03*
G01*
X150000Y-240000D03*
G01*
X117579Y-32480D03*
G01*
X180999Y-1238000D03*
G01*
X220999Y-290000D03*
G01*
X205999Y-1076999D03*
G01*
X280000Y-271999D03*
G01*
X130999Y-271999D03*
G01*
X206999Y50000D03*
G01*
X263000Y-90000D03*
G01*
X124000Y-860999D03*
G01*
X345000Y-1245000D03*
G01*
X345000Y-1150000D03*
G01*
X345000Y-1065000D03*
G01*
X310000Y-1065000D03*
G01*
X275000Y-1065000D03*
G01*
X310000Y-1150000D03*
G01*
X345000Y-975000D03*
G01*
X310000Y-995000D03*
G01*
X250000Y-965000D03*
G01*
X275000Y-940000D03*
G01*
X330000Y-880000D03*
G01*
X-225000Y-1285000D03*
G01*
X-165000Y-1285000D03*
G01*
X-105000Y-1285000D03*
G01*
X-295000Y-1255000D03*
G01*
X-340000Y-1255000D03*
G01*
X-265000Y-1195000D03*
G01*
X-340000Y-1155000D03*
G01*
X-45000Y-1285000D03*
G01*
X-45000Y-520000D03*
G01*
X5000Y-520000D03*
G01*
X-45000Y-470000D03*
G01*
X50000Y-470000D03*
G01*
X5000Y-470000D03*
G01*
X50000Y-520000D03*
G01*
X-45000Y-415000D03*
G01*
X5000Y-415000D03*
G01*
X50000Y-415000D03*
G01*
X155000Y-400000D03*
G01*
X200000Y-400000D03*
G01*
X200000Y-350000D03*
G01*
X155000Y-350000D03*
G01*
X345000Y-515000D03*
G01*
X335000Y-430000D03*
G01*
X335000Y-370000D03*
G01*
X245000Y-910000D03*
G01*
X305000Y-855000D03*
M02*
